<svg width="119" height="32" viewBox="0 0 119 32" fill="none" xmlns="http://www.w3.org/2000/svg">
<path d="M119 24.0964C115.977 26.0948 112.473 28.4925 108.488 31.2895C105.639 27.4009 103.213 24.2646 101.213 21.8777L93.3326 31.4695L91.2536 27.8729L98.8794 18.8447C95.6664 15.1646 92.8675 12.0795 90.4835 9.59036V8.28924C94.7223 5.97614 98.3601 3.86759 101.395 1.96558C103.578 5.03398 105.683 7.80243 107.712 10.268L114.726 2.38551L116.726 5.81387L110.179 13.3905C112.944 16.6713 115.888 19.7987 119 22.7599V24.0964ZM75.1523 19.7151C75.1917 17.2319 74.813 14.7604 74.0312 12.4021C73.0605 9.60905 71.5391 7.77981 69.4896 6.91731C67.6633 8.51544 66.7496 11.2327 66.7496 15.0692C66.7073 17.3715 67.1194 19.66 67.9622 21.806C68.9644 24.2449 70.4396 25.9345 72.3878 26.8777C74.2141 25.2235 75.1278 22.8356 75.1278 19.7151H75.1523ZM89.0703 16.9329C89.0703 21.6093 86.9657 25.1753 82.7535 27.633C79.2583 29.6628 74.9822 30.6797 69.9262 30.6847C65.3315 30.6847 61.4389 29.5792 58.2505 27.3694C54.7691 25.0976 52.7294 21.2051 52.8612 17.0824C52.8612 12.288 54.8251 8.67082 58.7531 6.2338C62.0556 4.20295 66.2845 3.18605 71.4417 3.18212C76.2184 3.18212 80.2378 4.26098 83.499 6.41968C87.125 8.69148 89.265 12.6912 89.1244 16.9329H89.0703ZM37.9116 22.7599C37.9361 21.4165 37.2871 20.1488 36.1777 19.3729C35.0831 18.6038 33.7859 18.1662 32.4435 18.114V27.4835C33.7967 27.4127 35.0998 26.9495 36.1905 26.1529C37.2949 25.372 37.9391 24.1023 37.9116 22.7599ZM36.7904 10.9928C36.8297 9.83819 36.3921 8.71606 35.5778 7.88799C34.7173 7.0609 33.6089 6.53278 32.4189 6.38329V15.561C33.6119 15.4636 34.7301 14.9512 35.5778 14.1153C36.3901 13.2793 36.8268 12.1533 36.7904 10.9928ZM50.8303 22.7599C50.8303 25.7565 49.2135 27.8906 45.9809 29.1623C44.1536 29.8733 40.6879 30.2283 35.5837 30.2283H20.8829L19.6703 29.0836C19.8768 24.6118 19.9791 20.5235 19.9791 16.8198C19.9791 13.1151 19.8768 9.11928 19.6703 4.83139L20.9793 3.53617H34.5599C39.077 3.53617 42.1257 3.75253 43.6894 4.18328C47.4925 5.22575 49.3925 7.14351 49.3886 9.93162C49.3886 12.8014 47.6429 14.783 44.1506 15.8786C45.8619 16.2622 47.4511 17.0588 48.7759 18.1976C50.1085 19.3443 50.8608 21.0143 50.8313 22.7599" fill="white"/>
<path d="M0 11.8016H10.8181V29.5039H0V11.8016ZM5.40905 0C8.39681 0 10.8181 2.42128 10.8181 5.40904C10.8181 8.3968 8.39681 10.8181 5.40905 10.8181C2.42129 10.8181 0 8.3968 0 5.40904C0 2.42128 2.42129 0 5.40905 0Z" fill="white"/>
</svg>
