<?xml version="1.0" encoding="utf-8"?><svg xmlns="http://www.w3.org/2000/svg" xmlns:xlink="http://www.w3.org/1999/xlink"><symbol viewBox="0 0 10 6" id="arrow-down" xmlns="http://www.w3.org/2000/svg"><path d="M1 1l4 4 4-4"/></symbol><symbol viewBox="0 0 14 13" id="clip" xmlns="http://www.w3.org/2000/svg"><path d="M13 5.851L7.563 11.36a3.81 3.81 0 01-5.437 0 3.931 3.931 0 010-5.508l4.53-4.59a2.54 2.54 0 013.625 0c1.001 1.014 1.001 2.658 0 3.672l-4.53 4.59a1.27 1.27 0 01-1.813 0 1.31 1.31 0 010-1.836l4.531-4.59"/></symbol><symbol viewBox="0 0 12 12" id="close" xmlns="http://www.w3.org/2000/svg"><path d="M.75.75l10.5 10.5m-10.5 0L11.25.75"/></symbol><symbol viewBox="0 0 10 10" id="close--mini" xmlns="http://www.w3.org/2000/svg"><path d="M1 1l8 8M1 9l8-8"/></symbol><symbol viewBox="0 0 119 32" id="logo" xmlns="http://www.w3.org/2000/svg"><path d="M119 24.096a464.494 464.494 0 00-10.512 7.194c-2.849-3.89-5.275-7.025-7.275-9.412l-7.88 9.591-2.08-3.596 7.626-9.028c-3.213-3.68-6.011-6.765-8.395-9.255v-1.3c4.238-2.314 7.876-4.422 10.911-6.324 2.183 3.068 4.288 5.836 6.317 8.302l7.014-7.882 2 3.428-6.547 7.576A117.102 117.102 0 00119 22.76v1.336zm-43.848-4.38c.04-2.484-.339-4.956-1.12-7.314-.971-2.793-2.493-4.622-4.542-5.485-1.827 1.598-2.74 4.316-2.74 8.152-.043 2.303.37 4.591 1.212 6.737 1.002 2.439 2.478 4.128 4.426 5.072 1.826-1.654 2.74-4.042 2.74-7.163h.024zm13.918-2.783c0 4.676-2.104 8.242-6.316 10.7-3.496 2.03-7.772 3.047-12.828 3.052-4.594 0-8.487-1.106-11.675-3.316-3.482-2.271-5.522-6.164-5.39-10.287 0-4.794 1.964-8.411 5.892-10.848 3.303-2.031 7.531-3.048 12.689-3.052 4.776 0 8.796 1.079 12.057 3.238 3.626 2.271 5.766 6.271 5.625 10.513h-.054zM37.912 22.76a4.044 4.044 0 00-1.734-3.387 6.967 6.967 0 00-3.734-1.259v9.37a6.973 6.973 0 003.746-1.331 4.056 4.056 0 001.722-3.393zM36.79 10.993a4.224 4.224 0 00-1.212-3.105 5.558 5.558 0 00-3.16-1.505v9.178a5.088 5.088 0 003.16-1.446 4.287 4.287 0 001.212-3.122zM50.83 22.76c0 2.996-1.616 5.13-4.85 6.402-1.826.711-5.292 1.066-10.396 1.066H20.883l-1.213-1.144c.207-4.472.31-8.56.31-12.264 0-3.705-.103-7.7-.31-11.989l1.31-1.295h13.58c4.517 0 7.566.217 9.13.647 3.803 1.043 5.703 2.96 5.699 5.749 0 2.87-1.746 4.851-5.238 5.947 1.71.383 3.3 1.18 4.625 2.319a5.889 5.889 0 012.055 4.562M0 11.802h10.818v17.702H0V11.802zM5.409 0a5.408 5.408 0 110 10.818A5.409 5.409 0 115.409 0z"/></symbol><symbol viewBox="0 0 22 22" id="map" xmlns="http://www.w3.org/2000/svg"><path d="M2.75 6.05l5.5-3.3v13.2l-5.5 3.3V6.05zM13.75 6.05l5.5-3.3v13.2l-5.5 3.3V6.05zM13.75 6.05l-5.5-3.3v13.2l5.5 3.3V6.05z"/></symbol><symbol viewBox="0 0 26 26" id="plus" xmlns="http://www.w3.org/2000/svg"><path d="M13 1.667v22.666M1.667 13h22.666"/></symbol><symbol viewBox="0 0 9 7" id="ready" xmlns="http://www.w3.org/2000/svg"><path d="M1.125 3.5l2.25 2.25 4.5-4.5"/></symbol><symbol viewBox="0 0 24 24" id="search" xmlns="http://www.w3.org/2000/svg"><path d="M14.6 15A7.5 7.5 0 104.401 4a7.5 7.5 0 0010.197 11zm0 0l7.4 7"/></symbol><symbol viewBox="0 0 15 15" id="textarea" xmlns="http://www.w3.org/2000/svg"><path d="M1.414 14.142L0 12.728 12.728 0l1.414 1.414L1.414 14.142zM13.435 7.778l-5.657 5.657-1.414-1.414 5.657-5.657 1.414 1.414z"/></symbol></svg>