<svg width="44" height="30" viewBox="0 0 44 30" fill="none" xmlns="http://www.w3.org/2000/svg">
<g clip-path="url(#clip0_1_2452)">
<path d="M0 0H44V30H0V0Z" fill="#D0103A"/>
<path d="M0 0H30V30H0V0Z" fill="#FEDF00"/>
<path d="M0 0H14V30H0V0Z" fill="#0018A8"/>
<path d="M20.7726 9C21.2539 9 21.4539 9.4125 21.9351 9.4125C22.2289 9.4125 22.4039 9.31875 22.6664 9.16875C22.8476 9.06875 22.9601 9.0125 23.1664 9.0125C23.3789 9.0125 23.5101 9.075 23.6226 9.2625C23.6851 9.3625 23.7351 9.56875 23.7039 9.68125C23.6667 9.8598 23.6101 10.0338 23.5351 10.2C23.4914 10.3 23.4539 10.3562 23.4539 10.4625C23.4539 10.7187 23.8039 10.8062 24.0414 10.8125C24.0914 10.8125 24.5226 10.8125 24.7914 10.55C24.6476 10.5437 24.4851 10.425 24.4851 10.2812C24.4851 10.1187 24.5976 10.0125 24.7539 9.9625C24.7851 9.95625 24.8351 9.98125 24.8601 9.9625C24.9039 9.94375 24.8851 9.9 24.9226 9.875C24.9976 9.8125 25.0476 9.775 25.1476 9.775C25.2101 9.775 25.2476 9.78125 25.3039 9.81875C25.3289 9.84375 25.3414 9.86875 25.3664 9.86875C25.4414 9.86875 25.4789 9.81875 25.5539 9.81875C25.6041 9.81951 25.6534 9.83238 25.6976 9.85625C25.7351 9.875 25.7351 9.95 25.7851 9.95C25.8101 9.95 25.9351 9.89375 26.0039 9.89375C26.1414 9.89375 26.2164 9.94375 26.3039 10.05C26.3289 10.0812 26.3414 10.1375 26.3664 10.1375C26.4277 10.1427 26.4869 10.1624 26.539 10.195C26.5912 10.2276 26.6349 10.2722 26.6664 10.325C26.6851 10.35 26.7101 10.4125 26.7351 10.4187C26.7726 10.4375 26.7976 10.4312 26.8414 10.4625C26.8926 10.4947 26.9352 10.5388 26.9657 10.591C26.9962 10.6433 27.0136 10.7021 27.0164 10.7625C27.0164 10.8062 26.9976 10.8625 26.9851 10.9C26.8726 11.3062 26.5914 11.4375 26.3101 11.7937C26.1851 11.9437 26.0914 12.0625 26.0914 12.2562C26.0914 12.3 26.1539 12.3875 26.1726 12.425C26.1601 12.3375 26.2039 12.225 26.2976 12.2188C26.3598 12.2184 26.4199 12.2413 26.4661 12.2829C26.5124 12.3245 26.5414 12.3819 26.5476 12.4437C26.5491 12.4821 26.5428 12.5204 26.5289 12.5562C26.6047 12.5088 26.6901 12.4789 26.7789 12.4688H26.8976C27.1039 12.4688 27.3351 12.5875 27.4789 12.7062C27.6293 12.8354 27.7485 12.997 27.8275 13.1789C27.9066 13.3607 27.9433 13.5581 27.9351 13.7562C27.8851 14.0812 27.9164 14.6812 27.0726 14.9187C27.2289 14.9812 27.3351 15.1062 27.3351 15.2437C27.3368 15.2812 27.331 15.3186 27.318 15.3538C27.305 15.3889 27.2851 15.4212 27.2595 15.4485C27.2339 15.4759 27.203 15.4979 27.1688 15.5131C27.1346 15.5284 27.0976 15.5367 27.0601 15.5375C27.0195 15.54 26.9787 15.5335 26.9409 15.5184C26.9031 15.5032 26.8691 15.4799 26.8414 15.45C26.6664 15.625 26.6351 15.8062 26.6351 16.0562C26.6351 16.2062 26.6601 16.2937 26.7226 16.4312C26.7851 16.5687 26.8351 16.65 26.9539 16.75C27.0164 16.6562 27.0851 16.5875 27.2039 16.5875C27.3101 16.5875 27.4039 16.625 27.4476 16.725C27.4601 16.7563 27.4476 16.7812 27.4664 16.8125C27.4851 16.85 27.5164 16.8562 27.5351 16.8937C27.5664 16.9562 27.5351 17.0063 27.5664 17.0625C27.5851 17.1062 27.6226 17.1125 27.6414 17.15C27.6664 17.2125 27.6726 17.25 27.6726 17.3188C27.6726 17.5063 27.5039 17.6437 27.3164 17.6437C27.2539 17.6437 27.2289 17.6187 27.1726 17.625C27.2789 17.7312 27.3601 17.7812 27.4414 17.9062C27.569 18.0963 27.6345 18.3212 27.6289 18.55C27.6339 18.7948 27.5735 19.0364 27.4539 19.25C27.3606 19.4645 27.2091 19.6486 27.0164 19.7812C26.7216 19.9958 26.3778 20.1333 26.0164 20.1812C25.7897 20.2275 25.5599 20.2567 25.3289 20.2687L24.4476 20.3188C23.9976 20.3438 23.6851 20.4125 23.3664 20.7312C23.5164 20.8375 23.6164 20.95 23.6164 21.1313C23.6164 21.3188 23.5039 21.4625 23.3226 21.5187C23.2789 21.5312 23.2476 21.5187 23.2039 21.5437C23.1601 21.5687 23.1601 21.625 23.1164 21.65C23.0461 21.696 22.9627 21.718 22.8789 21.7125C22.8048 21.7178 22.7305 21.7065 22.6613 21.6795C22.5921 21.6525 22.5298 21.6104 22.4789 21.5562C22.3414 21.6687 22.2914 21.7687 22.1351 21.8625C22.0851 21.8875 22.0601 21.925 22.0039 21.925C21.9101 21.925 21.8664 21.8625 21.7914 21.8125C21.6893 21.7414 21.5968 21.6574 21.5164 21.5625C21.3726 21.6438 21.2914 21.7125 21.1226 21.7125C21.0349 21.7172 20.9478 21.6955 20.8726 21.65C20.8351 21.6187 20.8226 21.575 20.7789 21.55C20.7351 21.5187 20.6976 21.5312 20.6476 21.5063C20.4601 21.425 20.3351 21.2875 20.3351 21.0812C20.3351 20.9 20.4476 20.7875 20.6101 20.7062C20.2976 20.3937 19.9851 20.3438 19.5476 20.3188L18.6726 20.2687C18.3976 20.25 18.2476 20.225 17.9851 20.1812C17.7789 20.15 17.6601 20.1375 17.4726 20.05C16.8351 19.75 16.4226 19.3437 16.3476 18.6437C16.3351 18.5812 16.3351 18.55 16.3351 18.4875C16.3351 18.125 16.4789 17.9 16.7351 17.6437C16.6726 17.625 16.6289 17.6438 16.5601 17.625C16.4039 17.5625 16.2851 17.4563 16.2851 17.2812C16.2851 17.2188 16.2851 17.175 16.3164 17.1187C16.3414 17.0812 16.3789 17.075 16.3914 17.0312C16.4039 16.9688 16.3914 16.9313 16.4164 16.875C16.4351 16.8438 16.4664 16.8375 16.4789 16.8C16.5414 16.6812 16.6039 16.5875 16.7351 16.5875C16.8476 16.5875 16.9226 16.65 16.9726 16.7437C17.0851 16.6937 17.1101 16.6125 17.1726 16.5125C17.2484 16.3893 17.2955 16.2506 17.3106 16.1068C17.3258 15.963 17.3085 15.8175 17.2601 15.6812C17.2351 15.5875 17.2226 15.525 17.1476 15.45C17.0851 15.5125 17.0226 15.5375 16.9351 15.5375C16.7539 15.5375 16.6226 15.3812 16.6226 15.2062C16.6207 15.1449 16.6377 15.0844 16.6712 15.033C16.7047 14.9816 16.7532 14.9417 16.8101 14.9187C16.7101 14.8312 16.6226 14.825 16.5164 14.7562C16.3539 14.6562 16.2976 14.5437 16.1914 14.3812C16.1164 14.2812 16.0976 14.2062 16.0664 14.0875C16.0118 13.9311 15.9905 13.7651 16.0039 13.6C16.0414 13.2875 16.0976 13.1 16.2914 12.8562C16.4039 12.7125 16.4789 12.625 16.6539 12.55C16.7976 12.4875 16.8851 12.4437 17.0414 12.4437L17.1664 12.45C17.2276 12.454 17.2873 12.4711 17.3414 12.5C17.3664 12.5125 17.4101 12.5562 17.4101 12.525C17.4101 12.4937 17.3914 12.475 17.3914 12.4437C17.3914 12.3187 17.4851 12.1937 17.6164 12.1937C17.7101 12.1937 17.7476 12.2812 17.7976 12.3625C17.8226 12.3125 17.8414 12.275 17.8414 12.2188C17.8414 12.0062 17.7226 11.8937 17.5914 11.725C17.2976 11.3625 16.9351 11.1937 16.9351 10.725C16.9351 10.5875 16.9976 10.4937 17.1226 10.4187C17.1539 10.4 17.2039 10.4187 17.2351 10.4C17.2664 10.3812 17.2601 10.3375 17.2789 10.3125C17.3101 10.2687 17.3414 10.25 17.3789 10.2125C17.4414 10.15 17.5039 10.175 17.5726 10.1187C17.6101 10.0937 17.6226 10.0562 17.6476 10.0312C17.7289 9.93125 17.8039 9.88125 17.9351 9.88125C17.9976 9.88125 18.0351 9.88125 18.0914 9.90625L18.1539 9.9375C18.1726 9.925 18.2039 9.8875 18.2476 9.86875C18.2889 9.84317 18.3366 9.83014 18.3851 9.83125C18.4539 9.83125 18.4976 9.86875 18.5726 9.86875C18.5914 9.86875 18.5976 9.84375 18.6226 9.83125C18.6851 9.7875 18.7164 9.76875 18.7914 9.76875C18.8664 9.76875 18.9039 9.7875 18.9664 9.83125C19.0289 9.8625 19.0289 9.9125 19.0914 9.94375C19.1226 9.9625 19.1539 9.95625 19.1851 9.96875C19.3476 10.025 19.4664 10.1312 19.4664 10.3C19.4664 10.3937 19.4476 10.4562 19.3789 10.5187C19.3226 10.5625 19.2726 10.5562 19.2039 10.5812C19.4027 10.7417 19.6554 10.82 19.9101 10.8C20.1726 10.8 20.4914 10.6937 20.4914 10.4312C20.4914 10.3062 20.4289 10.2437 20.3789 10.1312C20.2939 9.96696 20.249 9.78494 20.2476 9.6C20.2476 9.425 20.2664 9.31875 20.3664 9.18125C20.4664 9.0375 20.5914 9 20.7726 9Z" fill="#C7B37F"/>
<path d="M19.0226 10.4C19.0333 10.4354 19.0526 10.4676 19.0788 10.4938C19.105 10.5199 19.1372 10.5393 19.1726 10.55C19.2226 10.5687 19.3413 10.5625 19.4101 10.4625C19.4726 10.3875 19.4726 10.2875 19.4476 10.2125C19.4268 10.157 19.3898 10.1091 19.3413 10.075L19.0226 10.4Z" stroke="#703D29" stroke-width="0.05" stroke-linejoin="round"/>
<path d="M27.0601 15.2187C26.9851 15.0375 26.7913 15.1187 26.7851 15.2187C26.7538 15.45 26.9538 15.5187 27.0976 15.4812C27.1308 15.4723 27.1619 15.4566 27.1888 15.4351C27.2156 15.4135 27.2378 15.3867 27.2538 15.3562C27.2913 15.2937 27.3038 15.2062 27.2788 15.125C27.2684 15.0889 27.2515 15.055 27.2288 15.025C27.2064 14.9954 27.1789 14.97 27.1476 14.95C27.0913 14.9125 27.0288 14.9125 26.9351 14.9125C26.5913 14.9125 26.2851 15.3187 26.1851 15.75C26.1476 15.8875 26.1038 16.2062 26.1663 16.5C26.2183 16.7662 26.3464 17.0115 26.5351 17.2062C26.7114 17.3722 26.9229 17.4961 27.1538 17.5687C27.2352 17.5922 27.3213 17.5944 27.4038 17.575C27.6038 17.5312 27.6976 17.3375 27.5913 17.1375C27.5101 16.9812 27.2601 16.8875 27.1413 17.1C27.1351 17.1187 27.1163 17.1562 27.1163 17.1937C27.1163 17.25 27.1413 17.3187 27.1788 17.3437C27.2726 17.4 27.4163 17.3812 27.4101 17.2187" stroke="#703D29" stroke-width="0.05" stroke-linecap="round"/>
<path d="M25.9851 17.5875C26.0919 17.4653 26.2376 17.3836 26.3976 17.3563C26.5851 17.3313 26.7476 17.3875 26.9101 17.4813C27.1132 17.5742 27.2851 17.724 27.4048 17.9126C27.5246 18.1012 27.5872 18.3204 27.5851 18.5438C27.5851 18.7688 27.5226 19.0125 27.4601 19.1313C27.4101 19.2375 27.2726 19.6938 26.5038 20.0063C26.0601 20.1938 25.3788 20.2313 24.8976 20.2563C24.2476 20.275 23.6476 20.3 23.3038 20.7313" stroke="#703D29" stroke-width="0.05"/>
<path d="M26.1476 18.3188C26.1288 18.2563 26.1476 18.1875 26.1976 18.1125C26.2726 18.0125 26.4288 17.9813 26.5726 18.05C26.6344 18.0834 26.6879 18.1304 26.7288 18.1875L26.7976 18.2875C26.8413 18.3563 26.8601 18.4125 26.8601 18.4438C27.0163 18.8813 26.7726 19.35 26.4538 19.5438C26.2038 19.6938 25.9101 19.7563 25.5538 19.7938C25.3976 19.8188 25.3038 19.8125 25.1476 19.825H24.5476C24.3977 19.8173 24.2475 19.8173 24.0976 19.825C23.9163 19.8438 23.7851 19.85 23.6226 19.875C23.5226 19.8875 23.4101 19.9063 23.2851 19.9375C23.2476 19.9375 23.2101 19.95 23.1726 19.9625L23.0976 19.9813C22.8726 20.05 22.6601 20.1313 22.4851 20.2438C22.4351 20.275 22.3726 20.3063 22.3288 20.35L22.2476 20.425C22.1226 20.55 22.0038 20.675 21.9726 20.8438V20.9438C21.9726 21.0563 22.0601 21.2125 22.3101 21.2563M22.6538 10.6313C22.7038 10.7188 22.7351 10.775 22.7038 10.875C22.6663 10.9813 22.5913 11.05 22.4788 11.05C22.2288 11.05 22.0851 10.75 22.1976 10.5625C22.3976 10.2313 22.7788 10.4188 23.1351 10.5813C23.1163 10.5 23.0851 10.4688 23.0913 10.3625C23.0976 10.1 23.2913 9.9875 23.3726 9.7375C23.4163 9.59375 23.4351 9.46875 23.3288 9.3625C23.2351 9.28125 23.1288 9.28125 23.0101 9.325C22.7726 9.41875 22.4788 9.69375 21.9726 9.7C21.4601 9.69375 21.1726 9.41875 20.9288 9.325C20.8038 9.28125 20.7038 9.28125 20.6101 9.36875C20.5038 9.46875 20.5226 9.59375 20.5663 9.74375C20.6476 9.98125 20.8413 10.1 20.8476 10.3688C20.8476 10.4688 20.8226 10.4938 20.8038 10.5813C21.1601 10.4188 21.5538 10.2125 21.7413 10.5625C21.8476 10.7625 21.7101 11.0438 21.4601 11.0438C21.3476 11.0438 21.2726 10.9813 21.2351 10.875C21.2101 10.7813 21.2351 10.7 21.2851 10.625" stroke="#703D29" stroke-width="0.05"/>
<path d="M21.6601 10.4563C21.7115 10.4894 21.7527 10.5362 21.7792 10.5913C21.8057 10.6465 21.8164 10.7079 21.8101 10.7688C21.7976 10.925 21.7601 10.9625 21.6351 11.05M21.7851 10.8125C21.7788 10.9063 21.7413 10.9688 21.6413 11.0063" stroke="#703D29" stroke-width="0.05" stroke-linecap="round"/>
<path d="M19.2913 10.0437L19.3351 10.075L19.3851 10.125L19.4163 10.1875L19.4288 10.2375V10.3562L19.4163 10.4062L19.3851 10.4437L19.3476 10.4812L19.2913 10.5125L19.2288 10.525L19.1663 10.5375L19.1038 10.5062L19.0476 10.4687L19.0163 10.4187L18.9913 10.3562V10.3312L19.2913 10.0437Z" fill="#C7B37F"/>
<path d="M19.1976 10.2875C19.1789 10.1812 19.0601 10.1625 19.0101 10.225C18.9414 10.3187 18.9914 10.475 19.1351 10.5187C19.1799 10.5278 19.2262 10.5244 19.2692 10.509C19.3122 10.4936 19.3501 10.4667 19.3789 10.4312C19.4414 10.35 19.4351 10.2562 19.4101 10.1812C19.3901 10.1253 19.3529 10.0772 19.3039 10.0437C19.1351 9.91874 18.8601 9.94374 18.7664 10.1687C18.6539 10.4437 18.9039 10.6562 19.1414 10.8125C19.4289 11.0125 19.7664 11.05 20.0164 11.05C20.5914 11.0437 21.0289 10.7687 21.3101 10.6125C21.3726 10.575 21.4414 10.5812 21.4789 10.625C21.4976 10.6503 21.506 10.6818 21.5025 10.713C21.4991 10.7443 21.4839 10.7731 21.4601 10.7937" stroke="#703D29" stroke-width="0.05" stroke-linecap="round"/>
<path d="M17.4976 18.0375L17.3726 18.0812L17.2476 18.1812L17.1851 18.2625L17.1164 18.3875L17.0851 18.4812L17.0601 18.5937L17.0476 18.6812M18.2351 18.05L18.2289 18.1625L18.2101 18.2375L18.1476 18.375L18.0664 18.4875L17.9726 18.5625L17.9039 18.5937L17.8039 18.6187" stroke="#703D29" stroke-width="0.05"/>
<path d="M21.9789 21.0312C21.9601 21.1375 21.8601 21.2562 21.6476 21.2937L21.6101 21.3062" stroke="#703D29" stroke-width="0.05"/>
<path d="M27.2601 17.725C27.3733 17.834 27.4628 17.9652 27.523 18.1104C27.5832 18.2556 27.6129 18.4116 27.6101 18.5687C27.6101 18.7937 27.5476 19.0375 27.4851 19.1562C27.4351 19.2625 27.2976 19.7187 26.5289 20.0312C26.0114 20.1958 25.4718 20.2802 24.9289 20.2812C24.2851 20.3 23.6914 20.325 23.3414 20.7375" stroke="#703D29" stroke-width="0.05"/>
<path d="M26.2164 18.1437C26.2664 18.0812 26.4351 17.9937 26.5789 18.075C26.6364 18.1041 26.6859 18.147 26.7226 18.2" stroke="#703D29" stroke-width="0.05"/>
<path d="M27.0976 17.575L27.1851 17.6062C27.2667 17.6306 27.3535 17.6306 27.4351 17.6062C27.6101 17.5562 27.7226 17.3937 27.6351 17.175C27.6083 17.1231 27.5698 17.0781 27.5226 17.0437" stroke="#703D29" stroke-width="0.05"/>
<path d="M17.0163 12.95C16.8913 13.0187 16.8101 13.0375 16.7163 13.1437C16.644 13.2778 16.5893 13.4206 16.5538 13.5687M19.4288 10.3375C19.4288 10.45 19.3538 10.5125 19.2413 10.5375" stroke="#703D29" stroke-width="0.05" stroke-linecap="round"/>
<path d="M26.8163 12.4625C26.9745 12.4657 27.1304 12.5004 27.2749 12.5647C27.4194 12.6289 27.5496 12.7214 27.6579 12.8367C27.7662 12.952 27.8504 13.0877 27.9055 13.236C27.9606 13.3842 27.9855 13.542 27.9788 13.7C27.9788 14.7 27.3601 14.8562 27.1163 14.925" stroke="#703D29" stroke-width="0.05"/>
<path d="M26.8976 12.4625C27.4038 12.4437 27.9288 12.8187 27.9538 13.7562C27.9726 14.4875 27.4538 14.8187 27.2038 14.8812" stroke="#703D29" stroke-width="0.05"/>
<path d="M26.6101 15.9875L26.6163 15.8875L26.6538 15.7312L26.6976 15.6062L26.7538 15.5062L26.8163 15.425M27.3038 15.2125V15.3062L27.2726 15.3687L27.2288 15.4375L27.1788 15.475L27.1038 15.5062H27.0351L26.9851 15.5M26.0913 12.2L26.1101 12.0937L26.1601 11.9937L26.2226 11.9L26.3226 11.7625L26.4101 11.675L26.5351 11.5375L26.6601 11.4187L26.7288 11.3375L26.8226 11.2187L26.9101 11.0937L26.9601 10.9875L26.9913 10.85L26.9976 10.6812L26.9851 10.6312M26.2163 18.6437L26.3163 18.6187L26.3913 18.5812L26.4351 18.5375L26.4663 18.4875L26.4851 18.4125V18.3562M16.5976 17.6H16.7663L16.8663 17.5625M17.1788 15.2812L17.1663 15.3687L17.1413 15.4062L17.1163 15.4437L17.0726 15.475L17.0288 15.4937L16.9663 15.5H16.9288M17.5476 14.5312L17.5288 14.6625L17.4976 14.725L17.4476 14.8L17.3726 14.8562L17.2976 14.8937L17.1538 14.925M18.1101 12.4437L18.0788 12.525L18.0476 12.5875L17.9976 12.65L17.9351 12.7125L17.8601 12.7437L17.7913 12.7625L17.7538 12.7562M17.7726 12.3687V12.4312" stroke="#703D29" stroke-width="0.05"/>
<path d="M17.8913 14.4625C17.8533 14.4995 17.8088 14.5291 17.7601 14.55M27.1663 17.35L27.1976 17.3625C27.2851 17.4125 27.4601 17.35 27.4101 17.2125" stroke="#703D29" stroke-width="0.05" stroke-linecap="round"/>
<path d="M26.8601 15.4375C26.9226 15.5187 27.0413 15.5437 27.1351 15.5187C27.1683 15.5098 27.1994 15.4941 27.2262 15.4726C27.2531 15.451 27.2753 15.4242 27.2913 15.3937C27.3288 15.3312 27.3413 15.2437 27.3163 15.1625C27.304 15.1259 27.285 15.092 27.2601 15.0625C27.2377 15.0274 27.2103 14.9958 27.1788 14.9687L27.1538 14.9562M27.5538 17.0812C27.5572 17.0669 27.5593 17.0522 27.5601 17.0375C27.5605 17.0023 27.5535 16.9674 27.5395 16.9351C27.5255 16.9027 27.5048 16.8738 27.4788 16.85L27.4288 16.8M27.4538 16.8312C27.4538 16.7187 27.3601 16.6312 27.2413 16.6125M26.9788 16.7875L26.8976 16.725C26.7264 16.5442 26.6303 16.3052 26.6288 16.0562C26.6288 15.7937 26.7288 15.5312 26.8538 15.4312M23.3226 20.7125L23.4351 20.6125L23.5101 20.55L23.6538 20.4625L23.7913 20.4L23.8913 20.3687L24.0788 20.3312L24.3038 20.2937M22.4601 21.5062C22.3423 21.677 22.1772 21.8095 21.9851 21.8875C21.7942 21.8074 21.6296 21.6753 21.5101 21.5062" stroke="#703D29" stroke-width="0.05"/>
<path d="M21.6476 21.25C21.6234 21.3473 21.5763 21.4373 21.5101 21.5125" stroke="#703D29" stroke-width="0.05" stroke-linecap="round"/>
<path d="M21.6664 21.1188L21.6414 21.2563M21.4976 21.525L21.4351 21.5875L21.3289 21.6438L21.2039 21.6813M20.8539 10.5688C20.8726 10.5188 20.8851 10.4813 20.8851 10.4063C20.8789 10.1438 20.6851 10.025 20.6039 9.78125M20.6039 9.78125C20.5601 9.6375 20.5414 9.5125 20.6476 9.40625C20.7351 9.31875 20.8476 9.31875 20.9601 9.36875C21.2101 9.4625 21.4976 9.73125 22.0039 9.74375C21.4976 9.73125 21.2039 9.4625 20.9664 9.36875C20.8414 9.31875 20.7289 9.30625 20.6351 9.4C20.5289 9.5 20.5601 9.6375 20.6039 9.78125ZM20.6039 9.78125C20.6851 10.025 20.8664 10.1438 20.8726 10.4063C20.8726 10.4813 20.8539 10.5188 20.8414 10.5688M21.9976 9.7125C22.4976 9.6875 22.9289 9.35 23.0664 9.31875C23.1914 9.29375 23.2539 9.30625 23.3476 9.3875C23.2601 9.30625 23.1601 9.3125 23.0351 9.35625C22.7976 9.45 22.5101 9.71875 21.9976 9.73125M26.9726 16.7875C26.8523 16.6973 26.7546 16.5803 26.6874 16.4457C26.6201 16.3112 26.5851 16.1629 26.5851 16.0125C26.5851 15.7563 26.6914 15.4875 26.8101 15.3875M22.4351 21.4875C22.3539 21.6125 22.1664 21.8 21.9601 21.875C21.7684 21.7932 21.6038 21.6588 21.4851 21.4875" stroke="#703D29" stroke-width="0.05"/>
<path d="M21.1663 10.6937L21.3101 10.6125C21.3726 10.575 21.4538 10.5812 21.4913 10.625C21.5288 10.6687 21.5351 10.75 21.4788 10.8" stroke="#703D29" stroke-width="0.05" stroke-linecap="round"/>
<path d="M20.4163 11.0437C20.7601 10.9687 21.0413 10.8187 21.2538 10.7M23.2663 20.9625C23.2976 20.9812 23.3163 21.025 23.3163 21.025C23.3226 21.0375 23.3351 21.0562 23.3351 21.075C23.3538 21.1687 23.2913 21.225 23.2101 21.2375C23.1038 21.25 23.0226 21.1875 22.9913 21.1125M20.3976 11.025C20.7413 10.9562 21.0226 10.8 21.2351 10.6812M27.3351 17.3625C27.2726 17.3875 27.2351 17.3812 27.1476 17.35L27.0351 17.2875C26.8071 17.1576 26.624 16.9614 26.5101 16.725C26.4623 16.6342 26.4266 16.5376 26.4038 16.4375C26.3839 16.3705 26.3734 16.3011 26.3726 16.2312C26.3658 15.8893 26.4687 15.5542 26.6663 15.275C26.7351 15.175 26.7976 15.1187 26.9288 15.1125M17.9476 12.6562C18.0013 12.6986 18.0444 12.7528 18.0737 12.8146C18.103 12.8764 18.1176 12.9441 18.1163 13.0125C18.1163 13.2062 17.9538 13.525 17.5538 13.6375C17.4212 13.6737 17.2795 13.6557 17.1601 13.5875" stroke="#703D29" stroke-width="0.05"/>
<path d="M18.0163 13.3125C18.0851 13.3625 18.1163 13.4187 18.1163 13.5187C18.1163 13.5812 18.0726 13.6688 17.9976 13.75C17.9273 13.8264 17.8424 13.8879 17.7479 13.9308C17.6535 13.9737 17.5513 13.9973 17.4476 14C17.3226 14 17.1976 13.975 17.0726 13.8937C16.9535 13.8154 16.8686 13.6948 16.8351 13.5562" stroke="#703D29" stroke-width="0.05"/>
<path d="M18.0101 13.7313C18.0914 13.8063 18.1164 13.9 18.1164 14.0188C18.1164 14.1875 18.0476 14.3188 17.8851 14.4563C17.8476 14.4938 17.8101 14.5188 17.7601 14.55M25.8539 13.1688V13.3875M25.8351 13.1125V13.425M25.8539 12.4375V12.85M25.8351 12.35V12.9063M25.7164 18.0313C25.6517 18.1634 25.5626 18.2821 25.4539 18.3813C25.3497 18.488 25.2268 18.5749 25.0914 18.6375C24.9611 18.7026 24.8222 18.7489 24.6789 18.775C24.5395 18.8085 24.3971 18.8273 24.2539 18.8313C24.0976 18.8313 24.0101 18.8313 23.8539 18.8188C23.6914 18.8063 23.6039 18.7813 23.4351 18.7688C23.2976 18.7563 23.2226 18.7438 23.0851 18.75C22.8508 18.7416 22.6171 18.7798 22.3976 18.8625C22.2351 18.925 22.0414 19.05 22.0039 19.1C21.885 18.9987 21.7497 18.9184 21.6039 18.8625C21.5015 18.8206 21.3945 18.7912 21.2851 18.775C21.1414 18.75 21.0664 18.75 20.9226 18.75C20.7851 18.75 20.7101 18.7563 20.5726 18.7688C20.4101 18.7875 20.3226 18.8063 20.1539 18.8188C19.9976 18.8313 19.9101 18.8375 19.7539 18.8313C19.4646 18.8282 19.1793 18.7643 18.9164 18.6438C18.7637 18.5725 18.6275 18.4703 18.5164 18.3438M21.1476 21.6813L21.2601 21.6688M23.1539 21.5188L23.2664 21.5125L23.3726 21.4688L23.4476 21.4188L23.5539 21.2938L23.5726 21.2563L23.5914 21.15V21.1M26.5289 12.5563C26.5726 12.3938 26.5164 12.2188 26.3539 12.225M18.1039 15.1313C18.0696 15.2528 17.9917 15.3574 17.8851 15.425M18.1101 12.5063C18.0926 12.5616 18.0635 12.6125 18.0247 12.6556C17.9859 12.6988 17.9383 12.7331 17.8851 12.7563C17.7664 12.8063 17.6351 12.7563 17.5601 12.7063" stroke="#703D29" stroke-width="0.05"/>
<path d="M17.2351 13.1125C17.3289 13.1625 17.4289 13.0875 17.4101 12.9625C17.4013 12.9263 17.3816 12.8937 17.3537 12.8691C17.3257 12.8445 17.2909 12.8291 17.2539 12.825" stroke="#703D29" stroke-width="0.05" stroke-linecap="round"/>
<path d="M17.6351 18.375C17.6538 18.3938 17.6601 18.4188 17.6851 18.425C17.7288 18.4375 17.7601 18.45 17.8038 18.3938C17.8538 18.325 17.8226 18.2188 17.7726 18.15C17.7265 18.1026 17.6667 18.071 17.6015 18.0598C17.5364 18.0485 17.4694 18.0582 17.4101 18.0875C17.3601 18.1188 17.3038 18.15 17.2476 18.225L17.1788 18.325C17.1351 18.3938 17.1163 18.45 17.1101 18.475C16.9851 18.8438 17.1351 19.225 17.3663 19.4563" stroke="#703D29" stroke-width="0.05"/>
<path d="M23.2601 20.95L23.3039 21L23.3164 21.0562C23.3351 21.15 23.2726 21.2062 23.1914 21.2187C23.0914 21.2312 23.0164 21.1687 22.9851 21.0937" stroke="#703D29" stroke-width="0.05" stroke-linecap="round"/>
<path d="M26.3351 10.1375C26.4413 10.1534 26.5387 10.2057 26.6105 10.2855C26.6824 10.3654 26.7242 10.4677 26.7288 10.575C26.7288 10.85 26.6351 10.95 26.4913 11.15C26.3351 11.3625 25.8226 11.75 25.8226 12.1937C25.8226 12.4625 25.8976 12.6312 26.0913 12.7187C26.2163 12.7812 26.3601 12.7187 26.4288 12.6562C26.5913 12.5062 26.5226 12.25 26.3538 12.2187C26.1538 12.1812 26.1101 12.5062 26.3101 12.4875M27.4288 16.8C27.4187 16.7476 27.3908 16.7003 27.3498 16.6661C27.3088 16.6319 27.2572 16.613 27.2038 16.6125C27.1425 16.6125 27.0837 16.6369 27.0403 16.6802C26.9969 16.7236 26.9726 16.7824 26.9726 16.8437C26.9726 16.9062 26.9976 16.9687 27.0351 17.0062" stroke="#703D29" stroke-width="0.05"/>
<path d="M25.9913 12.6562C25.9377 12.6986 25.8945 12.7528 25.8652 12.8146C25.836 12.8764 25.8214 12.9441 25.8226 13.0125C25.8226 13.2062 25.9851 13.525 26.3851 13.6375C26.5351 13.6812 26.6851 13.675 26.7726 13.6187M17.0226 12.975C16.9016 13.0136 16.7963 13.0903 16.7226 13.1937C16.5737 13.4298 16.5243 13.7151 16.5851 13.9875C16.61 14.1123 16.6588 14.2312 16.7288 14.3375C16.7472 14.3645 16.7681 14.3896 16.7913 14.4125L16.8663 14.475M20.8663 20.225C21.1726 20.3563 21.3913 20.4563 21.5788 20.7563C21.6296 20.8502 21.6554 20.9557 21.6538 21.0625C21.6538 21.2313 21.5913 21.4188 21.4476 21.5375C21.3911 21.5875 21.3243 21.6247 21.252 21.6462C21.1797 21.6678 21.1035 21.6734 21.0288 21.6625C20.9101 21.65 20.7976 21.5625 20.7788 21.5M17.8726 14.4688C18.0413 14.6063 18.1163 14.7313 18.1163 14.9375C18.1201 15.0308 18.099 15.1234 18.055 15.2058C18.0111 15.2882 17.9459 15.3574 17.8663 15.4062" stroke="#703D29" stroke-width="0.05"/>
<path d="M17.7164 15.2375C17.9664 15.5562 18.1101 15.7437 18.1164 16.1187C18.1226 16.475 18.0101 16.7187 17.8039 16.975" stroke="#703D29" stroke-width="0.05" stroke-linecap="round"/>
<path d="M22.6101 11.0437C22.6558 11.0096 22.6888 10.9612 22.7039 10.9062C22.7351 10.8125 22.7351 10.7313 22.6914 10.6562C22.7539 10.7437 22.7539 10.8125 22.7351 10.9062C22.7289 10.9688 22.6851 11 22.6351 11.05M25.8539 16.4312V17.4438L25.8476 17.6C25.8422 17.6356 25.836 17.671 25.8289 17.7062" stroke="#703D29" stroke-width="0.05"/>
<path d="M25.8351 16.3375V17.5812L25.8039 17.7437M25.8351 15.0562V15.9687M25.8539 15.1312V15.8687M25.8539 14.1937V14.7437M25.8351 14.125V14.8125M25.8539 13.625V13.8437M25.8351 13.5812V13.8937M25.7226 17.9687L25.6976 18.0125C25.6355 18.1464 25.5485 18.2672 25.4414 18.3687C25.3348 18.4739 25.2098 18.5586 25.0726 18.6187C24.9443 18.6833 24.8075 18.7296 24.6664 18.7562C24.4976 18.7937 24.4039 18.8062 24.2351 18.8125C24.0789 18.8125 23.9914 18.8125 23.8414 18.8C23.6726 18.7875 23.5851 18.7687 23.4164 18.75C23.2789 18.7375 23.2039 18.7312 23.0664 18.7312C22.9289 18.7312 22.8476 18.7312 22.7101 18.7562C22.5986 18.772 22.4894 18.8014 22.3851 18.8437C22.2164 18.9125 22.0289 19.0312 21.9851 19.0812C21.9476 19.0312 21.7539 18.9125 21.5914 18.8437C21.487 18.8014 21.3779 18.772 21.2664 18.7562C21.1289 18.7312 21.0476 18.7312 20.9039 18.7312C20.7664 18.7312 20.6914 18.7375 20.5539 18.75C20.3914 18.7687 20.3039 18.7875 20.1351 18.8C19.9789 18.8125 19.8914 18.8187 19.7414 18.8125C19.45 18.8103 19.1625 18.7464 18.8976 18.625C18.7621 18.5625 18.6392 18.4756 18.5351 18.3687C18.4781 18.315 18.4259 18.2564 18.3789 18.1937M18.2539 17.9937C18.2641 18.0795 18.2566 18.1665 18.2319 18.2493C18.2072 18.3321 18.1657 18.4089 18.1101 18.475C18.0601 18.5312 17.9476 18.6375 17.7976 18.6375C17.5664 18.6375 17.4976 18.4812 17.4851 18.4375" stroke="#703D29" stroke-width="0.05"/>
<path d="M17.9726 17.8937C18.0164 17.9375 18.0539 17.9875 18.0914 18.05C18.1539 18.1625 18.1289 18.35 18.0851 18.4375C18.0793 18.4462 18.0731 18.4545 18.0664 18.4625M16.7976 19.5875C16.9414 19.7375 17.1539 19.9 17.4789 20.0312C17.9226 20.2187 18.6101 20.2562 19.0851 20.2812C19.7101 20.3 20.2914 20.325 20.6476 20.7187M21.7289 20.4687C21.8436 20.5568 21.9304 20.6762 21.9789 20.8125M21.5226 21.5312C21.5089 21.5467 21.4943 21.5613 21.4789 21.575C21.4231 21.6242 21.3574 21.6608 21.2862 21.6824C21.215 21.7039 21.1401 21.7099 21.0664 21.7C20.9414 21.6875 20.8289 21.6 20.7976 21.5375M20.4601 21.3562L20.4789 21.3812C20.562 21.4702 20.6761 21.5239 20.7976 21.5312M22.4851 21.5312C22.3631 21.7005 22.1965 21.8325 22.0039 21.9125C21.813 21.8324 21.6484 21.7003 21.5289 21.5312L21.5101 21.5M22.4851 21.525L22.5289 21.5687C22.5854 21.6188 22.6521 21.6559 22.7244 21.6775C22.7968 21.6991 22.8729 21.7046 22.9476 21.6937C22.9983 21.6879 23.047 21.6708 23.0902 21.6438C23.1334 21.6167 23.1701 21.5804 23.1976 21.5375L23.2289 21.4937" stroke="#703D29" stroke-width="0.05"/>
<path d="M23.1851 21.5L23.1413 21.575L23.0726 21.6375L22.9663 21.6812H22.8663" stroke="#703D29" stroke-width="0.05"/>
<path d="M23.4351 20.7937C23.4993 20.8408 23.5509 20.9031 23.5851 20.975C23.6038 21.0187 23.6101 21.0687 23.6163 21.1187C23.6188 21.1665 23.6118 21.2143 23.5957 21.2594C23.5796 21.3044 23.5548 21.3458 23.5226 21.3812C23.4794 21.4278 23.4273 21.4651 23.3692 21.4909C23.3112 21.5167 23.2486 21.5304 23.1851 21.5312C23.1768 21.5315 23.1684 21.5315 23.1601 21.5312M23.1726 21.5187C23.1117 21.5204 23.0512 21.509 22.9951 21.4853C22.9391 21.4616 22.8888 21.4261 22.8476 21.3812M26.8288 17.1375C26.707 17.022 26.6056 16.8868 26.5288 16.7375C26.4815 16.6487 26.4458 16.5542 26.4226 16.4562C26.4026 16.3893 26.3921 16.3199 26.3913 16.25C26.3844 15.909 26.485 15.5744 26.6788 15.2937C26.7226 15.2437 26.7663 15.1812 26.8101 15.1562M26.7288 10.4125C26.8851 10.425 27.0288 10.6 27.0288 10.7687C27.0288 11.0062 26.9476 11.1125 26.7538 11.35C26.5913 11.55 26.0913 11.9125 26.1101 12.2562C26.1101 12.3187 26.1413 12.3812 26.1788 12.4312M25.9788 12.65C26.0151 12.6863 26.0574 12.7159 26.1038 12.7375C26.1472 12.7546 26.1938 12.7618 26.2403 12.7586C26.2868 12.7553 26.332 12.7417 26.3726 12.7187M25.0601 10.025C25.1207 10.0647 25.1684 10.1212 25.1976 10.1875C25.3101 10.4687 25.0601 10.6812 24.8226 10.8375C24.6662 10.9421 24.4894 11.0124 24.3038 11.0437" stroke="#703D29" stroke-width="0.05"/>
<path d="M24.7851 10.5625C24.748 10.5614 24.7116 10.5525 24.6782 10.5364C24.6448 10.5202 24.6152 10.4972 24.5914 10.4687C24.5731 10.4507 24.5583 10.4295 24.5476 10.4062M23.6101 10.7125C23.5817 10.6961 23.5564 10.675 23.5351 10.65C23.4726 10.5875 23.4414 10.5062 23.4851 10.375C23.5226 10.2562 23.7164 9.92499 23.7226 9.69374C23.7351 9.34374 23.5976 9.13124 23.3914 9.05624" stroke="#703D29" stroke-width="0.05"/>
<path d="M23.7038 9.61874L23.6976 9.74374L23.6601 9.88124L23.5976 10.0687L23.5351 10.1875L23.4851 10.3062L23.4601 10.3875L23.4476 10.45L23.4538 10.5062M25.8288 18.4L25.8663 18.45C25.9101 18.5125 26.0663 18.6375 26.2101 18.6375C26.4413 18.6375 26.4976 18.475 26.5038 18.4375C26.5351 18.2562 26.4726 18.2125 26.3788 18.1562C26.3788 18.1562 26.3288 18.1312 26.2601 18.1437" stroke="#703D29" stroke-width="0.05" stroke-linecap="round"/>
<path d="M16.8101 17.6125C16.7344 17.6335 16.6545 17.6335 16.5788 17.6125C16.3976 17.5562 16.2538 17.3875 16.3288 17.175M17.1663 15.1875C17.1851 15.2062 17.1913 15.2312 17.1913 15.25C17.2163 15.4875 17.0163 15.55 16.8788 15.5125C16.8016 15.4878 16.7353 15.4369 16.6913 15.3687C16.6645 15.3254 16.6495 15.2759 16.6476 15.225M18.0226 13.75C18.0601 13.7812 18.0851 13.8125 18.1038 13.8562M18.0351 13.325C18.0663 13.35 18.0913 13.3812 18.1038 13.4062" stroke="#703D29" stroke-width="0.05"/>
<path d="M18.1164 13.6187C18.0918 13.6741 18.058 13.7248 18.0164 13.7687C17.9461 13.8451 17.8612 13.9066 17.7667 13.9496C17.6723 13.9925 17.5701 14.016 17.4664 14.0187C17.3414 14.0187 17.2164 13.9937 17.0914 13.9125C16.9672 13.8312 16.878 13.7063 16.8414 13.5625" stroke="#703D29" stroke-width="0.05" stroke-linecap="round"/>
<path d="M17.9601 12.6687C18.0284 12.7247 18.0803 12.7981 18.1101 12.8812" stroke="#703D29" stroke-width="0.05"/>
<path d="M18.1101 13.1625C18.0538 13.35 17.8913 13.575 17.5726 13.6562C17.4226 13.6937 17.2226 13.6437 17.1601 13.5937" stroke="#703D29" stroke-width="0.05" stroke-linecap="round"/>
<path d="M16.9976 13.125C17.0164 13.2875 17.1226 13.4125 17.3351 13.4125C17.6289 13.4187 17.8101 12.9937 17.5476 12.6937" stroke="#703D29" stroke-width="0.05"/>
<path d="M16.3351 14.5562C16.3788 14.6125 16.4288 14.6625 16.4851 14.7062C16.5946 14.8 16.7222 14.8702 16.8601 14.9125M17.1851 14.9437C17.4476 14.9125 17.5976 14.7125 17.5601 14.4875C17.5413 14.3125 17.3851 14.175 17.2726 14.1687" stroke="#703D29" stroke-width="0.05" stroke-linecap="round"/>
<path d="M17.6101 12.2188C17.7289 12.2188 17.7976 12.3188 17.7914 12.4062" stroke="#703D29" stroke-width="0.05"/>
<path d="M17.5851 10.65C17.6436 10.8053 17.754 10.9356 17.8976 11.0187M26.9101 12.9562C27.0163 13.1 26.9476 13.3937 26.6601 13.3937C26.6037 13.3943 26.5481 13.3803 26.4988 13.3529C26.4495 13.3255 26.4081 13.2857 26.3788 13.2375" stroke="#703D29" stroke-width="0.05" stroke-linecap="round"/>
<path d="M25.8538 11.0312V12.025" stroke="#703D29" stroke-width="0.05"/>
<path d="M17.2351 13.1062C17.3226 13.1687 17.4413 13.0625 17.3913 12.9437C17.3601 12.8687 17.2538 12.7812 17.0976 12.8875C16.9226 13.0062 16.9726 13.375 17.2976 13.3812C17.5913 13.3812 17.7726 12.9562 17.5101 12.6562C17.2601 12.3687 16.8038 12.4312 16.5101 12.6687C16.2838 12.8564 16.1257 13.1134 16.0601 13.4C16.0205 13.5896 16.0205 13.7854 16.0601 13.975C16.0915 14.1419 16.1552 14.3012 16.2476 14.4437L16.3288 14.55C16.3788 14.6 16.3913 14.625 16.4538 14.675C16.6332 14.8319 16.8657 14.9146 17.1038 14.9062C17.3913 14.8937 17.5601 14.6937 17.5288 14.45C17.5038 14.2125 17.2663 14.0937 17.1101 14.2062C17.0038 14.2812 16.9663 14.5125 17.1538 14.5687C17.2538 14.6 17.3476 14.4625 17.2788 14.3812M25.3726 9.89374C25.5413 9.80624 25.6726 9.81874 25.7663 9.95624C25.8564 10.0878 25.8922 10.249 25.8663 10.4062C25.8422 10.5505 25.764 10.6801 25.6476 10.7687" stroke="#703D29" stroke-width="0.05" stroke-linecap="round"/>
<path d="M25.7789 9.96249C25.9726 9.83749 26.1851 9.89374 26.2976 10.0625C26.3789 10.1875 26.4039 10.2875 26.3976 10.4437C26.3917 10.5619 26.3559 10.6766 26.2936 10.7771C26.2313 10.8777 26.1445 10.9608 26.0414 11.0187" stroke="#703D29" stroke-width="0.05" stroke-linecap="round"/>
<path d="M26.6851 10.4125C26.8476 10.425 26.9726 10.5687 26.9726 10.7312C26.9726 10.9687 26.9101 11.075 26.7226 11.3125C26.5539 11.5187 26.0601 11.875 26.0726 12.225C26.0726 12.3562 26.1851 12.475 26.2789 12.4875" stroke="#703D29" stroke-width="0.05"/>
<path d="M26.7101 13.1063C26.6163 13.1688 26.5038 13.0688 26.5538 12.9563C26.5851 12.8813 26.6913 12.7813 26.8476 12.8875C27.0163 13.0063 26.9726 13.375 26.6413 13.3813C26.3476 13.3813 26.1413 12.9688 26.4288 12.6563C26.6788 12.3688 27.1601 12.425 27.4601 12.6625C27.5851 12.7625 27.8413 13.0375 27.8976 13.4125C27.9601 13.85 27.9538 14.3875 27.4976 14.725C27.3101 14.8563 27.0601 14.9188 26.8351 14.9125C26.5476 14.9 26.3788 14.6938 26.4101 14.45C26.4413 14.2125 26.6601 14.1125 26.8288 14.2063C27.0038 14.3 26.9726 14.5438 26.7851 14.5688C26.6788 14.5813 26.5913 14.4625 26.6601 14.3813" stroke="#703D29" stroke-width="0.05" stroke-linecap="round"/>
<path d="M26.5538 12.9562C26.6038 12.7375 26.7851 12.7188 26.9413 12.7188C27.3476 12.725 27.6351 13.2188 27.6413 13.6875C27.6413 14.2812 27.3913 14.6375 26.9538 14.6562C26.8351 14.6562 26.6413 14.6063 26.6413 14.4688" stroke="#703D29" stroke-width="0.05"/>
<path d="M26.8101 12.8562C27.2414 12.9562 27.3914 13.3437 27.3914 13.7187C27.3914 14.025 27.3601 14.4437 26.7664 14.5875" stroke="#703D29" stroke-width="0.05" stroke-linecap="square"/>
<path d="M27.5226 17.0437C27.5296 17.0015 27.5252 16.9581 27.5101 16.918C27.4949 16.8779 27.4695 16.8425 27.4363 16.8154C27.4031 16.7883 27.3633 16.7704 27.321 16.7636C27.2787 16.7567 27.2354 16.7611 27.1953 16.7764C27.1553 16.7917 27.1199 16.8172 27.0929 16.8505C27.0659 16.8837 27.0481 16.9235 27.0414 16.9659C27.0346 17.0082 27.0392 17.0515 27.0545 17.0915C27.0699 17.1316 27.0955 17.1668 27.1288 17.1938" stroke="#703D29" stroke-width="0.05"/>
<path d="M26.6476 16.675C26.7351 16.8 26.8351 16.9312 27.0413 17.05M26.9601 17.7062C26.7601 17.5687 26.3663 17.3937 26.0226 17.5687C25.9599 17.5926 25.903 17.6294 25.8556 17.6768C25.8082 17.7242 25.7714 17.7811 25.7476 17.8437C25.7146 17.9441 25.7076 18.0513 25.7273 18.1551C25.747 18.259 25.7927 18.3561 25.8601 18.4375C25.9163 18.5 26.0288 18.6 26.1726 18.6062C26.4101 18.6062 26.4663 18.4437 26.4726 18.4062C26.4976 18.2312 26.3976 18.1625 26.3476 18.15C26.3038 18.1312 26.1726 18.1375 26.1476 18.2312C26.1351 18.2625 26.1351 18.3125 26.1601 18.3562" stroke="#703D29" stroke-width="0.05" stroke-linecap="round"/>
<path d="M23.2789 20.9875C23.3414 21.125 23.2664 21.1875 23.1789 21.2C23.0414 21.2187 22.9726 21.1125 22.9664 21.0125C22.9638 20.9754 22.9688 20.9381 22.9811 20.9029C22.9934 20.8678 23.0127 20.8355 23.0378 20.8081C23.063 20.7806 23.0934 20.7585 23.1273 20.7432C23.1612 20.7278 23.1979 20.7195 23.2351 20.7187C23.3789 20.7187 23.4914 20.8125 23.5476 20.9375C23.5664 20.9812 23.5789 21.0312 23.5789 21.0875C23.5839 21.181 23.5525 21.2728 23.4914 21.3437C23.4487 21.3914 23.3968 21.4299 23.3388 21.4568C23.2807 21.4836 23.2178 21.4984 23.1539 21.5C22.8914 21.5062 22.6851 21.2625 22.6851 21.0125C22.6851 20.5312 23.3976 20.2625 23.6851 20.2C24.0516 20.1099 24.4266 20.0596 24.8039 20.05C25.0226 20.0437 25.1914 20.05 25.4351 20.0187C25.6539 20 25.7726 19.9875 25.9976 19.9375C26.2908 19.8759 26.5624 19.7379 26.7851 19.5375C26.9664 19.3687 27.0664 19.2562 27.1539 19.025C27.2026 18.8827 27.2205 18.7317 27.2065 18.5819C27.1925 18.4321 27.1469 18.287 27.0726 18.1562C27.0039 18.0418 26.9104 17.9443 26.799 17.8707C26.6876 17.7972 26.5611 17.7495 26.4289 17.7312C26.1976 17.7 25.9914 17.8 25.8664 18.0312C25.8039 18.1437 25.8289 18.3312 25.8726 18.4187C25.9033 18.4723 25.9468 18.5174 25.9991 18.5501C26.0515 18.5828 26.111 18.6021 26.1726 18.6062C26.4101 18.6062 26.4664 18.4437 26.4726 18.4062C26.4976 18.2312 26.3976 18.1625 26.3476 18.1437C26.3039 18.1312 26.1726 18.1375 26.1476 18.2312C26.1351 18.2625 26.1351 18.3125 26.1601 18.3562" stroke="#703D29" stroke-width="0.05" stroke-linecap="round"/>
<path d="M23.0726 20.225C22.7726 20.3562 22.5476 20.4562 22.3601 20.7562C22.3091 20.8501 22.2833 20.9556 22.2851 21.0625C22.2851 21.2312 22.3539 21.4187 22.4914 21.5375C22.5479 21.5875 22.6146 21.6246 22.6869 21.6462C22.7593 21.6678 22.8354 21.6734 22.9101 21.6625C23.0351 21.65 23.1414 21.5625 23.1601 21.5" stroke="#703D29" stroke-width="0.05" stroke-linecap="round"/>
<path d="M26.0663 14.4688C25.9226 14.5188 25.8226 14.7313 25.8226 14.9375C25.8188 15.0308 25.84 15.1234 25.8839 15.2058C25.9279 15.2882 25.993 15.3574 26.0726 15.4062" stroke="#703D29" stroke-width="0.05"/>
<path d="M26.2226 15.2375C25.9726 15.5562 25.8288 15.7437 25.8226 16.1187C25.8226 16.475 25.9288 16.7187 26.1413 16.975" stroke="#703D29" stroke-width="0.05" stroke-linecap="round"/>
<path d="M24.8663 9.9625L24.8851 9.93125C24.9913 9.78125 25.1788 9.7375 25.3163 9.8375C25.4788 9.9625 25.5226 10.175 25.4788 10.4C25.4476 10.5375 25.3538 10.6563 25.2288 10.7438" stroke="#703D29" stroke-width="0.05"/>
<path d="M18.5664 9.8875C18.4039 9.8125 18.2726 9.825 18.1726 9.95C18.124 10.0131 18.0899 10.0861 18.0726 10.1639C18.0553 10.2416 18.0553 10.3222 18.0726 10.4C18.1101 10.5688 18.1601 10.6375 18.2914 10.7625" stroke="#703D29" stroke-width="0.05" stroke-linecap="round"/>
<path d="M18.1601 9.9625C18.12 9.9335 18.0743 9.91302 18.026 9.90233C17.9777 9.89164 17.9277 9.89095 17.8791 9.90032C17.8305 9.90969 17.7843 9.92891 17.7434 9.95681C17.7025 9.9847 17.6678 10.0207 17.6413 10.0625C17.5636 10.1736 17.5282 10.3088 17.5413 10.4438C17.5538 10.7063 17.7163 10.9188 17.9038 11.0188" stroke="#703D29" stroke-width="0.05"/>
<path d="M17.6038 10.1375C17.5021 10.1495 17.4081 10.1979 17.3392 10.2737C17.2703 10.3495 17.2311 10.4476 17.2288 10.55C17.2288 10.8312 17.2913 10.9437 17.4476 11.15C17.6038 11.3625 18.1163 11.75 18.1163 12.1937C18.1163 12.4625 18.0413 12.6312 17.8476 12.7187C17.7226 12.7812 17.5788 12.7187 17.5101 12.6562C17.3476 12.5062 17.4163 12.25 17.5851 12.2187C17.7913 12.1812 17.8288 12.5062 17.6288 12.4875" stroke="#703D29" stroke-width="0.05"/>
<path d="M17.2476 10.4125C17.0914 10.425 16.9351 10.5562 16.9351 10.725C16.9351 10.9625 17.0289 11.075 17.2226 11.3125C17.3851 11.5187 17.8539 11.875 17.8414 12.2187C17.8414 12.3437 17.7476 12.5062 17.6601 12.4875" stroke="#703D29" stroke-width="0.05"/>
<path d="M16.8726 15.2187C16.9539 15.0375 17.1476 15.1187 17.1601 15.2187C17.1851 15.45 16.9851 15.5187 16.8414 15.4812C16.8081 15.4723 16.7771 15.4566 16.7502 15.4351C16.7233 15.4135 16.7012 15.3867 16.6851 15.3562C16.6658 15.3213 16.6536 15.2828 16.6493 15.2431C16.645 15.2034 16.6487 15.1633 16.6601 15.125C16.6724 15.0884 16.6915 15.0545 16.7164 15.025C16.7369 14.9959 16.7623 14.9705 16.7914 14.95C16.8539 14.9125 16.9101 14.9125 17.0039 14.9125C17.3476 14.9125 17.6539 15.3187 17.7539 15.75C17.7914 15.8875 17.8351 16.2062 17.7726 16.5C17.7225 16.7655 17.5966 17.0107 17.4101 17.2062C17.2319 17.3728 17.0182 17.4967 16.7851 17.5687C16.7061 17.5939 16.6216 17.596 16.5414 17.575C16.3664 17.5187 16.2539 17.3562 16.3414 17.1375C16.4164 16.975 16.6789 16.8875 16.7976 17.1C16.8101 17.1187 16.8226 17.1562 16.8226 17.1937C16.8226 17.25 16.7976 17.3187 16.7601 17.3437C16.6726 17.4 16.5289 17.3812 16.5351 17.2187" stroke="#703D29" stroke-width="0.05" stroke-linecap="round"/>
<path d="M16.6101 17.3625C16.6726 17.3875 16.7101 17.3812 16.7914 17.35L16.9039 17.2875C17.0664 17.1937 17.2539 17.05 17.4289 16.7187C17.4762 16.6299 17.5119 16.5354 17.5351 16.4375C17.5539 16.375 17.5664 16.3 17.5726 16.2312C17.5776 15.8886 17.4724 15.5534 17.2726 15.275C17.2039 15.175 17.1476 15.1187 17.0101 15.1125M16.4164 17.05C16.4084 17.0077 16.4118 16.964 16.4262 16.9235C16.4406 16.8829 16.4655 16.8469 16.4983 16.819C16.5311 16.7912 16.5707 16.7726 16.6131 16.765C16.6555 16.7574 16.6991 16.7612 16.7395 16.776C16.7799 16.7907 16.8157 16.816 16.8433 16.849C16.8708 16.8821 16.8891 16.9219 16.8963 16.9643C16.9034 17.0068 16.8992 17.0504 16.8841 17.0907C16.869 17.1309 16.8435 17.1665 16.8101 17.1937" stroke="#703D29" stroke-width="0.05"/>
<path d="M16.5101 16.8C16.5204 16.7465 16.5492 16.6984 16.5915 16.6641C16.6338 16.6298 16.6869 16.6115 16.7413 16.6125C16.8016 16.6141 16.8588 16.6392 16.9008 16.6824C16.9428 16.7256 16.9663 16.7835 16.9663 16.8437C16.9668 16.9039 16.9445 16.9619 16.9038 17.0062" stroke="#703D29" stroke-width="0.05"/>
<path d="M16.9601 16.7937C17.0804 16.7035 17.1781 16.5865 17.2453 16.452C17.3126 16.3175 17.3476 16.1691 17.3476 16.0187C17.3476 15.7625 17.2476 15.4937 17.1226 15.3937" stroke="#703D29" stroke-width="0.05"/>
<path d="M17.2913 16.675C17.196 16.833 17.06 16.9625 16.8976 17.05" stroke="#703D29" stroke-width="0.05" stroke-linecap="round"/>
<path d="M17.9101 17.5688C17.8476 17.4313 17.7351 17.3688 17.5476 17.35C17.3601 17.3313 17.2038 17.3813 17.0351 17.4688C16.8324 17.5624 16.661 17.7123 16.5413 17.9007C16.4216 18.0891 16.3587 18.308 16.3601 18.5313C16.3625 18.7354 16.405 18.9372 16.4851 19.125C16.5413 19.225 16.6726 19.6875 17.4413 20C17.9613 20.1621 18.5029 20.2443 19.0476 20.2438C19.6976 20.2688 20.2976 20.2938 20.6476 20.7188" stroke="#703D29" stroke-width="0.05"/>
<path d="M16.9788 17.7062C17.1851 17.5687 17.5726 17.3937 17.9226 17.5687C17.9833 17.5946 18.0383 17.6322 18.0844 17.6794C18.1306 17.7266 18.1669 17.7824 18.1913 17.8437C18.2243 17.9442 18.2313 18.0513 18.2116 18.1551C18.1919 18.259 18.1462 18.3561 18.0788 18.4375C18.0226 18.5 17.9101 18.6 17.7663 18.6062C17.5288 18.6062 17.4726 18.4437 17.4663 18.4062C17.4413 18.2312 17.5413 18.1625 17.5913 18.1437C17.6351 18.1312 17.7663 18.1375 17.7913 18.2312C17.8038 18.2625 17.8038 18.3125 17.7788 18.3562" stroke="#703D29" stroke-width="0.05" stroke-linecap="round"/>
<path d="M17.7913 18.3187C17.8101 18.2562 17.8038 18.1812 17.7413 18.1125C17.6938 18.0632 17.6317 18.0305 17.5642 18.0192C17.4966 18.008 17.4272 18.0187 17.3663 18.05C17.3226 18.0812 17.2663 18.1125 17.2163 18.1875C17.1913 18.2125 17.1538 18.2562 17.1413 18.2875C17.0976 18.3562 17.0788 18.4125 17.0788 18.4437C16.9226 18.8812 17.1726 19.3437 17.4851 19.5437C17.7601 19.7187 18.0351 19.7687 18.3851 19.7937C18.5413 19.8125 18.6351 19.8125 18.7913 19.825H19.3913C19.5412 19.8173 19.6914 19.8173 19.8413 19.825C20.0288 19.8437 20.1601 19.85 20.3163 19.875C20.4163 19.8875 20.5351 19.9062 20.6538 19.9375C20.6913 19.9375 20.7288 19.95 20.7663 19.9625L20.8413 19.9812C21.0663 20.05 21.2788 20.1312 21.4538 20.2437C21.5038 20.275 21.5663 20.3062 21.6101 20.35L21.6913 20.425C21.8163 20.55 21.9413 20.675 21.9663 20.8437V20.9437C21.9663 21.0562 21.8788 21.2125 21.6351 21.2562" stroke="#703D29" stroke-width="0.05"/>
<path d="M20.6601 20.9875C20.5976 21.125 20.6726 21.1875 20.7601 21.2C20.8976 21.2187 20.9663 21.1125 20.9788 21.0125C20.9814 20.9748 20.9762 20.937 20.9635 20.9015C20.9509 20.8659 20.931 20.8334 20.9052 20.8058C20.8794 20.7782 20.8482 20.7563 20.8136 20.7413C20.7789 20.7263 20.7416 20.7187 20.7038 20.7187C20.636 20.7203 20.5701 20.7419 20.5145 20.7808C20.4588 20.8197 20.416 20.8742 20.3913 20.9375C20.3721 20.9852 20.3615 21.036 20.3601 21.0875C20.3551 21.181 20.3864 21.2728 20.4476 21.3437C20.4902 21.3914 20.5421 21.4299 20.6002 21.4568C20.6582 21.4836 20.7211 21.4984 20.7851 21.5C21.0476 21.5062 21.2538 21.2625 21.2538 21.0125C21.2538 20.5312 20.5413 20.2625 20.2538 20.2C19.8874 20.1099 19.5123 20.0596 19.1351 20.05C18.9163 20.0437 18.7476 20.05 18.5038 20.0187C18.2851 20 18.1663 19.9875 17.9413 19.9375C17.6504 19.8748 17.381 19.7369 17.1601 19.5375C16.952 19.3834 16.8073 19.1587 16.7532 18.9055C16.6992 18.6523 16.7394 18.3881 16.8663 18.1625C16.9344 18.0469 17.0276 17.9481 17.139 17.8735C17.2505 17.7988 17.3773 17.7502 17.5101 17.7312C17.7476 17.7 17.9476 17.8 18.0726 18.0312C18.1351 18.1437 18.1101 18.3312 18.0663 18.4187C18.0356 18.4723 17.9922 18.5174 17.9398 18.5501C17.8875 18.5828 17.8279 18.6021 17.7663 18.6062C17.5288 18.6062 17.4726 18.4437 17.4663 18.4062C17.4413 18.2312 17.5413 18.1625 17.5913 18.1437C17.6351 18.1312 17.7663 18.1375 17.7913 18.2312C17.8038 18.2625 17.8038 18.3125 17.7788 18.3562" stroke="#703D29" stroke-width="0.05"/>
<path d="M19.0788 9.9625L19.0538 9.93125C18.9476 9.78125 18.7601 9.7375 18.6226 9.8375C18.4601 9.9625 18.4163 10.175 18.4663 10.4C18.5015 10.5429 18.5912 10.6663 18.7163 10.7438" stroke="#703D29" stroke-width="0.05" stroke-linecap="round"/>
<path d="M24.9226 10.4375C24.6726 10.7125 24.4163 10.8 24.0413 10.8125C23.9163 10.8125 23.6976 10.775 23.5663 10.6812C23.4851 10.6187 23.3913 10.5187 23.4476 10.3375C23.4851 10.2187 23.6788 9.8875 23.6851 9.65625C23.7038 9.30625 23.5663 9.1125 23.3538 9.0375C22.9663 8.9 22.5413 9.2875 22.2913 9.375C22.1601 9.41875 22.0913 9.425 21.9726 9.425C21.8476 9.425 21.7851 9.41875 21.6476 9.375C21.3976 9.2875 20.9788 8.9 20.5851 9.0375C20.3726 9.1125 20.2413 9.30625 20.2538 9.6625C20.2601 9.8875 20.4538 10.225 20.4913 10.3375C20.5538 10.5187 20.4601 10.6187 20.3726 10.6812C20.2476 10.775 20.0163 10.8125 19.9038 10.8062C19.5288 10.8 19.2726 10.7125 19.0226 10.4375" stroke="#703D29" stroke-width="0.05"/>
<path d="M20.5789 20.1125C20.6289 20.1312 20.5914 20.1 20.9101 20.2375C21.2012 20.3385 21.4499 20.5344 21.6164 20.7937C21.6895 20.9341 21.7095 21.0961 21.6726 21.25" stroke="#703D29" stroke-width="0.05" stroke-linecap="round"/>
<path d="M20.6038 21.4625C20.6658 21.495 20.7339 21.5142 20.8038 21.5187C21.0663 21.525 21.2726 21.2812 21.2726 21.0312C21.2726 20.8563 21.1788 20.7062 21.0476 20.5938" stroke="#703D29" stroke-width="0.05"/>
<path d="M20.6601 20.9875C20.5976 21.1312 20.6851 21.2062 20.7726 21.2187C20.9101 21.2312 20.9851 21.1312 20.9976 21.0312C21.0014 20.979 20.9905 20.9268 20.9662 20.8804C20.9419 20.834 20.9052 20.7954 20.8601 20.7687" stroke="#703D29" stroke-width="0.05" stroke-linecap="round"/>
<path d="M26.3789 10.1375C26.5789 10.1375 26.7539 10.3625 26.7539 10.5875C26.7539 10.8562 26.6164 11.0187 26.5101 11.1375C26.4289 11.2375 26.3414 11.325 26.2351 11.4312" stroke="#703D29" stroke-width="0.05"/>
<path d="M26.1414 9.925C26.2094 9.96238 26.269 10.0135 26.3164 10.075C26.3976 10.2 26.4226 10.3062 26.4164 10.4625C26.4039 10.725 26.2164 10.9062 26.0414 11.025M25.7476 9.925L25.7851 9.96875C25.9039 10.1062 25.9101 10.3062 25.8851 10.4187C25.8711 10.4884 25.8427 10.5544 25.8018 10.6125C25.761 10.6706 25.7084 10.7195 25.6476 10.7562M25.3351 9.85625C25.4976 9.98125 25.5476 10.1937 25.4914 10.4187C25.4539 10.575 25.3539 10.6687 25.2289 10.7437M25.9226 13.3125C25.9414 13.375 25.9789 13.3937 26.0164 13.4375C26.1236 13.5438 26.2575 13.6193 26.4039 13.6562C26.5539 13.7 26.6914 13.6687 26.7976 13.6M16.6101 16.975C16.6851 16.975 16.7664 17.0312 16.8164 17.1187C16.8226 17.1312 16.8414 17.1687 16.8414 17.2125C16.8414 17.2687 16.8164 17.325 16.7789 17.35C16.6851 17.4125 16.5289 17.3812 16.5289 17.225" stroke="#703D29" stroke-width="0.05" stroke-linecap="round"/>
<path d="M17.0913 14.9187C17.4038 14.9812 17.6976 15.35 17.7913 15.75C17.8288 15.8937 17.8726 16.2062 17.8101 16.5C17.7575 16.7691 17.6272 17.0168 17.4351 17.2125C17.3948 17.2558 17.3509 17.2955 17.3038 17.3312L17.2413 17.375M16.7413 16.6187C16.8663 16.6187 16.9788 16.7375 16.9788 16.8687C16.9793 16.9289 16.957 16.9869 16.9163 17.0312" stroke="#703D29" stroke-width="0.05"/>
<path d="M16.6601 16.7562C16.7913 16.7562 16.9163 16.8812 16.9163 17.0187C16.9164 17.0545 16.9086 17.0898 16.8935 17.1222C16.8784 17.1546 16.8563 17.1833 16.8288 17.2062" stroke="#703D29" stroke-width="0.05"/>
<path d="M17.8726 15.4312C17.9894 15.5702 18.0709 15.7353 18.1101 15.9125M18.1101 16.4437C18.0893 16.5306 18.0578 16.6146 18.0163 16.6937C17.9582 16.8035 17.8822 16.9028 17.7913 16.9875" stroke="#703D29" stroke-width="0.05" stroke-linecap="round"/>
<path d="M17.8914 14.4812C18.0039 14.575 18.0789 14.6687 18.1101 14.7812" stroke="#703D29" stroke-width="0.05"/>
<path d="M18.1164 14.1812C18.075 14.2957 18.0012 14.3956 17.9039 14.4687M17.3289 13.3937L17.4664 13.3562L17.5476 13.2937L17.5976 13.225L17.6414 13.1125L17.6601 13.0187" stroke="#703D29" stroke-width="0.05" stroke-linecap="round"/>
<path d="M17.0601 12.9187C17.0163 12.9312 16.9601 12.9437 16.9038 12.9687C16.8159 13.0112 16.7405 13.0758 16.6851 13.1562C16.5368 13.3925 16.4874 13.6776 16.5476 13.95C16.5725 14.0748 16.6213 14.1937 16.6913 14.3L16.7538 14.3875C16.8413 14.4687 16.9163 14.5125 17.0413 14.4937" stroke="#703D29" stroke-width="0.05"/>
<path d="M17.8101 12.325C17.7914 12.4062 17.7476 12.5062 17.6226 12.4937" stroke="#703D29" stroke-width="0.05" stroke-linecap="round"/>
<path d="M17.3539 12.8687C17.2289 12.75 16.9789 12.7187 16.7226 12.8812L16.6226 12.9625C16.5895 12.9922 16.5601 13.0257 16.5351 13.0625C16.4688 13.158 16.4182 13.2635 16.3851 13.375C16.3414 13.5625 16.3414 13.725 16.3476 13.7687C16.3476 13.8312 16.3601 13.8875 16.3664 13.9375C16.4039 14.1125 16.4539 14.2375 16.5101 14.325C16.5664 14.4187 16.6976 14.6375 16.9914 14.6625C17.1039 14.6687 17.2914 14.6187 17.3039 14.475" stroke="#703D29" stroke-width="0.05"/>
<path d="M24.7351 10.275C24.7539 10.175 24.8789 10.1562 24.9226 10.2125C24.9976 10.3125 24.9476 10.475 24.7976 10.5187C24.7538 10.5266 24.7087 10.5227 24.667 10.5073C24.6252 10.4919 24.5883 10.4656 24.5601 10.4312C24.4976 10.35 24.5039 10.2562 24.5289 10.1812C24.5414 10.1312 24.5851 10.0875 24.6351 10.0437C24.8039 9.91874 25.0789 9.94374 25.1726 10.1687C25.2851 10.4437 25.0351 10.6562 24.7976 10.8125C24.5101 11.0125 24.1726 11.05 23.9226 11.0437C23.3476 11.0437 22.9164 10.7687 22.6289 10.6062C22.5664 10.575 22.4976 10.5812 22.4601 10.625C22.4414 10.6503 22.433 10.6818 22.4364 10.713C22.4399 10.7443 22.4551 10.7731 22.4789 10.7937" stroke="#703D29" stroke-width="0.05" stroke-linecap="round"/>
<path d="M24.8476 10.1812C24.9101 10.1812 24.9226 10.2062 24.9413 10.2312C25.0163 10.325 24.9601 10.4875 24.8163 10.5375M25.9288 13.7562C25.7101 13.9937 25.9163 14.4 26.0788 14.4937C26.1351 14.5375 26.1601 14.5125 26.2038 14.5375" stroke="#703D29" stroke-width="0.05" stroke-linecap="round"/>
<path d="M25.9413 13.3C25.8726 13.35 25.8476 13.4062 25.8413 13.5062C25.8379 13.5517 25.844 13.5974 25.859 13.6404C25.8741 13.6834 25.8978 13.7228 25.9288 13.7562C26.0875 13.9023 26.2945 13.9847 26.5101 13.9875C26.6351 13.9875 26.7601 13.9625 26.8851 13.8812C27.0042 13.8029 27.089 13.6823 27.1226 13.5437M25.8226 17.4062L25.8101 17.5625C25.7972 17.7151 25.7547 17.8636 25.6851 18C25.6204 18.1321 25.5313 18.2509 25.4226 18.35C25.316 18.4552 25.191 18.5399 25.0538 18.6C24.9258 18.6667 24.7891 18.7151 24.6476 18.7437C24.3761 18.7979 24.0979 18.8105 23.8226 18.7812C23.6538 18.7687 23.5663 18.75 23.3976 18.7312C23.2601 18.725 23.1851 18.7125 23.0476 18.7125C22.8149 18.7069 22.5834 18.7472 22.3663 18.8312C22.1976 18.8937 22.0101 19.0187 21.9663 19.0687C21.9288 19.0125 21.7351 18.8937 21.5726 18.8312C21.4685 18.7867 21.3594 18.7553 21.2476 18.7375C21.1101 18.7125 21.0288 18.7125 20.8851 18.7125C20.7476 18.7125 20.6726 18.725 20.5351 18.7375C20.3726 18.75 20.2851 18.775 20.1163 18.7812C19.9601 18.7937 19.8726 18.8 19.7226 18.7937C19.5754 18.7927 19.4287 18.776 19.2851 18.7437C19.1439 18.7171 19.0072 18.6708 18.8788 18.6062C18.7434 18.5436 18.6206 18.4568 18.5163 18.35C18.4069 18.249 18.3178 18.1281 18.2538 17.9937C18.1851 17.8593 18.1427 17.7129 18.1288 17.5625C18.1163 17.5 18.1163 17.4062 18.1163 17.4062V11.0437H25.8163V17.4062H25.8226Z" stroke="#703D29" stroke-width="0.05"/>
<path d="M17.4976 18.3125C17.4976 18.2711 17.5141 18.2313 17.5434 18.202C17.5727 18.1727 17.6124 18.1562 17.6539 18.1562C17.6953 18.1562 17.7351 18.1727 17.7644 18.202C17.7937 18.2313 17.8101 18.2711 17.8101 18.3125C17.8101 18.3539 17.7937 18.3937 17.7644 18.423C17.7351 18.4523 17.6953 18.4687 17.6539 18.4687C17.6124 18.4687 17.5727 18.4523 17.5434 18.423C17.5141 18.3937 17.4976 18.3539 17.4976 18.3125ZM16.5289 17.2125C16.5289 17.1312 16.5789 17.0687 16.6414 17.0687C16.7039 17.0687 16.7476 17.1312 16.7476 17.2125C16.7476 17.2875 16.6976 17.35 16.6414 17.35C16.5789 17.35 16.5289 17.2875 16.5289 17.2125Z" fill="#C7B37F" stroke="#C7B37F" stroke-width="0.05"/>
<path d="M17.0789 14.4375C17.0789 14.375 17.1289 14.325 17.1851 14.325C17.2476 14.325 17.2914 14.375 17.2914 14.4375C17.2914 14.5 17.2476 14.55 17.1851 14.55C17.1226 14.55 17.0789 14.5 17.0789 14.4375ZM18.9976 10.3375C18.9976 10.275 19.0289 10.2125 19.0851 10.2125C19.1414 10.2062 19.1914 10.25 19.1976 10.3125C19.1976 10.375 19.1664 10.4375 19.1101 10.4375C19.0539 10.4437 19.0101 10.4 18.9976 10.3375Z" fill="#C7B37F"/>
<path d="M16.9538 15.0875C16.9288 15.0937 16.9163 15.1 16.9038 15.1187C16.8851 15.1375 16.8788 15.1437 16.8663 15.175L16.8538 15.25M17.1476 16.9187L17.2101 16.8562L17.2476 16.7937L17.2788 16.7312L17.3226 16.65M17.2413 17.525L17.1476 17.5687L17.0788 17.6062C17.051 17.6217 17.0239 17.6384 16.9976 17.6562L16.9226 17.7187M17.8601 15.35L17.8101 15.3L17.7476 15.25L17.6913 15.2" stroke="#C7B37F" stroke-width="0.05" stroke-linecap="round"/>
<path d="M17.8851 14.525L17.8101 14.5562C17.7799 14.5672 17.7483 14.5735 17.7163 14.575" stroke="#C7B37F" stroke-width="0.05"/>
<path d="M16.8351 13.4875C16.8476 13.525 16.8476 13.55 16.8663 13.5812C16.8788 13.625 16.8976 13.65 16.9226 13.6875C16.9632 13.7554 17.0188 13.8131 17.0851 13.8562L17.1788 13.9062M17.1163 13.5437L17.1976 13.5812C17.2568 13.6067 17.3207 13.6194 17.3851 13.6187L17.4976 13.6125M17.9476 11.0687L17.8226 10.9937C17.7663 10.9625 17.7413 10.9375 17.6976 10.9C17.6722 10.8751 17.6492 10.8479 17.6288 10.8187L17.5788 10.7375M18.0476 10.45L18.0851 10.5562C18.1075 10.6022 18.137 10.6444 18.1726 10.6812C18.2351 10.7437 18.2788 10.7625 18.3476 10.8187M18.4351 10.4437C18.4538 10.4875 18.4538 10.5062 18.4788 10.5437C18.4913 10.575 18.5038 10.5937 18.5288 10.6187L18.6101 10.7C18.6538 10.7375 18.6851 10.7437 18.7351 10.7687" stroke="#C7B37F" stroke-width="0.05" stroke-linecap="round"/>
<path d="M22.8289 9.9375C22.8289 9.83125 22.7226 9.825 22.6789 9.825C22.5664 9.825 22.5351 9.89375 22.3914 9.96875C22.2674 10.0514 22.1216 10.095 21.9726 10.0937C21.8237 10.0946 21.6779 10.0511 21.5539 9.96875C21.4101 9.89375 21.3851 9.825 21.2664 9.825C21.2475 9.8258 21.2289 9.83032 21.2118 9.83829C21.1947 9.84627 21.1793 9.85755 21.1665 9.87148C21.1537 9.88541 21.1438 9.90173 21.1374 9.91949C21.1309 9.93725 21.128 9.95611 21.1289 9.975V10.0312L21.1476 10.0437C21.1476 9.99375 21.1539 9.96875 21.1789 9.9375C21.1911 9.92262 21.2063 9.91049 21.2236 9.90187C21.2408 9.89326 21.2596 9.88836 21.2789 9.8875C21.3914 9.8875 21.4351 9.9625 21.5789 10.0375C21.7664 10.1375 21.8414 10.1562 21.9976 10.1625C22.1486 10.1646 22.2968 10.121 22.4226 10.0375C22.5664 9.9625 22.6101 9.88125 22.7226 9.88125C22.7601 9.88125 22.7851 9.90625 22.8039 9.94375V10L22.8164 10.0062C22.8164 9.9875 22.8289 9.98125 22.8289 9.94375V9.9375Z" fill="#703D29" stroke="#703D29" stroke-width="0.05"/>
<path d="M18.5226 18.8375C18.5539 18.8063 18.5789 18.8188 18.5851 18.8C18.5851 18.7875 18.5851 18.7875 18.5664 18.7813L18.5101 18.7688L18.4601 18.7438C18.4539 18.7438 18.4351 18.7313 18.4289 18.7438C18.4226 18.7688 18.4914 18.7688 18.4664 18.8313C18.4548 18.8593 18.4378 18.8848 18.4164 18.9063L18.2539 19.0938L18.2414 19.1V18.8313L18.2476 18.7188C18.2601 18.6938 18.2976 18.7188 18.3039 18.6938C18.3039 18.6875 18.3039 18.6813 18.2851 18.675C18.2726 18.675 18.2539 18.675 18.2164 18.6563L18.1539 18.625C18.1414 18.625 18.1226 18.6125 18.1164 18.625L18.1226 18.6438C18.1476 18.6563 18.1539 18.6688 18.1539 18.7063V19.1688C18.1539 19.2 18.1601 19.2063 18.1664 19.2125C18.1726 19.2125 18.1789 19.2125 18.1914 19.1938L18.5226 18.8375Z" fill="#703D29"/>
<path d="M18.7164 18.9125C18.7351 18.8437 18.7789 18.8875 18.7789 18.8625C18.7851 18.85 18.7789 18.85 18.7664 18.8437L18.6851 18.8187C18.6601 18.8187 18.6351 18.8 18.6101 18.7937C18.6101 18.7937 18.5914 18.7875 18.5851 18.7937C18.5789 18.825 18.6539 18.825 18.6351 18.8875L18.5289 19.2312C18.5101 19.2937 18.4664 19.2687 18.4601 19.2937V19.3L18.5351 19.325L18.6351 19.3562H18.6539C18.6664 19.3312 18.5789 19.3375 18.6101 19.25L18.7164 18.9125ZM18.9476 18.975C18.9601 18.9375 18.9789 18.9437 19.0039 18.95C19.0664 18.9687 19.0914 19.0312 19.0664 19.1062C19.0539 19.1437 19.0414 19.1812 18.9414 19.1562C18.9226 19.15 18.8976 19.1437 18.9039 19.125L18.9476 18.9812V18.975ZM18.7726 19.2875C18.7414 19.375 18.6976 19.3375 18.6914 19.3625C18.6914 19.375 18.7039 19.375 18.7101 19.3812L18.8101 19.4062L18.8601 19.425H18.8851C18.8914 19.3937 18.8226 19.4062 18.8414 19.3312L18.8789 19.2062C18.8851 19.1812 18.8851 19.175 18.9164 19.1875C18.9539 19.1937 18.9601 19.2062 18.9664 19.2375L18.9851 19.3625C18.9976 19.4187 19.0039 19.4687 19.0476 19.4875C19.0789 19.4875 19.1226 19.4875 19.1351 19.4625L19.1226 19.45H19.1039C19.1039 19.45 19.0851 19.45 19.0851 19.4312L19.0414 19.2062C19.0414 19.1937 19.0664 19.1937 19.0914 19.1875C19.107 19.1791 19.1206 19.1676 19.1314 19.1536C19.1421 19.1396 19.1498 19.1234 19.1539 19.1062C19.1601 19.075 19.1789 18.9687 19.0414 18.925L18.9101 18.8937L18.8351 18.8687H18.8164C18.8101 18.9 18.8851 18.8937 18.8601 18.975L18.7664 19.2875H18.7726ZM19.2976 19.4437C19.2726 19.5312 19.2101 19.475 19.2039 19.5062C19.2039 19.5187 19.2101 19.525 19.2226 19.525L19.3164 19.5437L19.4039 19.5687C19.4226 19.5687 19.4351 19.5812 19.4414 19.5625C19.4414 19.5437 19.3601 19.5437 19.3789 19.45L19.4601 19.125C19.4601 19.0875 19.4726 19.0875 19.4976 19.0937L19.5601 19.1062C19.6289 19.125 19.5914 19.2 19.6226 19.2062C19.6351 19.2062 19.6351 19.1812 19.6351 19.1687L19.6414 19.1062V19.0812L19.4351 19.0375L19.2351 18.9875C19.2289 18.9875 19.2226 18.9875 19.2226 19L19.1914 19.0937C19.1851 19.1 19.1789 19.1187 19.1914 19.1187C19.2226 19.125 19.2226 19.025 19.2976 19.0437L19.3539 19.0562C19.3789 19.0625 19.3851 19.0687 19.3789 19.1062L19.2976 19.4437ZM20.0914 19.2375C20.1164 19.2 20.1414 19.2062 20.1476 19.1937C20.1476 19.1812 20.1351 19.1812 20.1226 19.175H20.0664L20.0101 19.1562C20.0039 19.1562 19.9851 19.15 19.9851 19.1625C19.9789 19.1875 20.0476 19.175 20.0351 19.2437C20.0351 19.2562 20.0289 19.2812 19.9976 19.325L19.8726 19.5312L19.8539 19.5437V19.5312L19.8101 19.2812C19.8018 19.2444 19.7997 19.2063 19.8039 19.1687C19.8039 19.1375 19.8476 19.1562 19.8476 19.1375C19.8476 19.125 19.8476 19.125 19.8226 19.1187L19.7539 19.1125C19.7289 19.1125 19.7101 19.1 19.6914 19.0937C19.6789 19.0937 19.6601 19.0875 19.6539 19.1L19.6601 19.1125C19.6914 19.125 19.6976 19.1375 19.7039 19.1687L19.7851 19.625C19.7914 19.6562 19.7976 19.6687 19.8039 19.6687C19.8101 19.6687 19.8164 19.6687 19.8289 19.65L20.0914 19.2375ZM20.1289 19.6625C20.1289 19.6812 20.1289 19.6812 20.1414 19.6937C20.1789 19.7062 20.2039 19.7312 20.2476 19.7375C20.3351 19.75 20.4101 19.6937 20.4226 19.6C20.4414 19.5062 20.4039 19.4687 20.3351 19.4187C20.2539 19.3625 20.2226 19.35 20.2289 19.2937C20.2351 19.25 20.2726 19.2312 20.3164 19.2312C20.4289 19.25 20.4164 19.3937 20.4289 19.3937C20.4476 19.3937 20.4476 19.3875 20.4476 19.3687L20.4601 19.2687V19.2437H20.4226C20.3976 19.2437 20.3789 19.2125 20.3226 19.2C20.2476 19.1875 20.1789 19.2437 20.1664 19.325C20.1539 19.4 20.1914 19.4375 20.2414 19.475C20.3414 19.5437 20.3789 19.5625 20.3664 19.625C20.3601 19.6875 20.3101 19.7125 20.2601 19.7062C20.1851 19.6937 20.1601 19.6187 20.1476 19.5437C20.1476 19.5312 20.1476 19.525 20.1351 19.525C20.1226 19.525 20.1226 19.5437 20.1226 19.5562V19.6625H20.1289ZM21.1164 19.3812C21.1351 19.3375 21.1664 19.3437 21.1664 19.325C21.1664 19.3125 21.1601 19.3187 21.1414 19.3125H21.0851L21.0289 19.3062C21.0226 19.3062 21.0039 19.3062 21.0039 19.3187C21.0039 19.3437 21.0664 19.3187 21.0664 19.3875C21.0664 19.4 21.0601 19.425 21.0351 19.475L20.9226 19.6937L20.9164 19.7125L20.9101 19.6937L20.8414 19.4437C20.8301 19.4116 20.8238 19.3778 20.8226 19.3437C20.8226 19.3125 20.8664 19.325 20.8664 19.3062C20.8664 19.2937 20.8664 19.2937 20.8414 19.2937H20.7664L20.7039 19.2812C20.6914 19.2812 20.6726 19.275 20.6664 19.2875L20.6789 19.3C20.7039 19.3125 20.7164 19.3187 20.7226 19.35L20.8539 19.7937L20.8789 19.8375C20.8851 19.8375 20.8914 19.8375 20.8976 19.8125L21.1164 19.375V19.3812Z" fill="#703D29"/>
<path d="M21.2226 19.7437C21.2226 19.8187 21.1601 19.8062 21.1601 19.8375C21.1601 19.85 21.1664 19.8437 21.1789 19.8437H21.3164L21.3414 19.8375C21.3414 19.8 21.2539 19.85 21.2539 19.7125V19.45L21.2601 19.4437L21.2726 19.45L21.5914 19.8437L21.6101 19.85L21.6226 19.8312V19.4125C21.6226 19.3312 21.6851 19.35 21.6851 19.3312C21.6851 19.3312 21.6851 19.3187 21.6664 19.3187H21.5226C21.5101 19.3187 21.5101 19.325 21.5101 19.3312C21.5101 19.3562 21.5914 19.3437 21.5914 19.4125V19.6625L21.5851 19.6875L21.5601 19.6687L21.2976 19.3375C21.2851 19.3187 21.2914 19.3187 21.2726 19.3187H21.1601L21.1476 19.325C21.1476 19.3625 21.2226 19.3125 21.2226 19.4562V19.7437ZM21.8726 19.4C21.8726 19.3312 21.9226 19.3562 21.9226 19.3312C21.9226 19.325 21.9226 19.3187 21.8976 19.3187H21.7351C21.7351 19.3187 21.7164 19.3187 21.7164 19.3312C21.7164 19.3562 21.7851 19.3312 21.7851 19.4062V19.7625C21.7851 19.8312 21.7351 19.8125 21.7351 19.8375C21.7351 19.8375 21.7351 19.85 21.7476 19.85H21.9226C21.9351 19.85 21.9414 19.85 21.9414 19.8375C21.9414 19.8125 21.8664 19.85 21.8664 19.7562L21.8726 19.4ZM22.1539 19.7437C22.1539 19.8375 22.0789 19.8062 22.0789 19.8312C22.0789 19.8437 22.0914 19.8437 22.1039 19.8437H22.2914C22.3101 19.8437 22.3226 19.8437 22.3226 19.825C22.3226 19.8062 22.2351 19.825 22.2351 19.7375V19.4C22.2351 19.3625 22.2351 19.3625 22.2664 19.3625H22.3289C22.4039 19.3562 22.3789 19.4375 22.4101 19.4375C22.4226 19.4375 22.4164 19.4125 22.4164 19.4L22.4101 19.3375C22.4101 19.325 22.4101 19.3125 22.3976 19.3125L22.1914 19.3187H21.9851L21.9726 19.3375L21.9664 19.4375L21.9726 19.4625C22.0039 19.4625 21.9851 19.3625 22.0601 19.3625H22.1164C22.1414 19.3625 22.1476 19.3625 22.1539 19.4V19.75V19.7437ZM22.5476 19.6062H22.5226L22.5289 19.575L22.5726 19.4375V19.425L22.5851 19.4312L22.6476 19.5625L22.6601 19.5875C22.6601 19.6 22.6476 19.6 22.6351 19.6H22.5476V19.6062ZM22.6601 19.6375C22.6789 19.6375 22.6789 19.6375 22.7101 19.7L22.7226 19.75C22.7226 19.7937 22.6789 19.7875 22.6789 19.8125C22.6789 19.8187 22.6914 19.8187 22.7039 19.8125H22.7789L22.8601 19.8062C22.8789 19.8062 22.8851 19.8062 22.8851 19.7937C22.8851 19.7687 22.8476 19.7937 22.8226 19.75L22.6101 19.3125L22.5914 19.2875C22.5789 19.2875 22.5789 19.3 22.5726 19.3125L22.4351 19.775C22.4226 19.8187 22.3851 19.8187 22.3914 19.8375H22.5351C22.5476 19.8312 22.5664 19.8375 22.5664 19.8187C22.5664 19.8 22.4914 19.8187 22.4851 19.7625L22.4976 19.7C22.5101 19.65 22.5226 19.65 22.5351 19.65L22.6664 19.6375H22.6601ZM23.1789 19.325C23.1726 19.275 23.1789 19.275 23.2539 19.2625C23.3789 19.25 23.3414 19.3437 23.3789 19.3375C23.3914 19.3375 23.3789 19.3125 23.3789 19.3L23.3726 19.2312C23.3726 19.225 23.3664 19.2187 23.3539 19.2187C23.2914 19.2187 23.2476 19.2312 23.2039 19.2375L23.0289 19.2625C23.0164 19.2625 23.0101 19.2625 23.0101 19.275C23.0164 19.3062 23.0914 19.275 23.0976 19.3375L23.1414 19.6812C23.1539 19.775 23.0976 19.7437 23.1039 19.775C23.1039 19.775 23.1039 19.7812 23.1164 19.775L23.2039 19.7687L23.2789 19.7625C23.2976 19.7625 23.3101 19.7625 23.3101 19.7437C23.3101 19.725 23.2351 19.75 23.2226 19.6687L23.2101 19.5625C23.2039 19.5187 23.2039 19.5062 23.2289 19.5H23.2789C23.3476 19.4875 23.3414 19.5687 23.3601 19.5625C23.3789 19.5625 23.3726 19.5375 23.3664 19.5312L23.3476 19.4C23.3476 19.3812 23.3351 19.3812 23.3351 19.3812C23.3164 19.3812 23.3289 19.45 23.2726 19.4562L23.2289 19.4625C23.1976 19.4687 23.1976 19.4625 23.1914 19.4312L23.1789 19.325ZM23.4289 19.5C23.4539 19.6437 23.5601 19.7312 23.6914 19.7062C23.9039 19.6625 23.9101 19.4812 23.8914 19.375C23.8601 19.2187 23.7476 19.1437 23.6164 19.1687C23.4601 19.2 23.3976 19.3375 23.4289 19.5ZM23.4976 19.4375C23.4789 19.3375 23.4976 19.225 23.6039 19.2062C23.6914 19.1875 23.7914 19.2562 23.8164 19.4187C23.8351 19.5437 23.8164 19.6437 23.7039 19.6687C23.5851 19.6937 23.5164 19.5437 23.4976 19.4437V19.4375ZM24.0164 19.1812C24.0101 19.1375 24.0289 19.1312 24.0539 19.125C24.1164 19.1125 24.1664 19.1562 24.1851 19.225C24.1976 19.2687 24.2039 19.3125 24.1039 19.3375C24.0851 19.3375 24.0601 19.3437 24.0539 19.325L24.0226 19.1812H24.0164ZM24.0164 19.5375C24.0414 19.625 23.9851 19.6187 23.9851 19.6375C23.9914 19.6562 24.0039 19.65 24.0101 19.6437C24.0476 19.6437 24.0726 19.625 24.1101 19.6187L24.1726 19.6062C24.1851 19.6062 24.1851 19.6 24.1851 19.5937C24.1851 19.5687 24.1226 19.6125 24.1039 19.5312L24.0726 19.4062C24.0726 19.3812 24.0601 19.3812 24.0976 19.375C24.1289 19.3625 24.1414 19.3687 24.1664 19.3937L24.2476 19.4937C24.2789 19.5312 24.3101 19.575 24.3601 19.5625C24.3914 19.5562 24.4226 19.5312 24.4226 19.5062L24.4101 19.5L24.3914 19.5062C24.3914 19.5062 24.3726 19.5125 24.3664 19.5062L24.2164 19.325L24.2476 19.2875C24.2601 19.2625 24.2726 19.2312 24.2601 19.1875C24.2539 19.1562 24.2164 19.0562 24.0726 19.0875L23.9414 19.125L23.8664 19.1375C23.8539 19.1375 23.8476 19.1437 23.8539 19.15C23.8539 19.1812 23.9226 19.1375 23.9414 19.2125L24.0164 19.5375ZM24.5601 19.4125C24.5789 19.5 24.4976 19.4875 24.5039 19.5125C24.5039 19.5312 24.5226 19.525 24.5351 19.525L24.6226 19.4937L24.7164 19.475C24.7351 19.475 24.7476 19.475 24.7414 19.45C24.7414 19.4312 24.6601 19.475 24.6351 19.3875L24.5539 19.0562C24.5414 19.025 24.5539 19.0187 24.5726 19.0125L24.6351 19C24.7039 18.975 24.7039 19.0625 24.7289 19.0562C24.7476 19.0562 24.7289 19.025 24.7289 19.0125L24.7039 18.95C24.7039 18.95 24.7039 18.9312 24.6914 18.9375L24.4914 18.9937L24.2914 19.0375V19.0562L24.2976 19.1562C24.2976 19.1687 24.2976 19.1812 24.3164 19.1812C24.3476 19.175 24.2976 19.0812 24.3789 19.0625L24.4289 19.05C24.4539 19.0437 24.4664 19.05 24.4726 19.0812L24.5601 19.4125ZM24.9039 18.9562C24.8851 18.8937 24.9414 18.9 24.9289 18.875H24.9101L24.8226 18.9L24.7476 18.9187C24.7476 18.9187 24.7289 18.9187 24.7289 18.9312C24.7351 18.9562 24.8039 18.9187 24.8226 18.9812L24.9226 19.3312C24.9351 19.3937 24.8851 19.3937 24.8914 19.4125C24.8914 19.4187 24.8914 19.425 24.9039 19.4187L24.9726 19.4L25.0726 19.375C25.0914 19.375 25.0914 19.3687 25.0914 19.3562C25.0851 19.3375 25.0226 19.3875 24.9976 19.3L24.9039 18.9562ZM25.0476 19.125C25.0914 19.2687 25.2101 19.3375 25.3414 19.2937C25.5414 19.225 25.5289 19.0375 25.4914 18.9375C25.4414 18.7875 25.3164 18.7312 25.1914 18.7687C25.0414 18.825 24.9914 18.9687 25.0476 19.125ZM25.1101 19.0625C25.0726 18.9562 25.0726 18.8437 25.1789 18.8125C25.2601 18.7812 25.3664 18.8375 25.4226 18.9937C25.4601 19.1062 25.4539 19.2187 25.3476 19.2562C25.2351 19.2937 25.1476 19.1625 25.1101 19.0562V19.0625ZM25.5851 18.7187C25.5726 18.675 25.5851 18.6687 25.6101 18.6562C25.6726 18.6375 25.7351 18.675 25.7601 18.7437C25.7726 18.7812 25.7851 18.825 25.6914 18.8625C25.6726 18.8625 25.6476 18.875 25.6414 18.8625L25.5851 18.7187ZM25.6351 19.0687C25.6726 19.1562 25.6101 19.1562 25.6226 19.175C25.6226 19.1937 25.6351 19.1812 25.6476 19.1812L25.7414 19.1375L25.7976 19.125C25.8101 19.1187 25.8101 19.1125 25.8101 19.1062C25.7976 19.0812 25.7476 19.1312 25.7226 19.0562L25.6726 18.9375C25.6601 18.9125 25.6601 18.9062 25.6914 18.8937C25.7226 18.8812 25.7351 18.8875 25.7601 18.9125L25.8601 19C25.8914 19.0312 25.9289 19.0687 25.9851 19.05C26.0039 19.0375 26.0414 19.0062 26.0289 18.9875L26.0164 18.9812L26.0039 18.9937H25.9726L25.7976 18.8375L25.8226 18.7937C25.8295 18.778 25.8331 18.761 25.8331 18.7437C25.8331 18.7265 25.8295 18.7095 25.8226 18.6937C25.8164 18.6562 25.7601 18.5687 25.6289 18.6187L25.5039 18.675L25.4289 18.7L25.4164 18.7125C25.4289 18.7375 25.4851 18.6875 25.5164 18.7625L25.6414 19.075L25.6351 19.0687Z" fill="#703D29"/>
<path d="M18.5056 11.4345H21.7896V14.7145H18.5056V11.4345Z" fill="#D52B1E"/>
<path d="M20.0456 14.0145C20.0456 14.0145 20.0456 14.1345 20.0136 14.2265C19.9736 14.3345 19.9736 14.3345 19.9376 14.3865C19.8988 14.4499 19.847 14.5045 19.7856 14.5465C19.7056 14.5945 19.6256 14.6185 19.5456 14.6105C19.3296 14.5945 19.2256 14.3545 19.1776 14.1625C19.1256 13.9585 18.9776 13.8425 18.8776 13.9225C18.8216 13.9625 18.8216 14.0345 18.8656 14.1065C18.9087 14.1585 18.9655 14.1973 19.0296 14.2185L18.9136 14.3665C18.9136 14.3665 18.6616 14.3345 18.6136 14.0705C18.5936 13.9705 18.6416 13.7865 18.8096 13.7305C19.0216 13.6585 19.1536 13.8105 19.2216 13.9385C19.3096 14.1145 19.3496 14.4345 19.5976 14.3865C19.7336 14.3585 19.7976 14.1625 19.7976 14.0705L19.8936 13.9665L20.0416 14.0145H20.0456Z" fill="white"/>
<path d="M20.2496 14.0145C20.2496 14.0145 20.2496 14.1345 20.2816 14.2265C20.3216 14.3345 20.3216 14.3345 20.3576 14.3865C20.3964 14.4499 20.4482 14.5045 20.5096 14.5465C20.5896 14.5945 20.6696 14.6185 20.7496 14.6105C20.9656 14.5945 21.0696 14.3545 21.1176 14.1625C21.1696 13.9585 21.3176 13.8425 21.4176 13.9225C21.4736 13.9625 21.4736 14.0345 21.4296 14.1065C21.3865 14.1585 21.3297 14.1973 21.2656 14.2185L21.3816 14.3665C21.3816 14.3665 21.6336 14.3345 21.6816 14.0705C21.7016 13.9705 21.6536 13.7865 21.4856 13.7305C21.2736 13.6585 21.1416 13.8105 21.0736 13.9385C20.9856 14.1145 20.9456 14.4345 20.6976 14.3865C20.5616 14.3585 20.4976 14.1625 20.4976 14.0705L20.4016 13.9665L20.2536 14.0145H20.2496Z" fill="white"/>
<path d="M20.4416 12.6225L20.8736 12.1545C20.8736 12.1545 20.9376 12.1025 20.9376 12.0185L20.8496 12.0345L20.8296 11.9865L20.8256 11.9425L20.9456 11.9145V11.8625L20.9576 11.8105L20.8296 11.8185L20.8416 11.7625L20.8616 11.7225L20.9376 11.7065H21.0136C21.0856 11.5705 21.3816 11.4505 21.5896 11.6665C21.7416 11.8265 21.7096 12.1145 21.5096 12.1945C21.4649 12.2144 21.4154 12.2208 21.3671 12.213C21.3188 12.2051 21.2738 12.1834 21.2376 12.1505L21.3176 11.9905C21.4256 12.0585 21.5176 11.9785 21.5096 11.8945C21.5016 11.7865 21.4296 11.7225 21.3376 11.7145C21.2456 11.7065 21.1776 11.7545 21.1376 11.8345C21.1136 11.8865 21.1256 11.9225 21.1176 11.9785C21.1096 12.0385 21.1176 12.0705 21.0976 12.1305C21.0781 12.1857 21.0451 12.2352 21.0016 12.2745L20.5616 12.7545L18.8416 14.6105L18.7136 14.4905L20.4416 12.6225Z" fill="#FEDF00"/>
<path d="M19.1776 12.7825C19.1776 12.7825 19.2856 13.3185 19.6536 14.1225C19.8416 14.0545 19.9496 14.0105 20.1496 14.0105C20.3456 14.0105 20.4536 14.0505 20.6416 14.1225C20.8464 13.6936 21.0059 13.2445 21.1176 12.7825L20.1496 11.5425L19.1736 12.7825H19.1776Z" fill="white"/>
<path d="M20.2416 11.9585L20.9136 12.8265C20.9136 12.8265 20.8256 13.2465 20.5536 13.8785C20.4456 13.8545 20.3536 13.8345 20.2416 13.8265V11.9585ZM20.0536 11.9585L19.3816 12.8265C19.3816 12.8265 19.4696 13.2465 19.7416 13.8785C19.8496 13.8545 19.9416 13.8345 20.0536 13.8265V11.9585Z" fill="#FEDF00"/>
<path d="M22.1414 11.4312H25.4289V14.7125H22.1414V11.4312Z" fill="#FEDF00"/>
<path d="M22.6039 11.4312H23.0914V14.7125H22.6039V11.4312ZM23.5414 11.4312H24.0289V14.7125H23.5414V11.4312ZM24.4789 11.4312H24.9726V14.7125H24.4789V11.4312Z" fill="#D52B1E"/>
<path d="M18.5163 17.5563C18.5226 17.6188 18.5476 17.7188 18.6038 17.825C18.6663 17.9188 18.6413 17.9125 18.7726 18.0625C18.8456 18.1361 18.93 18.1973 19.0226 18.2438C19.318 18.3709 19.6392 18.4266 19.9601 18.4063C20.1288 18.4 20.2601 18.3813 20.3726 18.3625C20.6004 18.3322 20.8303 18.3197 21.0601 18.325C21.1538 18.325 21.2476 18.3438 21.3538 18.3625C21.5726 18.4063 21.7913 18.4875 21.7913 18.4875V15.0688H18.5038V17.4L18.5163 17.55V17.5563Z" fill="#FEDF00"/>
<path d="M18.8976 18.1562L19.0538 18.25L19.2663 18.325V15.0625H18.8976V18.1562ZM20.7226 18.3062V15.0625H20.3601V18.3625L20.7226 18.3188V18.3062ZM21.4538 15.0625H21.0913V18.3188C21.2101 18.3313 21.3288 18.3563 21.4538 18.3813V15.0687V15.0625ZM19.9913 15.0625V18.4C19.9913 18.4 19.7538 18.4125 19.6288 18.4V15.0625H19.9913Z" fill="#D52B1E" stroke="#D52B1E" stroke-width="0.05"/>
<path d="M25.4176 17.5585C25.4033 17.6508 25.3735 17.7401 25.3296 17.8225C25.2696 17.9145 25.2896 17.9145 25.1576 18.0625C25.0146 18.2036 24.8341 18.3007 24.6376 18.3425C24.4212 18.3996 24.1969 18.4212 23.9736 18.4065C23.8016 18.3985 23.6736 18.3785 23.5616 18.3665C23.4096 18.3425 23.2936 18.3305 23.1216 18.3265C23.039 18.3224 22.9562 18.3224 22.8736 18.3265C22.6241 18.3547 22.3785 18.4111 22.1416 18.4945V15.0625H25.4296V17.4025L25.4176 17.5545V17.5585Z" fill="#FEDF00"/>
<path d="M22.9816 15.3425L22.9576 15.3505L22.9256 15.3825C22.9096 15.3985 22.8976 15.4025 22.8776 15.4145L22.8536 15.4345C22.8416 15.4465 22.8536 15.4585 22.8416 15.4745C22.8376 15.4905 22.8296 15.4985 22.8176 15.5145C22.8016 15.5305 22.7896 15.5345 22.7776 15.5545L22.7296 15.5945L22.7176 15.5985H22.6936C22.6776 15.6065 22.6736 15.6225 22.6616 15.6305L22.6736 15.6545L22.7056 15.7105C22.7136 15.7225 22.7136 15.7385 22.7256 15.7425C22.7456 15.7505 22.7616 15.7505 22.7776 15.7465C22.8096 15.7545 22.8296 15.7545 22.8576 15.7665L22.9176 15.7985C22.9376 15.8105 22.9496 15.8145 22.9696 15.8185H23.0416V15.8305L23.1216 15.8705C23.1196 15.8757 23.1183 15.881 23.1176 15.8865C23.1136 15.8985 23.1096 15.9145 23.1136 15.9185C23.1376 15.9945 23.1616 16.0385 23.1736 16.0465C23.1976 16.0545 23.2056 16.0825 23.2176 16.1065L23.2056 16.1185C23.1816 16.1425 23.1576 16.1585 23.1376 16.1905C23.1096 16.2385 23.0896 16.2385 23.1256 16.3025L23.1856 16.3985C23.2016 16.4265 23.2096 16.4465 23.2176 16.4785C23.2256 16.5065 23.2296 16.5265 23.2296 16.5585L23.2696 16.5705L23.2976 16.5465L23.3216 16.4985V16.4585C23.3136 16.4545 23.3096 16.4425 23.3136 16.4305C23.3136 16.4145 23.3336 16.4185 23.3416 16.4065C23.3536 16.3865 23.3256 16.3745 23.3136 16.3625C23.2896 16.3345 23.2576 16.3265 23.2496 16.2865C23.2496 16.2785 23.2496 16.2705 23.2656 16.2585L23.3456 16.1865C23.3536 16.1905 23.3696 16.1945 23.3856 16.1905L23.4376 16.2065C23.4616 16.2145 23.4736 16.2065 23.4856 16.2065H23.5016L23.5056 16.2305C23.5096 16.2705 23.5016 16.3505 23.5136 16.3705L23.5256 16.3945L23.5336 16.4185V16.4985L23.5256 16.5665C23.5256 16.5825 23.5176 16.5945 23.5056 16.6065C23.4976 16.6225 23.4816 16.6225 23.4656 16.6345V16.6745L23.5096 16.6945L23.5616 16.7065L23.5896 16.6945L23.5936 16.6705L23.6136 16.6505C23.6296 16.6425 23.6456 16.6505 23.6496 16.6465C23.6576 16.6345 23.6496 16.6305 23.6496 16.6145C23.6496 16.5905 23.6416 16.5745 23.6376 16.5505C23.6318 16.5135 23.6305 16.4759 23.6336 16.4385C23.6336 16.4145 23.6336 16.3985 23.6416 16.3785C23.6456 16.3385 23.6576 16.3225 23.6656 16.2905C23.6776 16.2505 23.6776 16.2265 23.6816 16.1905C23.8165 16.2108 23.9541 16.2026 24.0856 16.1665C24.1176 16.1945 24.1536 16.2145 24.1936 16.2305V16.2705C24.1936 16.2825 24.1936 16.2865 24.2016 16.2985L24.2136 16.3105C24.2256 16.3105 24.2336 16.3105 24.2416 16.3025C24.2496 16.2945 24.2496 16.2865 24.2496 16.2745V16.2465H24.3216V16.2905C24.3256 16.3025 24.3336 16.3065 24.3416 16.3065C24.3454 16.3083 24.3495 16.3092 24.3536 16.3092C24.3578 16.3092 24.3619 16.3083 24.3656 16.3065C24.3776 16.2985 24.3736 16.2825 24.3776 16.2665V16.2385L24.4176 16.2225C24.4187 16.2345 24.4187 16.2465 24.4176 16.2585L24.4056 16.2945C24.3976 16.3185 24.3856 16.3265 24.3736 16.3505C24.3576 16.3745 24.3536 16.3905 24.3336 16.4105L24.3096 16.4385L24.2856 16.4745L24.2496 16.5145C24.2216 16.5385 24.2016 16.5225 24.1696 16.5505L24.1576 16.5905L24.2136 16.6145L24.2656 16.6225L24.2816 16.6145C24.2816 16.6025 24.2816 16.5905 24.2936 16.5825C24.3016 16.5705 24.3096 16.5705 24.3216 16.5665C24.3376 16.5665 24.3536 16.5665 24.3616 16.5585C24.3776 16.5465 24.3776 16.5185 24.3896 16.4985C24.4191 16.4392 24.4598 16.3862 24.5096 16.3425L24.5776 16.2865C24.5856 16.2705 24.5976 16.2665 24.5976 16.2465L24.5896 16.2225L24.5816 16.1825C24.6416 16.2105 24.6216 16.2105 24.6296 16.2385C24.6416 16.2625 24.6296 16.2785 24.6336 16.3065C24.6376 16.3385 24.6536 16.3505 24.6536 16.3825C24.6576 16.4185 24.6496 16.4385 24.6416 16.4745C24.6376 16.5065 24.6376 16.5265 24.6216 16.5545C24.6122 16.5778 24.597 16.5985 24.5776 16.6145L24.5536 16.6345L24.5496 16.6745L24.5936 16.6905L24.6576 16.7065L24.6736 16.6945C24.6816 16.6665 24.6736 16.6265 24.6896 16.6265C24.7056 16.6225 24.7176 16.6265 24.7216 16.6145V16.5865L24.7496 16.4065L24.7656 16.3305L24.7816 16.2625C24.8096 16.1825 24.7736 16.1705 24.7416 16.1185C24.7216 16.0905 24.7136 16.0785 24.7136 16.0585V15.9425C24.7124 15.9052 24.7124 15.8678 24.7136 15.8305L24.7296 15.8225C24.7776 15.7945 24.7976 15.7865 24.8256 15.7225C24.8341 15.7037 24.8382 15.6832 24.8376 15.6625V15.6225L24.8216 15.5825C24.8153 15.5706 24.8072 15.5598 24.7976 15.5505C24.7696 15.5105 24.7296 15.5065 24.6896 15.4905C24.6296 15.4705 24.5896 15.4745 24.5296 15.4705C24.4576 15.4625 24.4216 15.4625 24.3536 15.4705C24.2736 15.4705 24.2296 15.4865 24.1496 15.4985L23.9536 15.5145C23.8616 15.5145 23.7776 15.4945 23.7216 15.4985C23.6256 15.5065 23.6216 15.5305 23.4736 15.5425C23.423 15.5466 23.3724 15.5493 23.3216 15.5505L23.2336 15.5225C23.2696 15.5105 23.2776 15.5025 23.2936 15.4825C23.3056 15.4665 23.3016 15.4545 23.3176 15.4385L23.3456 15.3985C23.335 15.3905 23.3227 15.385 23.3096 15.3825H23.2696C23.253 15.3831 23.2366 15.3872 23.2216 15.3945L23.1896 15.4185L23.1016 15.3705C23.0641 15.3514 23.0235 15.3392 22.9816 15.3345V15.3425Z" fill="#D52B1E"/>
<path d="M24.7496 15.8425L24.7176 15.8545C24.6816 15.8705 24.6536 15.8705 24.6136 15.8745C24.5096 15.8825 24.4416 15.8305 24.3336 15.8385C24.2776 15.8425 24.2536 15.8865 24.1936 15.9025C24.1713 15.9073 24.1485 15.9099 24.1256 15.9105L24.1456 15.8705C24.1456 15.8705 24.0976 15.8825 24.0656 15.8825C24.0441 15.8822 24.0226 15.8795 24.0016 15.8745L24.0416 15.8345L23.9896 15.8265C23.975 15.8193 23.9615 15.8098 23.9496 15.7985C23.9725 15.7955 23.9952 15.7915 24.0176 15.7865C24.0776 15.7705 24.0976 15.7385 24.1736 15.7305C24.2176 15.7305 24.2936 15.7305 24.4776 15.7625C24.5976 15.7825 24.6536 15.7705 24.6976 15.7505C24.7296 15.7385 24.7376 15.7105 24.7416 15.6785C24.7456 15.6465 24.7256 15.6225 24.7096 15.6065C24.7056 15.6065 24.6896 15.5945 24.6656 15.5905" stroke="#FEDF00" stroke-width="0.05" stroke-linecap="round"/>
<path d="M22.9896 15.4865C22.9696 15.4865 22.9536 15.4865 22.9376 15.4985C22.9176 15.5105 22.9136 15.5265 22.8976 15.5425C22.9176 15.5465 22.9296 15.5585 22.9456 15.5545C22.9616 15.5545 22.9656 15.5465 22.9776 15.5345C22.9896 15.5185 22.9936 15.5065 22.9936 15.4865H22.9896Z" fill="#FCD900" stroke="#FEDF00" stroke-width="0.05"/>
<path d="M23.4376 16.0145C23.4481 16.0463 23.4615 16.0771 23.4776 16.1065C23.4856 16.1385 23.4776 16.1545 23.4856 16.1865V16.2505M23.7576 15.9705L23.7456 16.0225L23.7056 16.1625V16.1905M23.2656 16.0305C23.3016 16.0385 23.2896 16.1625 23.3416 16.1905" stroke="#FEDF00" stroke-width="0.05" stroke-linecap="round"/>
<path d="M24.4016 16.2545L24.4176 16.2425C24.458 16.226 24.4948 16.2015 24.5256 16.1705" stroke="#FEDF00" stroke-width="0.05"/>
<path d="M24.0936 16.1825C24.2336 16.1465 24.3296 16.0785 24.3976 16.0665M24.2376 16.0065H24.2696C24.3296 15.9945 24.3376 16.0305 24.3776 16.0545C24.4536 16.0945 24.4616 16.1465 24.5496 16.1905L24.5656 16.1945L24.5976 16.2105" stroke="#FEDF00" stroke-width="0.05" stroke-linecap="round"/>
<path d="M22.7056 15.6425H22.7336L22.7656 15.6345C22.7776 15.6345 22.7856 15.6345 22.7936 15.6425C22.8016 15.6425 22.8016 15.6465 22.8056 15.6545C22.8056 15.6625 22.8136 15.6665 22.8096 15.6745C22.8096 15.6825 22.7976 15.6905 22.7856 15.6905C22.7776 15.6905 22.7696 15.6905 22.7656 15.6785C22.7645 15.676 22.764 15.6733 22.764 15.6705C22.764 15.6678 22.7645 15.665 22.7656 15.6625C22.76 15.6653 22.7539 15.6668 22.7476 15.6668C22.7414 15.6668 22.7352 15.6653 22.7296 15.6625C22.7245 15.661 22.7197 15.6584 22.7156 15.6549C22.7115 15.6515 22.7081 15.6473 22.7056 15.6425Z" fill="#FCD900" stroke="#FEDF00" stroke-width="0.05"/>
<path d="M23.0016 16.0305L22.9216 15.9945C22.9376 15.9865 22.9496 15.9865 22.9616 15.9745C22.9736 15.9585 22.9736 15.9425 22.9816 15.9225C22.9896 15.9025 22.9896 15.8825 23.0096 15.8665C23.0216 15.8585 23.0416 15.8585 23.0536 15.8625C23.0696 15.8625 23.0856 15.8785 23.0896 15.8905C23.0896 15.9145 23.0816 15.9305 23.0776 15.9505C23.0776 15.9745 23.0656 15.9865 23.0696 16.0065C23.0696 16.0225 23.0776 16.0305 23.0856 16.0465L23.0056 16.0305H23.0016ZM22.9616 16.0705C22.9609 16.0658 22.9616 16.0611 22.9636 16.0568C22.9656 16.0525 22.9688 16.0489 22.9728 16.0464C22.9768 16.044 22.9815 16.0427 22.9862 16.0429C22.9909 16.0431 22.9955 16.0446 22.9993 16.0474C23.0031 16.0501 23.0061 16.0539 23.0078 16.0583C23.0095 16.0627 23.0098 16.0675 23.0088 16.0721C23.0077 16.0767 23.0054 16.0809 23.002 16.0842C22.9986 16.0875 22.9943 16.0897 22.9896 16.0905C22.9862 16.0911 22.9826 16.0909 22.9792 16.09C22.9758 16.089 22.9727 16.0874 22.97 16.0851C22.9673 16.0828 22.9652 16.0799 22.9637 16.0767C22.9623 16.0735 22.9616 16.07 22.9616 16.0665V16.0705ZM22.8936 15.4065H22.8856C22.8696 15.3905 22.8696 15.3745 22.8616 15.3585C22.8552 15.3432 22.8511 15.327 22.8496 15.3105V15.2305C22.8496 15.2185 22.8496 15.2065 22.8416 15.1945C22.8416 15.1865 22.8256 15.1825 22.8296 15.1785C22.8296 15.1745 22.8416 15.1785 22.8456 15.1785C22.8616 15.1785 22.8696 15.1825 22.8856 15.1945C22.8976 15.2065 22.9056 15.2185 22.9096 15.2345L22.9256 15.2945L22.9376 15.3265L22.9576 15.3505L22.9296 15.3825L22.8936 15.4065ZM23.0376 15.8305L23.1256 15.8705C23.1858 15.8343 23.2344 15.7815 23.2656 15.7185C23.3016 15.6465 23.3056 15.6105 23.3216 15.5425L23.2496 15.5225H23.2336C23.2136 15.5945 23.2056 15.6305 23.1696 15.6905C23.1376 15.7425 23.1016 15.7825 23.0656 15.8105L23.0376 15.8305ZM23.2376 16.5585L23.2696 16.5065L23.3256 16.4625H23.3416C23.3411 16.5007 23.3344 16.5385 23.3216 16.5745L23.3056 16.6145L23.2856 16.6345C23.2656 16.6025 23.2336 16.5825 23.2336 16.5545L23.2376 16.5585ZM24.5576 16.6305L24.6136 16.6545L24.6736 16.6905V16.7105L24.6136 16.7185C24.5963 16.7198 24.5789 16.7198 24.5616 16.7185H24.5216L24.4976 16.7025C24.5176 16.6745 24.5296 16.6385 24.5536 16.6305H24.5576ZM24.1656 16.5505L24.2216 16.5705L24.2816 16.6105C24.2816 16.6145 24.2856 16.6225 24.2816 16.6265C24.2464 16.6359 24.21 16.64 24.1736 16.6385L24.1336 16.6345L24.1056 16.6225C24.1296 16.5945 24.1416 16.5545 24.1656 16.5505ZM23.4696 16.6345L23.5296 16.6545L23.5896 16.6945V16.7145C23.5529 16.723 23.5151 16.7257 23.4776 16.7225H23.4376L23.4136 16.7065C23.4336 16.6785 23.4456 16.6425 23.4696 16.6345ZM23.1096 15.4425C23.0856 15.4305 23.0696 15.4025 23.0856 15.3785C23.0896 15.3705 23.1016 15.3705 23.1096 15.3625C23.1176 15.3505 23.1136 15.3425 23.1096 15.3305L23.1056 15.2905L23.0976 15.2505C23.0976 15.2265 23.0976 15.2105 23.1136 15.1865C23.1216 15.1745 23.1416 15.1625 23.1456 15.1625C23.1536 15.1665 23.1456 15.1825 23.1456 15.1945C23.1456 15.2145 23.1496 15.2225 23.1576 15.2425L23.1856 15.2945C23.1936 15.3185 23.2016 15.3265 23.2016 15.3505C23.2016 15.3705 23.2016 15.3785 23.1936 15.3985C23.1885 15.411 23.1802 15.422 23.1696 15.4305C23.1603 15.4382 23.1494 15.4437 23.1376 15.4465C23.1298 15.4487 23.1215 15.4487 23.1136 15.4465L23.1096 15.4425Z" fill="#0065BD"/>
<path d="M22.9816 16.8065L22.9576 16.8145L22.9256 16.8465C22.9096 16.8625 22.8976 16.8665 22.8776 16.8785L22.8536 16.8985C22.8416 16.9105 22.8536 16.9225 22.8416 16.9385C22.8376 16.9545 22.8296 16.9625 22.8176 16.9785C22.8016 16.9945 22.7896 16.9985 22.7776 17.0185L22.7296 17.0585L22.7176 17.0625H22.6936C22.6776 17.0705 22.6736 17.0865 22.6616 17.0945L22.6736 17.1185L22.7056 17.1745C22.7136 17.1865 22.7136 17.2025 22.7256 17.2065C22.7456 17.2145 22.7616 17.2145 22.7776 17.2105C22.8096 17.2185 22.8296 17.2185 22.8576 17.2305L22.9176 17.2625C22.9376 17.2745 22.9496 17.2785 22.9696 17.2825H23.0416V17.2945L23.1216 17.3345C23.1196 17.3396 23.1183 17.345 23.1176 17.3505C23.1136 17.3625 23.1096 17.3785 23.1136 17.3825C23.1376 17.4585 23.1616 17.5025 23.1736 17.5105C23.1976 17.5185 23.2056 17.5465 23.2176 17.5705L23.2056 17.5825C23.1816 17.6065 23.1576 17.6225 23.1376 17.6545C23.1096 17.7025 23.0896 17.7025 23.1256 17.7665L23.1856 17.8625C23.2016 17.8905 23.2096 17.9105 23.2176 17.9425C23.2256 17.9705 23.2296 17.9905 23.2296 18.0225L23.2696 18.0345L23.2976 18.0105L23.3216 17.9625V17.9225C23.3136 17.9185 23.3096 17.9065 23.3136 17.8945C23.3136 17.8785 23.3336 17.8825 23.3416 17.8705C23.3536 17.8505 23.3256 17.8385 23.3136 17.8265C23.2896 17.7985 23.2576 17.7905 23.2496 17.7505C23.2496 17.7425 23.2496 17.7345 23.2656 17.7225L23.3456 17.6505C23.3536 17.6545 23.3696 17.6585 23.3856 17.6545L23.4376 17.6705C23.4616 17.6785 23.4736 17.6705 23.4856 17.6705H23.5016L23.5056 17.6945C23.5096 17.7345 23.5016 17.8145 23.5136 17.8345L23.5256 17.8585L23.5336 17.8825V17.9625L23.5256 18.0305C23.5256 18.0465 23.5176 18.0585 23.5056 18.0705C23.4976 18.0865 23.4816 18.0865 23.4656 18.0985V18.1385L23.5096 18.1585L23.5616 18.1705L23.5896 18.1585L23.5936 18.1345L23.6136 18.1145C23.6296 18.1065 23.6456 18.1145 23.6496 18.1105C23.6576 18.0985 23.6496 18.0945 23.6496 18.0785C23.6496 18.0545 23.6416 18.0385 23.6376 18.0145C23.6318 17.9775 23.6305 17.9399 23.6336 17.9025C23.6336 17.8785 23.6336 17.8625 23.6416 17.8425C23.6456 17.8025 23.6576 17.7865 23.6656 17.7545C23.6776 17.7145 23.6776 17.6905 23.6816 17.6545C23.8165 17.6748 23.9541 17.6666 24.0856 17.6305C24.1176 17.6585 24.1536 17.6785 24.1936 17.6945V17.7345C24.1936 17.7465 24.1936 17.7505 24.2016 17.7625L24.2136 17.7745C24.2256 17.7745 24.2336 17.7745 24.2416 17.7665C24.2496 17.7585 24.2496 17.7505 24.2496 17.7385V17.7105H24.3216V17.7545C24.3256 17.7665 24.3336 17.7705 24.3416 17.7705C24.3454 17.7723 24.3495 17.7732 24.3536 17.7732C24.3578 17.7732 24.3619 17.7723 24.3656 17.7705C24.3776 17.7625 24.3736 17.7465 24.3776 17.7305V17.7025L24.4176 17.6865C24.4187 17.6985 24.4187 17.7105 24.4176 17.7225L24.4056 17.7585C24.3976 17.7825 24.3856 17.7905 24.3736 17.8145C24.3576 17.8385 24.3536 17.8545 24.3336 17.8745L24.3096 17.9025L24.2856 17.9385L24.2496 17.9785C24.2216 18.0025 24.2016 17.9865 24.1696 18.0145L24.1576 18.0545L24.2136 18.0785L24.2656 18.0865L24.2816 18.0785C24.2816 18.0665 24.2816 18.0545 24.2936 18.0465C24.3016 18.0345 24.3096 18.0345 24.3216 18.0305C24.3376 18.0305 24.3536 18.0305 24.3616 18.0225C24.3776 18.0105 24.3776 17.9825 24.3896 17.9625C24.4191 17.9032 24.4598 17.8502 24.5096 17.8065L24.5776 17.7505C24.5856 17.7345 24.5976 17.7305 24.5976 17.7105L24.5896 17.6865L24.5816 17.6465C24.6416 17.6745 24.6216 17.6745 24.6296 17.7025C24.6416 17.7265 24.6296 17.7425 24.6336 17.7705C24.6376 17.8025 24.6536 17.8145 24.6536 17.8465C24.6576 17.8825 24.6496 17.9025 24.6416 17.9385C24.6376 17.9705 24.6376 17.9905 24.6216 18.0185C24.6122 18.0418 24.597 18.0624 24.5776 18.0785L24.5536 18.0985L24.5496 18.1385L24.5936 18.1545L24.6576 18.1705L24.6736 18.1585C24.6816 18.1305 24.6736 18.0905 24.6896 18.0905C24.7056 18.0865 24.7176 18.0905 24.7216 18.0785V18.0505L24.7496 17.8705L24.7656 17.7945L24.7816 17.7265C24.8096 17.6465 24.7736 17.6345 24.7416 17.5825C24.7216 17.5545 24.7136 17.5425 24.7136 17.5225V17.4065C24.7124 17.3692 24.7124 17.3318 24.7136 17.2945L24.7296 17.2865C24.7776 17.2585 24.7976 17.2505 24.8256 17.1865C24.8341 17.1677 24.8382 17.1471 24.8376 17.1265V17.0865L24.8216 17.0465C24.8153 17.0346 24.8072 17.0238 24.7976 17.0145C24.7696 16.9745 24.7296 16.9705 24.6896 16.9545C24.6296 16.9345 24.5896 16.9385 24.5296 16.9345C24.4576 16.9265 24.4216 16.9265 24.3536 16.9345C24.2736 16.9345 24.2296 16.9505 24.1496 16.9625L23.9536 16.9785C23.8616 16.9785 23.7776 16.9585 23.7216 16.9625C23.6256 16.9705 23.6216 16.9945 23.4736 17.0065C23.423 17.0106 23.3724 17.0133 23.3216 17.0145L23.2336 16.9865C23.2696 16.9745 23.2776 16.9665 23.2936 16.9465C23.3056 16.9305 23.3016 16.9185 23.3176 16.9025L23.3456 16.8625C23.335 16.8545 23.3227 16.849 23.3096 16.8465H23.2696C23.253 16.8471 23.2366 16.8512 23.2216 16.8585L23.1896 16.8825L23.1016 16.8345C23.0641 16.8154 23.0235 16.8032 22.9816 16.7985V16.8065Z" fill="#D52B1E"/>
<path d="M24.7496 17.3065L24.7176 17.3185C24.6816 17.3345 24.6536 17.3345 24.6136 17.3385C24.5096 17.3465 24.4416 17.2945 24.3336 17.3025C24.2776 17.3065 24.2536 17.3505 24.1936 17.3665C24.1713 17.3713 24.1485 17.3739 24.1256 17.3745L24.1456 17.3345C24.1456 17.3345 24.0976 17.3465 24.0656 17.3465C24.0441 17.3461 24.0226 17.3435 24.0016 17.3385L24.0416 17.2985L23.9896 17.2905C23.975 17.2833 23.9615 17.2738 23.9496 17.2625C23.9725 17.2595 23.9952 17.2555 24.0176 17.2505C24.0776 17.2345 24.0976 17.2025 24.1736 17.1945C24.2176 17.1945 24.2936 17.1945 24.4776 17.2265C24.5976 17.2465 24.6536 17.2345 24.6976 17.2145C24.7296 17.2025 24.7376 17.1745 24.7416 17.1425C24.7456 17.1105 24.7256 17.0865 24.7096 17.0705C24.7056 17.0705 24.6896 17.0585 24.6656 17.0545" stroke="#FEDF00" stroke-width="0.05" stroke-linecap="round"/>
<path d="M22.9896 16.9505C22.9696 16.9505 22.9536 16.9505 22.9376 16.9625C22.9176 16.9745 22.9136 16.9905 22.8976 17.0065C22.9176 17.0105 22.9296 17.0225 22.9456 17.0185C22.9616 17.0185 22.9656 17.0105 22.9776 16.9985C22.9896 16.9825 22.9936 16.9705 22.9936 16.9505H22.9896Z" fill="#FCD900" stroke="#FEDF00" stroke-width="0.05"/>
<path d="M23.4376 17.4785C23.4481 17.5103 23.4615 17.5411 23.4776 17.5705C23.4856 17.6025 23.4776 17.6185 23.4856 17.6505V17.7145M23.7576 17.4345L23.7456 17.4865L23.7056 17.6265V17.6545M23.2656 17.4945C23.3016 17.5025 23.2896 17.6265 23.3416 17.6545" stroke="#FEDF00" stroke-width="0.05" stroke-linecap="round"/>
<path d="M24.4016 17.7185L24.4176 17.7065C24.458 17.6899 24.4948 17.6655 24.5256 17.6345" stroke="#FEDF00" stroke-width="0.05"/>
<path d="M24.0936 17.6465C24.2336 17.6105 24.3296 17.5425 24.3976 17.5305M24.2376 17.4705H24.2696C24.3296 17.4585 24.3376 17.4945 24.3776 17.5185C24.4536 17.5585 24.4616 17.6105 24.5496 17.6545L24.5656 17.6585L24.5976 17.6745" stroke="#FEDF00" stroke-width="0.05" stroke-linecap="round"/>
<path d="M22.7056 17.1065H22.7336L22.7656 17.0985C22.7776 17.0985 22.7856 17.0985 22.7936 17.1065C22.8016 17.1065 22.8016 17.1105 22.8056 17.1185C22.8056 17.1265 22.8136 17.1305 22.8096 17.1385C22.8096 17.1465 22.7976 17.1545 22.7856 17.1545C22.7776 17.1545 22.7696 17.1545 22.7656 17.1425C22.7645 17.14 22.764 17.1372 22.764 17.1345C22.764 17.1317 22.7645 17.129 22.7656 17.1265C22.76 17.1293 22.7539 17.1308 22.7476 17.1308C22.7414 17.1308 22.7352 17.1293 22.7296 17.1265C22.7245 17.1249 22.7197 17.1224 22.7156 17.1189C22.7115 17.1155 22.7081 17.1113 22.7056 17.1065Z" fill="#FCD900" stroke="#FEDF00" stroke-width="0.05"/>
<path d="M23.0016 17.4945L22.9216 17.4585C22.9376 17.4505 22.9496 17.4505 22.9616 17.4385C22.9736 17.4225 22.9736 17.4065 22.9816 17.3865C22.9896 17.3665 22.9896 17.3465 23.0096 17.3305C23.0216 17.3225 23.0416 17.3225 23.0536 17.3265C23.0696 17.3265 23.0856 17.3425 23.0896 17.3545C23.0896 17.3785 23.0816 17.3945 23.0776 17.4145C23.0776 17.4385 23.0656 17.4505 23.0696 17.4705C23.0696 17.4865 23.0776 17.4945 23.0856 17.5105L23.0056 17.4945H23.0016ZM22.9616 17.5345C22.9609 17.5298 22.9616 17.5251 22.9636 17.5208C22.9656 17.5165 22.9688 17.5129 22.9728 17.5104C22.9768 17.508 22.9815 17.5067 22.9862 17.5069C22.9909 17.5071 22.9955 17.5086 22.9993 17.5113C23.0031 17.5141 23.0061 17.5179 23.0078 17.5223C23.0095 17.5267 23.0098 17.5315 23.0088 17.5361C23.0077 17.5407 23.0054 17.5449 23.002 17.5482C22.9986 17.5515 22.9943 17.5537 22.9896 17.5545C22.9862 17.5551 22.9826 17.5549 22.9792 17.554C22.9758 17.553 22.9727 17.5513 22.97 17.5491C22.9673 17.5468 22.9652 17.5439 22.9637 17.5407C22.9623 17.5375 22.9616 17.534 22.9616 17.5305V17.5345ZM22.8936 16.8705H22.8856C22.8696 16.8545 22.8696 16.8385 22.8616 16.8225C22.8552 16.8072 22.8511 16.791 22.8496 16.7745V16.6945C22.8496 16.6825 22.8496 16.6705 22.8416 16.6585C22.8416 16.6505 22.8256 16.6465 22.8296 16.6425C22.8296 16.6385 22.8416 16.6425 22.8456 16.6425C22.8616 16.6425 22.8696 16.6465 22.8856 16.6585C22.8976 16.6705 22.9056 16.6825 22.9096 16.6985L22.9256 16.7585L22.9376 16.7905L22.9576 16.8145L22.9296 16.8465L22.8936 16.8705ZM23.0376 17.2945L23.1256 17.3345C23.1858 17.2982 23.2344 17.2455 23.2656 17.1825C23.3016 17.1105 23.3056 17.0745 23.3216 17.0065L23.2496 16.9865H23.2336C23.2136 17.0585 23.2056 17.0945 23.1696 17.1545C23.1376 17.2065 23.1016 17.2465 23.0656 17.2745L23.0376 17.2945ZM23.2376 18.0225L23.2696 17.9705L23.3256 17.9265H23.3416C23.3411 17.9647 23.3344 18.0025 23.3216 18.0385L23.3056 18.0785L23.2856 18.0985C23.2656 18.0665 23.2336 18.0465 23.2336 18.0185L23.2376 18.0225ZM24.5576 18.0945L24.6136 18.1185L24.6736 18.1545V18.1745L24.6136 18.1825C24.5963 18.1838 24.5789 18.1838 24.5616 18.1825H24.5216L24.4976 18.1665C24.5176 18.1385 24.5296 18.1025 24.5536 18.0945H24.5576ZM24.1656 18.0145L24.2216 18.0345L24.2816 18.0745C24.2816 18.0785 24.2856 18.0865 24.2816 18.0905C24.2464 18.0999 24.21 18.104 24.1736 18.1025L24.1336 18.0985L24.1056 18.0865C24.1296 18.0585 24.1416 18.0185 24.1656 18.0145ZM23.4696 18.0985L23.5296 18.1185L23.5896 18.1585V18.1785C23.5529 18.187 23.5151 18.1897 23.4776 18.1865H23.4376L23.4136 18.1705C23.4336 18.1425 23.4456 18.1065 23.4696 18.0985ZM23.1096 16.9065C23.0856 16.8945 23.0696 16.8665 23.0856 16.8425C23.0896 16.8345 23.1016 16.8345 23.1096 16.8265C23.1176 16.8145 23.1136 16.8065 23.1096 16.7945L23.1056 16.7545L23.0976 16.7145C23.0976 16.6905 23.0976 16.6745 23.1136 16.6505C23.1216 16.6385 23.1416 16.6265 23.1456 16.6265C23.1536 16.6305 23.1456 16.6465 23.1456 16.6585C23.1456 16.6785 23.1496 16.6865 23.1576 16.7065L23.1856 16.7585C23.1936 16.7825 23.2016 16.7905 23.2016 16.8145C23.2016 16.8345 23.2016 16.8425 23.1936 16.8625C23.1885 16.875 23.1802 16.886 23.1696 16.8945C23.1603 16.9022 23.1494 16.9076 23.1376 16.9105C23.1298 16.9127 23.1215 16.9127 23.1136 16.9105L23.1096 16.9065Z" fill="#0065BD"/>
<path d="M18.5038 11.4312H21.7913V14.7125H18.5038V11.4312ZM22.1413 11.4312H25.4288V14.7125H22.1413V11.4312ZM18.5163 17.5562C18.5226 17.6187 18.5476 17.7187 18.6038 17.825C18.6663 17.9187 18.6413 17.9125 18.7726 18.0625C18.8456 18.1361 18.93 18.1973 19.0226 18.2437C19.318 18.3709 19.6392 18.4266 19.9601 18.4062C20.1288 18.4 20.2601 18.3812 20.3726 18.3625C20.6004 18.3322 20.8303 18.3197 21.0601 18.325C21.1538 18.325 21.2476 18.3437 21.3538 18.3625C21.5726 18.4062 21.7913 18.4875 21.7913 18.4875V15.0687H18.5038V17.4L18.5163 17.55V17.5562ZM25.4163 17.5562C25.4031 17.6503 25.3735 17.7412 25.3288 17.825C25.2663 17.9187 25.2913 17.9125 25.1601 18.0625C25.0871 18.136 25.0026 18.1972 24.9101 18.2437C24.8288 18.2875 24.7663 18.3062 24.6351 18.3437C24.4192 18.4007 24.1954 18.4219 23.9726 18.4062C23.8038 18.4 23.6726 18.375 23.5663 18.3625C23.4171 18.3424 23.2669 18.3298 23.1163 18.325C23.0351 18.3211 22.9538 18.3211 22.8726 18.325C22.7788 18.325 22.6851 18.3437 22.5788 18.3625C22.3601 18.4062 22.1413 18.4875 22.1413 18.4875V15.0625H25.4351V17.4062L25.4226 17.5562H25.4163Z" stroke="#703D29" stroke-width="0.05"/>
</g>
<defs>
<clipPath id="clip0_1_2452">
<rect width="44" height="30" fill="white"/>
</clipPath>
</defs>
</svg>
