<svg width="44" height="30" viewBox="0 0 44 30" fill="none" xmlns="http://www.w3.org/2000/svg">
<g clip-path="url(#clip0_1_3513)">
<mask id="mask0_1_3513" style="mask-type:luminance" maskUnits="userSpaceOnUse" x="0" y="0" width="44" height="30">
<path d="M0.00195312 0H44V30H0.00195312V0Z" fill="white"/>
</mask>
<g mask="url(#mask0_1_3513)">
<path fill-rule="evenodd" clip-rule="evenodd" d="M0 0H44V30H0V0Z" fill="#000099"/>
<path fill-rule="evenodd" clip-rule="evenodd" d="M9 -1L41 30V-0.981847L9 -1Z" fill="#FFCC00"/>
<path fill-rule="evenodd" clip-rule="evenodd" d="M32.7754 28.2129L31.1406 27.0234L29.4648 28.207L30.0977 26.2617L28.4453 25.0606H30.4961L31.1289 23.1152L31.7559 25.0664H33.8066L32.166 26.2793L32.7754 28.2129ZM37.5391 28.8223L35.4883 28.8164L34.8613 26.8652L34.2285 28.8105H32.1777L33.8301 30.0117L33.1973 31.957L34.873 30.7734L36.5137 31.9629L35.8984 30.0293L37.5391 28.8223ZM28.4219 22.541L30.0625 21.3281L28.0117 21.3223L27.3848 19.377L26.752 21.3223L24.7012 21.3164L26.3535 22.5176L25.7207 24.4688L27.3965 23.2793L29.0371 24.4746L28.4219 22.541ZM24.6543 18.7617L26.2949 17.5547L24.2441 17.5488L23.6172 15.5977L22.9785 17.543H20.9336L22.5859 18.7441L21.9531 20.6895L23.6289 19.5059L25.2637 20.6953L24.6543 18.7617ZM20.9219 15.0352L22.5625 13.8223H20.5117L19.8906 11.8652L19.2578 13.8105H17.207L18.8594 15.0059L18.2266 16.957L19.9023 15.7676L21.543 16.9629L20.9277 15.0293L20.9219 15.0352ZM17.1484 11.2676L18.7891 10.0605L16.7383 10.0547L16.1113 8.10352L15.4727 10.0488H13.4277L15.0859 11.25L14.4531 13.1953L16.1289 12.0117L17.7637 13.2012L17.1543 11.2676H17.1484ZM13.4219 7.52344L15.0566 6.31055H13.0059L12.3848 4.35352L11.7461 6.30469H9.69531L11.3594 7.5L10.7207 9.44531L12.3965 8.26172L14.0254 9.45703L13.4219 7.52344ZM9.67187 3.77344L11.3066 2.56055H9.25586L8.63476 0.603516L7.99609 2.55469H5.94531L7.60937 3.75L6.96484 5.70117L8.64648 4.51172L10.2754 5.70703L9.67187 3.77344ZM5.92187 0.0234377L7.55078 -1.18945H5.5L4.87305 -3.14062L4.24609 -1.19531H2.19531L3.85352 0L3.2207 1.94531L4.89648 0.761719L6.52539 1.95703L5.92187 0.0234377Z" fill="white"/>
</g>
</g>
<defs>
<clipPath id="clip0_1_3513">
<rect width="44" height="30" fill="white"/>
</clipPath>
</defs>
</svg>
