<svg width="44" height="33" viewBox="0 0 44 33" fill="none" xmlns="http://www.w3.org/2000/svg">
<g clip-path="url(#clip0_1_86)">
<path fill-rule="evenodd" clip-rule="evenodd" d="M0 0H44V33H0V0Z" fill="#6FDCFF"/>
<path fill-rule="evenodd" clip-rule="evenodd" d="M4.13874 32.1063C4.36562 32.3263 4.28999 32.6906 4.91562 32.6425C5.86437 32.6425 5.89187 32.065 5.89187 31.6594C5.89187 31.2538 4.46874 30.69 4.39999 30.0919C4.33124 29.4938 4.72999 29.3356 5.05999 29.3356C5.38312 29.3356 5.60999 29.5213 5.60999 29.6863C5.60999 29.8513 5.45874 29.9063 5.22499 29.9063C4.99124 29.9063 5.32812 29.7894 5.12874 29.7C4.92937 29.6106 4.79874 29.8375 4.79874 29.975C4.79874 30.1263 5.29374 30.1675 5.62374 30.0644C5.69249 30.3875 5.71999 30.4081 5.25937 30.9581C5.58937 30.745 5.61687 30.6969 5.98124 30.8206C5.61687 30.5044 5.89187 29.8719 5.89874 29.7138C5.90562 29.5556 5.82999 29.3631 5.69249 29.2669C5.42437 29.0263 4.85374 29.0125 4.50999 29.1706C4.00812 29.3906 3.98062 30.0506 4.11124 30.2706L5.49999 31.6731C5.59624 31.8381 5.63749 32.3056 5.04624 32.3263C4.42749 32.3744 4.20749 31.5288 4.09749 31.2469C3.95312 31.5563 3.78812 32.4019 3.16249 32.3538C2.57124 32.3331 2.46124 31.8725 2.55749 31.7006L3.98062 30.2569C4.11812 30.0369 4.09062 29.3769 3.58874 29.1569C3.24499 28.9988 2.67437 29.0194 2.41312 29.2531C2.26187 29.3494 2.17937 29.535 2.19312 29.7C2.20687 29.865 2.47499 30.4906 2.11749 30.8C2.47499 30.6831 2.50937 30.7313 2.83937 30.9375C2.37874 30.3944 2.41312 30.3738 2.47499 30.0438C2.80499 30.1538 3.29999 30.1125 3.29999 29.9681C3.29999 29.8238 3.16249 29.5831 2.96312 29.6794C2.77062 29.7756 3.10062 29.8925 2.86687 29.8925C2.63999 29.8925 2.47499 29.8444 2.47499 29.6863C2.47499 29.5281 2.70187 29.3219 3.03187 29.3219C3.36187 29.3219 3.75374 29.4869 3.68499 30.085C3.61624 30.6831 2.17249 31.3294 2.17249 31.735C2.17249 32.1475 2.26874 32.6356 3.21749 32.6356C3.83624 32.6838 3.91187 32.3194 4.13874 32.0994V32.1063Z" fill="#FFE400"/>
<path fill-rule="evenodd" clip-rule="evenodd" d="M4.06312 23.6019C4.28999 23.3819 4.47562 22.7356 5.09437 22.7769C6.04312 22.7769 6.40062 23.3063 6.40062 23.7119C6.40062 24.1175 4.47562 27.4244 4.40687 28.0225C4.33812 28.6206 4.73687 28.7856 5.05999 28.7856C5.38999 28.7856 5.61687 28.6 5.61687 28.4281C5.61687 28.2563 5.45187 28.2219 5.22499 28.2219C4.99812 28.2219 5.32124 28.3388 5.12874 28.4281C4.93624 28.5175 4.79874 28.2906 4.79874 28.1463C4.79874 28.0019 5.29375 27.9538 5.62374 28.0638C5.68562 27.7406 5.71312 27.72 5.25937 27.17C5.58937 27.3763 5.61687 27.4313 5.98124 27.3075C5.61687 27.6238 5.88499 28.2494 5.89875 28.4075C5.9125 28.5656 5.82999 28.765 5.68562 28.8613C5.42437 29.1019 4.84687 29.1088 4.50312 28.9575C4.00812 28.7306 3.98062 28.0775 4.11124 27.8575L5.98124 23.8288C6.08437 23.6638 5.82312 23.1138 5.23187 23.0931C4.61312 23.045 4.39999 23.6981 4.28999 23.98L5.13562 23.9113C5.13562 23.9113 5.16999 24.0488 5.13562 24.1313C4.8519 24.152 4.56958 24.1887 4.28999 24.2413L4.25562 24.6675H4.66812L4.64062 24.86C4.64062 24.86 4.28999 24.8325 4.25562 24.86C4.22125 24.8806 4.18687 25.2863 4.18687 25.2863C4.18687 25.2863 4.11812 25.3138 4.04937 25.3138C3.98062 25.3138 3.91187 25.2863 3.91187 25.2863C3.91187 25.2863 3.88437 24.8806 3.84999 24.86C3.81562 24.8325 3.465 24.86 3.465 24.86L3.43062 24.6675H3.84999L3.81562 24.2413C3.81562 24.2413 3.40312 24.1588 2.97 24.1313C2.94249 24.0488 2.97 23.9181 2.97 23.9181L3.81562 23.98C3.70562 23.6981 3.49249 23.045 2.87374 23.0863C2.28249 23.1138 2.02124 23.6638 2.11749 23.8288L3.98749 27.8575C4.11812 28.0706 4.09062 28.7306 3.59562 28.9575C3.25187 29.1088 2.67437 29.095 2.41312 28.8613C2.26874 28.765 2.18625 28.5725 2.2 28.4144C2.21374 28.2563 2.47499 27.6169 2.11749 27.3144C2.48187 27.4313 2.51624 27.3831 2.83937 27.17C2.38562 27.72 2.41312 27.7406 2.48187 28.0638C2.80499 27.9538 3.29999 27.995 3.29999 28.1463C3.29999 28.2838 3.1625 28.5244 2.97 28.4281C2.7775 28.3319 3.10749 28.2219 2.87374 28.2219C2.64687 28.2219 2.48187 28.2631 2.48187 28.4281C2.48187 28.5931 2.70874 28.7856 3.03187 28.7856C3.35499 28.7856 3.75374 28.6206 3.69187 28.0294C3.62312 27.4313 1.69812 24.1106 1.69812 23.7119C1.69812 23.2994 2.05562 22.7838 3.00437 22.7838C3.62312 22.7356 3.84999 23.3819 4.06999 23.6019H4.06312Z" fill="#FFE400"/>
<path fill-rule="evenodd" clip-rule="evenodd" d="M4.06312 21.9587C4.28999 22.1787 4.47562 22.825 5.09437 22.7837C6.04312 22.7837 6.40062 22.2544 6.40062 21.8487C6.40062 21.4431 4.47562 18.1362 4.40687 17.5381C4.33812 16.94 4.73687 16.775 5.05999 16.775C5.38999 16.775 5.61687 16.9606 5.61687 17.1325C5.61687 17.3044 5.45187 17.3387 5.22499 17.3387C4.99812 17.3387 5.32124 17.2287 5.12874 17.1325C4.93624 17.0362 4.79874 17.27 4.79874 17.4144C4.79874 17.5587 5.29375 17.6069 5.62374 17.4969C5.68562 17.82 5.71312 17.8406 5.25937 18.3906C5.58937 18.1844 5.61687 18.1294 5.98124 18.2531C5.61687 17.9369 5.88499 17.3112 5.89875 17.1531C5.9125 16.995 5.82999 16.7956 5.68562 16.6994C5.42437 16.4656 4.84687 16.4519 4.50312 16.6031C4.00812 16.83 3.98062 17.4831 4.11124 17.7031L5.98124 21.725C6.08437 21.89 5.82312 22.44 5.23187 22.4606C4.61312 22.5087 4.39999 21.8556 4.28999 21.5737L5.13562 21.6425C5.13562 21.6425 5.16999 21.505 5.13562 21.4225C4.8519 21.4018 4.56958 21.365 4.28999 21.3125L4.25562 20.8862H4.66812L4.64062 20.6937C4.64062 20.6937 4.28999 20.7212 4.25562 20.6937C4.22125 20.6731 4.18687 20.2675 4.18687 20.2675C4.18687 20.2675 4.11812 20.24 4.04937 20.24C3.98062 20.24 3.91187 20.2675 3.91187 20.2675C3.91187 20.2675 3.88437 20.6731 3.84999 20.6937C3.81562 20.7212 3.465 20.6937 3.465 20.6937L3.43062 20.8862H3.84999L3.81562 21.3125C3.81562 21.3125 3.40312 21.395 2.97 21.4225C2.94249 21.505 2.97 21.6356 2.97 21.6356L3.81562 21.5737C3.70562 21.8556 3.49249 22.5087 2.87374 22.4675C2.28249 22.44 2.02124 21.89 2.11749 21.725L3.98749 17.7031C4.11812 17.4831 4.09062 16.83 3.59562 16.6031C3.25187 16.4519 2.67437 16.4656 2.41312 16.6994C2.26874 16.7956 2.18625 16.9881 2.2 17.1462C2.21374 17.3044 2.47499 17.9369 2.11749 18.2462C2.48187 18.1294 2.51624 18.1775 2.83937 18.3906C2.38562 17.8406 2.41312 17.82 2.48187 17.4969C2.80499 17.6069 3.29999 17.5656 3.29999 17.4144C3.29999 17.2769 3.1625 17.0362 2.97 17.1325C2.7775 17.2287 3.10749 17.3387 2.87374 17.3387C2.64687 17.3387 2.48187 17.2975 2.48187 17.1325C2.48187 16.9675 2.70874 16.775 3.03187 16.775C3.35499 16.775 3.75374 16.94 3.69187 17.5312C3.62312 18.1294 1.69812 21.45 1.69812 21.8487C1.69812 22.2612 2.05562 22.7769 3.00437 22.7769C3.62312 22.825 3.84999 22.1787 4.06999 21.9587H4.06312Z" fill="#FFE400"/>
<path fill-rule="evenodd" clip-rule="evenodd" d="M4.06312 11.0413C4.28999 10.8213 4.47562 10.175 5.09437 10.2163C6.04312 10.2163 6.40062 10.7456 6.40062 11.1513C6.40062 11.5569 4.47562 14.8638 4.40687 15.4688C4.33812 16.06 4.73687 16.225 5.05999 16.225C5.38999 16.225 5.61687 16.0394 5.61687 15.8744C5.61687 15.7094 5.45187 15.6544 5.22499 15.6544C4.99812 15.6544 5.32124 15.7781 5.12874 15.8744C4.93624 15.9706 4.79874 15.73 4.79874 15.5856C4.79874 15.4481 5.29375 15.3931 5.62374 15.5031C5.68562 15.18 5.71312 15.1594 5.25937 14.6094C5.58937 14.8225 5.61687 14.8706 5.98124 14.7469C5.61687 15.0631 5.88499 15.6956 5.89875 15.8469C5.9125 15.9981 5.82999 16.2044 5.68562 16.3006C5.42437 16.5413 4.84687 16.5481 4.50312 16.3969C4.00812 16.17 3.98062 15.5169 4.11124 15.2969L5.98124 11.275C6.08437 11.11 5.82312 10.56 5.23187 10.5394C4.61312 10.4913 4.39999 11.1444 4.28999 11.4263L5.13562 11.3575C5.13562 11.3575 5.16999 11.495 5.13562 11.5775C4.69562 11.605 4.28999 11.6875 4.28999 11.6875L4.25562 12.1138H4.66812L4.64062 12.3063C4.64062 12.3063 4.28999 12.2856 4.25562 12.3063C4.22125 12.3269 4.18687 12.7394 4.18687 12.7394C4.18687 12.7394 4.11812 12.76 4.04937 12.76C3.98062 12.76 3.91187 12.7394 3.91187 12.7394C3.91187 12.7394 3.88437 12.3269 3.84999 12.3063C3.81562 12.2856 3.465 12.3063 3.465 12.3063L3.43062 12.1138H3.84999L3.81562 11.6875C3.81562 11.6875 3.40312 11.605 2.97 11.5775C2.94249 11.495 2.97 11.3644 2.97 11.3644L3.81562 11.4263C3.70562 11.1444 3.49249 10.4913 2.87374 10.5325C2.28249 10.56 2.02124 11.11 2.11749 11.275L3.98749 15.2969C4.11812 15.5169 4.09062 16.17 3.59562 16.3969C3.25187 16.5481 2.67437 16.5344 2.41312 16.3006C2.26874 16.2044 2.18625 16.0119 2.2 15.8538C2.21374 15.6956 2.47499 15.0631 2.11749 14.7538C2.48187 14.8706 2.51624 14.8225 2.83937 14.6094C2.38562 15.1594 2.41312 15.18 2.48187 15.5031C2.80499 15.3931 3.29999 15.4413 3.29999 15.5856C3.29999 15.7231 3.1625 15.9638 2.97 15.8675C2.7775 15.7781 3.10749 15.6613 2.87374 15.6613C2.64687 15.6613 2.48187 15.7025 2.48187 15.8675C2.48187 16.0325 2.70874 16.225 3.03187 16.225C3.35499 16.225 3.75374 16.06 3.69187 15.4688C3.62312 14.8706 1.69812 11.5569 1.69812 11.1513C1.69812 10.7456 2.05562 10.2231 3.00437 10.2231C3.62312 10.175 3.84999 10.8213 4.06999 11.0481L4.06312 11.0413Z" fill="#FFE400"/>
<path fill-rule="evenodd" clip-rule="evenodd" d="M4.06312 9.39814C4.28999 9.61814 4.47562 10.2713 5.09437 10.2231C6.04312 10.2231 6.40062 9.69377 6.40062 9.28814C6.40062 8.88252 4.47562 5.57564 4.40687 4.97752C4.33812 4.37939 4.73687 4.21439 5.05999 4.21439C5.38999 4.21439 5.61687 4.40689 5.61687 4.57189C5.61687 4.73689 5.45187 4.78502 5.22499 4.78502C4.99812 4.78502 5.32124 4.66814 5.12874 4.57189C4.93624 4.47564 4.79874 4.70939 4.79874 4.85377C4.79874 4.99814 5.29375 5.04627 5.62374 4.93627C5.68562 5.25939 5.71312 5.28002 5.25937 5.83002C5.58937 5.62377 5.61687 5.56877 5.98124 5.69252C5.61687 5.38314 5.88499 4.75064 5.89875 4.59252C5.9125 4.43439 5.82999 4.23502 5.68562 4.13877C5.42437 3.90502 4.84687 3.89127 4.50312 4.04939C4.00812 4.26939 3.98062 4.92939 4.11124 5.14252L5.98124 9.17126C6.08437 9.33626 5.82312 9.88626 5.23187 9.91376C4.61312 9.95501 4.39999 9.30876 4.28999 9.02001L5.13562 9.08876C5.13562 9.08876 5.16999 8.95126 5.13562 8.86876C4.85205 8.85009 4.56974 8.81566 4.28999 8.76564L4.25562 8.33252H4.66812L4.64062 8.14002C4.64062 8.14002 4.28999 8.16752 4.25562 8.14002C4.22125 8.11939 4.18687 7.71377 4.18687 7.71377C4.18687 7.71377 4.11812 7.68627 4.04937 7.68627C3.98062 7.68627 3.91187 7.71377 3.91187 7.71377C3.91187 7.71377 3.88437 8.11939 3.84999 8.14002C3.81562 8.16752 3.465 8.14002 3.465 8.14002L3.43062 8.33252H3.84999L3.81562 8.76564C3.81562 8.76564 3.40312 8.84127 2.97 8.86876C2.94249 8.95814 2.97 9.08876 2.97 9.08876L3.81562 9.02001C3.70562 9.30876 3.49249 9.95501 2.87374 9.91376C2.28249 9.88626 2.02124 9.33626 2.11749 9.17126L3.98749 5.14252C4.11812 4.92939 4.09062 4.26939 3.59562 4.04252C3.25187 3.89127 2.67437 3.90502 2.41312 4.13877C2.26874 4.23502 2.18625 4.42751 2.2 4.58564C2.21374 4.74376 2.47499 5.38314 2.11749 5.68564C2.48187 5.56877 2.51624 5.61689 2.83937 5.83002C2.38562 5.28002 2.41312 5.25939 2.48187 4.93627C2.81187 5.04627 3.29999 5.00502 3.29999 4.85377C3.29999 4.71627 3.1625 4.47564 2.97 4.57189C2.7775 4.66814 3.10749 4.78502 2.87374 4.78502C2.64687 4.78502 2.48187 4.73689 2.48187 4.57189C2.48187 4.40689 2.70874 4.21439 3.03187 4.21439C3.35499 4.21439 3.76062 4.37939 3.69187 4.97064C3.62312 5.56877 1.69812 8.88939 1.69812 9.28814C1.69812 9.70064 2.05562 10.2231 3.00437 10.2231C3.62312 10.2713 3.84999 9.61814 4.06999 9.39814H4.06312Z" fill="#FFE400"/>
<path fill-rule="evenodd" clip-rule="evenodd" d="M4.13874 0.893759C4.36562 0.673759 4.28999 0.309384 4.91562 0.357509C5.86437 0.357509 5.89187 0.935008 5.89187 1.34063C5.89187 1.74626 4.46874 2.31001 4.39999 2.90813C4.33124 3.50626 4.72999 3.66438 5.05999 3.66438C5.38312 3.66438 5.60999 3.47876 5.60999 3.31376C5.60999 3.14876 5.45874 3.09376 5.22499 3.09376C4.99124 3.09376 5.32812 3.21063 5.12874 3.30001C4.92937 3.38938 4.79874 3.16251 4.79874 3.02501C4.79874 2.87376 5.29374 2.82563 5.62374 2.93563C5.69249 2.61251 5.71999 2.59188 5.25937 2.04188C5.58937 2.25501 5.61687 2.30313 5.98124 2.17938C5.61687 2.49563 5.89187 3.12813 5.89874 3.28626C5.90562 3.44438 5.82999 3.63688 5.69249 3.73313C5.41749 3.98751 4.84687 3.98751 4.50312 3.83626C4.00124 3.61626 3.97374 2.95626 4.10437 2.73626L5.49999 1.32688C5.59624 1.16188 5.63749 0.694384 5.04624 0.673759C4.42749 0.625634 4.20749 1.47126 4.09749 1.75313C3.95312 1.44376 3.78812 0.591259 3.16249 0.639384C2.57124 0.660009 2.46124 1.12063 2.55749 1.29251L3.98062 2.73626C4.11812 2.95626 4.09062 3.61626 3.58874 3.83626C3.24499 3.99438 2.67437 3.98063 2.41312 3.74001C2.26187 3.64376 2.17937 3.45813 2.19312 3.29313C2.20687 3.12813 2.47499 2.50251 2.11749 2.19313C2.47499 2.31001 2.50937 2.26188 2.83249 2.05563C2.37874 2.59876 2.41312 2.61938 2.47499 2.94938C2.80499 2.83938 3.29999 2.88063 3.29999 3.02501C3.29999 3.16938 3.16249 3.41001 2.96312 3.31376C2.77062 3.21751 3.10062 3.10063 2.86687 3.10063C2.63999 3.10063 2.47499 3.14876 2.47499 3.30688C2.47499 3.46501 2.70187 3.67126 3.03187 3.67126C3.36187 3.67126 3.75374 3.50626 3.68499 2.90813C3.61624 2.31001 2.17249 1.66376 2.17249 1.25813C2.17249 0.845633 2.26874 0.357509 3.21749 0.357509C3.83624 0.309384 3.91187 0.673759 4.13874 0.893759Z" fill="#FFE400"/>
<path d="M30.3543 14.1564C30.3543 10.888 27.5586 8.23853 24.11 8.23853C20.6613 8.23853 17.8656 10.888 17.8656 14.1564C17.8656 17.4247 20.6613 20.0742 24.11 20.0742C27.5586 20.0742 30.3543 17.4247 30.3543 14.1564Z" fill="#FFE400"/>
<path fill-rule="evenodd" clip-rule="evenodd" d="M23.8164 4.70909C23.7577 4.70909 23.4789 6.67559 23.3762 7.11585C23.2735 8.10644 24.697 8.06975 24.4622 7.07916L23.8164 4.70175V4.70909ZM24.3154 23.7724C24.3668 23.7724 24.7924 21.8279 24.9318 21.395C25.1005 20.4191 23.677 20.3677 23.8311 21.3656L24.3154 23.7724ZM14.3655 14.116C14.3655 14.1674 16.4127 14.5783 16.8677 14.7104C17.8949 14.8791 17.9683 13.5363 16.9117 13.6831L14.3655 14.1233V14.116ZM34.302 14.3508C34.302 14.2994 32.2328 13.9619 31.7705 13.8445C30.7359 13.7198 30.7286 15.0626 31.7705 14.8791L34.302 14.3508ZM16.4641 7.87897C16.4274 7.91566 17.7775 9.4419 18.049 9.81612C18.7534 10.5499 19.6853 9.52261 18.7534 9.02365L16.4641 7.88631V7.87897ZM31.9539 20.4264C31.9906 20.3897 30.5084 18.9809 30.2002 18.636C29.4298 17.961 28.6006 19.0543 29.5692 19.4799L31.9539 20.4338V20.4264ZM19.5533 5.75104C19.5092 5.77305 20.1403 7.66618 20.243 8.11378C20.5952 9.04566 21.872 8.43664 21.2116 7.63683L19.5606 5.75104H19.5533ZM28.5859 22.8038C28.6373 22.7818 28.1457 20.852 28.0796 20.4044C27.7935 19.4505 26.48 19.9641 27.0744 20.8153L28.5933 22.7965L28.5859 22.8038ZM30.8093 7.07182C30.7652 7.03514 29.1363 8.28988 28.74 8.53936C27.9549 9.19975 29.0189 10.095 29.5619 9.22177L30.8093 7.07182ZM17.3813 21.2849C17.418 21.3216 19.1423 20.1843 19.5533 19.9568C20.3824 19.3551 19.3918 18.3865 18.7828 19.223L17.3886 21.2849H17.3813ZM14.8131 10.7113C14.7911 10.7553 16.5742 11.79 16.963 12.0615C17.8803 12.5384 18.4159 11.291 17.3666 11.0929L14.8131 10.7113ZM33.4288 17.9316C33.4508 17.8876 31.7412 16.7356 31.3743 16.4421C30.4937 15.8991 29.87 17.1098 30.9047 17.3739L33.4288 17.9316ZM27.5146 5.24474C27.4633 5.23007 26.4433 6.96176 26.1718 7.33598C26.1723 7.45548 26.2102 7.57183 26.2802 7.66871C26.3502 7.76558 26.4487 7.83812 26.562 7.87616C26.6753 7.91419 26.7977 7.91581 26.9119 7.88078C27.0262 7.84576 27.1266 7.77584 27.1991 7.68085L27.5146 5.24474ZM20.6246 23.1707C20.6759 23.1927 21.8206 21.5271 22.1141 21.1675C22.6498 20.3164 21.351 19.7734 21.1088 20.7566L20.6246 23.1707ZM14.9378 18.0857C14.9599 18.1297 16.9924 17.6454 17.4693 17.5721C18.4673 17.2932 17.9096 16.0605 17.0291 16.6328L14.9378 18.0857ZM33.4362 10.5499C33.4215 10.5059 31.3596 10.8507 30.8826 10.8948C29.8554 11.1076 30.3323 12.377 31.2495 11.8633L33.4362 10.5499Z" fill="#FFE400"/>
<path fill-rule="evenodd" clip-rule="evenodd" d="M25.8417 4.83385C25.7903 4.82651 25.1005 6.69762 24.8951 7.10853C24.5942 8.06243 25.9957 8.29723 25.9737 7.28463L25.849 4.82651L25.8417 4.83385ZM22.2829 23.611C22.3342 23.6257 23.1634 21.7986 23.3982 21.395C23.7651 20.4705 22.3856 20.1476 22.3342 21.1529L22.2755 23.611H22.2829ZM21.5711 5.01729C21.5198 5.03196 21.7105 7.01314 21.7105 7.46808C21.85 8.44399 23.2221 8.10645 22.7672 7.19658L21.5711 5.01729ZM26.5608 23.5009C26.6121 23.4936 26.5608 21.5051 26.5974 21.0501C26.5314 20.0595 25.1299 20.309 25.5261 21.2483L26.5534 23.5009H26.5608ZM18.0344 6.66093C17.9903 6.69028 18.9662 8.44399 19.1497 8.86224C19.678 9.72075 20.8153 8.9136 20.0155 8.23119L18.0344 6.66093ZM30.1269 21.916C30.1709 21.8866 29.3197 20.0669 29.173 19.6413C28.7107 18.7534 27.522 19.4872 28.2631 20.2136L30.1269 21.916ZM15.4515 9.12639C15.4221 9.17042 16.9997 10.4765 17.3299 10.8141C18.1444 11.4304 18.9002 10.2857 17.9023 9.9262L15.4515 9.12639ZM32.6364 19.3771C32.6657 19.3331 31.1908 17.9243 30.8826 17.5721C30.1195 16.9043 29.283 17.9977 30.2516 18.4232L32.6364 19.3771ZM14.3215 12.2009C14.3068 12.2522 16.2513 12.9934 16.6769 13.2061C17.6601 13.5363 17.9757 12.2229 16.9044 12.1935L14.3215 12.2009ZM33.9425 16.4421C33.9645 16.398 32.0787 15.5322 31.6678 15.29C30.7139 14.8938 30.2956 16.1852 31.3596 16.288L33.9425 16.4421ZM14.2554 15.9798C14.2628 16.0238 16.3614 15.9945 16.8383 16.0312C17.8803 15.9798 17.6308 14.6517 16.6329 15.0112L14.2554 15.9798ZM34.0819 12.6778C34.0819 12.6265 31.9833 12.5164 31.5137 12.4504C30.4644 12.4357 30.6185 13.7785 31.6384 13.4776L34.0819 12.6705V12.6778ZM16.0532 19.8981C16.0825 19.9421 17.961 19.0469 18.4012 18.8782C19.3111 18.4012 18.4746 17.3079 17.7482 18.049L16.0532 19.8981ZM32.3649 8.72282C32.3355 8.67879 30.4057 9.44925 29.9434 9.58867C28.9969 10.0069 29.7526 11.1516 30.5304 10.4619L32.3649 8.72282ZM19.1057 22.4957C19.1497 22.5177 20.4925 20.9914 20.83 20.6686C21.4684 19.8834 20.243 19.201 19.8835 20.1549L19.1057 22.4957ZM29.3564 6.07391C29.3197 6.04456 27.8669 7.47541 27.5073 7.77626C26.8176 8.51736 27.9916 9.28048 28.4172 8.35594L29.3491 6.07391H29.3564Z" fill="#FFE400"/>
<path fill-rule="evenodd" clip-rule="evenodd" d="M14.5623 18.0925C14.6744 18.4709 14.6904 20.5901 16.9484 22.6336C19.1903 24.6619 23.0336 25.116 23.0336 25.116C23.0336 25.116 23.0496 25.4036 22.7774 25.4188C22.5052 25.4491 21.192 25.1917 20.5355 24.9949C19.8949 24.8133 19.3184 24.4803 19.2544 24.4954C19.1743 24.5257 19.0462 24.7376 18.854 24.7073C18.6619 24.6771 17.7331 23.7689 17.3167 23.5267C16.4839 22.8463 15.7466 22.068 15.1228 21.2107C14.6744 20.5296 14.5623 20.0755 14.4182 20.0755C14.2741 20.0755 13.7456 20.4085 13.7456 20.4085C13.7456 20.4085 13.2652 19.7273 12.8489 18.6374C12.4165 17.5476 12.4645 16.9118 12.5606 16.8664C12.6727 16.821 12.6727 17.6687 12.993 18.4407C13.3133 19.2278 13.7616 19.47 13.7616 19.47C13.7616 19.47 13.4734 19.0613 13.2492 18.0471C13.025 17.0329 12.9289 16.049 13.0891 15.7463C13.2492 15.4436 13.3933 15.3527 13.4093 15.3679C13.4414 15.3981 13.1371 15.8371 13.3453 17.0027C13.5535 18.1682 14.1139 19.1521 14.2421 19.1067C14.3702 19.0613 14.162 18.8191 14.0819 18.1379C14.0018 17.4568 14.162 17.0329 14.3381 16.9724C14.4182 16.9118 14.5463 17.7292 14.5623 18.0925ZM12.993 20.03C12.5606 19.6516 11.888 18.3347 11.7439 18.3953C11.5838 18.4709 12.8328 20.3631 12.8649 20.5144C12.8969 20.6961 13.1691 21.2107 12.961 21.135C12.7528 21.0594 11.2635 19.5759 11.4396 19.8635C11.6158 20.1511 12.7368 21.4529 12.6727 21.5286C12.6086 21.6043 11.7439 20.802 11.7119 20.908C11.6959 20.9988 12.5606 21.7859 12.5446 21.8767C12.5286 21.9676 11.9841 21.3772 11.9841 21.4983C11.9841 21.6194 12.5446 22.2098 12.5446 22.3006C12.5446 22.3914 12.0642 21.8767 12.2243 22.1492C12.3684 22.4519 12.7848 22.7093 12.7688 22.8001C12.7528 22.8909 12.4165 22.679 12.4165 22.7244C12.4165 22.7698 13.041 22.9817 13.1851 23.1482C13.3453 23.3147 14.3702 24.4349 15.1388 24.9949C15.9075 25.555 18.1174 26.5389 18.2775 26.5389C18.4216 26.5389 18.6458 26.2362 18.5978 26.1151C18.5498 25.994 16.3879 25.2977 15.7954 24.783C15.1869 24.2684 13.7136 23.0272 13.5855 22.9666C13.4734 22.8909 13.1371 22.9212 13.1371 22.8455C13.1371 22.7698 13.5695 22.8909 13.5374 22.8455C13.5214 22.8001 12.9449 22.5579 12.961 22.5125C12.993 22.4671 13.3613 22.6033 13.3613 22.5579C13.3613 22.5125 12.6887 22.1643 12.7207 22.0887C12.7368 22.013 13.2172 22.3006 13.2172 22.24C13.2172 22.2098 12.5766 21.7859 12.5926 21.7102C12.6086 21.6346 13.0891 22.0432 13.073 21.9524C13.057 21.8616 12.6887 21.347 12.6887 21.2864C12.6887 21.2107 13.2652 21.8011 13.3293 21.68C13.3613 21.574 13.1211 20.5901 13.1371 20.575C13.1531 20.5598 13.5695 20.7869 13.6335 20.6507C13.7136 20.4993 13.3453 20.3025 12.993 20.03ZM20.3753 27.4774C20.0711 27.5228 19.9269 27.4169 20.1031 27.1747C20.3433 27.1747 20.9839 26.9779 21.208 26.8871C21.4322 26.7962 21.6724 26.6751 21.8646 26.5086C22.0568 26.3119 22.1849 26.6146 22.0728 26.7811C21.9927 26.8871 21.6244 27.0838 21.3522 27.1898C20.9518 27.3109 20.5995 27.4925 20.3753 27.4774ZM22.377 26.7054C22.1689 26.4935 22.345 26.3421 22.6493 26.1756C23.0977 25.9486 22.9696 25.6307 23.5461 25.3734C23.8023 25.222 27.3894 23.8597 28.5584 23.1331C29.7274 22.4065 33.0102 20.0603 33.8909 18.4407C34.7557 16.8362 34.3393 16.7151 34.4674 16.6545C34.5795 16.5788 34.7076 16.8816 34.6916 17.2448C34.6596 17.593 34.3714 18.6526 34.4674 18.7585C34.5635 18.8645 35.7806 17.926 36.293 16.7907C36.8055 15.6555 37.1898 14.4748 37.43 14.4748C37.6862 14.4748 37.0136 16.4123 36.5813 17.1692C36.1649 17.926 35.6685 18.3044 35.7806 18.4709C35.9087 18.6223 37.1578 17.6384 37.5901 16.9118C38.0065 16.1701 38.4068 15.5192 38.4869 15.6555C38.3595 16.5422 37.9897 17.3821 37.414 18.0925C36.7414 18.8191 35.9407 19.3489 36.0688 19.4548C36.1809 19.5759 37.0937 19.697 38.0385 19.0916C38.9993 18.4709 39.0954 17.5779 39.2075 17.6233C39.3356 17.6687 39.0954 18.8948 38.1826 19.6516C37.2699 20.4085 36.0688 20.4841 36.1009 20.6507C36.1649 20.802 38.7111 19.9544 38.6631 20.1511C38.615 20.3328 35.3642 21.5437 35.3322 21.6648C35.3322 21.7556 35.8927 21.7859 36.7734 21.5891C37.6382 21.4075 38.4709 20.7566 38.583 20.908C38.615 21.1199 37.9584 21.6346 36.9656 21.8767C35.9567 22.1189 35.4603 22.4368 35.4283 22.5125C35.4123 22.5882 37.2218 22.3006 37.2218 22.3914C37.2218 22.4822 34.8518 22.9212 34.8358 23.0423C34.8037 23.1482 37.0777 22.6033 37.0457 22.7395C36.9816 22.8455 33.955 23.6932 33.987 23.7386C34.003 23.7991 36.5172 23.2239 36.4692 23.3147C36.4051 23.4207 32.2415 24.5257 32.2095 24.6014C32.1775 24.6619 35.8927 23.8143 35.8606 23.89C35.8286 23.9656 33.939 24.4046 33.939 24.45C33.939 24.4954 35.4603 24.223 35.4283 24.2986C35.4123 24.3592 31.585 25.2825 31.5049 25.4188C31.4248 25.5701 33.4906 25.0404 33.4586 25.3128C33.4266 25.5853 29.0228 26.9779 29.0067 26.7206C28.9747 26.4632 31.681 25.8123 31.665 25.7367C31.633 25.661 30.1117 25.888 30.0797 25.7518C30.0637 25.6004 31.0885 25.2977 31.0085 25.2371C30.9284 25.1615 30.1597 25.4491 30.2238 25.2825C30.3039 25.116 31.7611 24.4803 31.7291 24.4349C31.7131 24.3895 31.2006 24.5863 31.2487 24.4349C31.3127 24.2684 34.4034 23.4207 34.3554 23.3147C34.3073 23.2239 32.9301 23.5267 32.802 23.5569C32.754 23.4661 34.7237 22.7698 34.6916 22.6487C34.6276 22.5428 33.6347 23.0574 33.5707 22.9212C33.5386 22.7698 35.3162 22.1189 35.2041 22.013C35.092 21.907 34.2913 22.2854 34.1792 22.1795C34.0671 22.0735 35.8606 20.908 35.5884 20.8777C35.3162 20.8626 34.9799 21.241 34.9479 20.9988C34.9799 20.6961 36.3411 20.1965 36.0368 19.9544C35.5564 19.8181 33.939 20.0603 33.2664 20.4387C32.5938 20.8172 30.3519 22.9212 29.8074 23.2542C29.263 23.5721 27.4054 24.3138 27.0531 24.4652C26.5086 24.6468 26.4125 24.9193 25.852 25.1917C24.8432 25.4491 24.8592 25.7367 24.3788 25.9032C24.2026 25.9486 22.3931 26.766 22.377 26.7054ZM19.8469 27.765C19.5426 27.9164 19.2704 28.2797 19.4465 28.431C19.5426 28.6127 19.8469 28.0223 20.0871 28.0526L21.3682 28.1132C22.0568 28.1586 22.3931 27.9769 22.7774 28.0072C23.1617 28.0375 24.0105 27.8104 24.4108 27.8104C24.8111 27.8104 24.8912 27.8558 24.9232 27.6893C24.9713 27.5379 23.6742 27.6439 23.0977 27.6288C22.5212 27.5985 21.8006 27.7347 21.3682 27.7347C20.9678 27.7196 20.2792 27.5985 19.8469 27.765Z" fill="#FFE400"/>
<path d="M21.7685 27.5833C21.7685 27.4579 21.6466 27.3563 21.4963 27.3563C21.3459 27.3563 21.2241 27.4579 21.2241 27.5833C21.2241 27.7087 21.3459 27.8104 21.4963 27.8104C21.6466 27.8104 21.7685 27.7087 21.7685 27.5833Z" fill="#FFE400"/>
<path fill-rule="evenodd" clip-rule="evenodd" d="M28.158 27.1444C28.4303 27.099 29.1669 27.3412 29.6793 27.4471C30.6081 27.7953 32.3376 27.6288 32.3376 27.7953C32.3376 27.9618 32.2255 28.1586 31.8252 28.1888C31.4248 28.2191 30.416 28.0375 30.448 28.0375C30.48 28.0375 31.2487 28.3856 31.0245 28.4764C30.8003 28.5673 30.1437 28.2797 30.0316 28.3554C29.9195 28.431 30.6402 28.5673 30.512 28.6127C30.416 28.6581 29.9195 28.5521 29.7594 28.5673C29.5993 28.5975 29.8875 28.764 29.6953 28.8246C29.5032 28.9003 29.1829 28.7338 29.0548 28.7792C28.9107 28.8246 29.343 29.0819 29.1509 29.1122C28.9587 29.1425 28.5103 28.9911 28.2541 28.9608C27.9979 28.9608 28.4943 29.203 28.3342 29.2333C28.174 29.2484 27.7256 29.0365 27.6135 29.0365C27.5015 29.0365 27.6135 29.3393 27.4534 29.3393C27.2933 29.3393 27.1011 29.0819 27.005 29.0819C26.9089 29.0819 27.005 29.3847 26.8449 29.3847C26.6847 29.3847 26.6207 29.0668 26.4926 29.0819C26.3324 29.1122 26.4926 29.4906 26.2684 29.4603C26.0602 29.4452 26.0282 29.0668 25.852 29.0819C25.6919 29.1122 25.8841 29.4603 25.7239 29.4603C25.5638 29.4603 25.5318 29.1122 25.3716 29.0819C25.2115 29.0668 25.2755 29.4149 25.1795 29.4149C25.0834 29.4149 24.9873 29.0819 24.9232 29.0819C24.8752 29.0819 24.9232 29.4149 24.7311 29.3847C24.5389 29.3544 24.5389 29.0214 24.4909 29.0365C24.4268 29.0668 24.4268 29.309 24.2987 29.309C24.1706 29.309 24.1546 29.0668 24.1065 29.0971C24.0425 29.1122 23.8503 29.4149 23.7222 29.3695C23.5781 29.3241 23.7542 29.0819 23.6902 29.0819C23.6261 29.0819 23.466 29.2484 23.3699 29.2333C23.2738 29.2182 23.3699 29.0214 23.3379 29.0214C23.3058 29.0214 23.0656 29.1425 22.9535 29.1425C22.8414 29.1425 22.5372 29.2938 22.4571 29.1576C22.377 29.0062 22.6653 29.0062 22.7293 28.87C22.7774 28.7338 22.5692 28.3251 22.7934 28.1888C23.0016 28.0375 23.6902 28.3856 24.7151 28.1434C26.5727 27.6742 28.0139 27.1293 28.158 27.1444Z" fill="#FFE400"/>
</g>
<defs>
<clipPath id="clip0_1_86">
<rect width="44" height="33" fill="white"/>
</clipPath>
</defs>
</svg>
