<svg width="44" height="30" viewBox="0 0 44 30" fill="none" xmlns="http://www.w3.org/2000/svg">
<g clip-path="url(#clip0_1_3579)">
<path d="M0 0H44V30H0V0Z" fill="#CC092F"/>
<path d="M0 0H30V30H0V0Z" fill="#FFD200"/>
<path d="M0 0H14V30H0V0Z" fill="#0046AE"/>
<path d="M20.1715 6.0005C20.0765 5.9962 19.9825 6.02191 19.9029 6.07396C19.9971 6.1018 20.0615 6.18879 20.0605 6.28705V6.5467H19.8009C19.7032 6.54771 19.6164 6.4843 19.5877 6.3909C19.4898 6.5566 19.4898 6.76242 19.5877 6.92811C19.6156 6.83384 19.7026 6.76948 19.8009 6.7705H20.0605V8.01859C20.0608 8.06445 20.0469 8.10927 20.0206 8.14683C19.9943 8.18438 19.9569 8.21278 19.9136 8.22808C20.0375 8.24494 20.1441 8.41116 20.1733 8.50207C20.2026 8.41137 20.3092 8.24494 20.433 8.22808C20.3893 8.21319 20.3515 8.18494 20.3248 8.14734C20.2981 8.10974 20.2839 8.0647 20.2843 8.01859V6.77043H20.544C20.6417 6.76941 20.7284 6.83283 20.7571 6.92629C20.8549 6.76056 20.8549 6.55478 20.7571 6.38905C20.7293 6.48328 20.6422 6.54761 20.544 6.5466H20.2843V6.28698C20.2832 6.18925 20.3467 6.1025 20.4401 6.07385C20.3605 6.02184 20.2665 5.99616 20.1715 6.00046V6.0005Z" fill="black"/>
<path d="M20.1715 6.05437C20.1192 6.05459 20.0672 6.06304 20.0175 6.07942C20.0477 6.10504 20.0719 6.13686 20.0886 6.17272C20.1053 6.20857 20.114 6.24761 20.1143 6.28716V6.54681C20.114 6.55045 20.1134 6.55405 20.1124 6.55758V6.59875H20.0712C20.0677 6.5997 20.0641 6.60033 20.0605 6.60057H19.8008C19.7217 6.60005 19.6467 6.56545 19.5949 6.50567C19.5776 6.5552 19.5685 6.60722 19.5681 6.65969C19.5683 6.71201 19.5767 6.76397 19.5931 6.81366C19.6449 6.75273 19.7208 6.7174 19.8008 6.71702H20.1142C20.1138 6.7224 20.1124 6.72762 20.1124 6.73307V6.75994C20.1133 6.76345 20.1139 6.76704 20.1142 6.77068V8.01877C20.1116 8.09474 20.0763 8.16589 20.0175 8.21395C20.0561 8.23805 20.0906 8.26831 20.1195 8.30353C20.1406 8.3326 20.1586 8.3638 20.1733 8.39661C20.1879 8.36383 20.2059 8.33264 20.227 8.30353C20.2555 8.26915 20.2894 8.23952 20.3273 8.21577C20.298 8.19176 20.2742 8.16175 20.2576 8.12778C20.2409 8.0938 20.2317 8.05664 20.2306 8.0188V6.7187H20.2736C20.2771 6.71776 20.2807 6.71717 20.2843 6.71695H20.5439C20.583 6.71721 20.6216 6.72581 20.6571 6.74217C20.6926 6.75853 20.7242 6.78227 20.7498 6.81181C20.7671 6.76228 20.7762 6.71027 20.7767 6.65783C20.7765 6.6055 20.768 6.55356 20.7516 6.50385C20.6998 6.56479 20.6239 6.60012 20.5439 6.6005H20.2843C20.2807 6.60026 20.277 6.59966 20.2736 6.59868H20.2323V6.55751C20.2314 6.55399 20.2308 6.55038 20.2305 6.54674V6.28712C20.2308 6.24802 20.2394 6.20943 20.2558 6.17392C20.2721 6.13841 20.2959 6.1068 20.3254 6.0812C20.2759 6.06392 20.2239 6.05485 20.1714 6.05434" fill="#FFD200"/>
<path d="M23.4217 10.5739C23.27 10.471 23.1404 10.3389 23.0403 10.1853C22.8174 9.82772 22.7234 9.38873 22.7234 8.9426C22.7234 8.75403 22.9347 8.54174 22.9347 8.38923C22.9361 8.26593 22.9289 8.1427 22.9132 8.02041C22.9881 8.03063 23.1191 8.16365 23.1191 8.16365C23.1191 8.16365 23.1146 7.78105 22.9937 7.7142C22.9937 7.7142 23.0426 7.6639 23.2194 7.65869C23.1697 7.53291 22.9239 7.37935 22.9239 7.37935C22.9397 7.35471 22.962 7.33489 22.9884 7.32205C23.0563 7.28873 23.1286 7.26521 23.2032 7.2522C23.1215 7.2345 23.0408 7.21236 22.9615 7.18591C22.7327 7.10945 22.509 7.01857 22.2918 6.91377C22.014 6.77445 21.7072 6.70267 21.3965 6.70425C21.2714 6.70428 21.0872 6.70768 20.9793 6.77952C20.8804 6.84511 20.8885 6.93042 20.8539 6.96037C20.7724 7.03089 20.6328 7.0284 20.5656 7.0284C20.1304 7.0284 20.1143 7.49401 20.1143 7.49401C20.1143 7.49401 20.2256 7.32565 20.4223 7.32565C20.7494 7.32565 20.9971 7.50384 20.9971 7.57096C20.9971 7.59814 20.9634 7.60318 20.9613 7.60318C20.7477 7.60318 20.4252 7.48019 20.2539 7.47425V7.55841C20.6363 7.69143 21.0239 7.87976 21.0239 8.70982C21.0239 9.23251 20.9613 9.76584 20.6998 10.1853C20.599 10.3389 20.4688 10.471 20.3166 10.574L21.8692 10.8538L23.4217 10.574V10.5739Z" fill="black"/>
<path d="M21.8691 10.2242L20.3167 10.574C20.246 10.5526 19.9139 10.4494 19.6809 10.3197C19.2708 10.0912 19.0581 9.86389 18.5707 9.84158V9.47087C18.5707 9.27281 18.6424 9.09438 18.6424 8.90501C18.4369 8.84992 17.8666 8.15261 17.3405 7.84311C16.5664 8.3445 15.9671 9.1676 15.9671 9.54611V20.5124C15.9671 20.6757 15.8686 20.9064 15.8686 20.9064C16.1512 20.7868 16.6692 20.0781 16.7783 19.8087V19.9377C17.205 19.743 17.5175 19.2316 17.6575 18.9671L17.6665 19.1013C18.0478 18.7671 18.5331 16.7914 18.5331 16.7914L19.342 17.5863C19.342 17.5863 19.0495 18.1801 18.9355 18.2864C18.9896 18.2927 19.044 18.2957 19.0984 18.2954C19.0452 18.3719 18.6386 18.9574 18.5111 19.1782C18.3918 19.3848 18.3077 19.2928 18.1243 19.2928C17.9722 19.2928 17.6276 19.535 17.571 19.6331C17.5098 19.7333 17.4741 19.8471 17.4672 19.9643C17.4672 20.0777 17.5872 20.233 17.5872 20.233C17.5916 20.2055 17.604 20.1799 17.6229 20.1595L17.9847 20.6036C18.0208 20.6436 18.1821 20.6696 18.239 20.618C18.3812 20.4887 18.5189 20.3982 18.6455 20.2115C18.7106 20.1152 18.7156 20.005 18.7905 19.9016L19.6536 18.7431L19.675 18.8631C19.8042 18.6022 20.4253 18.1038 20.4253 18.1038L21.0752 18.4029C21.0752 18.4029 19.8619 21.1919 18.7849 21.6208C18.7849 21.6208 19.2534 21.8199 19.8288 22.1186L20.0867 22.2565C20.1591 22.1693 20.2354 22.0724 20.3105 21.9718C20.6546 21.5114 20.9911 20.9779 20.9911 20.9779C21.0145 21.1165 20.8328 21.5444 20.5255 22.0721L20.3321 22.3944L20.5649 22.5305C21.1349 22.8735 21.6701 23.2678 21.8684 23.63L22.0084 23.2799L21.8684 22.9298V10.6886L21.9384 10.5137L21.8691 10.2242Z" fill="black"/>
<path d="M21.8684 22.9298C21.6673 22.7116 21.2469 22.4451 20.7744 22.1992C21.3457 21.1737 21.6288 19.5528 21.496 19.2302C21.496 19.2302 21.2614 20.0708 20.9749 20.5499C20.7095 20.9936 20.3828 21.4926 20.067 21.8625C19.8297 21.76 19.587 21.6703 19.34 21.5939C20.2864 20.8648 21.2542 18.4548 21.2542 18.4548L20.2534 17.9909C20.2534 17.9909 19.879 18.4275 19.7574 18.5085C19.7574 18.5085 19.7055 18.2914 19.675 18.2148C19.675 18.2148 19.5316 18.3233 19.453 18.3259L19.4118 18.0823C19.313 18.1482 19.1486 18.1343 19.1486 18.1343C19.293 18.0659 19.4638 17.6472 19.4638 17.6472L18.5081 16.3759C18.5081 16.3759 18.1724 17.989 17.79 18.3206V11.3745L18.0927 11.6555L18.5511 11.2276V10.9017L18.1446 11.2813V10.2982C18.1915 10.2277 18.2357 10.1554 18.2771 10.0815C18.3429 10.1962 18.5555 10.5478 18.8053 10.7638C18.8464 10.5967 19.1169 10.4379 19.1169 10.4379C19.1169 10.4379 19.2138 10.7005 19.3622 10.7655C19.4144 10.6736 19.7257 10.4701 19.7257 10.4701C19.7257 10.4701 19.4593 10.5106 19.3515 10.6116C19.2588 10.5909 19.2351 10.2248 19.2351 10.2248C19.2351 10.2248 18.843 10.4157 18.7749 10.5525C18.7001 10.5323 18.5837 10.2381 18.5384 10.1173C18.6354 10.1065 18.7328 10.1012 18.8303 10.1012C18.9421 10.1012 19.0852 10.1542 19.235 10.2248C19.3997 10.3023 19.5719 10.4005 19.7257 10.4701C19.9227 10.5593 20.2208 10.5775 20.3077 10.5812C20.2034 10.6536 20.0938 10.7182 19.98 10.7746C19.98 10.7746 20.4491 10.7702 20.7787 10.6062C20.8985 10.5339 21.0133 10.4538 21.1225 10.3662C21.0723 10.5126 20.9958 10.6485 20.8968 10.7674C21.3808 10.7264 21.6218 10.45 21.6901 10.3573C21.7336 10.4757 21.7939 10.5873 21.8691 10.6885H22.044V22.5815L21.8684 22.9298ZM18.3021 8.94078L18.311 9.16283V9.81648C18.1355 9.75607 17.9149 9.46763 17.8079 9.31509V9.22554C17.8091 9.19138 17.8173 9.15783 17.8321 9.12701C17.8469 9.09619 17.8679 9.06877 17.8939 9.04648L17.7882 9.00892C17.7363 9.06375 17.7063 9.13576 17.7041 9.21124V9.26318L17.3889 9.60164L17.0791 9.13246V9.01787C17.0791 8.94064 17.1385 8.85452 17.1884 8.79582L17.0845 8.75822C17.0321 8.82615 16.977 8.91769 16.977 9.00353V9.09661L16.6207 9.46375L16.4399 9.07517C16.6569 8.77452 17.0088 8.43788 17.3406 8.19635C17.3406 8.19635 18.0599 8.85679 18.3021 8.94078ZM16.479 9.57471V10.1138L16.2283 10.3465V9.54609C16.2355 9.45048 16.2649 9.35788 16.3142 9.27567L16.479 9.57471ZM17.2597 9.78241V10.1155L16.9715 10.3859V9.34374L17.2597 9.78241ZM16.8693 10.3841L16.581 10.1155V9.72519L16.8693 9.42255V10.3841ZM18.1855 9.97941C18.1186 10.074 17.9432 10.3055 17.754 10.4074V9.49236C17.7974 9.5646 17.9965 9.88675 18.1855 9.97941ZM17.6518 9.53889V10.3841L17.3635 10.1155V9.81645L17.6518 9.53889ZM16.479 10.4396V11.2831L16.2283 11.0484V10.6742L16.479 10.4396ZM16.8691 10.71V11.0126L16.5808 11.2812V10.4414L16.8691 10.71ZM17.2594 10.4415V11.2813L16.9712 11.0109V10.7118L17.2594 10.4415ZM17.6517 10.7118V11.0109L17.3633 11.2813V10.4415L17.6517 10.7118ZM18.042 11.2831L17.7536 11.0126V10.7315C17.8531 10.6708 17.9531 10.5593 18.042 10.4415L18.042 11.2831ZM17.3114 11.6555L17.6159 11.3726V18.3205L17.6517 18.8899L17.0071 19.5417V11.3707L17.3114 11.6555ZM16.8332 19.2821C16.8332 19.5054 16.4254 20.0262 16.228 20.1452V11.3745L16.5288 11.6556L16.8332 11.3726V19.2821Z" fill="#B07E5B"/>
<path d="M19.3616 18.5282L19.5836 18.376L19.6176 18.5497L18.7062 19.7889C18.639 19.8793 18.5826 20.1094 18.5826 20.1094C18.5826 20.1094 18.4841 20.0628 18.4841 19.9787C18.4841 19.8961 18.4949 19.7978 18.4949 19.7978C18.4687 19.8245 18.4375 19.8456 18.4031 19.8601C18.3686 19.8745 18.3317 19.882 18.2943 19.882C18.2943 19.7804 18.4907 19.6703 18.4984 19.5257C18.3487 19.6367 18.2186 19.5797 18.0454 19.6332C17.8568 19.6913 17.8042 19.7705 17.7464 19.7675C17.7123 19.7656 17.6815 19.7069 17.6945 19.6708C17.717 19.6082 17.9503 19.4352 18.1134 19.404C18.1525 19.3965 18.4598 19.4708 18.5217 19.3753L19.2308 18.2812C19.2553 18.2766 19.2789 18.2681 19.3006 18.2561C19.3006 18.2561 19.2982 18.4573 19.3616 18.5282H19.3616ZM17.9339 19.7547C17.9462 19.7681 17.9454 19.7889 17.9321 19.8013L17.8318 19.889C17.8174 19.9002 17.7967 19.8978 17.7853 19.8836C17.773 19.8702 17.7738 19.8494 17.7871 19.837L17.8874 19.7493C17.8905 19.7465 17.8942 19.7445 17.8982 19.7433C17.9023 19.742 17.9065 19.7417 17.9107 19.7422C17.9197 19.7434 17.9279 19.7478 17.9339 19.7547ZM18.0861 19.8604C18.1158 19.8917 18.1145 19.9411 18.0832 19.9708L18.0825 19.9714L17.839 20.1845C17.802 20.212 17.7498 20.2042 17.7224 20.1672C17.6979 20.1343 17.7011 20.0885 17.7297 20.0592L17.9733 19.8479C17.9854 19.8376 18.0004 19.8314 18.0163 19.8299C18.043 19.8285 18.0689 19.8397 18.0861 19.8604ZM18.2257 20.0251C18.2327 20.0326 18.2383 20.0413 18.2419 20.0509C18.2456 20.0604 18.2474 20.0706 18.2471 20.0809C18.2469 20.0911 18.2446 20.1012 18.2404 20.1106C18.2362 20.1199 18.2303 20.1284 18.2228 20.1355L18.2221 20.1362L17.9768 20.3492C17.9428 20.3765 17.8932 20.371 17.866 20.337L17.8657 20.3367C17.8513 20.3212 17.8437 20.3007 17.8443 20.2796C17.845 20.2585 17.854 20.2385 17.8694 20.224L18.1129 20.0126C18.1244 20.0024 18.1388 19.9962 18.1541 19.9947C18.1814 19.9932 18.2078 20.0044 18.2257 20.0251ZM18.3097 20.1558C18.3228 20.1547 18.336 20.1568 18.3481 20.1618C18.3603 20.1667 18.371 20.1745 18.3796 20.1845C18.4095 20.2167 18.408 20.267 18.376 20.2973L18.1325 20.5086C18.1158 20.5206 18.0952 20.526 18.0748 20.5237C18.0544 20.5214 18.0355 20.5116 18.0219 20.4962C18.0083 20.4808 18.0009 20.4609 18.0012 20.4404C18.0014 20.4198 18.0093 20.4001 18.0232 20.385L18.2686 20.172C18.2802 20.1622 18.2946 20.1566 18.3097 20.1558Z" fill="#CC092F"/>
<path d="M21.8676 10.2242L23.4201 10.574C23.4907 10.5526 23.8228 10.4494 24.0558 10.3197C24.466 10.0912 24.6786 9.86389 25.166 9.84158V9.47087C25.166 9.27281 25.0944 9.09438 25.0944 8.90501C25.2998 8.84992 25.8701 8.15261 26.3962 7.84311C27.1703 8.3445 27.7697 9.1676 27.7697 9.54611V20.5124C27.7697 20.6757 27.8682 20.9064 27.8682 20.9064C27.5856 20.7868 27.0675 20.0781 26.9585 19.8087V19.9377C26.5317 19.743 26.2192 19.2316 26.0792 18.9671L26.0703 19.1013C25.689 18.7671 25.2036 16.7914 25.2036 16.7914L24.3948 17.5863C24.3948 17.5863 24.6873 18.1801 24.8012 18.2864C24.7472 18.2927 24.6927 18.2957 24.6383 18.2954C24.6916 18.3719 25.0982 18.9574 25.2257 19.1782C25.3449 19.3848 25.4291 19.2928 25.6124 19.2928C25.7645 19.2928 26.1092 19.535 26.1658 19.6331C26.227 19.7333 26.2626 19.8471 26.2696 19.9643C26.2696 20.0777 26.1496 20.233 26.1496 20.233C26.1452 20.2055 26.1327 20.1799 26.1138 20.1595L25.7521 20.6036C25.7159 20.6436 25.5546 20.6696 25.4978 20.618C25.3556 20.4887 25.2179 20.3982 25.0913 20.2115C25.0261 20.1152 25.0212 20.005 24.9463 19.9016L24.0832 18.7431L24.0618 18.8631C23.9325 18.6022 23.3114 18.1038 23.3114 18.1038L22.6616 18.4029C22.6616 18.4029 23.8749 21.1919 24.9519 21.6208C24.9519 21.6208 24.4833 21.8199 23.9079 22.1186L23.65 22.2565C23.5776 22.1693 23.5014 22.0724 23.4262 21.9718C23.0822 21.5114 22.7457 20.9779 22.7457 20.9779C22.7223 21.1165 22.9039 21.5444 23.2113 22.0721L23.4047 22.3944L23.1719 22.5305C22.6019 22.8735 22.0666 23.2678 21.8683 23.63L21.7284 23.2799L21.8683 22.9298V10.6886L21.7984 10.5137L21.8676 10.2242Z" fill="black"/>
<path d="M21.8683 22.9298C22.0694 22.7116 22.4899 22.4451 22.9624 22.1992C22.391 21.1737 22.1079 19.5528 22.2408 19.2302C22.2408 19.2302 22.4753 20.0708 22.7619 20.5499C23.0272 20.9936 23.3539 21.4926 23.6697 21.8625C23.9071 21.76 24.1498 21.6703 24.3968 21.5939C23.4503 20.8648 22.4825 18.4548 22.4825 18.4548L23.4833 17.9909C23.4833 17.9909 23.8578 18.4275 23.9793 18.5085C23.9793 18.5085 24.0313 18.2914 24.0617 18.2148C24.0617 18.2148 24.2052 18.3233 24.2837 18.3259L24.3249 18.0823C24.4237 18.1482 24.5881 18.1343 24.5881 18.1343C24.4438 18.0659 24.273 17.6472 24.273 17.6472L25.2287 16.3759C25.2287 16.3759 25.5644 17.989 25.9467 18.3206V11.3745L25.6441 11.6555L25.1857 11.2276V10.9017L25.5922 11.2813V10.2982C25.5452 10.2277 25.501 10.1554 25.4597 10.0815C25.3939 10.1962 25.1812 10.5478 24.9314 10.7638C24.8903 10.5967 24.6198 10.4379 24.6198 10.4379C24.6198 10.4379 24.5229 10.7005 24.3746 10.7655C24.3224 10.6736 24.011 10.4701 24.011 10.4701C24.011 10.4701 24.2774 10.5106 24.3853 10.6116C24.4779 10.5909 24.5017 10.2248 24.5017 10.2248C24.5017 10.2248 24.8937 10.4157 24.9619 10.5525C25.0366 10.5323 25.153 10.2381 25.1983 10.1173C25.1014 10.1065 25.0039 10.1012 24.9064 10.1012C24.7946 10.1012 24.6516 10.1542 24.5017 10.2248C24.3371 10.3023 24.1648 10.4005 24.011 10.4701C23.814 10.5593 23.516 10.5775 23.4291 10.5812C23.5334 10.6536 23.6429 10.7182 23.7567 10.7746C23.7567 10.7746 23.2876 10.7702 22.9581 10.6062C22.8383 10.5339 22.7234 10.4538 22.6143 10.3662C22.6645 10.5126 22.741 10.6485 22.84 10.7674C22.356 10.7264 22.115 10.45 22.0467 10.3573C22.0031 10.4757 21.9428 10.5873 21.8676 10.6885H21.6927V22.5815L21.8683 22.9298ZM25.4346 8.94078L25.4257 9.16283V9.81648C25.6013 9.75607 25.8219 9.46763 25.9288 9.31509V9.22554C25.9277 9.19138 25.9194 9.15783 25.9046 9.12701C25.8898 9.09619 25.8688 9.06877 25.8429 9.04648L25.9485 9.00892C26.0005 9.06375 26.0304 9.13576 26.0327 9.21124V9.26318L26.3478 9.60164L26.6576 9.13246V9.01787C26.6576 8.94064 26.5982 8.85452 26.5484 8.79582L26.6522 8.75822C26.7047 8.82615 26.7597 8.91769 26.7597 9.00353V9.09661L27.116 9.46375L27.2969 9.07517C27.0798 8.77452 26.7279 8.43788 26.3962 8.19635C26.3962 8.19635 25.6769 8.85679 25.4346 8.94078ZM27.2577 9.57471V10.1138L27.5084 10.3465V9.54609C27.5013 9.45048 27.4719 9.35788 27.4225 9.27567L27.2577 9.57471ZM26.477 9.78241V10.1155L26.7653 10.3859V9.34374L26.477 9.78241ZM26.8674 10.3841L27.1557 10.1155V9.72519L26.8674 9.42255V10.3841ZM25.5512 9.97941C25.6182 10.074 25.7935 10.3055 25.9828 10.4074V9.49236C25.9394 9.5646 25.7402 9.88675 25.5512 9.97941ZM26.0849 9.53889V10.3841L26.3732 10.1155V9.81645L26.0849 9.53889ZM27.2578 10.4396V11.2831L27.5085 11.0484V10.6742L27.2578 10.4396ZM26.8676 10.71V11.0126L27.156 11.2812V10.4414L26.8676 10.71ZM26.4773 10.4415V11.2813L26.7656 11.0109V10.7118L26.4773 10.4415ZM26.0851 10.7118V11.0109L26.3734 11.2813V10.4415L26.0851 10.7118ZM25.6948 11.2831L25.9831 11.0126V10.7315C25.8837 10.6708 25.7837 10.5593 25.6948 10.4415L25.6948 11.2831ZM26.4253 11.6555L26.1209 11.3726V18.3205L26.0851 18.8899L26.7297 19.5417V11.3707L26.4253 11.6555ZM26.9035 19.2821C26.9035 19.5054 27.3114 20.0262 27.5088 20.1452V11.3745L27.208 11.6556L26.9035 11.3726V19.2821Z" fill="#B07E5B"/>
<path d="M24.3752 18.5282L24.1531 18.376L24.1191 18.5497L25.0306 19.7889C25.0978 19.8793 25.1542 20.1094 25.1542 20.1094C25.1542 20.1094 25.2526 20.0628 25.2526 19.9787C25.2526 19.8961 25.2418 19.7978 25.2418 19.7978C25.268 19.8245 25.2992 19.8456 25.3337 19.8601C25.3681 19.8745 25.4051 19.882 25.4424 19.882C25.4424 19.7804 25.2461 19.6703 25.2383 19.5257C25.3881 19.6367 25.5181 19.5797 25.6913 19.6332C25.88 19.6913 25.9325 19.7705 25.9904 19.7675C26.0244 19.7656 26.0553 19.7069 26.0423 19.6708C26.0197 19.6082 25.7864 19.4352 25.6233 19.404C25.5843 19.3965 25.2769 19.4708 25.215 19.3753L24.5059 18.2812C24.4815 18.2766 24.4579 18.2681 24.4361 18.2561C24.4361 18.2561 24.4385 18.4573 24.3752 18.5282H24.3752ZM25.8028 19.7547C25.7906 19.7681 25.7914 19.7889 25.8047 19.8013L25.9049 19.889C25.9193 19.9002 25.94 19.8978 25.9515 19.8836C25.9638 19.8702 25.963 19.8494 25.9496 19.837L25.8494 19.7493C25.8462 19.7465 25.8425 19.7445 25.8385 19.7433C25.8345 19.742 25.8303 19.7417 25.8261 19.7422C25.8171 19.7434 25.8088 19.7478 25.8028 19.7547ZM25.6506 19.8604C25.6209 19.8917 25.6223 19.9411 25.6535 19.9708L25.6542 19.9714L25.8978 20.1845C25.9347 20.212 25.987 20.2042 26.0144 20.1672C26.0388 20.1343 26.0357 20.0885 26.007 20.0592L25.7635 19.8479C25.7513 19.8376 25.7363 19.8314 25.7205 19.8299C25.6937 19.8285 25.6678 19.8397 25.6506 19.8604ZM25.5111 20.0251C25.504 20.0326 25.4985 20.0413 25.4948 20.0509C25.4911 20.0604 25.4894 20.0706 25.4896 20.0809C25.4899 20.0911 25.4922 20.1012 25.4963 20.1106C25.5005 20.1199 25.5065 20.1284 25.5139 20.1355L25.5147 20.1362L25.76 20.3492C25.7939 20.3765 25.8435 20.371 25.8708 20.337L25.871 20.3367C25.8854 20.3212 25.8931 20.3007 25.8924 20.2796C25.8917 20.2585 25.8827 20.2385 25.8674 20.224L25.6239 20.0126C25.6124 20.0024 25.598 19.9962 25.5827 19.9947C25.5554 19.9932 25.5289 20.0044 25.5111 20.0251ZM25.427 20.1558C25.4139 20.1547 25.4008 20.1568 25.3886 20.1618C25.3765 20.1667 25.3657 20.1745 25.3572 20.1845C25.3272 20.2167 25.3288 20.267 25.3607 20.2973L25.6043 20.5086C25.621 20.5206 25.6415 20.526 25.6619 20.5237C25.6824 20.5214 25.7012 20.5116 25.7148 20.4962C25.7284 20.4808 25.7358 20.4609 25.7356 20.4404C25.7354 20.4198 25.7275 20.4001 25.7135 20.385L25.4682 20.172C25.4566 20.1622 25.4421 20.1566 25.427 20.1558Z" fill="#CC092F"/>
<path d="M21.5093 6.8189C21.9101 6.8189 22.192 7.00163 22.5712 7.16985C22.6706 7.21392 22.7619 7.24964 22.8433 7.27727C22.7991 7.3111 22.764 7.35545 22.7413 7.40624C22.7413 7.40624 22.9112 7.43772 22.9883 7.57998C22.9883 7.57998 22.8267 7.59831 22.8003 7.69275C22.8909 7.69957 22.9808 7.81368 22.9812 7.92379L22.752 7.85212C22.7872 8.02904 22.8059 8.20891 22.8075 8.38933C22.8075 8.53225 22.6016 8.70043 22.6016 8.94267C22.6016 9.7029 22.7931 9.99512 22.9293 10.2301C22.9826 10.3221 23.0259 10.4279 23.1156 10.5077C22.7232 10.2988 22.4315 10.0376 22.4315 9.79504V8.87642H22.3294V9.79504C22.3294 9.97095 22.3724 10.0529 22.3724 10.0529C22.434 10.2475 22.5585 10.5479 22.6356 10.6689C22.2746 10.4738 22.0912 10.2294 22.0912 10.1389V8.87638H21.9892V10.1567L22.0089 10.2445C21.9651 10.3102 21.9082 10.3881 21.8692 10.4146C21.8303 10.3881 21.7751 10.3101 21.7313 10.2445L21.751 10.1567V8.87638H21.6489V10.1389C21.6489 10.2294 21.4655 10.4738 21.1045 10.6689C21.1817 10.5479 21.3062 10.2475 21.3677 10.0529C21.3677 10.0529 21.4107 9.97098 21.4107 9.79504V8.87642H21.3086V9.79504C21.3086 10.0373 21.0181 10.2989 20.6264 10.5077C20.7151 10.4278 20.7578 10.3216 20.8108 10.2301C20.9597 9.97312 21.1439 9.64659 21.1439 8.71702C21.1439 8.36813 21.0923 8.13094 21.0024 7.96493C20.9751 7.91015 20.9383 7.76436 21.1474 7.76436C21.2558 7.76436 21.5038 7.95597 21.5038 7.95597C21.4939 7.86051 21.4445 7.77352 21.3677 7.71601C21.352 7.70365 21.339 7.68822 21.3295 7.67067C21.3199 7.65311 21.314 7.6338 21.3122 7.61391C21.3266 7.56008 21.3612 7.51389 21.4089 7.48498C21.438 7.47176 20.9827 7.39242 20.9827 7.18594C20.9827 7.14295 21.0097 7.1143 21.1044 7.1143C21.2284 7.1143 21.4301 7.26293 21.6094 7.26293C21.742 7.26293 21.7942 7.23068 21.9299 7.23068C22.0958 7.23068 22.4419 7.54476 22.5602 7.53328C22.4279 7.45021 22.2141 7.13575 21.8906 7.13575C21.7782 7.13575 21.6766 7.16082 21.5718 7.16082C21.4374 7.16082 21.3051 7.03724 21.1599 7.03724C21.0626 7.03724 20.9539 7.04267 20.9378 7.01752C20.9097 6.97362 20.935 6.94815 20.9611 6.91188C21.0104 6.84342 21.1488 6.82356 21.2853 6.8188C21.3262 6.81736 21.3671 6.81666 21.4053 6.81701L21.5092 6.81887L21.5093 6.8189Z" fill="#B07E5B"/>
<path d="M20.2079 7.31047C20.2717 7.20757 20.3854 7.14649 20.5064 7.15023C20.5958 7.15023 20.8909 7.14404 20.8909 7.14404C20.9302 7.24622 21.1095 7.41695 21.1095 7.5945C21.1095 7.5945 20.9276 7.2665 20.4196 7.2665C20.3467 7.26539 20.2744 7.28039 20.2079 7.31044L20.2079 7.31047ZM21.0338 7.65712C21.0338 7.65712 20.9256 7.77108 20.9021 7.83191C20.795 7.79133 20.6083 7.59891 20.6083 7.59891C20.6083 7.59891 20.7666 7.69133 21.0337 7.65712H21.0338Z" fill="#CC092F"/>
<path d="M20.8624 7.35524C20.8624 7.35524 20.7375 7.31522 20.7375 7.27332C20.7375 7.21994 20.7982 7.21994 20.8344 7.26153C20.8517 7.28983 20.8613 7.32215 20.8623 7.35527L20.8624 7.35524Z" fill="black"/>
<path d="M21.4445 7.61944C21.5869 7.61944 21.7024 7.5318 21.7024 7.42369C21.7024 7.31559 21.5869 7.22795 21.4445 7.22795C21.3021 7.22795 21.1866 7.31559 21.1866 7.42369C21.1866 7.5318 21.3021 7.61944 21.4445 7.61944Z" fill="black"/>
<path d="M21.4442 7.60283C21.5431 7.60283 21.6233 7.52263 21.6233 7.4237C21.6233 7.32477 21.5431 7.24457 21.4442 7.24457C21.3453 7.24457 21.2651 7.32477 21.2651 7.4237C21.2651 7.52263 21.3453 7.60283 21.4442 7.60283Z" fill="#FFD200"/>
<path d="M21.4442 7.50578C21.4896 7.50578 21.5263 7.46904 21.5263 7.42372C21.5263 7.3784 21.4896 7.34166 21.4442 7.34166C21.3989 7.34166 21.3622 7.3784 21.3622 7.42372C21.3622 7.46904 21.3989 7.50578 21.4442 7.50578Z" fill="black"/>
<path d="M18.5507 20.2969L19.1174 20.6061L18.9799 21.2367L18.4132 20.9275L18.5507 20.2969Z" fill="black"/>
<path d="M15.9106 14.2377L15.7065 14.3309L18.0128 19.3826H18.2582L15.9106 14.2377ZM18.6306 20.1954L18.4641 20.3673L18.568 20.5965L18.7703 20.5034L18.6306 20.1954Z" fill="black"/>
<path d="M16.6273 18.2208C16.6273 18.2208 16.8216 18.6221 16.9693 18.6771C16.8929 18.6563 16.645 18.7473 16.645 18.7473C16.645 18.7473 17.0822 19.1378 17.453 19.1635C17.7675 19.1851 17.9201 19.0282 17.9201 19.0282L17.8571 18.695C17.7207 18.5426 17.5489 18.426 17.3569 18.3555C17.0458 18.2471 16.6273 18.2209 16.6273 18.2209L16.6273 18.2208ZM18.0919 17.502C18.0919 17.502 17.8237 17.7316 17.7502 17.9976C17.6768 18.2636 17.7981 18.5659 17.7981 18.5659L18.0235 18.9864C18.0235 18.9864 18.3359 18.8202 18.4688 18.5716C18.6017 18.323 18.5529 17.9875 18.5529 17.9875C18.5529 17.9875 18.3055 18.0796 18.274 18.1204C18.3262 17.8446 18.0919 17.502 18.0919 17.502ZM17.2297 17.3946C17.2297 17.3946 16.9246 17.4977 16.6283 17.4799C16.3461 17.4629 16.1114 17.2259 16.1114 17.2259C16.1114 17.2259 16.3454 17.0676 16.4608 17.0887C16.3338 17.0422 16.1497 16.7241 16.1497 16.7241C16.1497 16.7241 16.4114 16.645 16.6434 16.7325C16.8755 16.8199 17.0778 17.0742 17.0778 17.0742L17.2297 17.3946ZM17.3346 15.9045C17.3346 15.9045 17.4872 16.2204 17.451 16.3302C17.4984 16.2571 17.6775 16.1433 17.6775 16.1433C17.6775 16.1433 17.7858 16.6548 17.6822 16.9707C17.5786 17.2867 17.2634 17.4069 17.2634 17.4069L16.9156 16.7305C16.9156 16.7305 16.8638 16.4799 16.9722 16.2815C17.0807 16.0831 17.3346 15.9045 17.3346 15.9045V15.9045ZM15.3495 15.0682C15.3495 15.0682 15.6793 15.0335 15.981 15.1585C16.2332 15.2632 16.3105 15.4535 16.3105 15.4535L16.4347 15.7865C16.4347 15.7865 16.0758 15.9211 15.7922 15.8182C15.5086 15.7153 15.3002 15.3746 15.3002 15.3746C15.3002 15.3746 15.4984 15.2995 15.5738 15.3277C15.4639 15.279 15.3496 15.0682 15.3496 15.0682V15.0682L15.3495 15.0682ZM16.3867 14.4501C16.3867 14.4501 16.5314 14.6359 16.5357 14.8497C16.5743 14.736 16.755 14.6104 16.755 14.6104C16.755 14.6104 16.9408 15.0601 16.9 15.3793C16.8592 15.6986 16.5919 15.8875 16.5919 15.8875L16.2585 15.2546C16.2585 15.2546 16.1498 14.9953 16.1818 14.7941C16.2139 14.5929 16.3867 14.45 16.3867 14.45V14.4501ZM15.2446 13.2398C15.2446 13.2398 15.1848 13.5845 15.2866 13.783C15.3774 13.9602 15.4353 13.9991 15.4353 13.9991C15.262 13.8847 15 13.8748 15 13.8748C15 13.8748 15.0933 14.2499 15.3161 14.4209C15.539 14.592 15.8826 14.552 15.8826 14.552C15.8826 14.552 16.1086 14.2512 16.0928 13.9271C16.0771 13.6031 15.8197 13.2556 15.8197 13.2556C15.8197 13.2556 15.7182 13.4662 15.7092 13.6234C15.6435 13.4613 15.2445 13.2398 15.2445 13.2398L15.2446 13.2398ZM17.938 19.0138L17.9473 19.1375C18.1528 19.1395 18.1834 19.119 18.2361 19.1838C18.2869 19.2409 18.369 19.2581 18.4385 19.2263C18.4789 19.2075 18.5104 19.1736 18.5259 19.1319C18.5415 19.0901 18.54 19.0439 18.5217 19.0032C18.4834 18.9193 18.4054 18.9011 18.3302 18.9159C18.2841 18.925 18.2537 18.9619 18.2146 18.9821C18.1402 19.0206 17.9379 19.0138 17.9379 19.0138L17.938 19.0138Z" fill="black"/>
<path d="M17.9202 18.9194L18.0202 18.9926C17.9129 19.168 17.8794 19.1831 17.9064 19.2622C17.9169 19.2979 17.9156 19.336 17.9028 19.371C17.89 19.4059 17.8663 19.4359 17.8353 19.4564C17.798 19.4808 17.7525 19.4895 17.7089 19.4806C17.6652 19.4717 17.6268 19.4459 17.602 19.4089C17.5511 19.3319 17.577 19.2562 17.6294 19.2002C17.6616 19.1659 17.7088 19.1597 17.7467 19.1372C17.8188 19.0944 17.9201 18.9193 17.9201 18.9193L17.9202 18.9194ZM17.2241 17.4502L17.2333 17.574C17.4388 17.5758 17.4694 17.5554 17.5221 17.6202C17.5729 17.6772 17.655 17.6945 17.7245 17.6627C17.8087 17.6237 17.8459 17.5243 17.8077 17.4397C17.7694 17.3557 17.6914 17.3375 17.6163 17.3524C17.5701 17.3615 17.5398 17.3983 17.5006 17.4185C17.4262 17.457 17.224 17.4503 17.224 17.4503L17.2241 17.4502Z" fill="black"/>
<path d="M17.2657 17.494L17.3531 17.582C17.2199 17.7385 17.1844 17.7483 17.1988 17.8305C17.2087 17.9063 17.1679 17.9797 17.0983 18.0113C17.0577 18.0296 17.0115 18.0311 16.9697 18.0155C16.9279 18 16.894 17.9686 16.8753 17.9281C16.837 17.8442 16.8743 17.7733 16.9348 17.7263C16.9719 17.6974 17.0196 17.6985 17.0605 17.6823C17.1384 17.6512 17.2657 17.494 17.2657 17.494V17.494ZM16.5322 15.9864L16.5414 16.1101C16.747 16.112 16.7775 16.0915 16.8303 16.1564C16.855 16.1841 16.8881 16.2032 16.9245 16.2109C16.9609 16.2185 16.9989 16.2143 17.0327 16.1988C17.0732 16.18 17.1046 16.1461 17.1202 16.1044C17.1357 16.0626 17.1342 16.0164 17.1159 15.9757C17.0776 15.8918 16.9996 15.8736 16.9244 15.8885C16.8782 15.8976 16.8479 15.9344 16.8088 15.9546C16.7343 15.9931 16.5321 15.9863 16.5321 15.9863L16.5322 15.9864Z" fill="black"/>
<path d="M16.5892 15.9605L16.6766 16.0485C16.5434 16.205 16.5079 16.2148 16.5223 16.297C16.5322 16.3728 16.4914 16.4462 16.4218 16.4778C16.3812 16.4961 16.335 16.4976 16.2932 16.482C16.2515 16.4664 16.2175 16.435 16.1988 16.3946C16.1605 16.3106 16.1979 16.2398 16.2583 16.1927C16.2954 16.1638 16.3431 16.165 16.384 16.1487C16.4619 16.1176 16.5892 15.9605 16.5892 15.9605ZM15.7952 14.441L15.8044 14.5647C16.0099 14.5666 16.0406 14.5461 16.0932 14.6109C16.118 14.6387 16.151 14.6578 16.1874 14.6655C16.2239 14.6731 16.2618 14.6689 16.2957 14.6534C16.3361 14.6347 16.3675 14.6008 16.3831 14.559C16.3987 14.5173 16.3972 14.471 16.3789 14.4304C16.3406 14.3464 16.2626 14.3282 16.1874 14.3431C16.1413 14.3522 16.1109 14.389 16.0718 14.4092C15.9973 14.4477 15.7951 14.441 15.7951 14.441H15.7952Z" fill="black"/>
<path d="M15.8522 14.4151L15.9396 14.5031C15.8064 14.6597 15.7709 14.6694 15.7853 14.7517C15.7951 14.8275 15.7544 14.9008 15.6848 14.9325C15.6442 14.9507 15.598 14.9522 15.5562 14.9367C15.5145 14.9211 15.4806 14.8897 15.4618 14.8492C15.4235 14.7653 15.4608 14.6944 15.5212 14.6474C15.5584 14.6185 15.6061 14.6196 15.647 14.6033C15.7248 14.5723 15.8521 14.4151 15.8521 14.4151L15.8522 14.4151Z" fill="black"/>
<path d="M18.6323 20.4756L18.9838 20.6674L18.8985 21.0586L18.547 20.8668L18.6323 20.4756ZM17.0936 17.0836C17.0199 17.1142 16.9106 16.7935 16.8304 16.6178C16.7481 16.4375 16.581 16.1596 16.6284 16.1379C16.6805 16.1141 16.7491 16.26 16.8334 16.4445C16.9176 16.6291 17.1626 17.0549 17.0936 17.0836V17.0836ZM16.337 15.3945C16.2634 15.4252 16.1827 15.2152 16.1025 15.0394C16.0202 14.8591 15.94 14.7318 15.9875 14.7101C16.0396 14.6863 16.1166 14.8443 16.184 14.9919C16.2492 15.1348 16.406 15.3658 16.337 15.3945L16.337 15.3945ZM18.0873 19.2244C18.0295 19.2398 17.7771 18.7115 17.573 18.2645C17.369 17.8174 17.2171 17.4558 17.2645 17.4342C17.3166 17.4104 17.4819 17.8327 17.686 18.2797C17.8901 18.7268 18.1307 19.2127 18.0874 19.2244H18.0873Z" fill="#FFD200"/>
<path d="M18.3695 19.1649C18.4198 19.1649 18.4606 19.1241 18.4606 19.0738C18.4606 19.0234 18.4198 18.9826 18.3695 18.9826C18.3191 18.9826 18.2783 19.0234 18.2783 19.0738C18.2783 19.1241 18.3191 19.1649 18.3695 19.1649Z" fill="#FFD200"/>
<path d="M17.7425 19.408C17.7928 19.408 17.8336 19.3672 17.8336 19.3168C17.8336 19.2665 17.7928 19.2257 17.7425 19.2257C17.6921 19.2257 17.6513 19.2665 17.6513 19.3168C17.6513 19.3672 17.6921 19.408 17.7425 19.408Z" fill="#FFD200"/>
<path d="M17.6552 17.6001C17.7056 17.6001 17.7464 17.5593 17.7464 17.509C17.7464 17.4586 17.7056 17.4178 17.6552 17.4178C17.6049 17.4178 17.5641 17.4586 17.5641 17.509C17.5641 17.5593 17.6049 17.6001 17.6552 17.6001Z" fill="#FFD200"/>
<path d="M17.028 17.9496C17.0783 17.9496 17.1191 17.9088 17.1191 17.8584C17.1191 17.8081 17.0783 17.7673 17.028 17.7673C16.9776 17.7673 16.9368 17.8081 16.9368 17.8584C16.9368 17.9088 16.9776 17.9496 17.028 17.9496Z" fill="#FFD200"/>
<path d="M16.9635 16.1368C17.0138 16.1368 17.0547 16.096 17.0547 16.0456C17.0547 15.9953 17.0138 15.9545 16.9635 15.9545C16.9132 15.9545 16.8723 15.9953 16.8723 16.0456C16.8723 16.096 16.9132 16.1368 16.9635 16.1368Z" fill="#FFD200"/>
<path d="M16.3514 16.4162C16.4018 16.4162 16.4426 16.3754 16.4426 16.325C16.4426 16.2747 16.4018 16.2339 16.3514 16.2339C16.3011 16.2339 16.2603 16.2747 16.2603 16.325C16.2603 16.3754 16.3011 16.4162 16.3514 16.4162Z" fill="#FFD200"/>
<path d="M16.2265 14.5916C16.2768 14.5916 16.3176 14.5507 16.3176 14.5004C16.3176 14.4501 16.2768 14.4092 16.2265 14.4092C16.1761 14.4092 16.1353 14.4501 16.1353 14.5004C16.1353 14.5507 16.1761 14.5916 16.2265 14.5916Z" fill="#FFD200"/>
<path d="M15.6145 14.8708C15.6648 14.8708 15.7057 14.83 15.7057 14.7797C15.7057 14.7293 15.6648 14.6885 15.6145 14.6885C15.5642 14.6885 15.5233 14.7293 15.5233 14.7797C15.5233 14.83 15.5642 14.8708 15.6145 14.8708Z" fill="#FFD200"/>
<path d="M15.346 13.4493C15.346 13.4493 15.3371 13.7012 15.4204 13.8441C15.5038 13.9869 15.6899 14.044 15.6899 14.044C15.6899 14.044 15.6988 13.7921 15.6155 13.6493C15.5322 13.5064 15.346 13.4493 15.346 13.4493ZM15.1718 14.0191C15.1718 14.0191 15.3906 14.032 15.517 14.1288C15.6434 14.2256 15.6922 14.4274 15.6922 14.4274C15.595 14.4325 15.499 14.4034 15.4209 14.3453C15.2946 14.2484 15.1718 14.0191 15.1718 14.0191ZM15.8585 13.5105C15.8138 13.6206 15.7919 13.7385 15.7941 13.8572C15.8025 14.0371 15.9075 14.2398 15.9075 14.2398C15.9075 14.2398 16.0024 14.0238 15.994 13.8439C15.9856 13.664 15.8839 13.5615 15.8585 13.5105ZM15.4902 15.1322C15.5632 15.2283 15.6563 15.3074 15.763 15.3639C15.9283 15.4457 16.1748 15.4487 16.1748 15.4487C16.0955 15.35 15.9975 15.2679 15.8864 15.2074C15.721 15.1256 15.4902 15.1321 15.4902 15.1321V15.1322ZM15.5433 15.4806C15.5433 15.4806 15.6223 15.6352 15.7666 15.7015C15.911 15.7678 16.2065 15.7623 16.2065 15.7623C16.1359 15.6752 16.0481 15.6035 15.9487 15.5515C15.8043 15.4852 15.5433 15.4806 15.5433 15.4806ZM16.3748 14.6557C16.3222 14.748 16.295 14.8526 16.296 14.9589C16.3046 15.1179 16.4089 15.2916 16.4089 15.2916C16.4089 15.2916 16.4823 15.0924 16.4737 14.9335C16.4664 14.8337 16.4322 14.7377 16.3747 14.6557H16.3748ZM16.6962 14.8597C16.6962 14.8597 16.5469 15.0601 16.5255 15.2662C16.504 15.4722 16.6104 15.6839 16.6104 15.6839C16.6104 15.6839 16.7908 15.5028 16.8122 15.2967C16.8337 15.0907 16.6962 14.8597 16.6962 14.8597V14.8597ZM16.2845 16.7625C16.301 16.8183 16.3283 16.8702 16.3649 16.9153C16.4158 16.9747 16.4725 17.0289 16.534 17.0773C16.6096 17.0571 16.689 17.0552 16.7654 17.0719C16.8936 17.0997 17.0642 17.2139 17.0642 17.2139C17.0642 17.2139 16.8806 16.94 16.69 16.8335C16.5652 16.7692 16.4238 16.7445 16.2846 16.7625L16.2845 16.7625ZM16.2656 17.2334C16.2656 17.2334 16.5033 17.1319 16.6989 17.1581C16.8946 17.1843 17.0711 17.3389 17.0711 17.3389C17.0711 17.3389 16.8066 17.4304 16.6109 17.4043C16.482 17.3811 16.3623 17.3218 16.2656 17.2334H16.2656ZM17.2699 16.1287C17.2699 16.1287 17.0598 16.3513 17.0421 16.5445C17.0245 16.7377 17.2125 16.9177 17.2125 16.9177C17.2075 16.8484 17.2154 16.7787 17.2357 16.7122C17.2624 16.6521 17.2964 16.5955 17.3368 16.5436C17.3535 16.4854 17.3596 16.4247 17.3548 16.3644C17.3388 16.2819 17.3101 16.2025 17.2699 16.1287ZM17.5714 16.3865C17.5714 16.3865 17.3734 16.5869 17.321 16.8015C17.2687 17.0161 17.362 17.2449 17.362 17.2449C17.362 17.2449 17.5421 17.1028 17.5944 16.8883C17.6468 16.6737 17.5714 16.3865 17.5714 16.3865ZM18.0674 17.68C18.1191 17.7896 18.1569 17.9051 18.1799 18.024C18.2027 18.1806 18.1816 18.2348 18.1816 18.2348C18.1816 18.2348 18.0888 18.326 18.0472 18.3796C17.9938 18.4485 17.9859 18.5747 17.9859 18.5747C17.9859 18.5747 17.7997 18.2978 17.8284 18.0954C17.8571 17.8929 18.0674 17.68 18.0674 17.68V17.68ZM18.4599 18.1134C18.4599 18.1134 18.2214 18.2709 18.1268 18.4326C18.0705 18.5318 18.0542 18.6487 18.0812 18.7596C18.1357 18.7518 18.1878 18.7319 18.2336 18.7014C18.2794 18.6708 18.3177 18.6304 18.3458 18.5831C18.4405 18.4215 18.4599 18.1134 18.4599 18.1134L18.4599 18.1134ZM16.8928 18.7787C16.8928 18.7787 17.2365 18.7694 17.4466 18.821C17.6567 18.8727 17.7332 18.9853 17.7332 18.9853C17.7332 18.9853 17.4969 19.0959 17.2869 19.0442C17.0768 18.9926 16.8928 18.7787 16.8928 18.7787L16.8928 18.7787ZM16.8348 18.3709C16.8348 18.3709 16.9898 18.6113 17.1903 18.6985C17.4665 18.8187 17.7864 18.7604 17.7864 18.7604C17.7864 18.7604 17.6127 18.5475 17.3735 18.4534C17.1344 18.3594 16.8348 18.3709 16.8348 18.3709Z" fill="#007A50"/>
<path d="M28.6025 13.6506L28.6473 13.7455C28.6028 13.7622 28.5654 13.7938 28.5416 13.835C28.5087 13.8996 28.5631 13.9908 28.5631 13.9908C28.5631 13.9908 28.1852 13.9578 28.1262 13.9962C28.0727 14.0308 28.1488 14.2926 28.1136 14.5137C28.0646 14.8219 27.9431 14.796 27.9381 14.8557C27.9333 14.9137 27.9847 15.0043 27.9847 15.0043C27.9847 15.0043 27.9138 15.0266 27.8987 15.0563C27.8744 15.1039 27.9156 15.1918 27.8862 15.2496L27.3185 16.3635C27.2961 16.4074 27.2359 16.4242 27.2057 16.4835C27.1898 16.5265 27.1879 16.5735 27.2003 16.6177C27.2003 16.6177 27.094 16.6241 27.0571 16.6965C27.0338 16.7539 27.0282 16.8168 27.0409 16.8774C27.0197 16.8812 26.9996 16.8897 26.9823 16.9025C26.9649 16.9152 26.9506 16.9317 26.9406 16.9508C26.9053 17.0201 26.9651 17.0564 26.9497 17.0869L26.3247 18.3136C26.2676 18.4255 26.068 18.4479 25.9522 18.6753C25.9198 18.7364 25.9071 18.8059 25.9157 18.8745C25.9244 18.9431 25.954 19.0074 26.0005 19.0585C26.0005 19.0585 25.8336 19.0736 25.7892 19.1606C25.744 19.2493 25.7798 19.3839 25.9003 19.4453C26.0207 19.5067 26.1524 19.457 26.1976 19.3683C26.2419 19.2813 26.1528 19.1373 26.1528 19.1373C26.2216 19.1442 26.291 19.13 26.3515 19.0963C26.412 19.0627 26.4607 19.0114 26.4912 18.9492C26.6071 18.7218 26.5094 18.549 26.5664 18.4371L27.1914 17.2105C27.2069 17.18 27.2707 17.2064 27.306 17.1371C27.3155 17.1179 27.3205 17.0967 27.3205 17.0753C27.3205 17.0539 27.3155 17.0327 27.306 17.0135C27.3628 16.988 27.4108 16.9463 27.4439 16.8935C27.4808 16.8211 27.4242 16.7306 27.4242 16.7306C27.4673 16.7152 27.5043 16.6863 27.5298 16.6482C27.56 16.589 27.5378 16.5311 27.5602 16.487L28.1279 15.3732C28.1574 15.3154 28.2523 15.2956 28.2765 15.2478C28.2916 15.2183 28.2676 15.1476 28.2676 15.1476C28.2676 15.1476 28.3721 15.1372 28.4162 15.0992C28.4616 15.0601 28.3694 14.9762 28.59 14.7554C28.7481 14.597 29.0033 14.5038 29 14.4402C28.9963 14.3699 28.7475 14.0839 28.7475 14.0839C28.7475 14.0839 28.8525 14.0751 28.8854 14.0105C28.9047 13.9665 28.9085 13.9173 28.8962 13.8708L29 13.8529V13.3605L28.6025 13.6506ZM25.1698 20.5091C25.1613 20.5261 25.1569 20.5447 25.1569 20.5637C25.1569 20.5826 25.1613 20.6013 25.1698 20.6183C25.1698 20.6183 25.0444 20.5791 25.0014 20.6004C24.9609 20.6204 25.0014 21.211 25.0014 21.211C25.0014 21.211 25.5015 20.8956 25.4938 20.8511C25.4858 20.8038 25.381 20.7239 25.381 20.7239C25.3995 20.7211 25.4171 20.714 25.4324 20.7031C25.4476 20.6922 25.4601 20.6779 25.4688 20.6613C25.4852 20.6289 25.4874 20.5365 25.3739 20.4786C25.34 20.4598 25.3015 20.4511 25.2628 20.4536C25.2247 20.456 25.19 20.4767 25.1698 20.5091Z" fill="black"/>
<path d="M28.6934 13.6704L28.9297 13.7904L28.9262 13.5056L28.6934 13.6704ZM28.6021 13.8423C28.5604 13.9052 28.5776 13.99 28.6406 14.0316C28.7035 14.0733 28.7883 14.0561 28.8299 13.9932C28.8716 13.9302 28.8544 13.8455 28.7914 13.8038C28.787 13.8009 28.7823 13.7982 28.7776 13.7958C28.7539 13.7835 28.7272 13.7779 28.7006 13.7797C28.6589 13.7816 28.6214 13.8054 28.6021 13.8423L28.6021 13.8423ZM28.1956 14.059C28.1708 14.0751 28.2046 14.2879 28.1974 14.469C28.1906 14.6398 28.136 14.6879 28.1061 14.7466C28.0785 14.8008 27.979 14.8648 27.979 14.8648L28.0613 14.9472C28.0613 14.9472 28.1149 14.8637 28.1992 14.6982C28.2986 14.503 28.2954 14.1494 28.3246 14.1306C28.4009 14.1037 28.4786 14.081 28.5574 14.0625C28.5574 14.0625 28.367 14.0522 28.2619 14.0536C28.2397 14.0522 28.2174 14.0541 28.1956 14.059V14.059ZM28.2173 15.0421C28.2537 14.9516 28.295 14.8631 28.3409 14.7771C28.4567 14.5497 28.7039 14.3848 28.7097 14.3437C28.7157 14.3013 28.6238 14.102 28.6238 14.102C28.6238 14.102 28.4057 14.1438 28.3748 14.1736C28.345 14.2024 28.3581 14.4978 28.2423 14.7251C28.1993 14.8136 28.1515 14.8997 28.0991 14.983L28.2173 15.0421ZM28.7742 14.3598C28.776 14.3944 28.4887 14.5998 28.3892 14.7949C28.3049 14.9604 28.2692 15.0528 28.2692 15.0528L28.3838 15.0707C28.3838 15.0707 28.3759 14.953 28.4035 14.8988C28.4334 14.8402 28.4413 14.7683 28.5754 14.6625C28.7177 14.5502 28.9101 14.4521 28.9085 14.4225C28.9071 14.3951 28.6936 14.1306 28.6936 14.1306C28.7245 14.2056 28.7514 14.2821 28.7742 14.3598ZM27.9326 15.6366C28.1052 15.2977 28.158 15.2746 28.1797 15.2319C28.2031 15.186 28.1975 15.1242 28.1206 15.085C28.0977 15.0723 28.0715 15.0667 28.0454 15.069C28.0289 15.0709 28.0132 15.077 27.9997 15.0867C27.9863 15.0964 27.9755 15.1094 27.9684 15.1244C27.9467 15.1672 27.9584 15.2243 27.7857 15.5632L27.3935 16.3314C27.3882 16.3407 27.3847 16.3509 27.3833 16.3615C27.3819 16.3721 27.3826 16.3829 27.3853 16.3933C27.3881 16.4036 27.3929 16.4133 27.3994 16.4218C27.4059 16.4303 27.414 16.4374 27.4233 16.4428C27.4253 16.4439 27.4273 16.445 27.4293 16.446C27.4475 16.4561 27.4689 16.4586 27.4889 16.453C27.5088 16.4474 27.5258 16.434 27.5359 16.4159C27.5376 16.4129 27.5391 16.4098 27.5404 16.4066L27.9326 15.6366ZM27.2397 16.5176C27.2183 16.5596 27.2549 16.6213 27.322 16.6555C27.3892 16.6898 27.4618 16.6832 27.4832 16.6412C27.5045 16.5992 27.4662 16.5375 27.399 16.5033C27.3694 16.4873 27.3359 16.4799 27.3023 16.4818C27.2766 16.482 27.2529 16.4956 27.2397 16.5176ZM27.0945 16.7361C27.0668 16.7904 27.11 16.8684 27.1912 16.9098C27.2724 16.9513 27.3605 16.9408 27.3882 16.8865C27.4158 16.8322 27.3726 16.7542 27.2915 16.7128C27.2637 16.6982 27.2332 16.6896 27.2019 16.6877C27.1598 16.6815 27.1178 16.7004 27.0945 16.7361ZM27.0032 16.9797C26.9818 17.0216 27.0185 17.0833 27.0856 17.1175C27.1527 17.1517 27.2253 17.1452 27.2468 17.1032C27.2682 17.0612 27.2315 16.9995 27.1644 16.9653C27.1341 16.9493 27.1001 16.9419 27.0659 16.9438C27.0532 16.9439 27.0408 16.9473 27.0298 16.9535C27.0189 16.9598 27.0097 16.9688 27.0032 16.9797ZM26.9441 17.2124L26.355 18.371C26.3059 18.4673 26.0993 18.5273 26.0184 18.6862C25.9369 18.846 25.9944 18.9955 26.1007 19.0497C26.207 19.1038 26.3631 19.0645 26.4445 18.9047C26.5254 18.7459 26.4528 18.5425 26.5018 18.4462L27.091 17.2876C27.1021 17.2695 27.1055 17.2476 27.1005 17.2269C27.0956 17.2061 27.0826 17.1882 27.0644 17.1771C27.062 17.1756 27.0595 17.1742 27.0569 17.1731C27.0416 17.1649 27.024 17.1618 27.0068 17.1641C26.9795 17.1697 26.9564 17.1875 26.9441 17.2125V17.2124ZM25.8426 19.2019C25.8099 19.2659 25.8473 19.3512 25.9267 19.3917C26.0061 19.4321 26.0982 19.4127 26.1309 19.3487C26.1635 19.2847 26.1244 19.1993 26.0449 19.1589C26.0174 19.1443 25.9866 19.1369 25.9554 19.1374C25.9088 19.1365 25.8655 19.1612 25.8426 19.2019ZM25.2625 20.5109C25.2522 20.51 25.2417 20.5118 25.2323 20.5162C25.2229 20.5206 25.2148 20.5274 25.2088 20.536C25.1921 20.5687 25.2266 20.6204 25.2858 20.6506C25.345 20.6807 25.407 20.6779 25.4237 20.6452C25.4404 20.6124 25.4059 20.5607 25.3467 20.5306C25.3208 20.517 25.2918 20.5103 25.2625 20.5109ZM25.0584 20.672V21.0946L25.4022 20.8475C25.3655 20.7905 25.3144 20.7442 25.254 20.7134C25.1936 20.6825 25.1261 20.6683 25.0584 20.672ZM25.276 11.2599C25.276 11.0281 25.5804 10.7996 25.5804 10.7996H18.1562C18.1562 10.7996 18.4607 11.0281 18.4607 11.2599V16.7861C18.458 16.9075 18.4994 17.0258 18.5771 17.1191C18.6485 17.2189 18.8006 17.3568 18.9585 17.4594C19.4461 17.776 20.2613 18.1099 20.8781 18.3905C21.3921 18.6243 21.6012 18.7187 21.8683 19.0495C22.1356 18.7187 22.3464 18.6244 22.8604 18.3905C23.4771 18.11 24.2924 17.776 24.78 17.4594C24.9379 17.3568 25.0901 17.219 25.1614 17.1191C25.2386 17.0256 25.2793 16.9073 25.276 16.7861V11.2599Z" fill="#FFD200"/>
<path d="M18.6362 14.3865V11.2598C18.6379 11.1578 18.6064 11.0579 18.5466 10.9751H25.1902C25.1304 11.0579 25.099 11.1578 25.1006 11.2598L25.1025 14.3865L21.8694 15.3659L18.6362 14.3865H18.6362Z" fill="#CC092F"/>
<path d="M25.1025 14.3864L23.1005 14.3488H20.6382L18.6362 14.3864V16.7861C18.6362 16.9067 18.7613 17.1892 19.4832 17.5488C20.6764 18.1434 21.5935 18.421 21.8684 18.7594C22.1433 18.421 23.0604 18.1434 24.2536 17.5488C24.9754 17.1892 25.1006 16.9067 25.1006 16.7861L25.1025 14.3864Z" fill="#0046AE"/>
<path d="M23.0521 14.2612C23.0521 14.2612 24.207 13.97 24.207 12.7355C24.207 11.7714 23.0491 11.2931 23.0162 11.063C22.9031 11.4611 23.403 12.011 23.403 12.6621C23.403 13.5046 22.7816 13.5449 22.7816 13.5449C22.6362 13.5449 22.5773 13.6488 22.5202 13.6488C22.3978 13.636 22.3403 13.4804 22.2193 13.4804C22.1057 13.4804 22.0185 13.6559 21.8684 13.6559C21.7182 13.6559 21.6328 13.4804 21.5192 13.4804C21.3983 13.4804 21.3407 13.636 21.2184 13.6488C21.1612 13.6488 21.1023 13.5449 20.9568 13.5449C20.9568 13.5449 20.3355 13.5046 20.3355 12.6621C20.3355 12.011 20.8355 11.4611 20.7223 11.063C20.6895 11.2931 19.5316 11.7714 19.5316 12.7355C19.5316 13.97 20.6866 14.2612 20.6866 14.2612L20.3571 14.8611C20.3571 14.8611 20.8344 14.885 21.0877 15.1011C21.3931 15.3616 21.3634 15.9136 21.3634 16.3152C21.3634 16.6315 21.3234 16.9654 21.1611 17.103C20.9431 17.2879 20.7957 17.3015 20.7957 17.5185C20.7957 17.6995 20.9348 17.7358 21.1611 17.8552C21.451 18.0082 21.4375 18.2133 21.8684 18.2133C22.2993 18.2133 22.2876 18.0082 22.5775 17.8552C22.8038 17.7358 22.9428 17.6995 22.9428 17.5185C22.9428 17.3015 22.7954 17.2879 22.5775 17.103C22.4152 16.9654 22.3752 16.6315 22.3752 16.3152C22.3752 15.9136 22.3455 15.3616 22.6509 15.1011C22.9043 14.885 23.3815 14.8611 23.3815 14.8611L23.0521 14.2612ZM21.8683 11.1487L21.6677 11.7182L21.1215 11.4585L21.3811 12.0047L20.8117 12.2071L21.3811 12.4094L21.1215 12.9538L21.6677 12.6941L21.8683 13.2636L22.0706 12.6941L22.6168 12.9538L22.3572 12.4094L22.9266 12.2071L22.3572 12.0047L22.6168 11.4585L22.0706 11.7182L21.8683 11.1487ZM20.638 14.349C20.638 14.349 19.9249 14.1746 19.6586 13.8225C19.3621 14.0816 19.0134 14.274 18.636 14.3866C18.636 14.3866 19.2169 14.6489 19.6586 14.9829C19.862 14.6913 20.638 14.349 20.638 14.349Z" fill="black"/>
<path d="M23.1002 14.349C23.1002 14.349 23.8763 14.6913 24.0798 14.9829C24.5213 14.6489 25.1022 14.3866 25.1022 14.3866C24.725 14.274 24.3763 14.0816 24.0798 13.8225C23.8134 14.1746 23.1002 14.349 23.1002 14.349ZM20.9301 15.108L20.6526 15.3856L20.9301 15.6631L21.2077 15.3856L20.9301 15.108ZM22.8085 15.108L22.531 15.3856L22.8085 15.6631L23.0861 15.3856L22.8085 15.108ZM20.8603 16.7286C20.8635 16.9077 20.8522 17.0868 20.8263 17.264C20.8263 17.264 21.2176 17.1489 21.2955 16.7519C21.332 16.5658 21.3727 15.8803 21.1844 15.7634L20.6741 15.6632C20.7976 16.0048 20.8606 16.3653 20.8603 16.7286H20.8603ZM22.5542 15.7635C22.366 15.8803 22.4066 16.5658 22.4432 16.7519C22.5211 17.1489 22.9123 17.2641 22.9123 17.2641C22.8864 17.0868 22.8751 16.9077 22.8783 16.7287C22.8781 16.3654 22.9411 16.0048 23.0646 15.6632L22.5542 15.7635ZM19.6571 15.7833C19.4826 15.8253 19.3751 16.0007 19.4171 16.1752C19.424 16.2041 19.4349 16.2319 19.4494 16.2578C19.4233 16.2491 19.3962 16.2436 19.3688 16.2417C19.3574 16.2411 19.3461 16.2411 19.3348 16.2417C19.2898 16.2433 19.2456 16.2542 19.205 16.2736C19.1643 16.293 19.1281 16.3205 19.0986 16.3545C19.0691 16.3885 19.0468 16.4281 19.0333 16.4711C19.0197 16.514 19.0151 16.5593 19.0198 16.604C19.0245 16.6488 19.0383 16.6922 19.0604 16.7314C19.0826 16.7706 19.1125 16.8048 19.1484 16.832C19.1843 16.8591 19.2255 16.8786 19.2692 16.8892C19.313 16.8998 19.3584 16.9013 19.4028 16.8935C19.3868 16.9151 19.3736 16.9385 19.3634 16.9634C19.3305 17.0442 19.331 17.1347 19.3649 17.2152C19.3987 17.2956 19.4631 17.3593 19.5439 17.3923C19.6247 17.4252 19.7152 17.4247 19.7957 17.3909C19.8761 17.357 19.9398 17.2926 19.9728 17.2119L19.974 17.2087C19.9838 17.184 19.9905 17.1581 19.9938 17.1317C20.0097 17.1536 20.0284 17.1735 20.0493 17.1908C20.1867 17.3092 20.3942 17.2938 20.5127 17.1563C20.6311 17.0189 20.6157 16.8114 20.4782 16.6929C20.4557 16.6735 20.4307 16.6573 20.4038 16.6446C20.4296 16.6364 20.4542 16.625 20.4772 16.6106C20.5511 16.5639 20.6035 16.4898 20.6229 16.4046C20.6424 16.3194 20.6273 16.2299 20.581 16.1558C20.5171 16.0537 20.4021 15.9952 20.282 16.0036C20.2273 16.0073 20.1744 16.0245 20.128 16.0537C20.1051 16.0678 20.0841 16.0846 20.0653 16.1039C20.0649 16.016 20.0296 15.932 19.9673 15.8701C19.9049 15.8083 19.8205 15.7738 19.7327 15.7742C19.7072 15.7743 19.6818 15.7774 19.6571 15.7833V15.7833ZM23.1487 16.7395C23.1843 17.0748 23.4568 17.3558 23.7933 17.436C23.7349 17.342 23.6982 17.2362 23.6859 17.1263C23.6437 16.7285 23.9513 16.4064 24.3717 16.4064C24.4369 16.4065 24.5018 16.4143 24.5651 16.4297C24.4084 16.1761 24.1325 16.0206 23.8345 16.0178C23.4141 16.0178 23.1064 16.3418 23.1487 16.7394V16.7395Z" fill="black"/>
<path d="M20.1673 12.6621C20.1673 13.2962 20.5054 13.6702 20.957 13.6702C21.0431 13.6702 21.1373 13.7866 21.2184 13.7866C21.3507 13.7866 21.4387 13.6398 21.5193 13.6398C21.6217 13.6398 21.6907 13.8009 21.8685 13.8009C22.0462 13.8009 22.1171 13.6398 22.2194 13.6398C22.3 13.6398 22.388 13.7866 22.5203 13.7866C22.6015 13.7866 22.6956 13.6702 22.7817 13.6702C23.2333 13.6702 23.5715 13.2962 23.5715 12.6621C23.5715 12.1449 23.1372 11.5144 23.1847 11.4121C23.1847 11.4121 24.0317 12.0197 24.0317 12.7355C24.0317 13.8885 22.8623 14.1734 22.8623 14.1734L23.1256 14.7661C23.1256 14.7661 22.7631 14.8205 22.5418 14.9989C22.2466 15.237 22.2427 15.8801 22.2427 16.3151C22.2427 16.8274 22.2618 17.0445 22.4469 17.1836C22.6421 17.3302 22.7889 17.3618 22.7889 17.5113C22.7889 17.6415 22.6369 17.6948 22.4397 17.7817C22.2154 17.8805 22.193 18.0521 21.8685 18.0521C21.5439 18.0521 21.5233 17.8805 21.299 17.7817C21.1018 17.6948 20.9498 17.6415 20.9498 17.5113C20.9498 17.3618 21.0966 17.3302 21.2918 17.1836C21.4769 17.0445 21.4959 16.8274 21.4959 16.3151C21.4959 15.8801 21.4921 15.237 21.1969 14.9989C20.9756 14.8204 20.6131 14.7661 20.6131 14.7661L20.8763 14.1734C20.8763 14.1734 19.707 13.8885 19.707 12.7355C19.707 12.0197 20.5541 11.4121 20.5541 11.4121C20.6016 11.5144 20.1673 12.1449 20.1673 12.6621ZM21.4261 17.4237C21.1964 17.4237 21.0501 17.4721 21.0501 17.5418C21.0501 17.6116 21.1964 17.6583 21.4261 17.6583C21.4873 17.6583 21.5568 17.6226 21.5568 17.5418C21.5561 17.5097 21.5426 17.4791 21.5193 17.4569C21.496 17.4346 21.4648 17.4226 21.4327 17.4233C21.4305 17.4234 21.4283 17.4235 21.4261 17.4237ZM22.3125 17.4237C22.2966 17.4224 22.2806 17.4243 22.2655 17.4293C22.2503 17.4342 22.2363 17.4421 22.2242 17.4525C22.2121 17.4628 22.2021 17.4755 22.1949 17.4897C22.1877 17.5039 22.1833 17.5194 22.1821 17.5353C22.1819 17.5375 22.1818 17.5397 22.1818 17.5418C22.1817 17.6226 22.2513 17.6583 22.3125 17.6583C22.5422 17.6583 22.6885 17.6116 22.6885 17.5418C22.6885 17.4721 22.5422 17.4237 22.3125 17.4237ZM21.8704 11.5321L21.9993 11.8957L22.3467 11.7291L22.1819 12.0783L22.5437 12.2073L22.1819 12.3362L22.3467 12.6836L21.9993 12.5188L21.8686 12.8806L21.7396 12.5188L21.3923 12.6836L21.557 12.3362L21.1953 12.2073L21.557 12.0783L21.3923 11.7291L21.7396 11.8957L21.8704 11.5321ZM18.9761 14.3969C18.9761 14.3969 19.4171 14.6165 19.6387 14.8123L19.6512 14.8231L19.6583 14.8141C19.8677 14.5738 20.2564 14.37 20.2564 14.37C20.2564 14.37 19.8829 14.267 19.6476 13.9976C19.3988 14.2511 18.9761 14.3969 18.9761 14.3969ZM24.762 14.3974C24.762 14.3974 24.321 14.6171 24.0994 14.8129L24.0869 14.8236L24.0798 14.8147C23.8704 14.5743 23.4817 14.3706 23.4817 14.3706C23.4817 14.3706 23.8551 14.2676 24.0905 13.9981C24.3393 14.2517 24.762 14.3974 24.762 14.3974ZM20.9301 15.2406L21.0752 15.3856L20.9301 15.5325L20.7833 15.3856L20.9301 15.2406ZM22.8085 15.2406L22.9554 15.3856L22.8085 15.5325L22.6635 15.3856L22.8085 15.2406ZM21.1272 15.8744C21.2285 16.0142 21.2113 16.2403 21.2113 16.5549C21.2143 16.6426 21.1938 16.7295 21.1519 16.8067C21.1101 16.8838 21.0483 16.9483 20.9731 16.9936C20.9731 16.2312 20.8945 16.048 20.8532 15.8171L21.1272 15.8744ZM22.8855 15.8171C22.844 16.048 22.7655 16.2312 22.7655 16.9935C22.6903 16.9483 22.6286 16.8838 22.5867 16.8066C22.5448 16.7295 22.5243 16.6426 22.5273 16.5549C22.5273 16.2403 22.5101 16.0143 22.6115 15.8744L22.8855 15.8171ZM20.0008 16.1056C20.0074 16.1331 20.0092 16.1616 20.0061 16.1898C20.0038 16.2119 19.9984 16.2336 19.9901 16.2542C19.8466 16.2033 19.6866 16.2444 19.5853 16.3581C19.5674 16.3424 19.5518 16.3243 19.5388 16.3044C19.5234 16.2813 19.5119 16.2559 19.5048 16.2291C19.4885 16.1634 19.499 16.0938 19.5339 16.0357C19.5689 15.9777 19.6255 15.9359 19.6913 15.9195C19.757 15.9032 19.8265 15.9137 19.8845 15.9485C19.9425 15.9834 19.9843 16.0399 20.0008 16.1056ZM20.3826 16.5833C20.3584 16.5981 20.3319 16.6086 20.3041 16.6144C20.2824 16.619 20.2601 16.6206 20.2379 16.619C20.2419 16.4669 20.1534 16.3274 20.014 16.2662C20.0234 16.2443 20.0357 16.2238 20.0507 16.2054C20.0679 16.1836 20.0885 16.1648 20.1117 16.1497C20.1692 16.1139 20.2386 16.1023 20.3047 16.1175C20.3707 16.1328 20.428 16.1736 20.4639 16.2311C20.4998 16.2886 20.5114 16.358 20.4961 16.424C20.4809 16.4901 20.44 16.5473 20.3826 16.5833V16.5833ZM20.0462 17.094C20.0247 17.0756 20.0065 17.0536 19.9924 17.0291C19.9813 17.0098 19.9729 16.989 19.9675 16.9675C20.1135 16.9243 20.2187 16.797 20.2339 16.6455C20.2576 16.6477 20.2809 16.6531 20.3031 16.6617C20.3291 16.6712 20.3533 16.685 20.3748 16.7025C20.4266 16.7462 20.4589 16.8087 20.4646 16.8762C20.4703 16.9438 20.449 17.0108 20.4053 17.0626C20.3617 17.1142 20.2995 17.1465 20.2322 17.1524C20.1649 17.1583 20.0981 17.1373 20.0462 17.094ZM19.4565 16.9319C19.4674 16.9058 19.4827 16.8817 19.5017 16.8607C19.5166 16.8442 19.5337 16.8298 19.5526 16.818C19.6388 16.9435 19.7923 17.0043 19.941 16.9718C19.9463 16.995 19.9484 17.0189 19.9471 17.0426C19.946 17.0703 19.9404 17.0976 19.9304 17.1235C19.9049 17.1863 19.8556 17.2364 19.7932 17.2628C19.7308 17.2893 19.6604 17.2898 19.5976 17.2644C19.5348 17.239 19.4847 17.1897 19.4583 17.1273C19.4318 17.065 19.4312 16.9947 19.4565 16.9319V16.9319ZM19.4285 16.321C19.4567 16.3233 19.4843 16.3304 19.5102 16.342C19.5305 16.351 19.5494 16.3629 19.5665 16.3772C19.4738 16.4979 19.4634 16.6628 19.5402 16.7942C19.5198 16.8064 19.4978 16.8157 19.4747 16.8218C19.4481 16.8294 19.4204 16.8325 19.3927 16.831C19.3251 16.8261 19.2622 16.7947 19.2178 16.7435C19.1734 16.6923 19.1511 16.6256 19.1559 16.558C19.1607 16.4904 19.1921 16.4276 19.2432 16.3832C19.2943 16.3388 19.3609 16.3164 19.4285 16.3211V16.321Z" fill="#FFD200"/>
<path d="M19.8629 16.8543C19.9994 16.8543 20.11 16.7436 20.11 16.6072C20.11 16.4707 19.9994 16.36 19.8629 16.36C19.7264 16.36 19.6158 16.4707 19.6158 16.6072C19.6158 16.7436 19.7264 16.8543 19.8629 16.8543Z" fill="#FFD200"/>
<path d="M24.2016 16.274C23.7913 16.3533 23.496 16.7157 23.539 17.1389C23.4082 17.0306 23.3126 16.8847 23.2954 16.7234C23.2622 16.4094 23.4903 16.1665 23.8344 16.1665C23.9644 16.1677 24.0915 16.2049 24.2016 16.274Z" fill="#FFD200"/>
<path d="M25.4353 10.8548H18.3014C18.396 10.9501 18.5161 11.102 18.5161 11.2595V16.0587H18.5159V16.7857H18.5161C18.515 16.8427 18.5242 16.8993 18.5431 16.953C18.5615 17.0007 18.5871 17.0452 18.619 17.085L18.6203 17.0867C18.6898 17.1753 18.7706 17.2545 18.8606 17.3223C18.881 17.3383 18.9017 17.3538 18.9227 17.3689C18.9436 17.3839 18.9648 17.3984 18.9863 17.4124L18.9868 17.4127C19.3664 17.6592 19.9513 17.9183 20.4827 18.1537L20.8988 18.3395L20.8991 18.3397V18.3397L20.9109 18.345H20.9111C21.3974 18.5663 21.6143 18.665 21.8683 18.9625C22.123 18.6639 22.3392 18.5655 22.8301 18.3423L22.83 18.3422L22.8356 18.3397L23.2518 18.1539C23.7832 17.9185 24.3681 17.6593 24.7479 17.4128L24.7482 17.4126C24.8547 17.3433 24.9533 17.2626 25.0423 17.1718C25.0562 17.1574 25.0697 17.1425 25.0827 17.1272C25.0943 17.1136 25.105 17.1 25.1145 17.0867L25.1153 17.0859L25.1155 17.0856L25.1159 17.085C25.1481 17.0449 25.174 17.0003 25.1929 16.9526C25.2123 16.8991 25.2217 16.8426 25.2206 16.7857H25.2208V16.0587H25.2206V11.2595C25.2206 11.102 25.3408 10.9501 25.4353 10.8548ZM25.3317 11.2595V16.0587H25.3315V16.7857H25.3317C25.3327 16.8559 25.3208 16.9257 25.2966 16.9916C25.274 17.0491 25.243 17.103 25.2045 17.1513L25.2047 17.1514C25.1929 17.1677 25.1804 17.1835 25.1673 17.1988C25.1528 17.2159 25.1377 17.2325 25.1221 17.2487C25.0273 17.3455 24.9221 17.4316 24.8085 17.5055L24.8082 17.5057C24.4202 17.7576 23.8314 18.0185 23.2965 18.2554L22.8816 18.4408L22.876 18.4433H22.8759C22.3744 18.6714 22.1694 18.7647 21.9116 19.0839L21.8684 19.1374L21.8252 19.084C21.5685 18.7662 21.3622 18.6724 20.8651 18.4462L20.8651 18.4461L20.8535 18.4408L20.8531 18.4406L20.8529 18.4406L20.8528 18.4407L20.438 18.2552C19.9031 18.0183 19.3143 17.7575 18.9264 17.5056L18.9251 17.5047L18.9247 17.5044C18.9028 17.4902 18.8804 17.475 18.858 17.4588C18.8356 17.4427 18.8137 17.4263 18.7924 17.4096C18.694 17.3353 18.6058 17.2483 18.53 17.151H18.53C18.4916 17.1028 18.4609 17.0489 18.4389 16.9913C18.4154 16.9254 18.4039 16.8558 18.405 16.7858H18.4052V16.0587H18.405V11.2595C18.405 11.0552 18.1237 10.8441 18.1229 10.8435V10.7437H25.6137V10.8435C25.6129 10.8441 25.3316 11.0552 25.3316 11.2595H25.3317ZM25.1637 10.9194L25.1639 10.9192H25.1902L25.3052 10.9192L25.2334 11.0093C25.1812 11.0821 25.1541 11.1699 25.1562 11.2595V16.0587H25.156V16.7858H25.1562C25.1562 16.8841 25.0874 17.074 24.7633 17.3106L24.7634 17.3107C24.7028 17.355 24.6328 17.4013 24.5523 17.4493C24.4713 17.4977 24.3806 17.5473 24.2795 17.5977L24.2794 17.5976L24.2784 17.5981V17.5983C23.8454 17.8141 23.4455 17.9894 23.1003 18.1408C22.5074 18.4008 22.0779 18.5892 21.9115 18.7939L21.9106 18.7949L21.9104 18.7952L21.8672 18.8455L21.8254 18.794C21.659 18.5892 21.2294 18.4008 20.6362 18.1407C20.2913 17.9894 19.8917 17.8142 19.4591 17.5987V17.5984L19.4584 17.5981L19.4583 17.5982C19.1514 17.4453 18.9495 17.3051 18.8183 17.1846C18.7941 17.1624 18.7708 17.1393 18.7484 17.1154C18.6152 16.9722 18.5807 16.8566 18.5807 16.7859H18.5805V16.7857H18.5807V16.0586H18.5805V11.2595C18.5826 11.1699 18.5555 11.0821 18.5033 11.0093L18.4315 10.9194H18.67V10.9192H25.0666V10.9194H25.1636H25.1637ZM25.0667 11.0301V11.0303H18.6701V11.0301H18.6424C18.6749 11.1022 18.6917 11.1804 18.6916 11.2595V16.0587H18.6914V16.7857H18.6916V16.7859H18.6914C18.6914 16.8358 18.7198 16.9219 18.8296 17.0399C18.8485 17.0602 18.8698 17.0813 18.8934 17.1031C19.0175 17.2171 19.2109 17.3509 19.5079 17.4989V17.4991L19.5086 17.4995L19.5087 17.4993C19.9438 17.7161 20.3392 17.8895 20.6806 18.0391C21.245 18.2866 21.6647 18.4707 21.8684 18.6765C22.0722 18.4707 22.4919 18.2867 23.0561 18.0393C23.3978 17.8894 23.7934 17.7159 24.2289 17.4989L24.229 17.499L24.2301 17.4985V17.4983C24.3308 17.4481 24.4189 17.4 24.4955 17.3543C24.5727 17.3082 24.6399 17.2637 24.6979 17.2213H24.6981C24.9844 17.0123 25.0452 16.8609 25.0452 16.7857H25.0454V16.0586H25.0452V11.2595C25.0451 11.1804 25.0618 11.1022 25.0943 11.0301H25.0667Z" fill="black"/>
</g>
<defs>
<clipPath id="clip0_1_3579">
<rect width="44" height="30" fill="white"/>
</clipPath>
</defs>
</svg>
