<svg width="44" height="30" viewBox="0 0 44 30" fill="none" xmlns="http://www.w3.org/2000/svg">
<g clip-path="url(#clip0_1_248)">
<path d="M18 0H44V30H18V0Z" fill="#FF0000"/>
<path d="M0 0H18V30H0V0Z" fill="#006600"/>
<path fill-rule="evenodd" clip-rule="evenodd" d="M22.9062 18.8375C20.8875 18.775 11.6562 13.0125 11.5938 12.0875L12.1 11.2437C13.0188 12.575 22.4563 18.1812 23.3875 17.9812L22.9062 18.8375Z" fill="#FFFF00" stroke="black" stroke-width="0.05" stroke-linecap="round" stroke-linejoin="round"/>
<path fill-rule="evenodd" clip-rule="evenodd" d="M11.9938 11.125C11.8125 11.6125 14.4063 13.2125 17.5188 15.1125C20.6375 17.0063 23.325 18.175 23.5188 18.0125L23.6125 17.8375C23.575 17.9 23.4875 17.9187 23.3438 17.875C22.5 17.6312 20.3063 16.625 17.5875 14.975C14.8625 13.325 12.5 11.8062 12.1313 11.1625C12.1025 11.1021 12.0896 11.0355 12.0938 10.9688H12.0813L12.0063 11.1062L11.9938 11.125ZM22.95 18.8625C22.9188 18.925 22.85 18.925 22.7313 18.9125C21.9813 18.8312 19.6938 17.7187 16.9875 16.1C13.8375 14.2125 11.2375 12.5 11.525 12.05L11.6 11.9125L11.6125 11.9187C11.3625 12.6812 16.7438 15.7563 17.0625 15.9563C20.175 17.8813 22.8 19.0125 23.0313 18.7187L22.95 18.8625Z" fill="#FFFF00" stroke="black" stroke-width="0.05" stroke-linecap="round" stroke-linejoin="round"/>
<path fill-rule="evenodd" clip-rule="evenodd" d="M17.7 12.65C19.7125 12.6312 22.2 12.375 23.6375 11.8L23.325 11.3C22.4812 11.7687 19.9812 12.0812 17.6812 12.125C14.9687 12.1 13.05 11.8437 12.0875 11.2L11.8 11.7375C13.5625 12.4875 15.375 12.6437 17.7 12.65Z" fill="#FFFF00" stroke="black" stroke-width="0.05" stroke-linecap="round" stroke-linejoin="round"/>
<path fill-rule="evenodd" clip-rule="evenodd" d="M23.7188 11.8125C23.6688 11.8938 22.7313 12.2125 21.3563 12.45C20.1442 12.6337 18.9197 12.7235 17.6938 12.7188C16.5192 12.7232 15.3457 12.648 14.1813 12.4938C12.7375 12.2688 11.9938 11.9563 11.7125 11.8438L11.7813 11.7063C12.575 12.0188 13.325 12.2063 14.2 12.3438C15.3559 12.4998 16.5211 12.5771 17.6875 12.575C18.9071 12.5763 20.1251 12.4864 21.3313 12.3063C22.7375 12.075 23.5063 11.7813 23.6188 11.65L23.7188 11.8188V11.8125ZM23.4438 11.3063C23.2938 11.4313 22.5313 11.7 21.1938 11.9125C20.0388 12.0796 18.8733 12.1631 17.7063 12.1625C16.3313 12.1625 15.2 12.0625 14.3438 11.9375C12.9813 11.7625 12.2563 11.4375 11.9938 11.35L12.075 11.2125C12.2813 11.3188 12.975 11.6 14.3563 11.7938C15.4666 11.9425 16.586 12.0135 17.7063 12.0063C18.865 12.0066 20.0221 11.9231 21.1688 11.7563C22.5125 11.5688 23.2375 11.2313 23.35 11.1438L23.4438 11.3063ZM11.0813 15.075C12.3188 15.7438 15.075 16.075 17.6813 16.1C20.0563 16.1063 23.1438 15.7375 24.3 15.125L24.2688 14.4563C23.9063 15.0188 20.5938 15.5625 17.6563 15.5438C14.7188 15.5188 11.9875 15.0688 11.075 14.4813V15.075" fill="#FFFF00"/>
<path d="M11.0813 15.075C12.3188 15.7438 15.075 16.075 17.6813 16.1C20.0563 16.1063 23.1438 15.7375 24.3 15.125L24.2688 14.4563C23.9063 15.0188 20.5938 15.5625 17.6563 15.5438C14.7188 15.5188 11.9875 15.0688 11.075 14.4813V15.075M23.7188 11.8125C23.6688 11.8938 22.7313 12.2125 21.3563 12.45C20.1442 12.6337 18.9197 12.7235 17.6938 12.7188C16.5192 12.7232 15.3457 12.648 14.1813 12.4938C12.7375 12.2688 11.9938 11.9563 11.7125 11.8438L11.7813 11.7063C12.575 12.0188 13.325 12.2063 14.2 12.3438C15.3559 12.4998 16.5211 12.5771 17.6875 12.575C18.9071 12.5763 20.1251 12.4864 21.3313 12.3063C22.7375 12.075 23.5063 11.7813 23.6188 11.65L23.7188 11.8188V11.8125ZM23.4438 11.3063C23.2938 11.4313 22.5313 11.7 21.1938 11.9125C20.0388 12.0796 18.8733 12.1631 17.7063 12.1625C16.3313 12.1625 15.2 12.0625 14.3438 11.9375C12.9813 11.7625 12.2563 11.4375 11.9938 11.35L12.075 11.2125C12.2813 11.3188 12.975 11.6 14.3563 11.7938C15.4666 11.9425 16.586 12.0135 17.7063 12.0063C18.865 12.0066 20.0221 11.9231 21.1688 11.7563C22.5125 11.5688 23.2375 11.2313 23.35 11.1438L23.4438 11.3063Z" stroke="black" stroke-width="0.05" stroke-linecap="round" stroke-linejoin="round"/>
<path fill-rule="evenodd" clip-rule="evenodd" d="M24.3625 14.9813V15.1375C24.1875 15.35 23.1 15.6625 21.7375 15.8875C20.3839 16.0821 19.0175 16.174 17.65 16.1625C16.3533 16.1736 15.0577 16.0837 13.775 15.8938C12.8178 15.7831 11.8826 15.5304 11 15.1438V14.9625C11.6062 15.3625 13.2437 15.6625 13.7937 15.75C14.7812 15.9 16.05 16.0125 17.65 16.0125C19.3312 16.0125 20.675 15.8938 21.7125 15.7375C22.6937 15.5938 24.0875 15.225 24.3625 14.9813ZM24.3625 14.4188V14.575C24.1875 14.7813 23.1 15.0938 21.7375 15.3188C20.384 15.5154 19.0176 15.6094 17.65 15.6C16.3534 15.6076 15.0581 15.5178 13.775 15.3313C12.8178 15.2206 11.8826 14.9679 11 14.5813V14.3938C11.6062 14.8 13.25 15.0938 13.7937 15.1813C15.0705 15.3683 16.3596 15.4581 17.65 15.45C19.3312 15.45 20.6812 15.325 21.7125 15.1688C22.6937 15.0313 24.0875 14.6625 24.3625 14.4188ZM17.675 18.7188C14.825 18.7063 12.3813 17.9438 11.8625 17.8188L12.2375 18.4063C13.9906 19.0271 15.8405 19.3298 17.7 19.3C19.8688 19.2375 21.7625 19.0688 23.0938 18.4188L23.4813 17.8063C22.575 18.2375 19.4812 18.7188 17.6687 18.7188" fill="#FFFF00"/>
<path d="M17.675 18.7188C14.825 18.7063 12.3813 17.9438 11.8625 17.8188L12.2375 18.4063C13.9906 19.0271 15.8405 19.3298 17.7 19.3C19.8688 19.2375 21.7625 19.0688 23.0938 18.4188L23.4813 17.8063C22.575 18.2375 19.4812 18.7188 17.6687 18.7188M24.3625 14.9813V15.1375C24.1875 15.35 23.1 15.6625 21.7375 15.8875C20.3839 16.0821 19.0175 16.174 17.65 16.1625C16.3533 16.1736 15.0577 16.0837 13.775 15.8938C12.8178 15.7831 11.8826 15.5304 11 15.1438V14.9625C11.6062 15.3625 13.2437 15.6625 13.7937 15.75C14.7812 15.9 16.05 16.0125 17.65 16.0125C19.3312 16.0125 20.675 15.8938 21.7125 15.7375C22.6937 15.5938 24.0875 15.225 24.3625 14.9813ZM24.3625 14.4188V14.575C24.1875 14.7813 23.1 15.0938 21.7375 15.3188C20.384 15.5154 19.0176 15.6094 17.65 15.6C16.3534 15.6076 15.0581 15.5178 13.775 15.3313C12.8178 15.2206 11.8826 14.9679 11 14.5813V14.3938C11.6062 14.8 13.25 15.0938 13.7937 15.1813C15.0705 15.3683 16.3596 15.4581 17.65 15.45C19.3312 15.45 20.6812 15.325 21.7125 15.1688C22.6937 15.0313 24.0875 14.6625 24.3625 14.4188Z" stroke="black" stroke-width="0.05" stroke-linecap="round" stroke-linejoin="round"/>
<path fill-rule="evenodd" clip-rule="evenodd" d="M23.2437 18.2813C23.1868 18.3656 23.1285 18.4489 23.0688 18.5313C22.4438 18.7563 21.4438 18.9938 21.0312 19.0563C19.9244 19.2625 18.8009 19.3671 17.675 19.3688C15.15 19.3313 13.0813 18.8375 12.1125 18.4125L12.0312 18.2813L12.0437 18.2563L12.175 18.3125C13.9538 18.9011 15.8139 19.2069 17.6875 19.2188C18.8625 19.2188 20.0312 19.0875 20.975 18.9188C22.425 18.625 23.0125 18.4063 23.1938 18.3063L23.2375 18.2813H23.2437ZM23.575 17.7313C23.5338 17.8045 23.4922 17.8774 23.45 17.95C23.1125 18.075 22.2 18.3375 20.8687 18.525C19.9937 18.6438 19.45 18.7625 17.7062 18.7938C15.7129 18.7737 13.7318 18.4793 11.8188 17.9188L11.75 17.7625C13.6937 18.2997 15.6965 18.5936 17.7125 18.6375C19.3062 18.6063 19.9875 18.4875 20.8563 18.3688C22.4063 18.1313 23.1875 17.8688 23.4188 17.8C23.4189 17.7958 23.4189 17.7917 23.4188 17.7875L23.5812 17.725L23.575 17.7313Z" fill="#FFFF00" stroke="black" stroke-width="0.05" stroke-linecap="round" stroke-linejoin="round"/>
<path fill-rule="evenodd" clip-rule="evenodd" d="M23.6125 14.55C23.6188 16.425 22.6563 18.1125 21.8875 18.85C20.7521 19.9574 19.2358 20.588 17.65 20.6125C15.7563 20.6437 13.975 19.4125 13.4938 18.8687C12.4172 17.727 11.8044 16.2252 11.775 14.6562C11.8875 12.6062 12.6938 11.1812 13.8563 10.2C14.9855 9.27035 16.4061 8.76806 17.8688 8.78125C18.7226 8.82264 19.5584 9.04194 20.3225 9.42509C21.0867 9.80824 21.7623 10.3468 22.3063 11.0062C23.0875 11.9562 23.4313 12.9875 23.6125 14.55ZM17.6625 8.1375C19.411 8.13745 21.0885 8.82857 22.3295 10.0602C23.5705 11.2918 24.2743 12.9641 24.2875 14.7125C24.2875 15.58 24.1166 16.4391 23.7847 17.2406C23.4527 18.0421 22.966 18.7704 22.3526 19.3838C21.7391 19.9973 21.0109 20.4839 20.2094 20.8159C19.4079 21.1479 18.5488 21.3187 17.6813 21.3187C16.8137 21.3187 15.9547 21.1479 15.1532 20.8159C14.3517 20.4839 13.6234 19.9973 13.0099 19.3838C12.3965 18.7704 11.9099 18.0421 11.5779 17.2406C11.2459 16.4391 11.075 15.58 11.075 14.7125C11.0688 11.0875 14.0313 8.1375 17.6625 8.1375Z" fill="#FFFF00" stroke="black" stroke-width="0.05" stroke-linecap="round" stroke-linejoin="round"/>
<path fill-rule="evenodd" clip-rule="evenodd" d="M17.6813 8.10625C21.3188 8.10625 24.2813 11.0687 24.2813 14.7062C24.2813 18.3437 21.3188 21.3062 17.6875 21.3062C14.0563 21.3062 11.0875 18.3437 11.0875 14.7062C11.0875 11.0687 14.05 8.10625 17.6875 8.10625H17.6813ZM11.225 14.7C11.225 18.25 14.1438 21.1562 17.6813 21.1562C21.2188 21.1562 24.1375 18.25 24.1375 14.7C24.1375 11.15 21.2188 8.24375 17.6813 8.24375C14.1438 8.24375 11.225 11.15 11.225 14.7Z" fill="#FFFF00" stroke="black" stroke-width="0.05" stroke-linecap="round" stroke-linejoin="round"/>
<path fill-rule="evenodd" clip-rule="evenodd" d="M17.6875 8.65625C19.2889 8.6612 20.8232 9.29953 21.9556 10.4319C23.088 11.5642 23.7263 13.0986 23.7312 14.7C23.7263 16.302 23.0882 17.837 21.956 18.9703C20.8238 20.1037 19.2894 20.7434 17.6875 20.75C14.375 20.75 11.6437 18.025 11.6437 14.7C11.6503 13.0991 12.2892 11.5657 13.4212 10.4337C14.5532 9.30169 16.0866 8.66283 17.6875 8.65625ZM11.7875 14.7C11.7875 17.95 14.45 20.6 17.6875 20.6C20.925 20.6 23.5875 17.9438 23.5875 14.7C23.5875 11.45 20.925 8.8 17.6875 8.8C16.1247 8.80658 14.6279 9.4303 13.5228 10.5353C12.4178 11.6404 11.7941 13.1372 11.7875 14.7Z" fill="#FFFF00" stroke="black" stroke-width="0.05" stroke-linecap="round" stroke-linejoin="round"/>
<path fill-rule="evenodd" clip-rule="evenodd" d="M17.9563 8.075H17.3875V21.3437H17.95L17.9563 8.075Z" fill="#FFFF00" stroke="black" stroke-width="0.05" stroke-linecap="round" stroke-linejoin="round"/>
<path fill-rule="evenodd" clip-rule="evenodd" d="M17.8937 8H18.0375V21.4187H17.9V8H17.8937ZM17.3312 8H17.4812V21.4187H17.3375V8H17.3312Z" fill="#FFFF00" stroke="black" stroke-width="0.05" stroke-linecap="round" stroke-linejoin="round"/>
<path fill-rule="evenodd" clip-rule="evenodd" d="M24.2875 14.9625V14.475L23.8875 14.1L21.6188 13.5L18.3563 13.1687L14.4188 13.3687L11.6188 14.0312L11.0563 14.45V14.9437L12.4875 14.3L15.8875 13.7687H19.1563L21.5563 14.0312L23.2188 14.4312L24.2875 14.9625Z" fill="#FFFF00" stroke="black" stroke-width="0.05" stroke-linecap="round" stroke-linejoin="round"/>
<path fill-rule="evenodd" clip-rule="evenodd" d="M17.6875 13.6875C19.2437 13.6875 20.75 13.8312 21.9562 14.0625C23.1937 14.3125 24.0625 14.625 24.3625 14.9687V15.1437C24 14.7062 22.8312 14.3937 21.925 14.2062C20.7375 13.9812 19.2375 13.8312 17.6812 13.8312C16.05 13.8312 14.525 13.9937 13.35 14.2187C12.4125 14.4062 11.1562 14.7812 11 15.1437V14.9625C11.0812 14.7125 12.0188 14.3375 13.3313 14.0687C14.5125 13.8375 16.0375 13.6875 17.6812 13.6875H17.6875ZM17.6875 13.1187C19.1188 13.1159 20.5474 13.2414 21.9562 13.4937C23.1937 13.7437 24.0625 14.0562 24.3625 14.4062V14.575C24 14.1437 22.8312 13.825 21.925 13.6437C20.7375 13.4125 19.2375 13.2687 17.6812 13.2687C16.2307 13.2642 14.7829 13.3939 13.3562 13.6562C12.45 13.825 11.1437 14.2125 11 14.575V14.4C11.0875 14.15 12.0375 13.7562 13.3313 13.5062C14.5188 13.275 16.0375 13.1187 17.6875 13.1187ZM17.65 10.2312C20.1062 10.2187 22.25 10.575 23.2313 11.075L23.5875 11.7C22.7375 11.2375 20.425 10.7625 17.6562 10.825C15.4 10.8437 12.9875 11.075 11.7812 11.725L12.2063 11.0125C13.2 10.4937 15.5375 10.2312 17.65 10.2312Z" fill="#FFFF00" stroke="black" stroke-width="0.05" stroke-linecap="round" stroke-linejoin="round"/>
<path fill-rule="evenodd" clip-rule="evenodd" d="M17.6875 10.7437C18.9699 10.7221 20.2519 10.812 21.5187 11.0125C22.5187 11.2 23.475 11.475 23.6125 11.625L23.7187 11.8125C23.3875 11.6 22.5562 11.3562 21.4937 11.1562C20.4312 10.9562 19.075 10.8875 17.6812 10.8937C16.1 10.8875 14.8687 10.9687 13.8187 11.1562C13.0949 11.2577 12.3922 11.4751 11.7375 11.8L11.8437 11.6062C12.2187 11.4187 12.8 11.1875 13.7875 11.0062C14.8812 10.8062 16.125 10.75 17.6875 10.7437ZM17.6875 10.1812C19.025 10.1687 20.35 10.2437 21.3812 10.4312C22.0494 10.5304 22.696 10.7417 23.2937 11.0562L23.45 11.3062C23.1875 11.0125 22.2 10.7312 21.3187 10.5812C20.2937 10.4 19.025 10.3312 17.6875 10.3187C16.4424 10.3077 15.1986 10.3996 13.9687 10.5937C13.3257 10.6834 12.7011 10.8754 12.1187 11.1625L12.2562 10.9562C12.6187 10.7687 13.2062 10.5937 13.9437 10.45C15.1817 10.2533 16.4341 10.1613 17.6875 10.175V10.1812ZM20.9625 17.45C19.8792 17.2624 18.7805 17.1787 17.6812 17.2C13.5875 17.25 12.2687 18.0437 12.1062 18.2812L11.7937 17.7812C12.8437 17.0312 15.0687 16.6062 17.7062 16.6437C19.075 16.6687 20.2562 16.7625 21.2437 16.9562L20.9625 17.4562" fill="#FFFF00"/>
<path d="M20.9625 17.45C19.8792 17.2624 18.7805 17.1787 17.6812 17.2C13.5875 17.25 12.2687 18.0437 12.1062 18.2812L11.7937 17.7812C12.8437 17.0312 15.0687 16.6062 17.7062 16.6437C19.075 16.6687 20.2562 16.7625 21.2437 16.9562L20.9625 17.4562M17.6875 10.7437C18.9699 10.7221 20.2519 10.812 21.5187 11.0125C22.5187 11.2 23.475 11.475 23.6125 11.625L23.7187 11.8125C23.3875 11.6 22.5562 11.3562 21.4937 11.1562C20.4312 10.9562 19.075 10.8875 17.6812 10.8937C16.1 10.8875 14.8687 10.9687 13.8187 11.1562C13.0949 11.2577 12.3922 11.4751 11.7375 11.8L11.8437 11.6062C12.2187 11.4187 12.8 11.1875 13.7875 11.0062C14.8812 10.8062 16.125 10.75 17.6875 10.7437ZM17.6875 10.1812C19.025 10.1687 20.35 10.2437 21.3812 10.4312C22.0494 10.5304 22.696 10.7417 23.2937 11.0562L23.45 11.3062C23.1875 11.0125 22.2 10.7312 21.3187 10.5812C20.2937 10.4 19.025 10.3312 17.6875 10.3187C16.4424 10.3077 15.1986 10.3996 13.9687 10.5937C13.3257 10.6834 12.7011 10.8754 12.1187 11.1625L12.2562 10.9562C12.6187 10.7687 13.2062 10.5937 13.9437 10.45C15.1817 10.2533 16.4341 10.1613 17.6875 10.175V10.1812Z" stroke="black" stroke-width="0.05" stroke-linecap="round" stroke-linejoin="round"/>
<path fill-rule="evenodd" clip-rule="evenodd" d="M17.6625 17.1313C18.8 17.15 19.9125 17.1938 20.9938 17.3938L20.9188 17.5313C19.9188 17.3438 18.8438 17.2813 17.6688 17.2813C16.15 17.2688 14.625 17.4125 13.2938 17.7938C12.875 17.9125 12.1813 18.1813 12.1063 18.4063L12.0313 18.2813C12.0563 18.1438 12.4688 17.8688 13.2563 17.6563C14.7813 17.2188 16.2063 17.1375 17.6625 17.1313ZM17.7125 16.5563C18.9131 16.555 20.1115 16.6596 21.2938 16.8688L21.2125 17.0125C20.0581 16.8007 18.8862 16.6982 17.7125 16.7063C16.2 16.7063 14.5938 16.8188 13.1313 17.2438C12.6625 17.3813 11.8438 17.6813 11.8188 17.9125L11.7438 17.775C11.7563 17.5625 12.4625 17.2813 13.1 17.1C14.5688 16.6688 16.1813 16.5625 17.7125 16.5563Z" fill="#FFFF00" stroke="black" stroke-width="0.05" stroke-linecap="round" stroke-linejoin="round"/>
<path fill-rule="evenodd" clip-rule="evenodd" d="M23.525 17.8562L23.0375 18.625L21.6187 17.3688L17.9562 14.9L13.8187 12.6312L11.675 11.9L12.1312 11.05L12.2875 10.9688L13.6187 11.3L18.0187 13.5687L20.5562 15.1687L22.6875 16.7L23.5562 17.7L23.525 17.8562Z" fill="#FFFF00" stroke="black" stroke-width="0.05" stroke-linecap="round" stroke-linejoin="round"/>
<path fill-rule="evenodd" clip-rule="evenodd" d="M11.6 11.9187C11.975 11.6687 14.7375 12.8937 17.6375 14.6437C20.5187 16.3937 23.2812 18.3687 23.0312 18.7375L22.95 18.8688L22.9125 18.9C22.9187 18.8938 22.9625 18.8375 22.9125 18.7062C22.7875 18.3 20.825 16.7375 17.5812 14.775C14.4125 12.8937 11.775 11.7562 11.5187 12.0812L11.6 11.9187ZM23.625 17.85C23.8625 17.375 21.3 15.4437 18.1187 13.5625C14.8687 11.7187 12.5187 10.6312 12.0875 10.9562L12 11.1375C12 11.1437 12 11.125 12.025 11.1062C12.1 11.0437 12.2312 11.0437 12.2875 11.0437C13.025 11.0562 15.1312 12.025 18.0875 13.7187C19.3875 14.4687 23.5625 17.1562 23.5437 17.9062C23.5437 17.9687 23.55 17.9812 23.525 18.0187L23.6312 17.8562L23.625 17.85Z" fill="#FFFF00" stroke="black" stroke-width="0.05" stroke-linecap="round" stroke-linejoin="round"/>
<path d="M13.7275 15.4355C13.7285 15.953 13.8322 16.4651 14.0324 16.9423C14.2327 17.4195 14.5256 17.8522 14.8942 18.2155C15.2583 18.5852 15.692 18.8792 16.1703 19.0806C16.6486 19.282 17.162 19.3867 17.6809 19.3888C18.7311 19.3887 19.7383 18.9715 20.4809 18.2288C20.8482 17.8636 21.1398 17.4294 21.3388 16.9512C21.5379 16.4729 21.6406 15.9601 21.6409 15.4421V10.1621L13.7275 10.1488V15.4355Z" fill="white" stroke="black" stroke-width="0.05"/>
<path d="M13.8742 15.4421C13.8756 15.9385 13.9753 16.4298 14.1675 16.8875C14.3598 17.3452 14.6407 17.7603 14.9942 18.1088C15.704 18.8223 16.6678 19.2251 17.6742 19.2288C18.6789 19.2294 19.6427 18.8314 20.3542 18.1221C20.7065 17.773 20.9862 17.3577 21.1773 16.9C21.3684 16.4424 21.467 15.9514 21.4676 15.4555V10.3221H13.8875V15.4421M19.9542 11.8621V15.1221L19.9476 15.4621C19.9498 15.76 19.8919 16.0552 19.7774 16.3301C19.6628 16.605 19.4939 16.854 19.2809 17.0621C18.8569 17.4876 18.2815 17.7273 17.6809 17.7288C17.0542 17.7288 16.5009 17.4621 16.0875 17.0488C15.6621 16.6249 15.4223 16.0494 15.4209 15.4488V11.8488L19.9542 11.8621Z" fill="#FF0000"/>
<path d="M13.8742 15.4421C13.8756 15.9385 13.9753 16.4298 14.1675 16.8875C14.3598 17.3452 14.6407 17.7603 14.9942 18.1088C15.704 18.8223 16.6678 19.2251 17.6742 19.2288C18.6789 19.2294 19.6427 18.8314 20.3542 18.1221C20.7065 17.773 20.9862 17.3577 21.1773 16.9C21.3684 16.4424 21.467 15.9514 21.4676 15.4555V10.3221H13.8875V15.4421M19.9542 11.8621V15.1221L19.9476 15.4621C19.9498 15.76 19.8919 16.0552 19.7774 16.3301C19.6628 16.605 19.4939 16.854 19.2809 17.0621C18.8569 17.4876 18.2815 17.7273 17.6809 17.7288C17.0542 17.7288 16.5009 17.4621 16.0875 17.0488C15.6621 16.6249 15.4223 16.0494 15.4209 15.4488V11.8488L19.9542 11.8621Z" stroke="black" stroke-width="0.05"/>
<path d="M14.3675 11.6621C14.3742 11.2954 14.6342 11.2088 14.6342 11.2088C14.6408 11.2088 14.9208 11.3021 14.9208 11.6688H14.3675" fill="#FFFF00"/>
<path d="M14.1408 11.2154L14.0942 11.6354H14.3742C14.3742 11.2888 14.6408 11.2354 14.6408 11.2354C14.6475 11.2354 14.9075 11.3088 14.9142 11.6354H15.1942L15.1409 11.2088H14.1408V11.2154ZM14.0742 11.6421H15.2075C15.2275 11.6421 15.2475 11.6621 15.2475 11.6888C15.2475 11.7221 15.2275 11.7421 15.2075 11.7421H14.0742C14.0542 11.7421 14.0342 11.7221 14.0342 11.6888C14.0342 11.6621 14.0542 11.6421 14.0808 11.6421H14.0742Z" fill="#FFFF00" stroke="black" stroke-width="0.05"/>
<path d="M14.4875 11.6354C14.4875 11.4154 14.6409 11.3554 14.6409 11.3554C14.6409 11.3554 14.7942 11.4221 14.7942 11.6354H14.4875ZM14.1009 11.0354H15.1875C15.2075 11.0354 15.2275 11.0621 15.2275 11.0888C15.2275 11.1088 15.2075 11.1288 15.1875 11.1288H14.1009C14.0809 11.1288 14.0609 11.1088 14.0609 11.0821C14.0609 11.0621 14.0809 11.0421 14.1009 11.0421V11.0354ZM14.1275 11.1354H15.1542C15.1742 11.1354 15.1942 11.1554 15.1942 11.1821C15.1942 11.2088 15.1742 11.2288 15.1542 11.2288H14.1209C14.0942 11.2288 14.0809 11.2088 14.0809 11.1821C14.0809 11.1554 14.0942 11.1354 14.1209 11.1354H14.1275ZM14.4609 10.4288H14.5409V10.4821H14.6009V10.4288H14.6875V10.4888H14.7475V10.4221H14.8275V10.5554C14.8275 10.5821 14.8142 10.5954 14.7942 10.5954H14.5009C14.4809 10.5954 14.4609 10.5821 14.4609 10.5621V10.4288ZM14.7675 10.6088L14.7875 11.0354H14.5009L14.5209 10.6021H14.7675" fill="#FFFF00"/>
<path d="M14.7675 10.6088L14.7875 11.0354H14.5009L14.5209 10.6021H14.7675M14.4875 11.6354C14.4875 11.4154 14.6409 11.3554 14.6409 11.3554C14.6409 11.3554 14.7942 11.4221 14.7942 11.6354H14.4875ZM14.1009 11.0354H15.1875C15.2075 11.0354 15.2275 11.0621 15.2275 11.0888C15.2275 11.1088 15.2075 11.1288 15.1875 11.1288H14.1009C14.0809 11.1288 14.0609 11.1088 14.0609 11.0821C14.0609 11.0621 14.0809 11.0421 14.1009 11.0421V11.0354ZM14.1275 11.1354H15.1542C15.1742 11.1354 15.1942 11.1554 15.1942 11.1821C15.1942 11.2088 15.1742 11.2288 15.1542 11.2288H14.1209C14.0942 11.2288 14.0809 11.2088 14.0809 11.1821C14.0809 11.1554 14.0942 11.1354 14.1209 11.1354H14.1275ZM14.4609 10.4288H14.5409V10.4821H14.6009V10.4288H14.6875V10.4888H14.7475V10.4221H14.8275V10.5554C14.8275 10.5821 14.8142 10.5954 14.7942 10.5954H14.5009C14.4809 10.5954 14.4609 10.5821 14.4609 10.5621V10.4288Z" stroke="black" stroke-width="0.05"/>
<path d="M14.4208 10.8088V11.0354H14.1542V10.8088H14.4208Z" fill="#FFFF00" stroke="black" stroke-width="0.05"/>
<path d="M15.1275 10.8088V11.0354H14.8608V10.8088H15.1275Z" fill="#FFFF00" stroke="black" stroke-width="0.05"/>
<path d="M14.1075 10.6354H14.1875V10.7021H14.2475V10.6354H14.3275V10.7021H14.3875V10.6354H14.4675V10.7688C14.4675 10.7954 14.4542 10.8088 14.4342 10.8088H14.1475C14.1369 10.8088 14.1267 10.8046 14.1192 10.7971C14.1117 10.7896 14.1075 10.7794 14.1075 10.7688V10.6354Z" fill="#FFFF00" stroke="black" stroke-width="0.05"/>
<path d="M14.8142 10.6354H14.8942V10.7021H14.9542V10.6354H15.0342V10.7021H15.0942V10.6354H15.1742V10.7688C15.1742 10.7954 15.1609 10.8088 15.1409 10.8088H14.8542C14.8436 10.8088 14.8334 10.8046 14.8259 10.7971C14.8184 10.7896 14.8142 10.7794 14.8142 10.7688V10.6354Z" fill="#FFFF00" stroke="black" stroke-width="0.05"/>
<path d="M14.6142 10.7421C14.6142 10.7021 14.6742 10.7021 14.6742 10.7421V10.8488H14.6142V10.7421Z" fill="black"/>
<path d="M14.2609 10.8888C14.2609 10.8488 14.3142 10.8488 14.3142 10.8888V10.9688H14.2609V10.8888Z" fill="black"/>
<path d="M14.9675 10.8888C14.9675 10.8488 15.0209 10.8488 15.0209 10.8888V10.9688H14.9675V10.8888Z" fill="black"/>
<path d="M14.3675 14.7488C14.3742 14.3821 14.6342 14.2954 14.6342 14.2954C14.6408 14.2954 14.9208 14.3888 14.9208 14.7554H14.3675" fill="#FFFF00"/>
<path d="M14.1408 14.3021L14.0942 14.7221H14.3742C14.3742 14.3754 14.6408 14.3221 14.6408 14.3221C14.6475 14.3221 14.9075 14.3954 14.9142 14.7221H15.1942L15.1409 14.2954H14.1408V14.3021ZM14.0742 14.7288H15.2075C15.2275 14.7288 15.2475 14.7488 15.2475 14.7754C15.2475 14.8088 15.2275 14.8288 15.2075 14.8288H14.0742C14.0542 14.8288 14.0342 14.8088 14.0342 14.7754C14.0342 14.7488 14.0542 14.7288 14.0808 14.7288H14.0742Z" fill="#FFFF00" stroke="black" stroke-width="0.05"/>
<path d="M14.4875 14.7221C14.4875 14.5021 14.6409 14.4421 14.6409 14.4421C14.6409 14.4421 14.7942 14.5088 14.7942 14.7221H14.4875ZM14.1009 14.1221H15.1875C15.2075 14.1221 15.2275 14.1488 15.2275 14.1754C15.2275 14.1954 15.2075 14.2154 15.1875 14.2154H14.1009C14.0809 14.2154 14.0609 14.1954 14.0609 14.1688C14.0609 14.1488 14.0809 14.1288 14.1009 14.1288V14.1221ZM14.1275 14.2221H15.1542C15.1742 14.2221 15.1942 14.2421 15.1942 14.2688C15.1942 14.2954 15.1742 14.3154 15.1542 14.3154H14.1209C14.0942 14.3154 14.0809 14.2954 14.0809 14.2688C14.0809 14.2421 14.0942 14.2221 14.1209 14.2221H14.1275ZM14.4609 13.5154H14.5409V13.5688H14.6009V13.5154H14.6875V13.5754H14.7475V13.5088H14.8275V13.6421C14.8275 13.6688 14.8142 13.6821 14.7942 13.6821H14.5009C14.4809 13.6821 14.4609 13.6688 14.4609 13.6488V13.5154ZM14.7675 13.6954L14.7875 14.1221H14.5009L14.5209 13.6888H14.7675" fill="#FFFF00"/>
<path d="M14.7675 13.6954L14.7875 14.1221H14.5009L14.5209 13.6888H14.7675M14.4875 14.7221C14.4875 14.5021 14.6409 14.4421 14.6409 14.4421C14.6409 14.4421 14.7942 14.5088 14.7942 14.7221H14.4875ZM14.1009 14.1221H15.1875C15.2075 14.1221 15.2275 14.1488 15.2275 14.1754C15.2275 14.1954 15.2075 14.2154 15.1875 14.2154H14.1009C14.0809 14.2154 14.0609 14.1954 14.0609 14.1688C14.0609 14.1488 14.0809 14.1288 14.1009 14.1288V14.1221ZM14.1275 14.2221H15.1542C15.1742 14.2221 15.1942 14.2421 15.1942 14.2688C15.1942 14.2954 15.1742 14.3154 15.1542 14.3154H14.1209C14.0942 14.3154 14.0809 14.2954 14.0809 14.2688C14.0809 14.2421 14.0942 14.2221 14.1209 14.2221H14.1275ZM14.4609 13.5154H14.5409V13.5688H14.6009V13.5154H14.6875V13.5754H14.7475V13.5088H14.8275V13.6421C14.8275 13.6688 14.8142 13.6821 14.7942 13.6821H14.5009C14.4809 13.6821 14.4609 13.6688 14.4609 13.6488V13.5154Z" stroke="black" stroke-width="0.05"/>
<path d="M14.4208 13.8954V14.1221H14.1542V13.8954H14.4208Z" fill="#FFFF00" stroke="black" stroke-width="0.05"/>
<path d="M15.1275 13.8954V14.1221H14.8608V13.8954H15.1275Z" fill="#FFFF00" stroke="black" stroke-width="0.05"/>
<path d="M14.1075 13.7221H14.1875V13.7888H14.2475V13.7221H14.3275V13.7888H14.3875V13.7221H14.4675V13.8554C14.4675 13.8821 14.4542 13.8954 14.4342 13.8954H14.1475C14.1369 13.8954 14.1267 13.8912 14.1192 13.8837C14.1117 13.8762 14.1075 13.866 14.1075 13.8554V13.7221Z" fill="#FFFF00" stroke="black" stroke-width="0.05"/>
<path d="M14.8142 13.7221H14.8942V13.7888H14.9542V13.7221H15.0342V13.7888H15.0942V13.7221H15.1742V13.8554C15.1742 13.8821 15.1609 13.8954 15.1409 13.8954H14.8542C14.8436 13.8954 14.8334 13.8912 14.8259 13.8837C14.8184 13.8762 14.8142 13.866 14.8142 13.8554V13.7221Z" fill="#FFFF00" stroke="black" stroke-width="0.05"/>
<path d="M14.6142 13.8288C14.6142 13.7888 14.6742 13.7888 14.6742 13.8288V13.9354H14.6142V13.8288Z" fill="black"/>
<path d="M14.2609 13.9754C14.2609 13.9354 14.3142 13.9354 14.3142 13.9754V14.0554H14.2609V13.9754Z" fill="black"/>
<path d="M14.9675 13.9754C14.9675 13.9354 15.0209 13.9354 15.0209 13.9754V14.0554H14.9675V13.9754Z" fill="black"/>
<path d="M15.5705 17.9658C15.3151 17.7028 15.4369 17.4572 15.4369 17.4572C15.4416 17.4525 15.7052 17.3195 15.9653 17.5777L15.5752 17.9705" fill="#FFFF00"/>
<path d="M15.094 17.812L15.359 18.141L15.5563 17.9422C15.3105 17.6981 15.4606 17.4713 15.4606 17.4713C15.4653 17.4665 15.7005 17.3337 15.9369 17.559L16.1343 17.3603L15.7941 17.0976L15.0893 17.8073L15.094 17.812ZM15.3496 18.1599L16.1484 17.3555C16.1625 17.3413 16.1908 17.3412 16.2097 17.36C16.2333 17.3835 16.2334 17.4117 16.2193 17.4259L15.4206 18.2303C15.4065 18.2445 15.3782 18.2446 15.3545 18.2211C15.3356 18.2023 15.3355 18.174 15.3543 18.1551L15.3496 18.1599Z" fill="#FFFF00" stroke="black" stroke-width="0.05"/>
<path d="M15.6361 17.8617C15.4801 17.7068 15.5456 17.5557 15.5456 17.5557C15.5456 17.5557 15.701 17.4938 15.8523 17.6441L15.6361 17.8617ZM14.938 17.7135L15.704 16.9422C15.7181 16.928 15.7511 16.9326 15.77 16.9514C15.7842 16.9655 15.7843 16.9938 15.7702 17.008L15.0042 17.7793C14.9901 17.7935 14.9618 17.7936 14.9429 17.7748C14.9287 17.7607 14.9286 17.7324 14.9427 17.7182L14.938 17.7135ZM15.0277 17.7651L15.7514 17.0363C15.7655 17.0221 15.7938 17.022 15.8127 17.0408C15.8316 17.0596 15.8317 17.0879 15.8176 17.1021L15.0892 17.8355C15.0704 17.8545 15.0468 17.8498 15.0279 17.8311C15.009 17.8123 15.0042 17.7887 15.023 17.7698L15.0277 17.7651ZM14.7614 17.0307L14.8178 16.9739L14.8556 17.0115L14.8979 16.9689L14.8601 16.9313L14.9212 16.8698L14.9637 16.9121L15.006 16.8695L14.9587 16.8225L15.0151 16.7657L15.1097 16.8596C15.1286 16.8784 15.1287 16.8973 15.1146 16.9115L14.9078 17.1197C14.8937 17.1339 14.8702 17.1387 14.856 17.1246L14.7614 17.0307ZM15.1053 16.9398L15.422 17.2261L15.2199 17.4296L14.9267 17.1102L15.1005 16.9351" fill="#FFFF00"/>
<path d="M15.1053 16.9398L15.422 17.2261L15.2199 17.4296L14.9267 17.1102L15.1005 16.9351M15.6361 17.8617C15.4801 17.7068 15.5456 17.5557 15.5456 17.5557C15.5456 17.5557 15.701 17.4938 15.8523 17.6441L15.6361 17.8617ZM14.938 17.7135L15.704 16.9422C15.7181 16.928 15.7511 16.9326 15.77 16.9514C15.7842 16.9655 15.7843 16.9938 15.7702 17.008L15.0042 17.7793C14.9901 17.7935 14.9618 17.7936 14.9429 17.7748C14.9287 17.7607 14.9286 17.7324 14.9427 17.7182L14.938 17.7135ZM15.0277 17.7651L15.7514 17.0363C15.7655 17.0221 15.7938 17.022 15.8127 17.0408C15.8316 17.0596 15.8317 17.0879 15.8176 17.1021L15.0892 17.8355C15.0704 17.8545 15.0468 17.8498 15.0279 17.8311C15.009 17.8123 15.0042 17.7887 15.023 17.7698L15.0277 17.7651ZM14.7614 17.0307L14.8178 16.9739L14.8556 17.0115L14.8979 16.9689L14.8601 16.9313L14.9212 16.8698L14.9637 16.9121L15.006 16.8695L14.9587 16.8225L15.0151 16.7657L15.1097 16.8596C15.1286 16.8784 15.1287 16.8973 15.1146 16.9115L14.9078 17.1197C14.8937 17.1339 14.8702 17.1387 14.856 17.1246L14.7614 17.0307Z" stroke="black" stroke-width="0.05"/>
<path d="M15.0028 17.3267L15.1636 17.4863L14.9756 17.6756L14.8148 17.5159L15.0028 17.3267Z" fill="#FFFF00" stroke="black" stroke-width="0.05"/>
<path d="M15.5008 16.8252L15.6615 16.9849L15.4736 17.1742L15.3128 17.0145L15.5008 16.8252Z" fill="#FFFF00" stroke="black" stroke-width="0.05"/>
<path d="M14.6589 17.4269L14.7152 17.3702L14.7624 17.4171L14.8046 17.3746L14.7574 17.3277L14.8137 17.2711L14.8609 17.3179L14.9031 17.2754L14.8559 17.2286L14.9122 17.1719L15.0066 17.2656C15.0254 17.2844 15.0255 17.3032 15.0114 17.3174L14.8098 17.5204C14.8023 17.5279 14.7922 17.5322 14.7816 17.5322C14.771 17.5323 14.7608 17.5281 14.7533 17.5206L14.6589 17.4269Z" fill="#FFFF00" stroke="black" stroke-width="0.05"/>
<path d="M15.1569 16.9255L15.2132 16.8688L15.2604 16.9157L15.3026 16.8732L15.2554 16.8263L15.3117 16.7696L15.3589 16.8165L15.4011 16.774L15.3539 16.7271L15.4101 16.6705L15.5045 16.7642C15.5234 16.783 15.5235 16.8018 15.5094 16.8159L15.3078 17.019C15.3003 17.0265 15.2902 17.0307 15.2796 17.0308C15.269 17.0308 15.2588 17.0267 15.2513 17.0192L15.1569 16.9255Z" fill="#FFFF00" stroke="black" stroke-width="0.05"/>
<path d="M15.0916 17.1424C15.0633 17.1144 15.1054 17.072 15.1337 17.1L15.209 17.1749L15.1669 17.2172L15.0916 17.1424Z" fill="black"/>
<path d="M14.9467 17.4965C14.9184 17.4684 14.9558 17.4307 14.9841 17.4588L15.0406 17.5149L15.0032 17.5526L14.9467 17.4965Z" fill="black"/>
<path d="M15.4446 16.995C15.4163 16.967 15.4537 16.9293 15.482 16.9574L15.5385 17.0135L15.5011 17.0512L15.4446 16.995Z" fill="black"/>
<path d="M17.4142 11.6621C17.4209 11.2954 17.6809 11.2088 17.6809 11.2088C17.6875 11.2088 17.9675 11.3021 17.9675 11.6688H17.4142" fill="#FFFF00"/>
<path d="M17.1875 11.2154L17.1409 11.6354H17.4209C17.4209 11.2888 17.6875 11.2354 17.6875 11.2354C17.6942 11.2354 17.9542 11.3088 17.9609 11.6354H18.2409L18.1875 11.2088H17.1875V11.2154ZM17.1209 11.6421H18.2542C18.2742 11.6421 18.2942 11.6621 18.2942 11.6888C18.2942 11.7221 18.2742 11.7421 18.2542 11.7421H17.1209C17.1009 11.7421 17.0809 11.7221 17.0809 11.6888C17.0809 11.6621 17.1009 11.6421 17.1275 11.6421H17.1209Z" fill="#FFFF00" stroke="black" stroke-width="0.05"/>
<path d="M17.5342 11.6354C17.5342 11.4154 17.6875 11.3554 17.6875 11.3554C17.6875 11.3554 17.8409 11.4221 17.8409 11.6354H17.5342ZM17.1475 11.0354H18.2342C18.2542 11.0354 18.2742 11.0621 18.2742 11.0888C18.2742 11.1088 18.2542 11.1288 18.2342 11.1288H17.1475C17.1275 11.1288 17.1075 11.1088 17.1075 11.0821C17.1075 11.0621 17.1275 11.0421 17.1475 11.0421V11.0354ZM17.1742 11.1354H18.2009C18.2209 11.1354 18.2409 11.1554 18.2409 11.1821C18.2409 11.2088 18.2209 11.2288 18.2009 11.2288H17.1675C17.1409 11.2288 17.1275 11.2088 17.1275 11.1821C17.1275 11.1554 17.1409 11.1354 17.1675 11.1354H17.1742ZM17.5075 10.4288H17.5875V10.4821H17.6475V10.4288H17.7342V10.4888H17.7942V10.4221H17.8742V10.5554C17.8742 10.5821 17.8609 10.5954 17.8409 10.5954H17.5475C17.5275 10.5954 17.5075 10.5821 17.5075 10.5621V10.4288ZM17.8142 10.6088L17.8342 11.0354H17.5475L17.5675 10.6021H17.8142" fill="#FFFF00"/>
<path d="M17.8142 10.6088L17.8342 11.0354H17.5475L17.5675 10.6021H17.8142M17.5342 11.6354C17.5342 11.4154 17.6875 11.3554 17.6875 11.3554C17.6875 11.3554 17.8409 11.4221 17.8409 11.6354H17.5342ZM17.1475 11.0354H18.2342C18.2542 11.0354 18.2742 11.0621 18.2742 11.0888C18.2742 11.1088 18.2542 11.1288 18.2342 11.1288H17.1475C17.1275 11.1288 17.1075 11.1088 17.1075 11.0821C17.1075 11.0621 17.1275 11.0421 17.1475 11.0421V11.0354ZM17.1742 11.1354H18.2009C18.2209 11.1354 18.2409 11.1554 18.2409 11.1821C18.2409 11.2088 18.2209 11.2288 18.2009 11.2288H17.1675C17.1409 11.2288 17.1275 11.2088 17.1275 11.1821C17.1275 11.1554 17.1409 11.1354 17.1675 11.1354H17.1742ZM17.5075 10.4288H17.5875V10.4821H17.6475V10.4288H17.7342V10.4888H17.7942V10.4221H17.8742V10.5554C17.8742 10.5821 17.8609 10.5954 17.8409 10.5954H17.5475C17.5275 10.5954 17.5075 10.5821 17.5075 10.5621V10.4288Z" stroke="black" stroke-width="0.05"/>
<path d="M17.4675 10.8088V11.0354H17.2009V10.8088H17.4675Z" fill="#FFFF00" stroke="black" stroke-width="0.05"/>
<path d="M18.1742 10.8088V11.0354H17.9075V10.8088H18.1742Z" fill="#FFFF00" stroke="black" stroke-width="0.05"/>
<path d="M17.1542 10.6354H17.2342V10.7021H17.2942V10.6354H17.3742V10.7021H17.4342V10.6354H17.5142V10.7688C17.5142 10.7954 17.5009 10.8088 17.4809 10.8088H17.1942C17.1836 10.8088 17.1735 10.8046 17.166 10.7971C17.1585 10.7896 17.1542 10.7794 17.1542 10.7688V10.6354Z" fill="#FFFF00" stroke="black" stroke-width="0.05"/>
<path d="M17.8609 10.6354H17.9409V10.7021H18.0009V10.6354H18.0809V10.7021H18.1409V10.6354H18.2209V10.7688C18.2209 10.7954 18.2076 10.8088 18.1876 10.8088H17.9009C17.8903 10.8088 17.8801 10.8046 17.8726 10.7971C17.8651 10.7896 17.8609 10.7794 17.8609 10.7688V10.6354Z" fill="#FFFF00" stroke="black" stroke-width="0.05"/>
<path d="M17.6609 10.7421C17.6609 10.7021 17.7209 10.7021 17.7209 10.7421V10.8488H17.6609V10.7421Z" fill="black"/>
<path d="M17.3076 10.8888C17.3076 10.8488 17.3609 10.8488 17.3609 10.8888V10.9688H17.3076V10.8888Z" fill="black"/>
<path d="M18.0142 10.8888C18.0142 10.8488 18.0676 10.8488 18.0676 10.8888V10.9688H18.0142V10.8888Z" fill="black"/>
<path d="M20.9943 11.6621C20.9876 11.2954 20.7276 11.2088 20.7276 11.2088C20.7209 11.2088 20.4409 11.3021 20.4409 11.6688H20.9943" fill="#FFFF00"/>
<path d="M21.2209 11.2154L21.2676 11.6354H20.9876C20.9876 11.2888 20.7209 11.2354 20.7209 11.2354C20.7142 11.2354 20.4542 11.3088 20.4476 11.6354H20.1676L20.2209 11.2088H21.2209V11.2154ZM21.2876 11.6421H20.1542C20.1342 11.6421 20.1142 11.6621 20.1142 11.6888C20.1142 11.7221 20.1342 11.7421 20.1542 11.7421H21.2876C21.3076 11.7421 21.3276 11.7221 21.3276 11.6888C21.3276 11.6621 21.3076 11.6421 21.2809 11.6421H21.2876Z" fill="#FFFF00" stroke="black" stroke-width="0.05"/>
<path d="M20.8742 11.6354C20.8742 11.4154 20.7209 11.3554 20.7209 11.3554C20.7209 11.3554 20.5676 11.4221 20.5676 11.6354H20.8742ZM21.2609 11.0354H20.1742C20.1542 11.0354 20.1342 11.0621 20.1342 11.0888C20.1342 11.1088 20.1542 11.1288 20.1742 11.1288H21.2609C21.2809 11.1288 21.3009 11.1088 21.3009 11.0821C21.3009 11.0621 21.2809 11.0421 21.2609 11.0421V11.0354ZM21.2342 11.1354H20.2076C20.1876 11.1354 20.1676 11.1554 20.1676 11.1821C20.1676 11.2088 20.1876 11.2288 20.2076 11.2288H21.2409C21.2676 11.2288 21.2809 11.2088 21.2809 11.1821C21.2809 11.1554 21.2676 11.1354 21.2409 11.1354H21.2342ZM20.9009 10.4288H20.8209V10.4821H20.7609V10.4288H20.6742V10.4888H20.6142V10.4221H20.5342V10.5554C20.5342 10.5821 20.5476 10.5954 20.5676 10.5954H20.8609C20.8809 10.5954 20.9009 10.5821 20.9009 10.5621V10.4288ZM20.5942 10.6088L20.5742 11.0354H20.8609L20.8409 10.6021H20.5942" fill="#FFFF00"/>
<path d="M20.5942 10.6088L20.5742 11.0354H20.8609L20.8409 10.6021H20.5942M20.8742 11.6354C20.8742 11.4154 20.7209 11.3554 20.7209 11.3554C20.7209 11.3554 20.5676 11.4221 20.5676 11.6354H20.8742ZM21.2609 11.0354H20.1742C20.1542 11.0354 20.1342 11.0621 20.1342 11.0888C20.1342 11.1088 20.1542 11.1288 20.1742 11.1288H21.2609C21.2809 11.1288 21.3009 11.1088 21.3009 11.0821C21.3009 11.0621 21.2809 11.0421 21.2609 11.0421V11.0354ZM21.2342 11.1354H20.2076C20.1876 11.1354 20.1676 11.1554 20.1676 11.1821C20.1676 11.2088 20.1876 11.2288 20.2076 11.2288H21.2409C21.2676 11.2288 21.2809 11.2088 21.2809 11.1821C21.2809 11.1554 21.2676 11.1354 21.2409 11.1354H21.2342ZM20.9009 10.4288H20.8209V10.4821H20.7609V10.4288H20.6742V10.4888H20.6142V10.4221H20.5342V10.5554C20.5342 10.5821 20.5476 10.5954 20.5676 10.5954H20.8609C20.8809 10.5954 20.9009 10.5821 20.9009 10.5621V10.4288Z" stroke="black" stroke-width="0.05"/>
<path d="M20.9409 10.8088V11.0354H21.2076V10.8088H20.9409Z" fill="#FFFF00" stroke="black" stroke-width="0.05"/>
<path d="M20.2342 10.8088V11.0354H20.5009V10.8088H20.2342Z" fill="#FFFF00" stroke="black" stroke-width="0.05"/>
<path d="M21.2543 10.6354H21.1743V10.7021H21.1143V10.6354H21.0343V10.7021H20.9743V10.6354H20.8943V10.7688C20.8943 10.7954 20.9076 10.8088 20.9276 10.8088H21.2143C21.2249 10.8088 21.2351 10.8046 21.2426 10.7971C21.2501 10.7896 21.2543 10.7794 21.2543 10.7688V10.6354Z" fill="#FFFF00" stroke="black" stroke-width="0.05"/>
<path d="M20.5475 10.6354H20.4675V10.7021H20.4075V10.6354H20.3275V10.7021H20.2675V10.6354H20.1875V10.7688C20.1875 10.7954 20.2009 10.8088 20.2209 10.8088H20.5075C20.5182 10.8088 20.5283 10.8046 20.5358 10.7971C20.5433 10.7896 20.5475 10.7794 20.5475 10.7688V10.6354Z" fill="#FFFF00" stroke="black" stroke-width="0.05"/>
<path d="M20.7476 10.7421C20.7476 10.7021 20.6876 10.7021 20.6876 10.7421V10.8488H20.7476V10.7421Z" fill="black"/>
<path d="M21.1009 10.8888C21.1009 10.8488 21.0476 10.8488 21.0476 10.8888V10.9688H21.1009V10.8888Z" fill="black"/>
<path d="M20.3942 10.8888C20.3942 10.8488 20.3409 10.8488 20.3409 10.8888V10.9688H20.3942V10.8888Z" fill="black"/>
<path d="M20.9943 14.7488C20.9876 14.3821 20.7276 14.2954 20.7276 14.2954C20.7209 14.2954 20.4409 14.3888 20.4409 14.7554H20.9943" fill="#FFFF00"/>
<path d="M21.2209 14.3021L21.2676 14.7221H20.9876C20.9876 14.3754 20.7209 14.3221 20.7209 14.3221C20.7142 14.3221 20.4542 14.3954 20.4476 14.7221H20.1676L20.2209 14.2954H21.2209V14.3021ZM21.2876 14.7288H20.1542C20.1342 14.7288 20.1142 14.7488 20.1142 14.7754C20.1142 14.8088 20.1342 14.8288 20.1542 14.8288H21.2876C21.3076 14.8288 21.3276 14.8088 21.3276 14.7754C21.3276 14.7488 21.3076 14.7288 21.2809 14.7288H21.2876Z" fill="#FFFF00" stroke="black" stroke-width="0.05"/>
<path d="M20.8742 14.7221C20.8742 14.5021 20.7209 14.4421 20.7209 14.4421C20.7209 14.4421 20.5676 14.5088 20.5676 14.7221H20.8742ZM21.2609 14.1221H20.1742C20.1542 14.1221 20.1342 14.1488 20.1342 14.1754C20.1342 14.1954 20.1542 14.2154 20.1742 14.2154H21.2609C21.2809 14.2154 21.3009 14.1954 21.3009 14.1688C21.3009 14.1488 21.2809 14.1288 21.2609 14.1288V14.1221ZM21.2342 14.2221H20.2076C20.1876 14.2221 20.1676 14.2421 20.1676 14.2688C20.1676 14.2954 20.1876 14.3154 20.2076 14.3154H21.2409C21.2676 14.3154 21.2809 14.2954 21.2809 14.2688C21.2809 14.2421 21.2676 14.2221 21.2409 14.2221H21.2342ZM20.9009 13.5154H20.8209V13.5688H20.7609V13.5154H20.6742V13.5754H20.6142V13.5088H20.5342V13.6421C20.5342 13.6688 20.5476 13.6821 20.5676 13.6821H20.8609C20.8809 13.6821 20.9009 13.6688 20.9009 13.6488V13.5154ZM20.5942 13.6954L20.5742 14.1221H20.8609L20.8409 13.6888H20.5942" fill="#FFFF00"/>
<path d="M20.5942 13.6954L20.5742 14.1221H20.8609L20.8409 13.6888H20.5942M20.8742 14.7221C20.8742 14.5021 20.7209 14.4421 20.7209 14.4421C20.7209 14.4421 20.5676 14.5088 20.5676 14.7221H20.8742ZM21.2609 14.1221H20.1742C20.1542 14.1221 20.1342 14.1488 20.1342 14.1754C20.1342 14.1954 20.1542 14.2154 20.1742 14.2154H21.2609C21.2809 14.2154 21.3009 14.1954 21.3009 14.1688C21.3009 14.1488 21.2809 14.1288 21.2609 14.1288V14.1221ZM21.2342 14.2221H20.2076C20.1876 14.2221 20.1676 14.2421 20.1676 14.2688C20.1676 14.2954 20.1876 14.3154 20.2076 14.3154H21.2409C21.2676 14.3154 21.2809 14.2954 21.2809 14.2688C21.2809 14.2421 21.2676 14.2221 21.2409 14.2221H21.2342ZM20.9009 13.5154H20.8209V13.5688H20.7609V13.5154H20.6742V13.5754H20.6142V13.5088H20.5342V13.6421C20.5342 13.6688 20.5476 13.6821 20.5676 13.6821H20.8609C20.8809 13.6821 20.9009 13.6688 20.9009 13.6488V13.5154Z" stroke="black" stroke-width="0.05"/>
<path d="M20.9409 13.8954V14.1221H21.2076V13.8954H20.9409Z" fill="#FFFF00" stroke="black" stroke-width="0.05"/>
<path d="M20.2342 13.8954V14.1221H20.5009V13.8954H20.2342Z" fill="#FFFF00" stroke="black" stroke-width="0.05"/>
<path d="M21.2543 13.7221H21.1743V13.7888H21.1143V13.7221H21.0343V13.7888H20.9743V13.7221H20.8943V13.8554C20.8943 13.8821 20.9076 13.8954 20.9276 13.8954H21.2143C21.2249 13.8954 21.2351 13.8912 21.2426 13.8837C21.2501 13.8762 21.2543 13.866 21.2543 13.8554V13.7221Z" fill="#FFFF00" stroke="black" stroke-width="0.05"/>
<path d="M20.5475 13.7221H20.4675V13.7888H20.4075V13.7221H20.3275V13.7888H20.2675V13.7221H20.1875V13.8554C20.1875 13.8821 20.2009 13.8954 20.2209 13.8954H20.5075C20.5182 13.8954 20.5283 13.8912 20.5358 13.8837C20.5433 13.8762 20.5475 13.866 20.5475 13.8554V13.7221Z" fill="#FFFF00" stroke="black" stroke-width="0.05"/>
<path d="M20.7476 13.8288C20.7476 13.7888 20.6876 13.7888 20.6876 13.8288V13.9354H20.7476V13.8288Z" fill="black"/>
<path d="M21.1009 13.9754C21.1009 13.9354 21.0476 13.9354 21.0476 13.9754V14.0554H21.1009V13.9754Z" fill="black"/>
<path d="M20.3942 13.9754C20.3942 13.9354 20.3409 13.9354 20.3409 13.9754V14.0554H20.3942V13.9754Z" fill="black"/>
<path d="M19.7912 17.9658C20.0466 17.7028 19.9248 17.4572 19.9248 17.4572C19.9201 17.4525 19.6566 17.3195 19.3965 17.5777L19.7865 17.9705" fill="#FFFF00"/>
<path d="M20.2678 17.812L20.0028 18.141L19.8054 17.9422C20.0513 17.6981 19.9012 17.4713 19.9012 17.4713C19.8965 17.4665 19.6612 17.3337 19.4248 17.559L19.2275 17.3603L19.5677 17.0976L20.2725 17.8073L20.2678 17.812ZM20.0121 18.1599L19.2134 17.3555C19.1993 17.3413 19.171 17.3412 19.1521 17.36C19.1284 17.3835 19.1284 17.4117 19.1424 17.4259L19.9412 18.2303C19.9553 18.2445 19.9836 18.2446 20.0072 18.2211C20.0261 18.2023 20.0262 18.174 20.0074 18.1551L20.0121 18.1599Z" fill="#FFFF00" stroke="black" stroke-width="0.05"/>
<path d="M19.7256 17.8617C19.8817 17.7068 19.8161 17.5557 19.8161 17.5557C19.8161 17.5557 19.6608 17.4938 19.5094 17.6441L19.7256 17.8617ZM20.4238 17.7135L19.6578 16.9422C19.6437 16.928 19.6107 16.9326 19.5918 16.9514C19.5776 16.9655 19.5775 16.9938 19.5916 17.008L20.3576 17.7793C20.3717 17.7935 20.3999 17.7936 20.4189 17.7748C20.433 17.7607 20.4331 17.7324 20.419 17.7182L20.4238 17.7135ZM20.334 17.7651L19.6104 17.0363C19.5963 17.0221 19.568 17.022 19.5491 17.0408C19.5301 17.0596 19.5301 17.0879 19.5442 17.1021L20.2725 17.8355C20.2913 17.8545 20.3149 17.8498 20.3338 17.8311C20.3527 17.8123 20.3575 17.7887 20.3387 17.7698L20.334 17.7651ZM20.6003 17.0307L20.544 16.9739L20.5061 17.0115L20.4638 16.9689L20.5017 16.9313L20.4406 16.8698L20.398 16.9121L20.3557 16.8695L20.403 16.8225L20.3466 16.7657L20.252 16.8596C20.2331 16.8784 20.2331 16.8973 20.2472 16.9115L20.4539 17.1197C20.468 17.1339 20.4916 17.1387 20.5058 17.1246L20.6003 17.0307ZM20.2565 16.9398L19.9398 17.2261L20.1418 17.4296L20.4351 17.1102L20.2612 16.9351" fill="#FFFF00"/>
<path d="M20.2565 16.9398L19.9398 17.2261L20.1418 17.4296L20.4351 17.1102L20.2612 16.9351M19.7256 17.8617C19.8817 17.7068 19.8161 17.5557 19.8161 17.5557C19.8161 17.5557 19.6608 17.4938 19.5094 17.6441L19.7256 17.8617ZM20.4238 17.7135L19.6578 16.9422C19.6437 16.928 19.6107 16.9326 19.5918 16.9514C19.5776 16.9655 19.5775 16.9938 19.5916 17.008L20.3576 17.7793C20.3717 17.7935 20.3999 17.7936 20.4189 17.7748C20.433 17.7607 20.4331 17.7324 20.419 17.7182L20.4238 17.7135ZM20.334 17.7651L19.6104 17.0363C19.5963 17.0221 19.568 17.022 19.5491 17.0408C19.5301 17.0596 19.5301 17.0879 19.5442 17.1021L20.2725 17.8355C20.2913 17.8545 20.3149 17.8498 20.3338 17.8311C20.3527 17.8123 20.3575 17.7887 20.3387 17.7698L20.334 17.7651ZM20.6003 17.0307L20.544 16.9739L20.5061 17.0115L20.4638 16.9689L20.5017 16.9313L20.4406 16.8698L20.398 16.9121L20.3557 16.8695L20.403 16.8225L20.3466 16.7657L20.252 16.8596C20.2331 16.8784 20.2331 16.8973 20.2472 16.9115L20.4539 17.1197C20.468 17.1339 20.4916 17.1387 20.5058 17.1246L20.6003 17.0307Z" stroke="black" stroke-width="0.05"/>
<path d="M20.359 17.3267L20.1982 17.4863L20.3862 17.6756L20.5469 17.5159L20.359 17.3267Z" fill="#FFFF00" stroke="black" stroke-width="0.05"/>
<path d="M19.861 16.8252L19.7002 16.9849L19.8882 17.1742L20.049 17.0145L19.861 16.8252Z" fill="#FFFF00" stroke="black" stroke-width="0.05"/>
<path d="M20.7028 17.4269L20.6465 17.3702L20.5994 17.4171L20.5571 17.3746L20.6043 17.3277L20.5481 17.2711L20.5009 17.3179L20.4587 17.2754L20.5059 17.2286L20.4496 17.1719L20.3552 17.2656C20.3363 17.2844 20.3363 17.3032 20.3503 17.3174L20.552 17.5204C20.5594 17.5279 20.5696 17.5322 20.5802 17.5322C20.5907 17.5323 20.6009 17.5281 20.6084 17.5206L20.7028 17.4269Z" fill="#FFFF00" stroke="black" stroke-width="0.05"/>
<path d="M20.2048 16.9255L20.1486 16.8688L20.1014 16.9157L20.0592 16.8732L20.1064 16.8263L20.0501 16.7696L20.0029 16.8165L19.9607 16.774L20.0079 16.7271L19.9516 16.6705L19.8572 16.7642C19.8383 16.783 19.8383 16.8018 19.8523 16.8159L20.054 17.019C20.0614 17.0265 20.0716 17.0307 20.0822 17.0308C20.0928 17.0308 20.1029 17.0267 20.1104 17.0192L20.2048 16.9255Z" fill="#FFFF00" stroke="black" stroke-width="0.05"/>
<path d="M20.2702 17.1424C20.2984 17.1144 20.2564 17.072 20.2281 17.1L20.1528 17.1749L20.1948 17.2172L20.2702 17.1424Z" fill="black"/>
<path d="M20.4151 17.4965C20.4433 17.4684 20.4059 17.4307 20.3777 17.4588L20.3212 17.5149L20.3586 17.5526L20.4151 17.4965Z" fill="black"/>
<path d="M19.9172 16.995C19.9454 16.967 19.908 16.9293 19.8798 16.9574L19.8232 17.0135L19.8607 17.0512L19.9172 16.995Z" fill="black"/>
<path d="M17.1942 14.8621C17.193 15.0028 17.2455 15.1387 17.3409 15.2421C17.3854 15.2919 17.4398 15.3319 17.5007 15.3594C17.5615 15.387 17.6275 15.4015 17.6942 15.4021C17.8342 15.4021 17.9609 15.3355 18.0476 15.2421C18.143 15.1387 18.1954 15.0028 18.1942 14.8621V14.1421H17.1942V14.8621Z" fill="#003399"/>
<path d="M17.4276 14.5155C17.4828 14.5155 17.5276 14.4707 17.5276 14.4155C17.5276 14.3602 17.4828 14.3155 17.4276 14.3155C17.3723 14.3155 17.3276 14.3602 17.3276 14.4155C17.3276 14.4707 17.3723 14.5155 17.4276 14.5155Z" fill="white"/>
<path d="M17.9809 14.5155C18.0361 14.5155 18.0809 14.4707 18.0809 14.4155C18.0809 14.3602 18.0361 14.3155 17.9809 14.3155C17.9257 14.3155 17.8809 14.3602 17.8809 14.4155C17.8809 14.4707 17.9257 14.5155 17.9809 14.5155Z" fill="white"/>
<path d="M17.7009 14.7821C17.7561 14.7821 17.8009 14.7374 17.8009 14.6821C17.8009 14.6269 17.7561 14.5821 17.7009 14.5821C17.6457 14.5821 17.6009 14.6269 17.6009 14.6821C17.6009 14.7374 17.6457 14.7821 17.7009 14.7821Z" fill="white"/>
<path d="M17.4276 15.0621C17.4828 15.0621 17.5276 15.0174 17.5276 14.9621C17.5276 14.9069 17.4828 14.8621 17.4276 14.8621C17.3723 14.8621 17.3276 14.9069 17.3276 14.9621C17.3276 15.0174 17.3723 15.0621 17.4276 15.0621Z" fill="white"/>
<path d="M17.9809 15.0621C18.0361 15.0621 18.0809 15.0174 18.0809 14.9621C18.0809 14.9069 18.0361 14.8621 17.9809 14.8621C17.9257 14.8621 17.8809 14.9069 17.8809 14.9621C17.8809 15.0174 17.9257 15.0621 17.9809 15.0621Z" fill="white"/>
<path d="M17.1942 13.1288C17.193 13.2695 17.2455 13.4054 17.3409 13.5088C17.3854 13.5586 17.4398 13.5985 17.5007 13.6261C17.5615 13.6536 17.6275 13.6682 17.6942 13.6688C17.8342 13.6688 17.9609 13.6021 18.0476 13.5088C18.143 13.4054 18.1954 13.2695 18.1942 13.1288V12.4088H17.1942V13.1288Z" fill="#003399"/>
<path d="M17.4276 12.7821C17.4828 12.7821 17.5276 12.7374 17.5276 12.6821C17.5276 12.6269 17.4828 12.5821 17.4276 12.5821C17.3723 12.5821 17.3276 12.6269 17.3276 12.6821C17.3276 12.7374 17.3723 12.7821 17.4276 12.7821Z" fill="white"/>
<path d="M17.9809 12.7821C18.0361 12.7821 18.0809 12.7374 18.0809 12.6821C18.0809 12.6269 18.0361 12.5821 17.9809 12.5821C17.9257 12.5821 17.8809 12.6269 17.8809 12.6821C17.8809 12.7374 17.9257 12.7821 17.9809 12.7821Z" fill="white"/>
<path d="M17.7009 13.0488C17.7561 13.0488 17.8009 13.004 17.8009 12.9488C17.8009 12.8936 17.7561 12.8488 17.7009 12.8488C17.6457 12.8488 17.6009 12.8936 17.6009 12.9488C17.6009 13.004 17.6457 13.0488 17.7009 13.0488Z" fill="white"/>
<path d="M17.4276 13.3288C17.4828 13.3288 17.5276 13.284 17.5276 13.2288C17.5276 13.1736 17.4828 13.1288 17.4276 13.1288C17.3723 13.1288 17.3276 13.1736 17.3276 13.2288C17.3276 13.284 17.3723 13.3288 17.4276 13.3288Z" fill="white"/>
<path d="M17.9809 13.3288C18.0361 13.3288 18.0809 13.284 18.0809 13.2288C18.0809 13.1736 18.0361 13.1288 17.9809 13.1288C17.9257 13.1288 17.8809 13.1736 17.8809 13.2288C17.8809 13.284 17.9257 13.3288 17.9809 13.3288Z" fill="white"/>
<path d="M15.8075 14.8621C15.8063 15.0028 15.8588 15.1387 15.9542 15.2421C15.9987 15.2919 16.0531 15.3319 16.114 15.3594C16.1748 15.387 16.2407 15.4015 16.3075 15.4021C16.4475 15.4021 16.5742 15.3355 16.6609 15.2421C16.7563 15.1387 16.8087 15.0028 16.8075 14.8621V14.1421H15.8075V14.8621Z" fill="#003399"/>
<path d="M16.0409 14.5155C16.0961 14.5155 16.1409 14.4707 16.1409 14.4155C16.1409 14.3602 16.0961 14.3155 16.0409 14.3155C15.9856 14.3155 15.9409 14.3602 15.9409 14.4155C15.9409 14.4707 15.9856 14.5155 16.0409 14.5155Z" fill="white"/>
<path d="M16.5942 14.5155C16.6494 14.5155 16.6942 14.4707 16.6942 14.4155C16.6942 14.3602 16.6494 14.3155 16.5942 14.3155C16.539 14.3155 16.4942 14.3602 16.4942 14.4155C16.4942 14.4707 16.539 14.5155 16.5942 14.5155Z" fill="white"/>
<path d="M16.3142 14.7821C16.3694 14.7821 16.4142 14.7374 16.4142 14.6821C16.4142 14.6269 16.3694 14.5821 16.3142 14.5821C16.2589 14.5821 16.2142 14.6269 16.2142 14.6821C16.2142 14.7374 16.2589 14.7821 16.3142 14.7821Z" fill="white"/>
<path d="M16.0409 15.0621C16.0961 15.0621 16.1409 15.0174 16.1409 14.9621C16.1409 14.9069 16.0961 14.8621 16.0409 14.8621C15.9856 14.8621 15.9409 14.9069 15.9409 14.9621C15.9409 15.0174 15.9856 15.0621 16.0409 15.0621Z" fill="white"/>
<path d="M16.5942 15.0621C16.6494 15.0621 16.6942 15.0174 16.6942 14.9621C16.6942 14.9069 16.6494 14.8621 16.5942 14.8621C16.539 14.8621 16.4942 14.9069 16.4942 14.9621C16.4942 15.0174 16.539 15.0621 16.5942 15.0621Z" fill="white"/>
<path d="M18.5809 14.8621C18.5797 15.0028 18.6321 15.1387 18.7276 15.2421C18.7721 15.2919 18.8265 15.3319 18.8873 15.3594C18.9482 15.387 19.0141 15.4015 19.0809 15.4021C19.2209 15.4021 19.3476 15.3355 19.4342 15.2421C19.5297 15.1387 19.5821 15.0028 19.5809 14.8621V14.1421H18.5809V14.8621Z" fill="#003399"/>
<path d="M18.8142 14.5155C18.8695 14.5155 18.9142 14.4707 18.9142 14.4155C18.9142 14.3602 18.8695 14.3155 18.8142 14.3155C18.759 14.3155 18.7142 14.3602 18.7142 14.4155C18.7142 14.4707 18.759 14.5155 18.8142 14.5155Z" fill="white"/>
<path d="M19.3676 14.5155C19.4228 14.5155 19.4676 14.4707 19.4676 14.4155C19.4676 14.3602 19.4228 14.3155 19.3676 14.3155C19.3123 14.3155 19.2676 14.3602 19.2676 14.4155C19.2676 14.4707 19.3123 14.5155 19.3676 14.5155Z" fill="white"/>
<path d="M19.0875 14.7821C19.1428 14.7821 19.1875 14.7374 19.1875 14.6821C19.1875 14.6269 19.1428 14.5821 19.0875 14.5821C19.0323 14.5821 18.9875 14.6269 18.9875 14.6821C18.9875 14.7374 19.0323 14.7821 19.0875 14.7821Z" fill="white"/>
<path d="M18.8142 15.0621C18.8695 15.0621 18.9142 15.0174 18.9142 14.9621C18.9142 14.9069 18.8695 14.8621 18.8142 14.8621C18.759 14.8621 18.7142 14.9069 18.7142 14.9621C18.7142 15.0174 18.759 15.0621 18.8142 15.0621Z" fill="white"/>
<path d="M19.3676 15.0621C19.4228 15.0621 19.4676 15.0174 19.4676 14.9621C19.4676 14.9069 19.4228 14.8621 19.3676 14.8621C19.3123 14.8621 19.2676 14.9069 19.2676 14.9621C19.2676 15.0174 19.3123 15.0621 19.3676 15.0621Z" fill="white"/>
<path d="M17.1942 16.5821C17.193 16.7228 17.2455 16.8587 17.3409 16.9621C17.3854 17.0119 17.4398 17.0519 17.5007 17.0794C17.5615 17.107 17.6275 17.1215 17.6942 17.1221C17.8342 17.1221 17.9609 17.0555 18.0476 16.9621C18.143 16.8587 18.1954 16.7228 18.1942 16.5821V15.8621H17.1942V16.5821Z" fill="#003399"/>
<path d="M17.4276 16.2355C17.4828 16.2355 17.5276 16.1907 17.5276 16.1355C17.5276 16.0802 17.4828 16.0355 17.4276 16.0355C17.3723 16.0355 17.3276 16.0802 17.3276 16.1355C17.3276 16.1907 17.3723 16.2355 17.4276 16.2355Z" fill="white"/>
<path d="M17.9809 16.2355C18.0361 16.2355 18.0809 16.1907 18.0809 16.1355C18.0809 16.0802 18.0361 16.0355 17.9809 16.0355C17.9257 16.0355 17.8809 16.0802 17.8809 16.1355C17.8809 16.1907 17.9257 16.2355 17.9809 16.2355Z" fill="white"/>
<path d="M17.7009 16.5021C17.7561 16.5021 17.8009 16.4574 17.8009 16.4021C17.8009 16.3469 17.7561 16.3021 17.7009 16.3021C17.6457 16.3021 17.6009 16.3469 17.6009 16.4021C17.6009 16.4574 17.6457 16.5021 17.7009 16.5021Z" fill="white"/>
<path d="M17.4276 16.7821C17.4828 16.7821 17.5276 16.7374 17.5276 16.6821C17.5276 16.6269 17.4828 16.5821 17.4276 16.5821C17.3723 16.5821 17.3276 16.6269 17.3276 16.6821C17.3276 16.7374 17.3723 16.7821 17.4276 16.7821Z" fill="white"/>
<path d="M17.9809 16.7821C18.0361 16.7821 18.0809 16.7374 18.0809 16.6821C18.0809 16.6269 18.0361 16.5821 17.9809 16.5821C17.9257 16.5821 17.8809 16.6269 17.8809 16.6821C17.8809 16.7374 17.9257 16.7821 17.9809 16.7821Z" fill="white"/>
</g>
<defs>
<clipPath id="clip0_1_248">
<rect width="44" height="30" fill="white"/>
</clipPath>
</defs>
</svg>
