<svg width="44" height="30" viewBox="0 0 44 30" fill="none" xmlns="http://www.w3.org/2000/svg">
<g clip-path="url(#clip0_1_3429)">
<path fill-rule="evenodd" clip-rule="evenodd" d="M0 15H44V30H0V15Z" fill="#19B6EF"/>
<path fill-rule="evenodd" clip-rule="evenodd" d="M0 0H44V15H0V0Z" fill="white"/>
<path fill-rule="evenodd" clip-rule="evenodd" d="M21.7937 21.2C25.41 18.75 29.2875 13.75 24.7431 11.1125C23.8975 10.9625 22.9556 11.0062 22.495 11.3375C22.2544 11.2125 22.0619 11.225 21.8212 11.4562C21.6494 11.2687 21.4775 11.1812 21.1337 11.275C20.8047 11.1142 20.4436 11.0148 20.0717 10.9826C19.6998 10.9504 19.3246 10.9861 18.9681 11.0875C14.9875 13.2375 17.4212 18.375 21.7937 21.1937V21.2Z" fill="#FFDD00" stroke="#7D6C00" stroke-width="0.05"/>
<path fill-rule="evenodd" clip-rule="evenodd" d="M28.4625 15.6312C28.4625 15.6312 28.875 15.1312 28.8887 15.1312C29.2944 14.9187 29.3356 14.6375 29.3356 14.6375C29.7412 14.525 29.6106 14.2187 29.645 14.1812C29.7084 14.1247 29.7516 14.0521 29.7687 13.9729C29.7859 13.8937 29.7763 13.8116 29.7412 13.7375C29.7412 13.6875 29.8787 13.2125 29.6862 13.15C29.6931 12.65 29.3562 12.6937 29.0812 13.025C28.7925 13.1 28.7306 13.3187 28.8337 13.5562C28.4556 13.5562 28.4419 14.0562 28.5519 14.3312C28.05 14.3187 28.325 14.8312 28.3112 14.8562C28.1462 14.9312 28.4419 15.6562 28.4694 15.6312H28.4625ZM25.3 19.8937L25.5475 20.0312C25.6025 20.2062 25.7812 20.3187 25.9119 20.2875C25.9806 20.5562 26.2969 20.5187 26.5306 20.3625C26.7162 20.6125 26.9431 20.6125 27.2594 20.5312C27.5344 20.7187 27.8987 20.6375 28.1394 20.4437C28.3937 20.6312 28.5656 20.4937 28.6962 20.2875C28.9025 20.3375 29.0537 20.3062 29.1294 20.125C29.5212 20.0937 29.3287 19.7562 29.0056 19.6125C29.26 19.4125 29.5487 18.9875 29.1431 18.925C29.0194 18.8437 28.7787 18.8625 28.6 18.9375C28.5519 18.75 28.27 18.7062 27.9537 18.9125C27.8506 18.7062 27.4725 18.8062 27.3006 18.95C27.0737 18.775 26.8056 18.775 26.4137 18.975L25.3 19.8937ZM25.3 19.35C25.3412 19.1125 25.1625 18.6875 25.4375 18.65C25.3894 18.2562 25.4581 17.8187 25.9531 17.8562C26.0356 17.4875 26.0219 17.1437 26.4894 17.0937C26.4894 17.0937 26.8675 15.9 27.2594 16.725C27.4106 16.9687 27.3831 17.3625 27.0737 17.2875C27.1356 17.5812 27.0256 17.8437 26.6681 17.8312C26.8262 18.0437 26.7781 18.325 26.5994 18.4562L25.2931 19.35H25.3ZM27.5756 17.8562L27.9881 17.7812C28.4006 17.5312 28.5725 17.425 28.7787 17.7062C29.1294 17.6437 29.4662 17.6687 29.4525 17.9187C29.865 17.95 29.865 18.1875 29.8169 18.3812C29.8856 18.7125 29.7206 19.15 29.4731 18.6187C28.655 18.1687 28.1944 18.2312 26.9087 18.4937L27.5756 17.8562ZM27.7887 17.4875C27.8025 17.475 28.9919 17.1937 28.8681 16.8625C29.205 16.8125 29.2737 16.5062 29.2806 16.5062C29.9887 16.3062 29.9475 15.9375 29.9475 15.9375C30.1469 15.7437 30.4975 15.5437 30.4219 15.2C30.4425 14.8062 30.4837 14.5625 29.8994 14.8187C29.4662 14.7812 29.315 15.0062 29.1912 15.35C28.985 15.1312 28.655 15.4812 28.6137 15.7937C28.6137 15.7937 28.0844 16.2687 28.0844 16.2812L27.6375 17.0312L27.7887 17.4875Z" fill="#4FD46B" stroke="#3A9D4F" stroke-width="0.05" stroke-linejoin="round"/>
<path fill-rule="evenodd" clip-rule="evenodd" d="M27.8093 16.65C27.5275 16.4562 27.3693 16.2187 27.4175 15.9875C27.2318 15.7562 27.1012 15.6187 27.28 15.4125L27.1425 14.9437C26.7712 14.8187 26.9293 14.5375 27.0256 14.4375C26.8537 14.2187 26.8468 13.9875 27.0118 13.7875C27.0118 13.3812 27.3281 13.5375 27.5825 13.7875C27.5825 13.7875 28.0225 14.0687 27.6993 14.3187C28.0225 14.425 28.1118 14.675 27.9331 14.7812C28.215 14.8937 28.2562 15.125 28.105 15.2812C28.3868 15.4812 28.2837 15.7437 28.3662 15.975L27.8093 16.65Z" fill="#4FD46B" stroke="#3A9D4F" stroke-width="0.05" stroke-linejoin="round"/>
<path fill-rule="evenodd" clip-rule="evenodd" d="M28.3113 14.75C28.2975 14.7438 27.8369 14.2063 27.9675 14.1688C27.9331 14.0063 27.7956 13.825 27.8781 13.6625C27.6513 13.45 27.6444 13.2063 27.8231 13.0125C27.6719 12.825 27.7406 12.5688 27.9469 12.4C27.8781 12.0875 28.1256 12.0125 28.3388 11.9563C28.4969 11.4563 28.7513 11.5813 28.9025 11.9688C29.1225 12.1438 29.0881 12.4063 29.0125 12.6063C29.2738 12.7625 29.1156 12.9625 28.9988 13.0438L28.3113 14.7563V14.75Z" fill="#4FD46B" stroke="#3A9D4F" stroke-width="0.05" stroke-linejoin="round"/>
<path fill-rule="evenodd" clip-rule="evenodd" d="M28.2425 12.0687L27.8506 11.7125C27.9537 11.525 28.0362 11.1937 27.7406 11.0375C27.5756 10.6812 26.7644 10.2312 26.6337 11.0875C26.51 10.8312 26.2487 10.575 26.0631 10.875C25.6369 10.5437 25.41 10.6437 25.63 11.0625C25.63 11.0625 25.4306 11.3437 25.9462 11.5625C25.9875 11.6 25.7812 12.0687 26.4 12.0812C26.2831 12.2437 26.4687 12.4687 26.7162 12.4562C26.5444 12.65 26.84 12.8625 27.0256 12.7812C26.95 13 26.9569 13.1062 27.2937 13.1375L27.6719 13.5312L27.9812 13.9125L28.2425 12.0687Z" fill="#4FD46B" stroke="#3A9D4F" stroke-width="0.05" stroke-linejoin="round"/>
<path d="M28.4831 15.4063C28.5037 15.3875 29.2394 13.8563 29.3356 13.3938M28.5587 12.6875C28.5587 12.6875 28.6825 13.9375 28.3456 14.85M26.3037 11.4313C26.3037 11.4313 27.8094 12.7438 27.9537 13.2875M27.3556 11.2875C27.3556 11.2875 27.4519 12.3688 27.8712 13.4313M30.0025 15.2063C30.0025 15.2063 28.5037 16.3625 27.775 17.375M28.5862 19.25C28.5862 19.25 26.6062 19.5 25.74 19.5188M27.94 20.0188C27.94 20.0188 25.4787 19.9688 25.3 19.8063M26.7094 17.1188C26.7094 17.1438 25.4581 19.0125 25.4169 19.6188" stroke="#3A9D4F" stroke-width="0.05" stroke-linecap="round"/>
<path fill-rule="evenodd" clip-rule="evenodd" d="M21.7869 20.8375C19.1881 18.6125 16.5275 14.4375 19.1744 12.325C19.6419 12.5625 20.1988 12.35 20.9619 12.075C21.1956 12.3062 21.4913 12.3625 21.7869 12.1875C21.9084 12.2418 22.0462 12.2584 22.1791 12.2347C22.3119 12.211 22.4326 12.1483 22.5225 12.0562C23.2788 12.45 24.2344 12.6562 24.4613 12.2625C27.06 14.5125 24.42 18.7125 21.78 20.8437L21.7869 20.8375Z" fill="#65C7FF" stroke="#7D6C00" stroke-width="0.05"/>
<path fill-rule="evenodd" clip-rule="evenodd" d="M21.7937 20.775C20.6081 19.7326 19.6248 18.5155 18.8856 17.175C19.0231 17.0688 19.085 17.0375 19.1537 16.8625C19.5525 16.9125 19.7656 16.925 20.2881 16.8375C20.3981 17.2 20.4187 17.5 20.6662 17.8L21.1956 16.8625C21.5679 16.9482 21.9577 16.9482 22.33 16.8625C22.55 17.125 22.4675 17.5313 22.8594 17.8375C23.0931 17.2125 23.32 17.175 23.5537 16.8375C23.8975 16.95 24.1175 16.9 24.3994 16.8188C24.5369 16.975 24.4681 16.9688 24.7431 17.1938C24.0153 18.5432 23.0175 19.7576 21.8006 20.775H21.7937Z" fill="#8FC753"/>
<path fill-rule="evenodd" clip-rule="evenodd" d="M18.7413 10.2688C18.7471 10.2993 18.7455 10.3306 18.7366 10.3605C18.7277 10.3904 18.7118 10.4182 18.6898 10.4419C18.6679 10.4656 18.6405 10.4846 18.6096 10.4977C18.5787 10.5108 18.545 10.5176 18.511 10.5176C18.4769 10.5176 18.4432 10.5108 18.4123 10.4977C18.3814 10.4846 18.3541 10.4656 18.3321 10.4419C18.3102 10.4182 18.2942 10.3904 18.2853 10.3605C18.2764 10.3306 18.2748 10.2993 18.2807 10.2688C18.2807 10.2124 18.3053 10.1583 18.3491 10.1185C18.393 10.0786 18.4524 10.0563 18.5144 10.0563C18.5764 10.0563 18.6359 10.0786 18.6797 10.1185C18.7235 10.1583 18.7482 10.2124 18.7482 10.2688H18.7413ZM18.5007 9.78751C18.5092 9.81882 18.5098 9.85149 18.5024 9.88304C18.495 9.91458 18.4798 9.94419 18.4579 9.96959C18.436 9.995 18.4081 10.0156 18.3762 10.0297C18.3443 10.0438 18.3093 10.0512 18.2738 10.0512C18.2383 10.0512 18.2033 10.0438 18.1714 10.0297C18.1395 10.0156 18.1115 9.995 18.0897 9.96959C18.0678 9.94419 18.0526 9.91458 18.0452 9.88304C18.0378 9.85149 18.0384 9.81882 18.0469 9.78751C18.0563 9.73818 18.0846 9.69346 18.1267 9.66122C18.1688 9.62899 18.2221 9.61132 18.2772 9.61132C18.3323 9.61132 18.3856 9.62899 18.4277 9.66122C18.4699 9.69346 18.4981 9.73818 18.5075 9.78751H18.5007ZM18.2257 9.34376C18.2315 9.37428 18.2299 9.40559 18.221 9.4355C18.2121 9.46541 18.1961 9.49318 18.1742 9.51689C18.1523 9.54059 18.1249 9.55965 18.094 9.57272C18.0631 9.58579 18.0294 9.59257 17.9953 9.59257C17.9613 9.59257 17.9276 9.58579 17.8967 9.57272C17.8658 9.55965 17.8384 9.54059 17.8165 9.51689C17.7945 9.49318 17.7786 9.46541 17.7697 9.4355C17.7608 9.40559 17.7592 9.37428 17.765 9.34376C17.7744 9.29443 17.8027 9.24971 17.8448 9.21747C17.887 9.18524 17.9403 9.16757 17.9953 9.16757C18.0504 9.16757 18.1037 9.18524 18.1458 9.21747C18.188 9.24971 18.2162 9.29443 18.2257 9.34376ZM18.0332 8.90626C18.039 8.93678 18.0374 8.96809 18.0285 8.998C18.0196 9.02791 18.0036 9.05568 17.9817 9.07939C17.9597 9.10309 17.9324 9.12215 17.9015 9.13522C17.8706 9.14829 17.8369 9.15507 17.8028 9.15507C17.7688 9.15507 17.7351 9.14829 17.7042 9.13522C17.6733 9.12215 17.6459 9.10309 17.624 9.07939C17.602 9.05568 17.5861 9.02791 17.5772 8.998C17.5683 8.96809 17.5667 8.93678 17.5725 8.90626C17.5819 8.85693 17.6102 8.81221 17.6523 8.77997C17.6945 8.74774 17.7478 8.73007 17.8028 8.73007C17.8579 8.73007 17.9112 8.74774 17.9533 8.77997C17.9955 8.81221 18.0237 8.85693 18.0332 8.90626ZM18.0675 8.43126C18.0734 8.46178 18.0718 8.49309 18.0629 8.523C18.054 8.55291 18.038 8.58068 18.0161 8.60439C17.9941 8.62809 17.9667 8.64715 17.9359 8.66022C17.905 8.67329 17.8713 8.68007 17.8372 8.68007C17.8031 8.68007 17.7695 8.67329 17.7386 8.66022C17.7077 8.64715 17.6803 8.62809 17.6584 8.60439C17.6364 8.58068 17.6204 8.55291 17.6116 8.523C17.6027 8.49309 17.6011 8.46178 17.6069 8.43126C17.6163 8.38193 17.6446 8.33721 17.6867 8.30497C17.7288 8.27274 17.7821 8.25507 17.8372 8.25507C17.8923 8.25507 17.9456 8.27274 17.9877 8.30497C18.0299 8.33721 18.0581 8.38193 18.0675 8.43126ZM19.2775 7.65001C19.2834 7.68053 19.2818 7.71184 19.2729 7.74175C19.264 7.77166 19.248 7.79943 19.2261 7.82314C19.2041 7.84684 19.1767 7.8659 19.1459 7.87897C19.115 7.89204 19.0813 7.89882 19.0472 7.89882C19.0131 7.89882 18.9795 7.89204 18.9486 7.87897C18.9177 7.8659 18.8903 7.84684 18.8684 7.82314C18.8464 7.79943 18.8304 7.77166 18.8216 7.74175C18.8127 7.71184 18.8111 7.68053 18.8169 7.65001C18.8263 7.60068 18.8546 7.55596 18.8967 7.52372C18.9388 7.49149 18.9921 7.47382 19.0472 7.47382C19.1023 7.47382 19.1556 7.49149 19.1977 7.52372C19.2399 7.55596 19.2681 7.60068 19.2775 7.65001Z" fill="white" stroke="black" stroke-width="0.05"/>
<path fill-rule="evenodd" clip-rule="evenodd" d="M18.8237 7.725C18.8295 7.75552 18.828 7.78683 18.8191 7.81674C18.8102 7.84664 18.7942 7.87442 18.7723 7.89813C18.7503 7.92183 18.7229 7.94089 18.6921 7.95396C18.6612 7.96703 18.6275 7.9738 18.5934 7.9738C18.5593 7.9738 18.5257 7.96703 18.4948 7.95396C18.4639 7.94089 18.4365 7.92183 18.4146 7.89813C18.3926 7.87442 18.3766 7.84664 18.3678 7.81674C18.3589 7.78683 18.3573 7.75552 18.3631 7.725C18.3725 7.67567 18.4008 7.63095 18.4429 7.59871C18.485 7.56648 18.5383 7.5488 18.5934 7.5488C18.6485 7.5488 18.7018 7.56648 18.7439 7.59871C18.7861 7.63095 18.8143 7.67567 18.8237 7.725ZM18.3219 7.99375C18.3277 8.02427 18.3261 8.05558 18.3172 8.08549C18.3083 8.1154 18.2923 8.14317 18.2704 8.16688C18.2484 8.19058 18.2211 8.20964 18.1902 8.22271C18.1593 8.23578 18.1256 8.24255 18.0915 8.24255C18.0575 8.24255 18.0238 8.23578 17.9929 8.22271C17.962 8.20964 17.9346 8.19058 17.9127 8.16688C17.8907 8.14317 17.8748 8.1154 17.8659 8.08549C17.857 8.05558 17.8554 8.02427 17.8612 7.99375C17.8706 7.94442 17.8989 7.8997 17.941 7.86746C17.9832 7.83523 18.0365 7.81755 18.0915 7.81755C18.1466 7.81755 18.1999 7.83523 18.242 7.86746C18.2842 7.8997 18.3124 7.94442 18.3219 7.99375ZM19.8619 7.65625C19.8704 7.68756 19.871 7.72022 19.8636 7.75177C19.8562 7.78332 19.8409 7.81292 19.8191 7.83833C19.7972 7.86374 19.7693 7.88429 19.7374 7.89843C19.7055 7.91256 19.6705 7.9199 19.635 7.9199C19.5995 7.9199 19.5645 7.91256 19.5326 7.89843C19.5007 7.88429 19.4727 7.86374 19.4509 7.83833C19.429 7.81292 19.4138 7.78332 19.4064 7.75177C19.399 7.72022 19.3996 7.68756 19.4081 7.65625C19.4207 7.61018 19.4498 7.56927 19.491 7.54003C19.5321 7.51079 19.5828 7.4949 19.635 7.4949C19.6872 7.4949 19.7379 7.51079 19.779 7.54003C19.8201 7.56927 19.8493 7.61018 19.8619 7.65625ZM20.5081 7.70625C20.5139 7.73677 20.5123 7.76808 20.5034 7.79799C20.4946 7.82789 20.4786 7.85567 20.4566 7.87938C20.4347 7.90308 20.4073 7.92214 20.3764 7.93521C20.3455 7.94828 20.3119 7.95505 20.2778 7.95505C20.2437 7.95505 20.21 7.94828 20.1791 7.93521C20.1483 7.92214 20.1209 7.90308 20.0989 7.87938C20.077 7.85567 20.061 7.82789 20.0521 7.79799C20.0432 7.76808 20.0417 7.73677 20.0475 7.70625C20.0569 7.65692 20.0851 7.6122 20.1273 7.57996C20.1694 7.54773 20.2227 7.53005 20.2778 7.53005C20.3329 7.53005 20.3862 7.54773 20.4283 7.57996C20.4704 7.6122 20.4987 7.65692 20.5081 7.70625ZM21.0719 7.675C21.0804 7.70631 21.081 7.73898 21.0736 7.77052C21.0662 7.80207 21.0509 7.83167 21.0291 7.85708C21.0072 7.88249 20.9793 7.90304 20.9474 7.91718C20.9155 7.93131 20.8805 7.93865 20.845 7.93865C20.8095 7.93865 20.7745 7.93131 20.7426 7.91718C20.7107 7.90304 20.6827 7.88249 20.6609 7.85708C20.639 7.83167 20.6238 7.80207 20.6164 7.77052C20.609 7.73898 20.6096 7.70631 20.6181 7.675C20.6275 7.62567 20.6558 7.58095 20.6979 7.54871C20.74 7.51648 20.7933 7.4988 20.8484 7.4988C20.9035 7.4988 20.9568 7.51648 20.9989 7.54871C21.0411 7.58095 21.0693 7.62567 21.0787 7.675H21.0719Z" fill="white" stroke="black" stroke-width="0.05"/>
<path fill-rule="evenodd" clip-rule="evenodd" d="M22.4056 7.34374C22.4056 7.4863 22.3434 7.62301 22.2325 7.72381C22.1216 7.82461 21.9712 7.88124 21.8144 7.88124C21.6576 7.88124 21.5072 7.82461 21.3963 7.72381C21.2854 7.62301 21.2231 7.4863 21.2231 7.34374C21.2231 7.20119 21.2854 7.06447 21.3963 6.96367C21.5072 6.86287 21.6576 6.80624 21.8144 6.80624C21.9712 6.80624 22.1216 6.86287 22.2325 6.96367C22.3434 7.06447 22.4056 7.20119 22.4056 7.34374Z" fill="#FFDD00" stroke="#7D6C00" stroke-width="0.05"/>
<path fill-rule="evenodd" clip-rule="evenodd" d="M23.0312 7.66874C23.0312 7.7251 23.0066 7.77915 22.9628 7.819C22.9189 7.85886 22.8595 7.88124 22.7975 7.88124C22.7355 7.88124 22.676 7.85886 22.6322 7.819C22.5883 7.77915 22.5637 7.7251 22.5637 7.66874C22.5731 7.61942 22.6014 7.5747 22.6435 7.54246C22.6857 7.51023 22.739 7.49255 22.794 7.49255C22.8491 7.49255 22.9024 7.51023 22.9445 7.54246C22.9867 7.5747 23.0149 7.61942 23.0243 7.66874H23.0312ZM23.6225 7.71249C23.631 7.74381 23.6316 7.77647 23.6242 7.80802C23.6168 7.83957 23.6016 7.86917 23.5797 7.89458C23.5578 7.91999 23.5299 7.94054 23.498 7.95467C23.4661 7.96881 23.4311 7.97615 23.3956 7.97615C23.3601 7.97615 23.3251 7.96881 23.2932 7.95467C23.2613 7.94054 23.2333 7.91999 23.2115 7.89458C23.1896 7.86917 23.1744 7.83957 23.167 7.80802C23.1596 7.77647 23.1602 7.74381 23.1687 7.71249C23.1781 7.66317 23.2064 7.61845 23.2485 7.58621C23.2907 7.55398 23.344 7.5363 23.399 7.5363C23.4541 7.5363 23.5074 7.55398 23.5495 7.58621C23.5917 7.61845 23.6199 7.66317 23.6293 7.71249H23.6225ZM24.2068 7.68749C24.2127 7.71802 24.2111 7.74933 24.2022 7.77924C24.1933 7.80914 24.1773 7.83692 24.1554 7.86063C24.1334 7.88433 24.1061 7.90338 24.0752 7.91646C24.0443 7.92953 24.0106 7.9363 23.9765 7.9363C23.9425 7.9363 23.9088 7.92953 23.8779 7.91646C23.847 7.90338 23.8196 7.88433 23.7977 7.86063C23.7757 7.83692 23.7598 7.80914 23.7509 7.77924C23.742 7.74933 23.7404 7.71802 23.7462 7.68749C23.7556 7.63817 23.7839 7.59345 23.826 7.56121C23.8682 7.52898 23.9215 7.5113 23.9765 7.5113C24.0316 7.5113 24.0849 7.52898 24.127 7.56121C24.1692 7.59345 24.1974 7.63817 24.2068 7.68749ZM24.695 7.66874C24.7008 7.69927 24.6992 7.73058 24.6903 7.76049C24.6814 7.79039 24.6654 7.81817 24.6435 7.84188C24.6216 7.86558 24.5942 7.88463 24.5633 7.89771C24.5324 7.91078 24.4987 7.91755 24.4647 7.91755C24.4306 7.91755 24.3969 7.91078 24.366 7.89771C24.3351 7.88463 24.3077 7.86558 24.2858 7.84188C24.2639 7.81817 24.2479 7.79039 24.239 7.76049C24.2301 7.73058 24.2285 7.69927 24.2343 7.66874C24.2438 7.61942 24.272 7.5747 24.3142 7.54246C24.3563 7.51023 24.4096 7.49255 24.4647 7.49255C24.5197 7.49255 24.573 7.51023 24.6152 7.54246C24.6573 7.5747 24.6856 7.61942 24.695 7.66874ZM25.3068 7.73124C25.3127 7.76177 25.3111 7.79308 25.3022 7.82299C25.2933 7.85289 25.2773 7.88067 25.2554 7.90438C25.2334 7.92808 25.2061 7.94713 25.1752 7.96021C25.1443 7.97328 25.1106 7.98005 25.0765 7.98005C25.0425 7.98005 25.0088 7.97328 24.9779 7.96021C24.947 7.94713 24.9196 7.92808 24.8977 7.90438C24.8757 7.88067 24.8598 7.85289 24.8509 7.82299C24.842 7.79308 24.8404 7.76177 24.8462 7.73124C24.8556 7.68192 24.8839 7.6372 24.926 7.60496C24.9682 7.57273 25.0215 7.55505 25.0765 7.55505C25.1316 7.55505 25.1849 7.57273 25.227 7.60496C25.2692 7.6372 25.2974 7.68192 25.3068 7.73124ZM25.7881 8.00624C25.7939 8.03677 25.7923 8.06808 25.7834 8.09799C25.7745 8.12789 25.7586 8.15567 25.7366 8.17938C25.7147 8.20308 25.6873 8.22213 25.6564 8.23521C25.6255 8.24828 25.5919 8.25505 25.5578 8.25505C25.5237 8.25505 25.49 8.24828 25.4591 8.23521C25.4282 8.22213 25.4009 8.20308 25.3789 8.17938C25.357 8.15567 25.341 8.12789 25.3321 8.09799C25.3232 8.06808 25.3216 8.03677 25.3275 8.00624C25.3369 7.95692 25.3651 7.9122 25.4073 7.87996C25.4494 7.84773 25.5027 7.83005 25.5578 7.83005C25.6129 7.83005 25.6662 7.84773 25.7083 7.87996C25.7504 7.9122 25.7787 7.95692 25.7881 8.00624Z" fill="white" stroke="black" stroke-width="0.05"/>
<path fill-rule="evenodd" clip-rule="evenodd" d="M18.5212 9.48125L19.1125 10.5125H24.5575L25.19 9.51875C24.8187 9.2875 24.5712 9.1125 24.0419 9.21875C23.7462 8.83125 23.4231 8.7625 22.9419 8.8C22.7975 8.66875 22.6669 8.5875 22.4194 8.55L21.2781 8.58125C20.9756 8.60625 20.7419 8.81875 20.7281 8.81875C20.2469 8.7625 19.8 8.775 19.6831 9.20625C19.2362 9.10625 18.9269 9.21875 18.5212 9.48125Z" fill="#E40000" stroke="#AC0000" stroke-width="0.05"/>
<path fill-rule="evenodd" clip-rule="evenodd" d="M25.9875 8.45625C25.9933 8.48678 25.9918 8.51809 25.9829 8.54799C25.974 8.5779 25.958 8.60568 25.9361 8.62938C25.9141 8.65309 25.8867 8.67214 25.8558 8.68521C25.825 8.69829 25.7913 8.70506 25.7572 8.70506C25.7231 8.70506 25.6895 8.69829 25.6586 8.68521C25.6277 8.67214 25.6003 8.65309 25.5784 8.62938C25.5564 8.60568 25.5404 8.5779 25.5316 8.54799C25.5227 8.51809 25.5211 8.48678 25.5269 8.45625C25.5363 8.40692 25.5646 8.3622 25.6067 8.32997C25.6488 8.29773 25.7021 8.28006 25.7572 8.28006C25.8123 8.28006 25.8656 8.29773 25.9077 8.32997C25.9498 8.3622 25.9781 8.40692 25.9875 8.45625ZM26.0288 8.95625C26.0346 8.98678 26.033 9.01809 26.0241 9.04799C26.0152 9.0779 25.9993 9.10568 25.9773 9.12938C25.9554 9.15309 25.928 9.17214 25.8971 9.18521C25.8662 9.19829 25.8325 9.20506 25.7985 9.20506C25.7644 9.20506 25.7307 9.19829 25.6998 9.18521C25.6689 9.17214 25.6415 9.15309 25.6196 9.12938C25.5977 9.10568 25.5817 9.0779 25.5728 9.04799C25.5639 9.01809 25.5623 8.98678 25.5681 8.95625C25.5776 8.90692 25.6058 8.8622 25.648 8.82997C25.6901 8.79773 25.7434 8.78006 25.7985 8.78006C25.8535 8.78006 25.9068 8.79773 25.949 8.82997C25.9911 8.8622 26.0194 8.90692 26.0288 8.95625ZM25.8569 9.40625C25.8627 9.43677 25.8611 9.46809 25.8522 9.49799C25.8434 9.5279 25.8274 9.55568 25.8054 9.57938C25.7835 9.60309 25.7561 9.62214 25.7252 9.63521C25.6943 9.64829 25.6607 9.65506 25.6266 9.65506C25.5925 9.65506 25.5588 9.64829 25.5279 9.63521C25.4971 9.62214 25.4697 9.60309 25.4477 9.57938C25.4258 9.55568 25.4098 9.5279 25.4009 9.49799C25.392 9.46809 25.3904 9.43677 25.3963 9.40625C25.4057 9.35692 25.4339 9.3122 25.4761 9.27997C25.5182 9.24773 25.5715 9.23006 25.6266 9.23006C25.6817 9.23006 25.735 9.24773 25.7771 9.27997C25.8192 9.3122 25.8475 9.35692 25.8569 9.40625ZM25.6506 9.78125C25.6506 9.83761 25.626 9.89166 25.5822 9.93151C25.5383 9.97136 25.4789 9.99375 25.4169 9.99375C25.3549 9.99375 25.2954 9.97136 25.2516 9.93151C25.2078 9.89166 25.1831 9.83761 25.1831 9.78125C25.1926 9.73192 25.2208 9.6872 25.263 9.65497C25.3051 9.62273 25.3584 9.60506 25.4135 9.60506C25.4685 9.60506 25.5218 9.62273 25.564 9.65497C25.6061 9.6872 25.6344 9.73192 25.6438 9.78125H25.6506ZM25.3963 10.25C25.4021 10.2805 25.4005 10.3118 25.3916 10.3417C25.3827 10.3717 25.3668 10.3994 25.3448 10.4231C25.3229 10.4468 25.2955 10.4659 25.2646 10.479C25.2337 10.492 25.2 10.4988 25.166 10.4988C25.1319 10.4988 25.0982 10.492 25.0673 10.479C25.0364 10.4659 25.0091 10.4468 24.9871 10.4231C24.9652 10.3994 24.9492 10.3717 24.9403 10.3417C24.9314 10.3118 24.9298 10.2805 24.9356 10.25C24.9451 10.2007 24.9733 10.156 25.0155 10.1237C25.0576 10.0915 25.1109 10.0738 25.166 10.0738C25.221 10.0738 25.2743 10.0915 25.3165 10.1237C25.3586 10.156 25.3869 10.2007 25.3963 10.25ZM22.1788 9.65C22.1788 9.73288 22.1426 9.81237 22.0781 9.87097C22.0136 9.92958 21.9262 9.9625 21.835 9.9625C21.7439 9.9625 21.6564 9.92958 21.592 9.87097C21.5275 9.81237 21.4913 9.73288 21.4913 9.65C21.4913 9.56712 21.5275 9.48764 21.592 9.42903C21.6564 9.37043 21.7439 9.3375 21.835 9.3375C21.9262 9.3375 22.0136 9.37043 22.0781 9.42903C22.1426 9.48764 22.1788 9.56712 22.1788 9.65Z" fill="white" stroke="black" stroke-width="0.05"/>
<path fill-rule="evenodd" clip-rule="evenodd" d="M22.2475 8.9375C22.2475 9.03696 22.204 9.13234 22.1267 9.20267C22.0493 9.27299 21.9444 9.3125 21.835 9.3125C21.7256 9.3125 21.6207 9.27299 21.5433 9.20267C21.4659 9.13234 21.4225 9.03696 21.4225 8.9375C21.4225 8.83804 21.4659 8.74266 21.5433 8.67233C21.6207 8.60201 21.7256 8.5625 21.835 8.5625C21.9444 8.5625 22.0493 8.60201 22.1267 8.67233C22.204 8.74266 22.2475 8.83804 22.2475 8.9375Z" fill="white" stroke="black" stroke-width="0.05"/>
<path fill-rule="evenodd" clip-rule="evenodd" d="M22.1856 8.25001C22.1856 8.33952 22.1465 8.42536 22.0769 8.48865C22.0073 8.55195 21.9128 8.58751 21.8144 8.58751C21.7159 8.58751 21.6215 8.55195 21.5519 8.48865C21.4822 8.42536 21.4431 8.33952 21.4431 8.25001C21.4431 8.1605 21.4822 8.07465 21.5519 8.01136C21.6215 7.94806 21.7159 7.91251 21.8144 7.91251C21.9128 7.91251 22.0073 7.94806 22.0769 8.01136C22.1465 8.07465 22.1856 8.1605 22.1856 8.25001Z" fill="white" stroke="black" stroke-width="0.05"/>
<path fill-rule="evenodd" clip-rule="evenodd" d="M21.6906 6.8125V6.55L21.4431 6.54375L21.4569 6.34375H21.6631V6.16875H21.9725V6.325H22.2131L22.2062 6.5375H21.9587V6.81875H21.6837L21.6906 6.8125Z" fill="#FFDD00" stroke="#7D6C00" stroke-width="0.05"/>
<path d="M19.085 10.5125C18.5969 9.76249 17.875 8.73749 18.3287 8.29374C18.9406 7.66249 20.3844 8.23124 21.3056 7.86874C21.3744 8.58124 21.1544 9.76874 21.505 10.0125L21.175 10.275C20.9687 10.0437 20.5975 9.72499 20.13 10.2875C19.855 10.075 19.5594 10.1125 19.415 10.3937C19.2775 10.4125 19.2844 10.4625 19.085 10.5125ZM24.585 10.4812C25.08 9.73124 25.795 8.71249 25.3481 8.26874C24.7294 7.63749 23.2856 8.20624 22.3712 7.83749C22.3025 8.55624 22.5225 9.74374 22.165 9.98749L22.495 10.25C22.8181 9.84374 23.21 9.83124 23.5469 10.2625C23.815 10.05 24.09 10.075 24.2619 10.3687C24.3994 10.3875 24.3856 10.4312 24.5919 10.4812H24.585Z" stroke="#FFDD00" stroke-width="0.05"/>
<path fill-rule="evenodd" clip-rule="evenodd" d="M19.0644 11.0688C20.8779 10.9185 22.7027 10.9185 24.5163 11.0688L24.7294 10.5063C22.825 10.1938 21.5119 10.1563 19.0231 10.4688L19.0644 11.0688Z" fill="#FFDD00" stroke="#7D6C00" stroke-width="0.05"/>
<path fill-rule="evenodd" clip-rule="evenodd" d="M21.5944 20.5875L21.6356 20.325C21.835 20.375 21.9794 20.3562 22.1444 20.3L22.3094 20.0687L22.1856 19.9375C22.0756 19.9562 21.9794 20.05 21.9106 20.1312C21.8006 20.1375 21.7044 20.0875 21.5944 20.0687L21.4913 19.6687C21.3881 19.5562 21.1681 19.5625 21.2163 19.7625L21.2369 19.9187C21.2781 20.0125 21.2988 20.1437 21.3675 20.2125V20.375L21.5944 20.5875ZM21.6769 19.4437C21.5394 19.5062 21.3606 19.3937 21.175 19.325C21.0031 19.3187 20.8725 19.45 20.6663 19.4062C20.7075 19.3062 20.7969 19.2875 20.8588 19.2312C20.8106 18.975 20.9619 18.8875 21.0031 18.8875C21.0444 18.8875 21.2163 18.925 21.2163 18.925L21.3813 18.9437C21.4844 19.1125 21.6219 19.2562 21.6769 19.4437Z" fill="#C76E2E"/>
<path fill-rule="evenodd" clip-rule="evenodd" d="M20.68 22.875C21.1613 22.1625 24.5438 20.725 27.72 17.6125C24.4888 20.4438 22.4675 21.1375 19.8275 22.8625L20.68 22.8813V22.875Z" fill="#FFE100" stroke="#E9BF00" stroke-width="0.05"/>
<path fill-rule="evenodd" clip-rule="evenodd" d="M25.3275 19.575C25.3275 19.6347 25.3014 19.6919 25.255 19.7341C25.2086 19.7763 25.1457 19.8 25.08 19.8C25.0144 19.8 24.9514 19.7763 24.905 19.7341C24.8586 19.6919 24.8325 19.6347 24.8325 19.575C24.8325 19.5153 24.8586 19.4581 24.905 19.4159C24.9514 19.3737 25.0144 19.35 25.08 19.35C25.1457 19.35 25.2086 19.3737 25.255 19.4159C25.3014 19.4581 25.3275 19.5153 25.3275 19.575ZM27.6925 17.3937C27.6925 17.4609 27.6632 17.5253 27.611 17.5727C27.5587 17.6202 27.4879 17.6469 27.4141 17.6469C27.3402 17.6469 27.2694 17.6202 27.2172 17.5727C27.165 17.5253 27.1356 17.4609 27.1356 17.3937C27.1356 17.3274 27.1646 17.2639 27.2162 17.217C27.2678 17.1701 27.3377 17.1437 27.4106 17.1437C27.4836 17.1437 27.5535 17.1701 27.6051 17.217C27.6567 17.2639 27.6856 17.3274 27.6856 17.3937H27.6925ZM28.4763 15.5437C28.4822 15.576 28.4804 15.6091 28.4709 15.6406C28.4614 15.6721 28.4444 15.7014 28.4212 15.7264C28.398 15.7514 28.369 15.7715 28.3364 15.7852C28.3037 15.799 28.2682 15.8061 28.2322 15.8061C28.1962 15.8061 28.1607 15.799 28.128 15.7852C28.0954 15.7715 28.0665 15.7514 28.0432 15.7264C28.02 15.7014 28.003 15.6721 27.9935 15.6406C27.984 15.6091 27.9822 15.576 27.9881 15.5437C27.9979 15.4913 28.0277 15.4437 28.0724 15.4093C28.1171 15.375 28.1737 15.3561 28.2322 15.3561C28.2907 15.3561 28.3473 15.375 28.392 15.4093C28.4367 15.4437 28.4666 15.4913 28.4763 15.5437ZM27.7063 13.1437C27.7122 13.176 27.7104 13.2091 27.7009 13.2406C27.6914 13.2721 27.6744 13.3014 27.6512 13.3264C27.628 13.3514 27.599 13.3714 27.5664 13.3852C27.5337 13.399 27.4982 13.4061 27.4622 13.4061C27.4262 13.4061 27.3907 13.399 27.358 13.3852C27.3254 13.3714 27.2965 13.3514 27.2732 13.3264C27.25 13.3014 27.233 13.2721 27.2235 13.2406C27.214 13.2091 27.2122 13.176 27.2181 13.1437C27.2279 13.0913 27.2577 13.0437 27.3024 13.0093C27.3471 12.975 27.4037 12.9561 27.4622 12.9561C27.5207 12.9561 27.5773 12.975 27.622 13.0093C27.6667 13.0437 27.6965 13.0913 27.7063 13.1437Z" fill="#9D4916" stroke="#68300E" stroke-width="0.05"/>
<path fill-rule="evenodd" clip-rule="evenodd" d="M19.1881 16.85V15.9L19.085 15.825V15.6L19.2775 15.5813L19.3119 14.5188L19.1881 14.4563L19.1744 14.2813C19.1744 14.2813 19.3119 14.3313 19.3119 14.3L19.3463 14.0875C19.3463 14.0875 19.2569 14.075 19.2569 14.0438C19.2569 14.0125 19.3669 13.9313 19.3669 13.9313C19.3669 13.9313 19.3119 13.8813 19.2981 13.85L19.2431 13.675L19.2981 13.4938L19.2638 13.4L19.1744 13.2563L19.2981 13.1438L19.2638 12.9688C19.287 12.9036 19.3218 12.8424 19.3669 12.7875C19.3875 12.775 19.525 12.6 19.525 12.6L19.8275 12.5375L20.1781 12.5813L20.3706 12.6938L20.405 12.9813C20.405 12.9813 20.3706 13.1563 20.3569 13.1563L20.1988 13.2188C20.1988 13.2188 20.02 13.2375 19.9994 13.2188C19.9788 13.2 20.0544 13.4188 20.0544 13.4188V13.6063L20.0406 13.85C20.0406 13.85 20.0406 13.9625 20.02 13.975C19.9994 13.9875 19.965 14.0375 19.965 14.0375L19.9513 14.2875L20.2263 14.35L20.2125 14.4938L20.02 14.5063L20.0544 15.4875L20.3363 15.5313V15.8063L20.2125 15.8688L20.1781 16.85H19.1881ZM23.4781 16.8688V15.9188L23.375 15.8375V15.6125L23.5675 15.6L23.6019 14.5375L23.4781 14.475L23.4644 14.3C23.4644 14.3 23.6019 14.3438 23.6019 14.3125L23.6363 14.1063C23.6363 14.1063 23.5469 14.0875 23.5469 14.0563C23.5469 14.025 23.6569 13.9438 23.6569 13.9438C23.6569 13.9438 23.6019 13.9 23.5881 13.8625L23.5331 13.6875L23.5881 13.5125L23.5469 13.4188L23.4644 13.275L23.5881 13.1625L23.5469 12.9813C23.5729 12.9179 23.6101 12.8588 23.6569 12.8063L23.815 12.6188L24.1175 12.55L24.4681 12.6L24.6606 12.7125L24.695 13C24.695 13 24.6606 13.175 24.6469 13.175L24.4888 13.2375C24.4888 13.2375 24.31 13.2563 24.2894 13.2375C24.2688 13.2188 24.3444 13.4313 24.3444 13.4313V13.625L24.3238 13.8688C24.3238 13.8688 24.3238 13.975 24.31 13.9938L24.255 14.0563L24.2413 14.3L24.5163 14.3625L24.5025 14.5063L24.31 14.525L24.3444 15.5L24.6263 15.55V15.825L24.5025 15.8875L24.4681 16.8688H23.4781ZM21.3056 16.9V15.95L21.2025 15.875V15.6438L21.395 15.6313L21.4294 14.5688L21.3056 14.5063L21.2919 14.3313C21.2919 14.3313 21.4294 14.3813 21.4294 14.35L21.4638 14.1375C21.4638 14.1375 21.3813 14.125 21.3813 14.0938C21.3813 14.0625 21.4844 13.975 21.4844 13.975C21.4844 13.975 21.4294 13.9313 21.4156 13.9L21.3606 13.7188L21.4156 13.5438L21.3813 13.45L21.2919 13.3063L21.4156 13.1938L21.3813 13.0125C21.404 12.9491 21.4389 12.8898 21.4844 12.8375C21.505 12.825 21.6425 12.65 21.6425 12.65L21.945 12.5875L22.2956 12.6313L22.4881 12.7438L22.5294 13.0313C22.5294 13.0313 22.4881 13.2063 22.4744 13.2063L22.3163 13.2688C22.3163 13.2688 22.1375 13.2875 22.1238 13.2688C22.11 13.25 22.1719 13.4625 22.1719 13.4625V13.6563L22.1581 13.9C22.1581 13.9 22.1581 14.0125 22.1375 14.025L22.0825 14.0875L22.0688 14.3313L22.3438 14.3938L22.33 14.5375L22.1375 14.5563L22.1719 15.5375L22.4538 15.5813V15.8563L22.33 15.9188L22.2956 16.9H21.3125H21.3056Z" fill="white" stroke="#A9A9A9" stroke-width="0.05"/>
<path fill-rule="evenodd" clip-rule="evenodd" d="M19.4563 16.8437V16.0937H19.91V16.875L19.4494 16.8437H19.4563ZM21.615 16.9062L21.6357 16.1437H22.0482V16.8875L21.615 16.9V16.9062ZM23.7463 16.8875L23.7188 16.1687L24.1657 16.1562V16.9062L23.7532 16.8875H23.7463ZM19.5663 14.6375H19.8275V15.0187H19.5663V14.6375ZM21.6494 14.65H22.0138V15.025H21.6494V14.65ZM23.7807 14.6812H24.0969V15.0375H23.7875L23.7807 14.6812Z" fill="black"/>
<path d="M19.7037 12.9375C19.9787 13.225 19.9994 13.225 19.9994 13.225M21.8006 12.9375C21.8556 13.0312 21.9381 13.2375 22.0481 13.2563M24.0625 12.9812C24.0625 12.9812 24.1519 13.2063 24.2687 13.2375" stroke="#A8A8A8" stroke-width="0.05"/>
<path fill-rule="evenodd" clip-rule="evenodd" d="M19.4013 12.125C20.2263 11.8812 19.2088 11.4 19.0369 12.125C18.7756 12.1687 18.7413 12.3438 18.1638 12.2688C16.7613 14.3312 17.7994 17.675 21.8831 21.1313C14.5681 15.4688 17.5381 11.2813 19.5663 11.4438C20.6663 11.5063 20.1163 12.7563 19.4013 12.1313V12.125Z" fill="#B97700"/>
<path d="M19.635 11.0625C19.635 11.0625 20.3019 11.2313 20.3019 11.4875M20.3019 11.0188C20.3019 11.0188 20.7694 11.2063 20.8725 11.3688M23.9731 11.0875C23.9731 11.0875 23.3819 11.1625 23.2513 11.325M23.0725 11.1375C23.0725 11.1375 22.7288 11.3938 22.7631 11.4688M22.9969 12.2625C22.9419 12.2438 22.7081 11.9563 22.7631 11.6063M20.7144 12.075C20.7144 12.075 20.8725 11.9125 20.8725 11.6063M21.8006 11.4875L21.8281 12.175M22.4744 12.075C22.4744 12.0313 22.6806 11.5813 22.4469 11.3688M21.0513 11.275C21.0513 11.275 20.8725 11.725 21.0031 12.1M22.3781 11.675C22.3781 11.675 22.0894 11.75 21.9656 11.8625M21.1544 11.7438C21.1544 11.725 21.4706 11.6813 21.5669 11.8438" stroke="#7D6C00" stroke-width="0.05"/>
<path fill-rule="evenodd" clip-rule="evenodd" d="M20.6663 18.8688C20.68 18.8688 20.9275 18.825 20.9275 18.7188C21.0513 18.6438 20.9619 18.4375 20.9619 18.4375L20.7281 18.4L20.4119 18.075C20.3981 17.975 20.4325 17.8813 20.3638 17.775C20.1438 17.825 20.02 17.9938 19.9513 18.1813C19.9994 18.2438 20.0063 18.3063 20.1094 18.3625C20.2125 18.375 20.2813 18.3188 20.3775 18.3375C20.4256 18.4188 20.4119 18.4875 20.4325 18.5625C20.5631 18.6438 20.5906 18.7625 20.6663 18.8688ZM20.3844 17.4813V17.0938L20.0819 17.0813C20.0406 17.1438 19.9719 17.1688 19.9306 17.2188L19.7175 17.3188C19.8069 17.4125 19.9169 17.4688 19.9788 17.5188C20.1369 17.5563 20.2606 17.5563 20.3844 17.4813ZM19.4356 18.05L19.2706 17.8C19.3776 17.7731 19.4914 17.7798 19.5938 17.8188C19.5938 17.8188 19.6625 17.975 19.6144 18.0313C19.5869 18.0875 19.4288 18.0625 19.4356 18.05ZM21.945 18.3063C21.992 18.288 22.0334 18.2598 22.0657 18.2239C22.098 18.1879 22.1203 18.1455 22.1306 18.1L21.8213 17.7813L21.5463 17.775C21.4775 17.7125 21.3813 17.7 21.2988 17.7C21.2988 17.7 21.3813 17.825 21.4913 17.8438C21.5738 18.0063 21.9175 18.3063 21.945 18.3063ZM22.2406 18.3438C22.2406 18.3375 22.5156 18.2563 22.6531 18.2625C22.6463 18.1625 22.8594 17.9313 22.8594 17.9313L23.2444 18.3875C23.1756 18.4375 23.0519 18.425 22.9556 18.4375C22.9556 18.4375 22.77 18.6 22.7494 18.6063C22.7288 18.6125 22.3919 18.6875 22.2269 18.5938C22.1581 18.4688 22.2475 18.325 22.2406 18.3438ZM22.4606 17.5438C22.5088 17.3885 22.5088 17.2241 22.4606 17.0688H22.0206L21.7319 17.1938C21.7319 17.1938 21.8213 17.4563 21.9381 17.4313C21.9863 17.5625 22.1375 17.5313 22.2131 17.5813L22.4606 17.5438ZM24.1725 17.1438C24.1038 17.3125 24.0763 17.4875 24.1588 17.6438C24.2413 17.6625 24.3375 17.7063 24.4063 17.6938L24.7569 17.1188C24.5163 17.05 24.3169 17.0563 24.1656 17.1438H24.1725Z" fill="#C76E2E"/>
<path fill-rule="evenodd" clip-rule="evenodd" d="M24.2756 12.075C23.4506 11.8313 24.4681 11.3438 24.64 12.075C24.9081 12.1125 24.9425 12.2938 25.52 12.2188C26.9156 14.2813 25.8775 17.625 21.7938 21.0813C29.1156 15.4188 26.1388 11.2313 24.1106 11.3875C23.0106 11.45 23.5606 12.7 24.2756 12.075Z" fill="#B97700"/>
<path fill-rule="evenodd" clip-rule="evenodd" d="M24.3581 17.7937C24.3444 17.7937 24.1519 17.9187 24.1519 17.9187L23.8631 18.025L23.5606 18.0312L23.4919 17.8437L23.7256 17.6562C23.5331 17.625 23.3338 17.7 23.1756 17.8312C23.1756 17.8312 23.1756 18.0375 23.3131 18.1437C23.3888 18.2312 23.6225 18.3937 23.6225 18.3937C23.6858 18.4066 23.7514 18.4077 23.8152 18.397C23.879 18.3862 23.9397 18.3639 23.9938 18.3312L24.3581 17.7937ZM22.7631 19.675C22.8594 19.7 23.54 18.8812 23.54 18.8812C23.4785 18.7342 23.3582 18.6137 23.2031 18.5437C23.2031 18.5437 22.8731 18.9 22.8663 19.0187C22.8113 19.125 22.66 19.5375 22.7288 19.5937C22.7219 19.6062 22.6944 19.775 22.7631 19.675Z" fill="#C76E2E"/>
<path fill-rule="evenodd" clip-rule="evenodd" d="M18.315 19.8375C17.2975 19.0312 15.9225 18.5875 14.0044 19.1937C14.52 19.3937 15.0769 19.4625 15.5513 19.6875L18.315 19.8375Z" fill="#006800" stroke="#004100" stroke-width="0.05" stroke-linejoin="round"/>
<path d="M15.3588 19.2688C17.3731 19.3063 17.9575 19.7625 17.8544 19.6875" stroke="#00A400" stroke-width="0.05" stroke-linecap="round"/>
<path fill-rule="evenodd" clip-rule="evenodd" d="M18.3562 19.9375C17.7512 20.0375 16.9262 20.5625 16.6787 20.5438C16.0256 20.475 15.4069 20.2313 14.7744 20.0438C14.5131 19.9688 14.245 20.0438 13.9769 20.0438C16.2319 19.075 17.0019 19.2063 18.3562 19.9313V19.9375Z" fill="#006800" stroke="#004100" stroke-width="0.05" stroke-linejoin="round"/>
<path fill-rule="evenodd" clip-rule="evenodd" d="M16.8712 18.5C16.8712 18.5 16.115 18.6 15.7781 18.6187C15.4481 18.6 14.9531 18.3187 14.4169 17.8062C14.1419 17.5187 13.4956 17.5562 13.4956 17.5562C14.9119 17.2812 16.0187 17.5438 16.8644 18.5063L16.8712 18.5ZM15.84 17.175C14.8156 17.1125 13.5369 16.2813 13.2481 15.2875C13.2481 15.3 13.6262 15.5062 13.5644 15.5562C15.2419 15.9437 15.3519 16.2562 15.84 17.175ZM17.5587 18.7687C17.7031 17.925 17.7444 17.3687 17.3112 16.8687C16.9469 16.4937 16.8575 16.2625 16.5962 15.725C16.5206 16.8375 16.2525 17.7562 17.5587 18.7687ZM15.95 16.4375C16.7062 15.4312 16.8437 14.6688 16.72 13.4688C16.6994 13.5625 16.445 14.1562 16.4312 14.1562C15.2969 14.8 15.7987 15.8125 15.95 16.4375Z" fill="#006800" stroke="#004100" stroke-width="0.05" stroke-linejoin="round"/>
<path fill-rule="evenodd" clip-rule="evenodd" d="M15.2763 11.5625C16.0325 12.5688 15.9225 13.5187 15.7988 14.7188C15.7781 14.625 15.5238 14.0312 15.51 14.0312C14.3756 13.3875 15.1319 12.1875 15.2763 11.5625Z" fill="#006800" stroke="#004100" stroke-width="0.05" stroke-linejoin="round"/>
<path fill-rule="evenodd" clip-rule="evenodd" d="M15.9019 13.125C17.7444 12.275 17.0362 11.2063 17.3731 10.375C16.0944 11.2437 15.9294 12.1625 15.9087 13.125H15.9019Z" fill="#006800" stroke="#004100" stroke-width="0.05" stroke-linejoin="round"/>
<path d="M16.1562 12.9125C16.39 12.3188 16.8437 11.3125 16.8919 11.3125M15.6062 14.15C15.565 13.7312 15.3312 12.6062 15.3106 12.4937" stroke="#00A400" stroke-width="0.05" stroke-linecap="round"/>
<path fill-rule="evenodd" clip-rule="evenodd" d="M15.6956 16.0312C14.6644 15.9688 13.5644 14.7 13.2687 13.7125C13.2687 13.725 13.6469 13.925 13.585 13.975C15.0562 14.575 15.2075 15.1125 15.6956 16.0312ZM15.3931 15.1562C14.6369 14.15 14.4994 13.3875 14.6162 12.1875C14.6369 12.2812 14.8912 12.875 14.9119 12.875C16.0394 13.5187 15.5375 14.5312 15.3931 15.1562ZM16.0737 13.3875C17.9781 12.6187 17.3937 11.8125 17.9575 10.9688C16.6787 11.8313 16.0944 12.4312 16.0737 13.3875Z" fill="#006800" stroke="#004100" stroke-width="0.05" stroke-linejoin="round"/>
<path d="M16.1562 13.2125C16.5885 12.8429 16.9427 12.4044 17.2012 11.9187" stroke="#00A400" stroke-width="0.05" stroke-linecap="round"/>
<path fill-rule="evenodd" clip-rule="evenodd" d="M22.935 22.9L23.8563 22.9125C20.7831 20.2875 14.8844 19.15 15.7025 14.325C14.8569 19.5562 20.5219 20.0437 22.935 22.9Z" fill="#FFE100" stroke="#E9BF00" stroke-width="0.05"/>
<path fill-rule="evenodd" clip-rule="evenodd" d="M16.1837 13.2937C16.1837 13.365 16.1526 13.4334 16.0972 13.4838C16.0417 13.5342 15.9665 13.5625 15.8881 13.5625C15.8097 13.5625 15.7345 13.5342 15.6791 13.4838C15.6236 13.4334 15.5925 13.365 15.5925 13.2937C15.5925 13.2225 15.6236 13.1541 15.6791 13.1037C15.7345 13.0533 15.8097 13.025 15.8881 13.025C15.9665 13.025 16.0417 13.0533 16.0972 13.1037C16.1526 13.1541 16.1837 13.2225 16.1837 13.2937ZM16.005 14.7687C16.005 14.8359 15.9757 14.9003 15.9234 14.9477C15.8712 14.9952 15.8004 15.0219 15.7266 15.0219C15.6527 15.0219 15.5819 14.9952 15.5297 14.9477C15.4775 14.9003 15.4481 14.8359 15.4481 14.7687C15.4481 14.7024 15.4771 14.6389 15.5287 14.592C15.5802 14.5451 15.6502 14.5187 15.7231 14.5187C15.7961 14.5187 15.866 14.5451 15.9176 14.592C15.9691 14.6389 15.9981 14.7024 15.9981 14.7687H16.005ZM16.2662 16.875C16.2662 16.9045 16.2598 16.9338 16.2474 16.9611C16.235 16.9884 16.2167 17.0132 16.1938 17.0341C16.1708 17.055 16.1435 17.0716 16.1135 17.0829C16.0834 17.0942 16.0512 17.1 16.0187 17.1C15.9862 17.1 15.9541 17.0942 15.924 17.0829C15.894 17.0716 15.8667 17.055 15.8437 17.0341C15.8208 17.0132 15.8025 16.9884 15.7901 16.9611C15.7776 16.9338 15.7712 16.9045 15.7712 16.875C15.7712 16.8153 15.7973 16.7581 15.8437 16.7159C15.8902 16.6737 15.9531 16.65 16.0187 16.65C16.0844 16.65 16.1473 16.6737 16.1938 16.7159C16.2402 16.7581 16.2662 16.8153 16.2662 16.875ZM18.4181 19.2C18.4181 19.2597 18.392 19.3169 18.3456 19.3591C18.2992 19.4013 18.2363 19.425 18.1706 19.425C18.105 19.425 18.042 19.4013 17.9956 19.3591C17.9492 19.3169 17.9231 19.2597 17.9231 19.2C17.9231 19.1403 17.9492 19.0831 17.9956 19.0409C18.042 18.9987 18.105 18.975 18.1706 18.975C18.2363 18.975 18.2992 18.9987 18.3456 19.0409C18.392 19.0831 18.4181 19.1403 18.4181 19.2ZM18.7275 19.8687C18.7275 19.9284 18.7014 19.9856 18.655 20.0278C18.6086 20.07 18.5456 20.0937 18.48 20.0937C18.4144 20.0937 18.3514 20.07 18.305 20.0278C18.2586 19.9856 18.2325 19.9284 18.2325 19.8687C18.2325 19.8091 18.2586 19.7518 18.305 19.7096C18.3514 19.6674 18.4144 19.6437 18.48 19.6437C18.5456 19.6437 18.6086 19.6674 18.655 19.7096C18.7014 19.7518 18.7275 19.8091 18.7275 19.8687Z" fill="#9D4916" stroke="#68300E" stroke-width="0.05"/>
<path fill-rule="evenodd" clip-rule="evenodd" d="M19.8138 21.8125C19.6727 21.7182 19.5593 21.5936 19.4838 21.45L18.5213 21.3562L18.5075 21.8562L19.8138 21.8125Z" fill="white" stroke="black" stroke-width="0.05"/>
<path fill-rule="evenodd" clip-rule="evenodd" d="M12.7394 21.225C13.3031 21.3188 14.1488 21.175 14.4238 21.5063C14.7538 21.8438 13.3856 22.375 13.5781 22.6688C14.0044 23.075 14.4375 22.9062 14.9119 22.6812C15.0288 22.4625 15.1181 22.0688 15.1731 21.95C15.0013 21.5938 14.5338 21.4125 14.6575 20.8687C15.4344 20.6062 16.94 20.625 17.105 20.7313C17.2288 20.9563 17.1119 21.0562 17.1394 21.2375C17.0088 21.4687 16.6788 21.85 16.6788 22.0562C17.5038 22.3187 17.71 22.0187 18.4525 22.0312C19.3188 22.0438 19.8413 22.2563 20.0338 21.9438C19.8963 21.6688 19.1056 21.8937 18.81 21.7188C18.6588 21.675 18.5625 21.5625 18.4319 21.4438C18.3013 21.325 17.9369 21.3188 17.8819 21.0125C18.0331 20.375 19.0506 20.475 19.2088 20.375L21.8488 20.5438C22.33 20.5313 22.605 21.3125 21.9519 21.5438C21.3056 21.7813 19.4013 21.2 18.5694 21.6C18.5281 21.4375 17.93 21.1875 17.8888 21.1812C17.6344 21.2437 17.1394 21.225 17.1394 21.225C17.0225 21.425 16.8781 21.575 16.7613 21.7812C16.2113 21.5625 15.6956 21.95 15.0975 21.8375L14.1625 21.9312L13.5713 21.8813L12.6638 22.1187L13.31 21.6L12.7394 21.225Z" fill="white" stroke="black" stroke-width="0.05" stroke-linejoin="round"/>
<path fill-rule="evenodd" clip-rule="evenodd" d="M12.6981 21.125C12.6981 21.1847 12.6721 21.2419 12.6257 21.2841C12.5792 21.3263 12.5163 21.35 12.4506 21.35C12.385 21.35 12.3221 21.3263 12.2756 21.2841C12.2292 21.2419 12.2031 21.1847 12.2031 21.125C12.2031 21.0653 12.2292 21.0081 12.2756 20.9659C12.3221 20.9237 12.385 20.9 12.4506 20.9C12.5163 20.9 12.5792 20.9237 12.6257 20.9659C12.6721 21.0081 12.6981 21.0653 12.6981 21.125ZM12.6294 22.25C12.6294 22.3097 12.6033 22.3669 12.5569 22.4091C12.5105 22.4513 12.4475 22.475 12.3819 22.475C12.3163 22.475 12.2533 22.4513 12.2069 22.4091C12.1605 22.3669 12.1344 22.3097 12.1344 22.25C12.1344 22.1895 12.1608 22.1315 12.2079 22.0887C12.255 22.0459 12.3188 22.0219 12.3853 22.0219C12.4519 22.0219 12.5157 22.0459 12.5628 22.0887C12.6098 22.1315 12.6363 22.1895 12.6363 22.25H12.6294Z" fill="white" stroke="black" stroke-width="0.05"/>
<path fill-rule="evenodd" clip-rule="evenodd" d="M23.8082 21.8188C23.9663 21.6875 24.0694 21.6 24.1313 21.4563L25.0938 21.3563L25.1144 21.8563L23.8082 21.8188Z" fill="white" stroke="black" stroke-width="0.05"/>
<path fill-rule="evenodd" clip-rule="evenodd" d="M30.8757 21.225C30.3188 21.3188 29.4732 21.1813 29.1982 21.5063C28.8613 21.85 30.2294 22.3813 30.0369 22.6688C29.6107 23.0813 29.1775 22.9125 28.7032 22.6875C28.5932 22.4688 28.5038 22.075 28.4419 21.9563C28.6207 21.5938 29.0813 21.4188 28.9644 20.875C28.1807 20.6063 26.675 20.625 26.5169 20.7313C26.3863 20.9625 26.5032 21.0625 26.4757 21.2438C26.6132 21.4688 26.9432 21.8563 26.9432 22.0563C26.1182 22.325 25.905 22.0188 25.1694 22.0375C24.3032 22.05 23.7738 22.2563 23.5882 21.9438C23.7188 21.675 24.5094 21.8938 24.8119 21.725C24.9632 21.675 25.0594 21.5688 25.19 21.4438C25.3207 21.3188 25.685 21.3188 25.74 21.0188C25.5888 20.3813 24.5713 20.475 24.4063 20.3813L21.7663 20.5438C21.285 20.5313 21.0169 21.3125 21.6632 21.55C22.3094 21.7875 24.2207 21.2 25.0457 21.6C25.0938 21.4375 25.685 21.1938 25.7332 21.1813C25.9807 21.25 26.4757 21.225 26.4757 21.225C26.5994 21.4313 26.7369 21.5813 26.8607 21.7875C27.4107 21.5625 27.9263 21.9563 28.5244 21.8375L29.4525 21.9313L30.0507 21.8875L30.9582 22.1188L30.3119 21.6063L30.8757 21.2313V21.225Z" fill="white" stroke="black" stroke-width="0.05" stroke-linejoin="round"/>
<path fill-rule="evenodd" clip-rule="evenodd" d="M30.9169 21.125C30.9169 21.1855 30.9434 21.2435 30.9904 21.2863C31.0375 21.3291 31.1013 21.3531 31.1679 21.3531C31.2344 21.3531 31.2982 21.3291 31.3453 21.2863C31.3924 21.2435 31.4188 21.1855 31.4188 21.125C31.4188 21.0645 31.3924 21.0065 31.3453 20.9637C31.2982 20.9209 31.2344 20.8969 31.1679 20.8969C31.1013 20.8969 31.0375 20.9209 30.9904 20.9637C30.9434 21.0065 30.9169 21.0645 30.9169 21.125ZM30.9857 22.25C30.9857 22.3097 31.0118 22.3669 31.0582 22.4091C31.1046 22.4513 31.1675 22.475 31.2332 22.475C31.2988 22.475 31.3618 22.4513 31.4082 22.4091C31.4546 22.3669 31.4807 22.3097 31.4807 22.25C31.4807 22.1903 31.4546 22.1331 31.4082 22.0909C31.3618 22.0487 31.2988 22.025 31.2332 22.025C31.1675 22.025 31.1046 22.0487 31.0582 22.0909C31.0118 22.1331 30.9857 22.1903 30.9857 22.25Z" fill="white" stroke="black" stroke-width="0.05"/>
<path fill-rule="evenodd" clip-rule="evenodd" d="M21.7938 20.5812C21.5738 20.5437 21.4913 20.5562 21.34 20.5437L20.9894 21.5312C21.5394 21.575 22.0413 21.575 22.0413 21.575C21.7113 21.5125 21.7869 20.5875 21.7938 20.5812Z" fill="white"/>
<path d="M19.479 21.2006V20.5303H19.6098V21.0949H19.943V21.2006H19.479Z" fill="black"/>
<path d="M20.0541 21.2318V20.5616H20.1849V21.2318H20.0541Z" fill="black"/>
<path d="M20.6321 21.2839H20.4066V20.6141C20.5059 20.6098 20.5755 20.6077 20.6155 20.6077C20.692 20.6077 20.7517 20.6226 20.7946 20.6525C20.8379 20.6821 20.8595 20.7245 20.8595 20.7797C20.8595 20.8328 20.8287 20.8747 20.7669 20.9055C20.8585 20.9345 20.9043 20.9943 20.9043 21.0849C20.9043 21.1459 20.879 21.1943 20.8283 21.2303C20.7777 21.266 20.7123 21.2839 20.6321 21.2839ZM20.5375 20.7092V20.8698C20.5576 20.871 20.5787 20.8717 20.6009 20.8717C20.6861 20.8717 20.7287 20.8425 20.7287 20.7843C20.7287 20.7327 20.6899 20.707 20.6124 20.707C20.592 20.707 20.567 20.7077 20.5375 20.7092ZM20.5375 20.9627V21.1841C20.564 21.1863 20.5854 21.1873 20.6019 21.1873C20.6603 21.1873 20.7025 21.1783 20.7287 21.1603C20.7552 21.1423 20.7685 21.1125 20.7685 21.0707C20.7685 21.0325 20.7562 21.0048 20.7317 20.9874C20.7072 20.97 20.6644 20.9613 20.6034 20.9613C20.5906 20.9613 20.5687 20.9618 20.5375 20.9627Z" fill="black"/>
<path d="M21.2131 20.761V20.9179H21.4566V21.019H21.2131V21.2198H21.5472V21.3255H21.0822V20.6553H21.5528V20.761H21.2131Z" fill="black"/>
<path d="M22.1507 21.3359L21.9539 21.0591C21.9341 21.0588 21.9064 21.0578 21.8709 21.0559V21.3359H21.735V20.6657C21.7424 20.6657 21.7707 20.6646 21.82 20.6625C21.8694 20.66 21.9091 20.6588 21.9393 20.6588C22.1265 20.6588 22.2201 20.7247 22.2201 20.8565C22.2201 20.8961 22.2072 20.9322 22.1814 20.9649C22.1555 20.9975 22.123 21.0205 22.0837 21.034L22.3016 21.3359H22.1507ZM21.8709 20.7691V20.9553C21.895 20.9571 21.9135 20.958 21.9262 20.958C21.9809 20.958 22.0208 20.951 22.046 20.937C22.0715 20.9229 22.0842 20.8956 22.0842 20.8551C22.0842 20.8221 22.0707 20.7991 22.0435 20.786C22.0163 20.7729 21.9735 20.7663 21.9151 20.7663C21.9011 20.7663 21.8863 20.7672 21.8709 20.7691Z" fill="black"/>
<path d="M22.6762 20.7505V21.3151H22.5454V20.7505H22.3109V20.6449H22.9213V20.7505H22.6762Z" fill="black"/>
<path d="M23.4249 21.2214L23.3711 21.0855H23.1185L23.0671 21.2214H22.9217L23.2156 20.542H23.273L23.5694 21.2214H23.4249ZM23.2443 20.747L23.1557 20.9945H23.3328L23.2443 20.747Z" fill="black"/>
<path d="M23.6694 21.1635L23.7177 21.0569C23.7694 21.0899 23.8202 21.1063 23.8702 21.1063C23.9471 21.1063 23.9855 21.0819 23.9855 21.0331C23.9855 21.0103 23.9764 20.9885 23.9583 20.9677C23.9402 20.947 23.9028 20.9238 23.8461 20.8982C23.7897 20.8722 23.7516 20.851 23.7318 20.8346C23.7124 20.8178 23.6973 20.798 23.6865 20.7751C23.6761 20.7522 23.6709 20.7269 23.6709 20.6992C23.6709 20.6473 23.6917 20.6043 23.7333 20.5701C23.7753 20.536 23.829 20.5189 23.8944 20.5189C23.9796 20.5189 24.0422 20.5334 24.0821 20.5624L24.0423 20.6648C23.9964 20.635 23.9479 20.62 23.8969 20.62C23.8667 20.62 23.8432 20.6273 23.8264 20.642C23.81 20.6563 23.8018 20.6751 23.8018 20.6982C23.8018 20.7367 23.8486 20.7766 23.9422 20.8181C23.9915 20.8401 24.0271 20.8604 24.0489 20.879C24.0707 20.8973 24.0873 20.9188 24.0987 20.9435C24.1101 20.9679 24.1158 20.9952 24.1158 21.0254C24.1158 21.0796 24.0922 21.1243 24.0449 21.1594C23.9979 21.1945 23.9348 21.212 23.8556 21.212C23.7869 21.212 23.7248 21.1959 23.6694 21.1635Z" fill="black"/>
<path d="M15.9019 19.9125C16.5963 19.9875 17.5588 19.9312 17.9781 19.9125M14.85 17.7625C15.4413 18.1812 16.7131 18.4312 16.6925 18.4312M17.4281 18.5437C17.2356 17.6687 17.0294 17.4562 16.8575 16.9062M13.8669 15.9187C14.85 16.3187 15.0013 16.5812 15.6269 16.9812M15.9844 16.1062C16.0669 15.025 16.2319 14.7375 16.5275 14.4875M13.8669 14.3625C14.2244 14.7187 15.3931 15.8437 15.3931 15.8437M14.9119 13.3687C15.3519 13.65 15.3519 14.6812 15.3519 14.6812" stroke="#00A400" stroke-width="0.05" stroke-linecap="round"/>
</g>
<defs>
<clipPath id="clip0_1_3429">
<rect width="44" height="30" fill="white"/>
</clipPath>
</defs>
</svg>
