<svg width="44" height="30" viewBox="0 0 44 30" fill="none" xmlns="http://www.w3.org/2000/svg">
<g clip-path="url(#clip0_1_402)">
<mask id="mask0_1_402" style="mask-type:luminance" maskUnits="userSpaceOnUse" x="-1" y="0" width="45" height="30">
<path d="M0.00258486 0H43.9983V30H-0.00386047L0.00258486 0Z" fill="white"/>
</mask>
<g mask="url(#mask0_1_402)">
<path fill-rule="evenodd" clip-rule="evenodd" d="M-3.02672 0H62.9733V30H-3.02672V0Z" fill="white"/>
<path fill-rule="evenodd" clip-rule="evenodd" d="M-3.02672 19.998H62.9733V30H-3.02672V19.998Z" fill="#D50000"/>
<path fill-rule="evenodd" clip-rule="evenodd" d="M-3.02672 10.002H62.9733V19.998H-3.02672V10.002Z" fill="#0000BF"/>
<path fill-rule="evenodd" clip-rule="evenodd" d="M15.6905 5.44922C15.4327 9.05859 15.278 11.0391 14.6786 11.9531C14.0211 12.9375 13.3895 13.6582 10.8307 14.5312C8.27836 13.6582 7.64672 12.9375 6.9893 11.9531C6.38344 11.0391 6.2352 9.05859 5.97739 5.44922L6.35121 5.33203C7.11176 5.12109 7.67895 4.95117 8.09789 4.875C8.69731 4.75781 9.21293 4.62891 10.8243 4.59961C12.4356 4.62305 12.9512 4.76367 13.5506 4.88086C13.9631 4.96289 14.5561 5.11523 15.3102 5.33203L15.6905 5.44922Z" fill="#D50000"/>
<path fill-rule="evenodd" clip-rule="evenodd" d="M15.3166 5.33203C15.0717 8.93555 14.8655 10.5879 14.5432 11.3789C13.9245 12.7383 12.9448 13.4824 10.8307 14.1914C8.71664 13.4824 7.73695 12.7383 7.11176 11.3789C6.78949 10.582 6.59613 8.93555 6.35121 5.32617C7.09887 5.11523 7.67895 4.95117 8.09789 4.875C8.6973 4.75781 9.21293 4.62305 10.8243 4.59961C12.4356 4.62305 12.9512 4.75781 13.5506 4.875C14.1472 4.99846 14.7366 5.14904 15.3166 5.32617V5.33203Z" fill="#0000BF"/>
<path fill-rule="evenodd" clip-rule="evenodd" d="M10.8307 6.43359L10.9274 6.65039L11.3786 6.70898L11.0885 6.86719L11.3657 7.03711L10.9596 7.0957L10.8307 7.29492L10.7018 7.08984L10.3151 7.04297L10.5729 6.86719L10.3022 6.70898L10.734 6.65039L10.8307 6.43359Z" fill="#FFDF00"/>
<path fill-rule="evenodd" clip-rule="evenodd" d="M14.395 10.5234L14.1436 10.3477L13.9696 10.0781L13.6215 9.80273L13.4346 9.52734L13.0866 9.24023L12.919 8.96484L12.7256 8.83008L12.6096 8.71875L12.2873 8.9707L12.1198 9.24609L11.9071 9.42188L11.6686 9.25195L11.4946 8.9707L10.8307 7.89844L10.1668 8.9707L9.99282 9.25195L9.75434 9.42188L9.54164 9.24609L9.36762 8.9707L9.0518 8.71875L8.92934 8.82422L8.74243 8.96484L8.57485 9.24023L8.2268 9.52734L8.03989 9.80273L7.69184 10.0781L7.51782 10.3477L7.26645 10.5234C7.40815 11.33 7.82794 12.0747 8.46528 12.6504C9.15672 13.1884 9.95845 13.5966 10.8243 13.8516C11.6967 13.6023 12.5038 13.1935 13.1961 12.6504C13.57 12.2988 14.2661 11.5195 14.395 10.5234Z" fill="white"/>
<path fill-rule="evenodd" clip-rule="evenodd" d="M11.8877 4.91602L11.9909 5.13281L12.442 5.19141L12.1455 5.34961L12.4291 5.51953L12.0231 5.57812L11.8942 5.77734L11.7653 5.57227L11.3786 5.52539L11.6364 5.34961L11.3657 5.19141L11.7911 5.13281L11.8942 4.91602H11.8877ZM9.76078 4.91602L9.8639 5.13281L10.3151 5.18555L10.025 5.34375L10.3022 5.51367L9.89613 5.57227L9.76722 5.77148L9.63832 5.57227L9.2516 5.51953L9.50941 5.34375L9.23871 5.18555L9.67054 5.12695L9.76722 4.91016L9.76078 4.91602Z" fill="#FFDF00"/>
<path fill-rule="evenodd" clip-rule="evenodd" d="M13.8407 11.8945H13.3637L12.9125 11.8652L12.3776 11.6309H11.7717L11.2496 11.8652L10.8307 11.9004L10.4182 11.8652L9.89613 11.6309H9.28383L8.74242 11.8652L8.2977 11.9004L7.80785 11.8945L7.57582 11.5313L7.58227 11.5195L8.30414 11.6309L8.74887 11.6016L9.28383 11.3613H9.88969L10.4182 11.5957L10.8307 11.6309L11.2496 11.5957L11.7717 11.3613H12.3776L12.919 11.5957L13.3637 11.6309L14.0598 11.5137L14.0727 11.5371L13.8342 11.8945H13.8407ZM8.27191 12.4512L8.74887 12.4219L9.28383 12.1875H9.88969L10.4182 12.4219L10.8307 12.4512L11.2432 12.4219L11.7717 12.1875H12.3776L12.9125 12.4219L13.3959 12.4512L13.7053 12.0996H13.6989L13.3637 12.1816L12.919 12.1523L12.384 11.918H11.7782L11.2496 12.1523L10.8371 12.1875L10.4182 12.1523L9.89613 11.918H9.28383L8.74242 12.1523L8.2977 12.1875L7.97543 12.1113V12.123L8.26547 12.4512H8.27191Z" fill="#0000BF"/>
</g>
</g>
<defs>
<clipPath id="clip0_1_402">
<rect width="44" height="30" fill="white"/>
</clipPath>
</defs>
</svg>
