<svg width="44" height="30" viewBox="0 0 44 30" fill="none" xmlns="http://www.w3.org/2000/svg">
<g clip-path="url(#clip0_1_15)">
<mask id="mask0_1_15" style="mask-type:luminance" maskUnits="userSpaceOnUse" x="0" y="0" width="45" height="30">
<path d="M0 0H44.0004V30H0V0Z" fill="white"/>
</mask>
<g mask="url(#mask0_1_15)">
<path fill-rule="evenodd" clip-rule="evenodd" d="M0 0H66.007V19.9277H0V0Z" fill="#B20000"/>
<path fill-rule="evenodd" clip-rule="evenodd" d="M0 19.9277H66.007V30H0V19.9277Z" fill="#429F00"/>
<path fill-rule="evenodd" clip-rule="evenodd" d="M0 0H7.30976V30H0V0Z" fill="white"/>
<path fill-rule="evenodd" clip-rule="evenodd" d="M0.348083 0.509766H0.696167V1.01953H0.348083V0.509766ZM1.39234 0.509766H2.43659V1.01953H1.39234V0.509766ZM1.74042 0H2.0885V0.509766H1.74042V0ZM3.48084 0H3.82892V0.509766H3.48084V0ZM4.87318 0.509766H5.91743V1.01953H4.87318V0.509766ZM5.22126 0H5.56934V0.509766H5.22126V0ZM1.04425 1.01953H1.74042V1.52344H1.04425V1.01953ZM2.0885 1.01953H2.78467V1.52344H2.0885V1.01953ZM4.52509 1.01953H5.22126V1.52344H4.52509V1.01953ZM5.56934 1.01953H6.26551V1.52344H5.56934V1.01953ZM0.696167 1.52344H1.39234V2.0332H0.696167V1.52344ZM2.43659 1.52344H3.13276V2.0332H2.43659V1.52344ZM4.17701 1.52344H4.87318V2.0332H4.17701V1.52344ZM5.91743 1.52344H6.6136V2.0332H5.91743V1.52344ZM6.6136 0.509766H6.96168V1.01953H6.6136V0.509766ZM0.348083 2.0332H1.04425V2.54297H0.348083V2.0332ZM2.78467 2.0332H3.48084V2.54297H2.78467V2.0332ZM6.26551 2.0332H6.96168V2.54297H6.26551V2.0332ZM0.696167 3.55664H1.39234V4.06641H0.696167V3.55664ZM1.04425 4.06641H1.74042V4.57617H1.04425V4.06641ZM2.43659 3.5625H3.13276V4.06641H2.43659V3.5625ZM2.0885 4.06641H2.78467V4.57617H2.0885V4.06641ZM1.39234 4.57617H2.43659V5.08594H1.39234V4.57617Z" fill="#B20000"/>
<path fill-rule="evenodd" clip-rule="evenodd" d="M1.74042 5.08594H2.0885V5.5957H1.74042V5.08594ZM4.17701 3.5625H4.87318V4.06641H4.17701V3.5625ZM4.52509 4.06641H5.22126V4.57617H4.52509V4.06641ZM5.91743 3.5625H6.6136V4.06641H5.91743V3.5625ZM5.56934 4.06641H6.26551V4.57617H5.56934V4.06641ZM4.87318 4.57617H5.91743V5.08594H4.87318V4.57617ZM5.22126 5.08594H5.56934V5.5957H5.22126V5.08594ZM3.48084 4.57031H3.82892V5.08008H3.48084V4.57031ZM0 4.57031H0.348084V5.08008H0V4.57031ZM6.96168 4.57031H7.30976V5.08008H6.96168V4.57031ZM1.74042 7.11328H2.0885V7.62305H1.74042V7.11328ZM1.39234 7.62891H2.43659V8.13281H1.39234V7.62891ZM1.04425 8.13281H2.78467V8.64258H1.04425V8.13281ZM5.22126 7.11914H5.56934V7.62891H5.22126V7.11914ZM4.87318 7.62891H5.91743V8.13281H4.87318V7.62891ZM4.52509 8.13281H6.26551V8.64258H4.52509V8.13281ZM4.87318 10.6758H6.6136V11.1855H4.87318V10.6758ZM4.17701 8.64258H6.6136V9.15234H4.17701V8.64258ZM0.696168 8.64258H3.13276V9.15234H0.696168V8.64258ZM1.04425 11.1855H2.0885V11.6953H1.04425V11.1855ZM0.696168 10.6758H2.43659V11.1855H0.696168V10.6758ZM5.56934 9.66797H7.30976V10.1777H5.56934V9.66797ZM5.22126 11.1914H6.26551V11.7012H5.22126V11.1914Z" fill="#B20000"/>
<path fill-rule="evenodd" clip-rule="evenodd" d="M1.39234 11.6953H1.74042V12.2051H1.39234V11.6953ZM5.56934 11.6953H5.91743V12.2051H5.56934V11.6953ZM0 9.66211H1.74042V10.1719H0V9.66211ZM3.13276 10.6758H4.17701V11.1855H3.13276V10.6758ZM3.48084 11.1914H3.82892V11.7012H3.48084V11.1914ZM2.43659 9.66797H4.87318V10.1777H2.43659V9.66797ZM3.82892 2.0332H4.52509V2.54297H3.82892V2.0332ZM3.13276 2.54297H4.17701V3.05273H3.13276V2.54297ZM2.78467 3.05273H3.48084V3.55664H2.78467V3.05273ZM3.82892 3.05273H4.52509V3.55664H3.82892V3.05273ZM0 2.54297H0.696168V3.05273H0V2.54297ZM0.348084 3.05273H1.04425V3.55664H0.348084V3.05273ZM6.6136 2.54297H7.30976V3.04688H6.6136V2.54297ZM6.26551 3.04688H6.96168V3.55078H6.26551V3.04688ZM0 7.61719H0.348084V8.12695H0V7.61719ZM6.96168 7.61719H7.30976V8.12695H6.96168V7.61719ZM3.13276 11.6895H4.17701V12.1992H3.13276V11.6895ZM2.78467 12.1992H3.48084V12.7031H2.78467V12.1992ZM3.82892 12.1992H4.52509V12.7031H3.82892V12.1992ZM2.43659 12.7031H3.13276V13.2129H2.43659V12.7031ZM4.17701 12.7031H4.87318V13.2129H4.17701V12.7031ZM2.0885 13.2129H2.78467V13.7227H2.0885V13.2129ZM4.52509 13.2129H5.22126V13.7227H4.52509V13.2129ZM1.74042 13.7285H2.43659V14.2383H1.74042V13.7285ZM4.87318 13.7285H5.56934V14.2383H4.87318V13.7285ZM1.04425 14.2383H2.0885V14.748H1.04425V14.2383ZM5.22126 14.2383H6.26551V14.748H5.22126V14.2383ZM5.91743 13.7285H6.6136V14.2383H5.91743V13.7285ZM6.26551 13.2188H6.96168V13.7285H6.26551V13.2188ZM6.6136 12.709H7.30976V13.2188H6.6136V12.709ZM0.696168 13.7285H1.39234V14.2383H0.696168V13.7285ZM0.348084 13.2188H1.04425V13.7285H0.348084V13.2188ZM0 12.7148H0.696168V13.2246H0V12.7148ZM1.39234 14.7539H1.74042V15.2578H1.39234V14.7539ZM5.56934 14.7539H5.91743V15.2578H5.56934V14.7539ZM3.48084 13.2305H3.82892V13.7344H3.48084V13.2305ZM2.43659 14.7539H2.78467V15.2578H2.43659V14.7539ZM4.52509 14.7539H4.87318V15.2578H4.52509V14.7539ZM3.48084 14.7539H3.82892V15.2578H3.48084V14.7539ZM0 14.7539H0.348084V15.2578H0L0 14.7539ZM6.96168 14.7539H7.30976V15.2578H6.96168V14.7539ZM3.48084 7.62891H3.82892V8.13281H3.48084V7.62891ZM1.74042 2.54297H2.0885V3.05273H1.74042V2.54297ZM5.22126 2.54297H5.56934V3.05273H5.22126V2.54297ZM3.13276 6.09961H4.17701V6.60938H3.13276V6.09961ZM2.43659 6.60938H3.48084V7.11914H2.43659V6.60938ZM2.78467 7.11914H3.13276V7.62891H2.78467V7.11914ZM2.0885 6.09961H2.78467V6.60938H2.0885V6.09961ZM2.43659 5.5957H3.48084V6.09961H2.43659V5.5957ZM2.78467 5.08594H3.13276V5.5957H2.78467V5.08594ZM3.82892 5.5957H4.87318V6.09961H3.82892V5.5957ZM4.17701 5.08594H4.52509V5.5957H4.17701V5.08594ZM4.52509 6.09961H5.22126V6.60938H4.52509V6.09961ZM3.82892 6.60938H4.87318V7.11914H3.82892V6.60938ZM4.17701 7.11914H4.52509V7.62891H4.17701V7.11914ZM5.56934 6.09961H6.26551V6.60938H5.56934V6.09961ZM5.91743 5.5957H6.96168V6.09961H5.91743V5.5957ZM6.6136 6.09961H7.30976V6.60938H6.6136V6.09961ZM5.91743 6.60938H6.96168V7.11914H5.91743V6.60938ZM6.26551 7.11914H6.6136V7.62891H6.26551V7.11914ZM6.26551 5.08594H6.6136V5.5957H6.26551V5.08594ZM0 6.09375H0.696168V6.60352H0V6.09375ZM0.348084 5.58984H1.39234V6.09375H0.348084V5.58984ZM1.04425 6.09375H1.74042V6.60352H1.04425V6.09375ZM0.348084 6.60352H1.39234V7.11328H0.348084V6.60352Z" fill="#B20000"/>
<path fill-rule="evenodd" clip-rule="evenodd" d="M0.696168 7.11914H1.04425V7.62891H0.696168V7.11914ZM0.696168 5.08594H1.04425V5.5957H0.696168V5.08594ZM0.348084 9.15234H1.74042V9.66211H0.348084V9.15234ZM2.0885 9.15234H3.48084V9.66211H2.0885V9.15234ZM3.82892 9.15234H5.22126V9.66211H3.82892V9.15234ZM5.56934 9.15234H6.96168V9.66211H5.56934V9.15234ZM2.78467 10.1719H4.52509V10.6758H2.78467V10.1719ZM0.348084 10.1719H2.0885V10.6758H0.348084V10.1719ZM5.22126 10.1719H6.96168V10.6758H5.22126V10.1719ZM6.96168 12.2051H7.30976V12.709H6.96168V12.2051ZM0 12.2051H0.348084V12.709H0V12.2051ZM0.348084 29.4902H0.696168V28.9863H0.348084V29.4902ZM1.39234 29.4902H2.43659V28.9863H1.39234V29.4902ZM1.74042 30H2.0885V29.4902H1.74042V30ZM3.48084 30H3.82892V29.4902H3.48084V30ZM4.87318 29.4902H5.91743V28.9805H4.87318V29.4902ZM5.22126 30H5.56934V29.4902H5.22126V30ZM1.04425 28.9805H1.74042V28.4766H1.04425V28.9805ZM2.0885 28.9805H2.78467V28.4766H2.0885V28.9805ZM4.52509 28.9805H5.22126V28.4766H4.52509V28.9805ZM5.56934 28.9805H6.26551V28.4766H5.56934V28.9805ZM2.43659 28.4766H3.13276V27.9668H2.43659V28.4766ZM4.17701 28.4766H4.87318V27.9668H4.17701V28.4766ZM5.91743 28.4766H6.6136V27.9668H5.91743V28.4766ZM6.6136 29.4902H6.96168V28.9805H6.6136V29.4902ZM0.348084 27.9668H1.04425V27.457H0.348084V27.9668ZM2.78467 27.9668H3.48084V27.457H2.78467V27.9668ZM6.26551 27.9668H6.96168V27.457H6.26551V27.9668ZM0.696168 26.4434H1.39234V25.9336H0.696168V26.4434ZM1.04425 25.9336H1.74042V25.4238H1.04425V25.9336ZM2.43659 26.4434H3.13276V25.9336H2.43659V26.4434ZM2.0885 25.9336H2.78467V25.4238H2.0885V25.9336ZM1.39234 25.4238H2.43659V24.9141H1.39234V25.4238ZM1.74042 24.9141H2.0885V24.4102H1.74042V24.9141ZM4.17701 26.4375H4.87318V25.9336H4.17701V26.4375ZM4.52509 25.9336H5.22126V25.4238H4.52509V25.9336ZM5.91743 26.4434H6.6136V25.9336H5.91743V26.4434ZM5.56934 25.9336H6.26551V25.4238H5.56934V25.9336ZM4.87318 25.4238H5.91743V24.9141H4.87318V25.4238ZM5.22126 24.9141H5.56934V24.4102H5.22126V24.9141ZM3.48084 25.4297H3.82892V24.9199H3.48084V25.4297ZM0 25.4297H0.348084V24.9199H0V25.4297ZM6.96168 25.4297H7.30976V24.9199H6.96168V25.4297ZM1.74042 22.8867H2.0885V22.377H1.74042V22.8867ZM1.39234 22.3711H2.43659V21.8672H1.39234V22.3711ZM1.04425 21.8672H2.78467V21.3574H1.04425V21.8672ZM5.22126 22.8809H5.56934V22.3711H5.22126V22.8809Z" fill="#B20000"/>
<path fill-rule="evenodd" clip-rule="evenodd" d="M4.87318 22.3711H5.91743V21.8672H4.87318V22.3711ZM4.52509 21.8672H6.26551V21.3574H4.52509V21.8672ZM4.87318 19.3242H6.6136V18.8086H4.87318V19.3242ZM4.17701 21.3574H6.6136V20.8477H4.17701V21.3574ZM0.696168 21.3574H3.13276V20.8477H0.696168V21.3574ZM1.04425 18.8145H2.0885V18.3047H1.04425V18.8145ZM0.696168 19.3242H2.43659V18.8086H0.696168V19.3242ZM5.56934 20.332H7.30976V19.8223H5.56934V20.332ZM5.22126 18.8086H6.26551V18.2988H5.22126V18.8086ZM0 20.332H1.74042V19.8223H0V20.332ZM3.13276 19.3184H4.17701V18.8086H3.13276V19.3184ZM3.48084 18.8086H3.82892V18.2988H3.48084V18.8086ZM2.43659 20.332H4.87318V19.8223H2.43659V20.332ZM3.82892 27.9609H4.52509V27.4512H3.82892V27.9609ZM3.13276 27.4512H4.17701V26.9531H3.13276V27.4512ZM2.78467 26.9414H3.48084V26.4316H2.78467V26.9414ZM3.82892 26.9414H4.52509V26.4316H3.82892V26.9414ZM0 27.457H0.696168V26.9531H0V27.457ZM0.348084 26.9473H1.04425V26.4434H0.348084V26.9473ZM6.6136 27.457H7.30976V26.9531H6.6136V27.457ZM6.26551 26.9473H6.96168V26.4434H6.26551V26.9473ZM0 22.3828H0.348084V21.873H0V22.3828ZM6.96168 22.3828H7.30976V21.873H6.96168V22.3828ZM2.78467 17.8008H3.48084V17.2969H2.78467V17.8008ZM3.82892 17.8008H4.52509V17.2969H3.82892V17.8008ZM2.43659 17.2969H3.13276V16.7871H2.43659V17.2969ZM4.17701 17.2969H4.87318V16.7871H4.17701V17.2969ZM2.0885 16.7871H2.78467V16.2773H2.0885V16.7871ZM4.52509 16.7871H5.22126V16.2773H4.52509V16.7871ZM1.74042 16.2715H2.43659V15.7617H1.74042V16.2715ZM4.87318 16.2715H5.56934V15.7617H4.87318V16.2715ZM1.04425 15.7617H2.0885V15.252H1.04425V15.7617ZM5.22126 15.7617H6.26551V15.252H5.22126V15.7617ZM5.91743 16.2715H6.6136V15.7617H5.91743V16.2715ZM6.26551 16.7812H6.96168V16.2715H6.26551V16.7812ZM6.6136 17.291H7.30976V16.7812H6.6136V17.291ZM0.696168 16.2715H1.39234V15.7617H0.696168V16.2715ZM0.348084 16.7812H1.04425V16.2715H0.348084V16.7812ZM0 17.2852H0.696168V16.7754H0V17.2852ZM1.39234 15.2461H1.74042V14.7422H1.39234V15.2461ZM3.48084 16.7695H3.82892V16.2656H3.48084V16.7695ZM3.48084 22.3652H3.82892V21.8613H3.48084V22.3652ZM1.74042 27.4512H2.0885V26.9531H1.74042V27.4512ZM5.22126 27.4512H5.56934V26.9531H5.22126V27.4512ZM3.13276 23.9062H4.17701V23.3965H3.13276V23.9062ZM2.43659 23.3965H3.48084V22.8867H2.43659V23.3965ZM2.78467 22.8867H3.13276V22.377H2.78467V22.8867ZM2.0885 23.9062H2.78467V23.3965H2.0885V23.9062ZM2.43659 24.4043H3.48084V23.9062H2.43659V24.4043ZM2.78467 24.9141H3.13276V24.4102H2.78467V24.9141ZM3.82892 24.4043H4.87318V23.9062H3.82892V24.4043ZM4.17701 24.9141H4.52509V24.4102H4.17701V24.9141ZM4.52509 23.9004H5.22126V23.3906H4.52509V23.9004ZM3.82892 23.3906H4.87318V22.8809H3.82892V23.3906ZM4.17701 22.8809H4.52509V22.3711H4.17701V22.8809ZM5.56934 23.9062H6.26551V23.3965H5.56934V23.9062ZM5.91743 24.4043H6.96168V23.9062H5.91743V24.4043ZM6.6136 23.9004H7.30976V23.3906H6.6136V23.9004ZM5.91743 23.3906H6.96168V22.8809H5.91743V23.3906ZM6.26551 22.8809H6.6136V22.3711H6.26551V22.8809ZM6.26551 24.9141H6.6136V24.4102H6.26551V24.9141ZM0 23.9062H0.696168V23.3965H0V23.9062ZM0.348084 24.4043H1.39234V23.9062H0.348084V24.4043Z" fill="#B20000"/>
<path fill-rule="evenodd" clip-rule="evenodd" d="M1.04425 23.9004H1.74042V23.3906H1.04425V23.9004ZM0.348084 23.3906H1.39234V22.8809H0.348084V23.3906ZM0.696168 22.8809H1.04425V22.3711H0.696168V22.8809ZM0.696168 24.9141H1.04425V24.4102H0.696168V24.9141ZM0.348084 20.8477H1.74042V20.3379H0.348084V20.8477ZM2.0885 20.8477H3.48084V20.3379H2.0885V20.8477ZM3.82892 20.8477H5.22126V20.3379H3.82892V20.8477ZM5.56934 20.8477H6.96168V20.3379H5.56934V20.8477ZM2.78467 19.8281H4.52509V19.3242H2.78467V19.8281ZM0.348084 19.8281H2.0885V19.3242H0.348084V19.8281ZM5.22126 19.8281H6.96168V19.3242H5.22126V19.8281ZM6.96168 17.8008H7.30976V17.2852H6.96168V17.8008ZM0 17.8008H0.348084V17.2852H0V17.8008ZM3.13276 15.252H3.48084V15.7617H3.13276V15.252ZM3.82892 15.252H4.17701V15.7617H3.82892V15.252ZM3.82892 14.2383H4.17701V14.748H3.82892V14.2383ZM3.13276 14.2383H3.48084V14.748H3.13276V14.2383ZM0.696168 27.9668H1.39234V28.4766H0.696168V27.9668ZM5.56934 18.3047H5.91743V17.7949H5.56934V18.3047ZM1.39234 18.3047H1.74042V17.7949H1.39234V18.3047ZM3.13276 17.7949H4.17701V18.3047H3.13276V17.7949Z" fill="#B20000"/>
</g>
</g>
<defs>
<clipPath id="clip0_1_15">
<rect width="44" height="30" fill="white"/>
</clipPath>
</defs>
</svg>
