<svg width="44" height="30" viewBox="0 0 44 30" fill="none" xmlns="http://www.w3.org/2000/svg">
<g clip-path="url(#clip0_1_40)">
<path d="M0 0H44V30H0V0Z" fill="white"/>
<path d="M21.1612 24.9125C21.1559 24.9091 21.1512 24.9049 21.1475 24.9H21.1406L21.0512 24.8125L20.79 24.5313L20.4531 24.1375L20.4118 24.0813L19.9856 23.9625L19.6693 23.8313L19.8343 23.6625L20.4118 23.8813L20.8381 23.9625L21.6287 24.4938L21.4018 24.675C21.3211 24.7434 21.2453 24.8165 21.175 24.8938L21.2231 24.8625L21.2781 24.9L21.1681 24.9125H21.1612ZM18.2325 24.1125C17.8448 24.1094 17.4651 24.0123 17.1325 23.8313C17.1325 23.8313 17.1806 23.75 17.2906 23.6813C17.4006 23.6063 17.5931 23.525 17.9093 23.5188C18.2806 23.5188 18.7343 23.6375 19.25 23.8563C18.9419 24.0216 18.5903 24.108 18.2325 24.1063V24.1125ZM16.6168 23.7875C16.5481 23.7875 16.4793 23.7625 16.4381 23.725C16.3991 23.6818 16.3731 23.6301 16.3625 23.575C16.3442 23.5055 16.3373 23.4339 16.3418 23.3625C16.3705 23.3532 16.4008 23.349 16.4312 23.35C16.5687 23.35 16.6787 23.4563 16.7268 23.5625C16.7543 23.625 16.7612 23.675 16.7406 23.7188C16.7268 23.7563 16.6718 23.7813 16.6168 23.7813V23.7875ZM19.4562 23.4875C18.5006 23.3625 18.095 23.05 17.9231 22.8063C17.7443 22.55 17.7856 22.3063 17.7856 22.3063C17.7856 22.3063 17.8406 22.2938 17.9231 22.2938C18.1843 22.2938 18.8306 22.4125 19.4562 23.4813V23.4875ZM17.4968 23.3125C17.0912 23.3125 16.7818 23.25 16.5756 23.125C16.4874 23.0747 16.4161 23.0033 16.3693 22.9188C16.3546 22.8869 16.3453 22.8532 16.3418 22.8188C16.4986 22.7594 16.667 22.7296 16.8368 22.7313C17.0822 22.7393 17.3234 22.7914 17.5465 22.8848C17.7695 22.9781 17.97 23.1108 18.1362 23.275C17.9025 23.3 17.6893 23.3125 17.4968 23.3125ZM15.5237 23.25C15.0975 23.25 14.5062 23.125 14.135 22.7938C14.135 22.7938 14.5406 22.7 14.9875 22.6875H15.07C15.4756 22.6875 15.785 22.7563 15.9912 22.9C16.06 22.95 16.1012 22.9938 16.1081 23.0375C16.115 23.075 16.0943 23.1125 16.0531 23.1438C15.9568 23.2063 15.7918 23.2438 15.5581 23.2438H15.5237V23.25ZM14.1281 22.5938C14.1015 22.5933 14.0754 22.5875 14.0516 22.5766C14.0278 22.5658 14.007 22.5503 13.9906 22.5313C13.9619 22.494 13.943 22.4512 13.9356 22.4063C13.915 22.3188 13.9218 22.2313 13.9218 22.225C13.9435 22.2164 13.967 22.2122 13.9906 22.2125C14.0525 22.2125 14.1006 22.2438 14.1281 22.275C14.1699 22.3097 14.2028 22.3524 14.2243 22.4C14.2381 22.4563 14.245 22.5 14.2243 22.5375C14.2243 22.5625 14.1831 22.6 14.135 22.6L14.1281 22.5938ZM17.3525 22.5313C17.2837 22.5313 17.215 22.5063 17.1737 22.4688C17.1347 22.4255 17.1087 22.3738 17.0981 22.3188C17.0798 22.2492 17.0729 22.1776 17.0775 22.1063C17.1061 22.097 17.1365 22.0928 17.1668 22.0938C17.3043 22.0938 17.4212 22.2 17.4625 22.3063C17.49 22.3688 17.4968 22.4188 17.4831 22.4625C17.4625 22.5 17.4143 22.525 17.3456 22.525L17.3525 22.5313ZM15.785 22.4688C14.9187 22.4438 14.465 22.2188 14.245 22.0313C14.1491 21.9559 14.0698 21.8647 14.0112 21.7625C13.9768 21.7 13.9631 21.65 13.9631 21.6375C13.9631 21.625 14.0456 21.6125 14.1693 21.6125H14.1968C14.4856 21.6125 15.0837 21.725 15.7781 22.4688H15.785ZM16.72 22.3938C16.2252 22.3449 15.7651 22.1391 15.4206 21.8125C15.2938 21.6864 15.1977 21.5373 15.1387 21.375C15.1387 21.375 15.2212 21.3563 15.345 21.35C15.3679 21.3493 15.3908 21.3493 15.4137 21.35C15.7575 21.3563 16.3968 21.5 16.72 22.3938ZM13.145 22.0813C12.9254 22.0831 12.7062 22.0621 12.4918 22.0188C12.1275 21.9313 11.9693 21.8063 11.9006 21.7125C11.8725 21.675 11.8537 21.6323 11.8456 21.5875C11.8434 21.5709 11.8434 21.5541 11.8456 21.5375C11.8456 21.5375 12.0862 21.475 12.4231 21.4688C12.5937 21.4648 12.7642 21.4774 12.9318 21.5063C13.2825 21.5734 13.5949 21.7531 13.8118 22.0125C13.8118 22.0125 13.5368 22.0875 13.145 22.0875V22.0813ZM14.7606 21.5563C14.7288 21.557 14.6971 21.5519 14.6676 21.5411C14.638 21.5304 14.6112 21.5143 14.5887 21.4938C14.5497 21.4505 14.5237 21.3988 14.5131 21.3438C14.4856 21.2438 14.4925 21.1438 14.4925 21.1313C14.5185 21.1206 14.5465 21.1143 14.575 21.1125H14.5818C14.7193 21.1125 14.8293 21.225 14.8775 21.3313C14.905 21.3938 14.905 21.4438 14.8912 21.4813C14.8706 21.525 14.8225 21.55 14.7606 21.55V21.5563ZM13.5506 21.4C13.3185 21.3402 13.0964 21.2519 12.8906 21.1375C12.5881 20.9688 12.21 20.6688 12.1687 20.2L12.2375 20.1938H12.2581C12.3475 20.1938 12.5331 20.2125 12.76 20.3688C13.0487 20.5688 13.31 20.9188 13.5506 21.4ZM14.3412 21.375C14.1516 21.2965 13.9756 21.1934 13.8187 21.0688C13.4164 20.7531 13.1029 20.3545 12.9043 19.9063C12.9043 19.9063 12.9662 19.875 13.0625 19.8688C13.0671 19.8686 13.0716 19.8686 13.0762 19.8688H13.1037C13.2412 19.8688 13.4406 19.925 13.6606 20.1438C13.9218 20.3938 14.1487 20.8063 14.3481 21.375H14.3412ZM12.2856 21.3188C12.0175 21.3188 11.9281 21.1938 11.9006 21.1313C11.874 21.0719 11.8645 21.0074 11.8731 20.9438C11.9182 20.9347 11.9644 20.9305 12.0106 20.9313C12.096 20.9288 12.1808 20.9445 12.2584 20.977C12.336 21.0096 12.4041 21.0581 12.4575 21.1188C12.4712 21.1438 12.5125 21.2063 12.4781 21.2625C12.4506 21.3 12.3887 21.325 12.2856 21.325V21.3188ZM11.7012 20.6438C11.494 20.6458 11.2869 20.6312 11.0825 20.6C10.8487 20.5625 10.7181 20.3813 10.6425 20.2313C10.5737 20.075 10.5462 19.9188 10.5462 19.9188C11.275 19.9375 11.6256 20.1313 11.7837 20.2938C11.8836 20.3872 11.9464 20.5081 11.9625 20.6375C11.9625 20.6375 11.8525 20.65 11.7012 20.65V20.6438ZM12.4575 19.9563C12.3987 19.8879 12.3436 19.817 12.2925 19.7438C12.2031 19.6188 12.1275 19.4938 12.1275 19.3938C12.1275 19.2875 12.1 19.0813 12.0862 18.9563L12.045 18.675C12.0656 18.675 12.4987 18.825 12.4987 19.2C12.4987 19.575 12.4575 19.95 12.4575 19.95V19.9563ZM11.8937 19.9188H11.88C11.4084 19.7904 10.9787 19.5586 10.6287 19.2438C10.5118 19.1188 10.4362 18.9188 10.4156 18.6563C10.4018 18.4688 10.4156 18.3125 10.4156 18.2938C10.4402 18.2878 10.4658 18.2857 10.4912 18.2875C10.5875 18.2875 10.6975 18.325 10.835 18.4125C10.9626 18.4947 11.0822 18.5867 11.1925 18.6875C11.4125 18.8875 11.5843 19.0875 11.5843 19.0875C11.605 19.1125 11.7218 19.3188 11.825 19.5188C11.8732 19.6106 11.9101 19.707 11.935 19.8063C11.9418 19.8438 11.9487 19.8688 11.935 19.8938C11.9317 19.9041 11.9244 19.913 11.9143 19.9188C11.9053 19.9206 11.8959 19.9206 11.8868 19.9188H11.8937Z" fill="#435125"/>
<path d="M19.6556 24.9125C19.661 24.9091 19.6656 24.9049 19.6694 24.9H19.6762L19.7656 24.8125L20.0269 24.5313L20.3637 24.1375L20.405 24.0813L20.8312 23.9625L21.1475 23.8313L20.9825 23.6625L20.405 23.8813L19.9787 23.9625L19.1881 24.4938L19.415 24.675C19.4957 24.7434 19.5715 24.8165 19.6419 24.8938L19.5937 24.8625L19.5387 24.9L19.6487 24.9125H19.6556ZM22.5844 24.1125C22.972 24.1094 23.3517 24.0123 23.6844 23.8313C23.6844 23.8313 23.6362 23.75 23.5262 23.6813C23.4162 23.6063 23.2237 23.525 22.9075 23.5188C22.5362 23.5188 22.0825 23.6375 21.5669 23.8563C21.875 24.0216 22.2266 24.108 22.5844 24.1063V24.1125ZM24.2 23.7875C24.2687 23.7875 24.3375 23.7625 24.3787 23.725C24.4177 23.6818 24.4438 23.6301 24.4544 23.575C24.4726 23.5055 24.4796 23.4339 24.475 23.3625C24.4463 23.3532 24.416 23.349 24.3856 23.35C24.2481 23.35 24.1381 23.4563 24.09 23.5625C24.0625 23.625 24.0556 23.675 24.0762 23.7188C24.09 23.7563 24.145 23.7813 24.2 23.7813V23.7875ZM21.3606 23.4875C22.3162 23.3625 22.7219 23.05 22.8937 22.8063C23.0725 22.55 23.0312 22.3063 23.0312 22.3063C23.0312 22.3063 22.9762 22.2938 22.8937 22.2938C22.6325 22.2938 21.9862 22.4125 21.3606 23.4813V23.4875ZM23.32 23.3125C23.7256 23.3125 24.035 23.25 24.2412 23.125C24.3294 23.0747 24.4007 23.0033 24.4475 22.9188C24.4622 22.8869 24.4715 22.8532 24.475 22.8188C24.3182 22.7594 24.1498 22.7296 23.98 22.7313C23.7346 22.7393 23.4934 22.7914 23.2704 22.8848C23.0473 22.9781 22.8469 23.1108 22.6806 23.275C22.9144 23.3 23.1275 23.3125 23.32 23.3125ZM25.2931 23.25C25.7194 23.25 26.3106 23.125 26.6819 22.7938C26.6819 22.7938 26.2762 22.7 25.8294 22.6875H25.7469C25.3412 22.6875 25.0319 22.7563 24.8256 22.9C24.7569 22.95 24.7156 22.9938 24.7087 23.0375C24.7019 23.075 24.7225 23.1125 24.7637 23.1438C24.86 23.2063 25.025 23.2438 25.2587 23.2438H25.2931V23.25ZM26.6887 22.5938C26.7153 22.5933 26.7415 22.5875 26.7653 22.5766C26.789 22.5658 26.8099 22.5503 26.8262 22.5313C26.855 22.494 26.8738 22.4512 26.8812 22.4063C26.9019 22.3188 26.895 22.2313 26.895 22.225C26.8733 22.2164 26.8499 22.2122 26.8262 22.2125C26.7644 22.2125 26.7162 22.2438 26.6887 22.275C26.6469 22.3097 26.6141 22.3524 26.5925 22.4C26.5787 22.4563 26.5719 22.5 26.5925 22.5375C26.5925 22.5625 26.6337 22.6 26.6819 22.6L26.6887 22.5938ZM23.4644 22.5313C23.5331 22.5313 23.6019 22.5063 23.6431 22.4688C23.6821 22.4255 23.7081 22.3738 23.7187 22.3188C23.737 22.2492 23.744 22.1776 23.7394 22.1063C23.7107 22.097 23.6804 22.0928 23.65 22.0938C23.5125 22.0938 23.3956 22.2 23.3544 22.3063C23.3269 22.3688 23.32 22.4188 23.3337 22.4625C23.3544 22.5 23.4025 22.525 23.4712 22.525L23.4644 22.5313ZM25.0319 22.4688C25.8981 22.4438 26.3519 22.2188 26.5719 22.0313C26.6677 21.9559 26.7471 21.8647 26.8056 21.7625C26.84 21.7 26.8537 21.65 26.8537 21.6375C26.8537 21.625 26.7712 21.6125 26.6475 21.6125H26.62C26.3312 21.6125 25.7331 21.725 25.0387 22.4688H25.0319ZM24.0969 22.3938C24.5917 22.3449 25.0517 22.1391 25.3962 21.8125C25.5231 21.6864 25.6191 21.5373 25.6781 21.375C25.6781 21.375 25.5956 21.3563 25.4719 21.35C25.449 21.3493 25.426 21.3493 25.4031 21.35C25.0594 21.3563 24.42 21.5 24.0969 22.3938ZM27.6719 22.0813C27.8915 22.0831 28.1106 22.0621 28.325 22.0188C28.6894 21.9313 28.8475 21.8063 28.9162 21.7125C28.9443 21.675 28.9631 21.6323 28.9712 21.5875C28.9734 21.5709 28.9734 21.5541 28.9712 21.5375C28.9712 21.5375 28.7306 21.475 28.3937 21.4688C28.2232 21.4648 28.0526 21.4774 27.885 21.5063C27.5343 21.5734 27.2219 21.7531 27.005 22.0125C27.005 22.0125 27.28 22.0875 27.6719 22.0875V22.0813ZM26.0562 21.5563C26.0881 21.557 26.1197 21.5519 26.1493 21.5411C26.1788 21.5304 26.2057 21.5143 26.2281 21.4938C26.2671 21.4505 26.2931 21.3988 26.3037 21.3438C26.3312 21.2438 26.3244 21.1438 26.3244 21.1313C26.2983 21.1206 26.2704 21.1143 26.2419 21.1125H26.235C26.0975 21.1125 25.9875 21.225 25.9394 21.3313C25.9119 21.3938 25.9119 21.4438 25.9256 21.4813C25.9462 21.525 25.9944 21.55 26.0562 21.55V21.5563ZM27.2662 21.4C27.4983 21.3402 27.7204 21.2519 27.9262 21.1375C28.2287 20.9688 28.6069 20.6688 28.6481 20.2L28.5794 20.1938H28.5587C28.4694 20.1938 28.2837 20.2125 28.0569 20.3688C27.7681 20.5688 27.5069 20.9188 27.2662 21.4ZM26.4756 21.375C26.6652 21.2965 26.8412 21.1934 26.9981 21.0688C27.4005 20.7531 27.714 20.3545 27.9125 19.9063C27.9125 19.9063 27.8506 19.875 27.7544 19.8688C27.7498 19.8686 27.7452 19.8686 27.7406 19.8688H27.7131C27.5756 19.8688 27.3762 19.925 27.1562 20.1438C26.895 20.3938 26.6681 20.8063 26.4687 21.375H26.4756ZM28.5312 21.3188C28.7994 21.3188 28.8887 21.1938 28.9162 21.1313C28.9429 21.0719 28.9523 21.0074 28.9437 20.9438C28.8986 20.9347 28.8525 20.9305 28.8062 20.9313C28.7208 20.9288 28.636 20.9445 28.5584 20.977C28.4809 21.0096 28.4127 21.0581 28.3594 21.1188C28.3456 21.1438 28.3044 21.2063 28.3387 21.2625C28.3662 21.3 28.4281 21.325 28.5312 21.325V21.3188ZM29.1156 20.6438C29.3229 20.6458 29.5299 20.6312 29.7344 20.6C29.9681 20.5625 30.0987 20.3813 30.1744 20.2313C30.2431 20.075 30.2706 19.9188 30.2706 19.9188C29.5419 19.9375 29.1912 20.1313 29.0331 20.2938C28.9333 20.3872 28.8704 20.5081 28.8544 20.6375C28.8544 20.6375 28.9644 20.65 29.1156 20.65V20.6438ZM28.3594 19.9563C28.4181 19.8879 28.4732 19.817 28.5244 19.7438C28.6137 19.6188 28.6894 19.4938 28.6894 19.3938C28.6894 19.2875 28.7169 19.0813 28.7306 18.9563L28.7719 18.675C28.7512 18.675 28.3181 18.825 28.3181 19.2C28.3181 19.575 28.3594 19.95 28.3594 19.95V19.9563ZM28.9231 19.9188H28.9369C29.4085 19.7904 29.8382 19.5586 30.1881 19.2438C30.305 19.1188 30.3806 18.9188 30.4012 18.6563C30.415 18.4688 30.4012 18.3125 30.4012 18.2938C30.3766 18.2878 30.351 18.2857 30.3256 18.2875C30.2294 18.2875 30.1194 18.325 29.9819 18.4125C29.8542 18.4947 29.7346 18.5867 29.6244 18.6875C29.4044 18.8875 29.2325 19.0875 29.2325 19.0875C29.2119 19.1125 29.095 19.3188 28.9919 19.5188C28.9436 19.6106 28.9067 19.707 28.8819 19.8063C28.875 19.8438 28.8681 19.8688 28.8819 19.8938C28.8851 19.9041 28.8925 19.913 28.9025 19.9188C28.9115 19.9206 28.9209 19.9206 28.93 19.9188H28.9231Z" fill="#435125"/>
<path d="M35.6812 4.77499L35.5575 4.81874L35.5025 4.83749L35.3512 4.83124L35.2 4.89374L34.9387 5.05624L34.9319 5.06249L34.8287 5.08749L34.7394 5.04999L34.6912 5.07499L34.6706 5.16874L34.6225 5.23749L34.5606 5.27499L34.3544 5.29374L34.1825 5.38124L33.9487 5.31874L33.8456 5.36249L33.6187 5.54999L33.5019 5.59374H33.4675L33.3094 5.58749L33.2475 5.60624L33.1512 5.68749L32.9725 5.69999L32.9106 5.73749L32.8212 5.89999L32.725 5.99999L32.67 6.00624L32.615 5.98749L32.5669 5.99374L32.5462 6.09999L32.505 6.14374L32.3812 6.18124L32.285 6.25624L32.1956 6.29374H32.0581L31.9412 6.35624L31.7281 6.36874L31.6387 6.44374L31.6181 6.46249L31.5769 6.48124L31.5081 6.51874L31.4944 6.53124L31.4119 6.51874L31.3156 6.54999L31.2744 6.49999L31.2056 6.53124L31.1231 6.53749L31.0131 6.49374L30.9237 6.45624L30.8619 6.46874L30.8412 6.56249V6.57499L30.7725 6.64999L30.6556 6.71874L30.6419 6.73749L30.5044 6.89999L30.2431 7.14999L30.0231 7.24999L29.7962 7.31249L29.6381 7.43124L29.2256 7.61874L28.5587 7.91874L28.4212 7.95624L28.2287 7.98124L27.885 8.09999L27.5825 8.18124L27.5619 8.18749L27.5069 8.20624L27.0737 8.32499L26.8744 8.29999L26.7575 8.34374L26.4481 8.31249H26.235L26.0975 8.33749L25.8431 8.44999L25.41 8.63749L25.2725 8.76249L25.0525 8.86249L24.7912 8.93749V8.83749L24.7019 8.86249L24.6331 8.88124L24.4269 8.90624H24.31L24.2344 8.88749H24.2206L23.7944 9.01874L23.3131 9.06249L23.0725 9.13124H22.8937L22.7837 9.16249L22.5637 9.18749L22.4812 9.16874L22.4675 9.16249L21.8212 9.18749L21.5256 9.15624L21.3881 9.18749L21.1475 9.11249L20.8037 9.07499L20.7212 9.05624L20.5425 9.00624L20.46 9.04999L20.3912 9.05624L20.2537 9.00624H20.1987L20.075 9.04374L20.0062 9.03124L19.9375 8.98124L19.7931 8.96249L19.6969 8.89374L19.1812 8.95624L19.0437 8.91874L18.5694 8.79374H18.5006L18.4044 8.85624L18.2669 8.90624L18.1362 8.93124L17.9712 8.93749L17.7787 8.89374L17.5862 8.80624L17.5106 8.78749L17.3456 8.80624H17.2975L16.995 8.66249L16.61 8.44374L16.3487 8.32499L16.2456 8.31249L16.2319 8.35624L16.28 8.49374L16.3006 8.63749V8.76249L16.2937 8.84374L16.3144 8.91249L16.4106 9.01249L16.4519 9.10624L16.4794 9.36874V9.63749L16.4312 10.0625L16.4175 10.125L16.3625 10.35L16.3144 10.5562L16.115 11.1L16.0669 11.1625L15.9294 11.2437L15.6337 11.4312L15.4137 11.5437L15.345 11.5687L15.1662 11.5812H15.0562L14.9187 11.5125L14.7812 11.4812L14.6025 11.3625L14.41 11.325L14.19 11.2125L14.135 11.15L14.0181 11.1375L13.8531 11.0937L13.7912 11.075L13.75 11.0687L13.5437 11.0625L13.3444 10.9812L13.2412 10.9562H13.1037L12.9594 11.0187L12.8837 11.0437L12.7875 11.0125H12.7187L12.65 11.1187L12.6362 11.1375L12.5812 11.1625H12.4644L12.4094 11.1812L12.3337 11.2125L12.265 11.2375L12.2306 11.25H12.21L12.1756 11.2625H12.1344L12.0519 11.225L12.0106 11.2062L11.9419 11.1937L11.9075 11.2125L11.9006 11.3312L11.8662 11.4L11.7562 11.4875L11.6462 11.575L11.5775 11.675L11.3712 12.0937L11.2406 12.2625L11.2062 12.3062L11.0687 12.4375L10.9519 12.5187L10.6837 12.7062L10.4294 12.8L10.2094 12.8375H10.0994L9.89312 12.8125L9.71437 12.7625L9.50812 12.65L9.29499 12.4875L8.97187 12.2062L8.93062 12.1812L8.91687 12.175L8.82062 12.1125H8.74499L8.71749 12.1625L8.69687 12.225L8.68312 12.2812L8.64874 12.5937V12.6125L8.66937 12.7437L8.91687 13.0562L8.98562 13.2187L8.99937 13.2375L9.04749 13.3125L9.08874 13.375L9.17812 13.6L9.11624 13.725L9.14374 13.8125L9.07499 13.8625L9.06124 13.9375L9.27437 14.1875L9.32249 14.2937L9.27437 14.4437L9.18499 14.5312L9.16437 14.55L9.17812 14.6125L9.27437 14.7L9.44624 14.8375L9.53562 15.0375L9.60437 15.1L9.68687 15.0812L9.72812 15.1125H9.79687L9.86562 15.175L9.90687 15.1875L9.97562 15.2187L10.0306 15.2812L10.0375 15.4812L10.1406 15.7187V15.875L10.2094 15.9687L10.2231 16.0437L10.1887 16.25L10.2712 16.3125L10.3537 16.3L10.4087 16.3062L10.4981 16.375L10.6081 16.525L10.7181 16.5125L10.7869 16.5375L11.11 16.8062L11.1787 16.8437L11.2406 16.8687L11.3094 16.9312L11.4056 16.8687H11.4194L11.5294 16.8562L11.5775 16.8875L11.6737 16.9437H11.7906L12.0656 17.0187L12.1756 17.0437L12.4094 17.175L12.5125 17.2312L12.5675 17.275L12.65 17.3375L12.8012 17.4L12.9387 17.425L13.0075 17.4375L13.0694 17.4562L13.3581 17.5625L13.5162 17.5937L13.6537 17.6437L13.7637 17.675H13.8462L13.9562 17.5937H14.0594L14.1487 17.6062L14.2381 17.5937L14.3756 17.5187L14.3962 17.4812L14.4925 17.4437L14.8225 17.4062L14.9187 17.4312L15.1662 17.3375L15.3312 17.375L15.4687 17.3312L15.7919 17.3937L15.8744 17.45L15.9706 17.5437H16.0875L16.0394 17.6125L16.1769 17.75L16.3075 17.9187L16.3144 17.9437L16.4037 18.1875L16.4725 18.275L16.5206 18.3937V18.4687L16.4519 18.525L16.4381 18.55V18.5625L16.4519 18.5937L16.4794 18.5812L16.5275 18.5562L16.5962 18.5437L16.7062 18.5562L16.7819 18.5625L16.8987 18.5125L16.9812 18.475L17.105 18.525H17.2425L17.3044 18.5437L17.4694 18.6125L17.5519 18.6187L17.5794 18.6L17.6 18.5625L17.5931 18.5125L17.5244 18.4437L17.3869 18.2937L17.3319 18.2187L17.2906 18.1125L17.2769 17.975L17.2631 17.8812L17.2837 17.7562L17.3181 17.7125L17.3456 17.6125L17.3525 17.5875L17.435 17.4937L17.6412 17.3687L17.8612 17.1937L18.0331 17.0875L18.2119 17.0187V17L18.2394 17.0062L18.6931 16.8625L18.8994 16.8312L20.2744 16.9187L20.3225 16.9062L20.3706 16.7875L20.3912 16.7687L20.4119 16.7562L20.5631 16.6937L20.6319 16.6812L20.8244 16.725L20.9069 16.7437L21.0375 16.6812H21.1269L21.3125 16.5875H21.4294L21.4775 16.575L21.7044 16.425L21.9175 16.3687L21.9725 16.3437L21.9931 16.3312L22.22 16.225L22.3575 16.125L22.4812 16.0625L22.6187 16.0375L22.9625 16.0125L23.0381 15.9062L23.1894 15.8875L23.2787 15.7937L23.3819 15.7562L23.4575 15.6562L23.5262 15.575L23.6087 15.5312L23.8906 15.5125L24.2206 15.55L24.2687 15.525L24.3375 15.2812L24.42 15.2375L24.6262 14.9562V14.8562L24.6331 14.7687L24.6675 14.6437L24.6469 14.4312L24.6744 14.2062L24.805 13.925L24.9219 13.8125L25.1075 13.6937L25.2037 13.6562L25.3412 13.6375H25.355L25.3894 13.625H26.0219L26.18 13.6187L26.5719 13.6812H26.5994L26.73 13.725L26.8812 13.8312L27.0462 13.975L27.0737 14L27.1769 14.0437L27.2112 14.0562L27.2937 14.0437L27.4175 13.9812L27.5137 13.9187L27.6375 13.8562V13.8437L27.7131 13.75L27.7406 13.7062L27.9881 13.6187L28.2769 13.6062L28.3112 13.5875H28.325L28.4006 13.5H28.4694L28.6481 13.5625L28.765 13.5375L28.8612 13.5687L28.9369 13.5625L29.0744 13.5437L29.2325 13.6437L29.3219 13.6562L29.6312 13.8187H29.6587L29.6725 13.825L29.7069 13.8125L29.7619 13.8H29.7687L29.7756 13.8062L29.8169 13.85L29.865 13.8562L29.92 13.7937L29.8994 13.7562L29.8925 13.7437L29.7756 13.725L29.6794 13.5687L29.7756 13.475L29.6244 13.3125L29.5969 13.2812V13.275L29.5419 13.2L29.2806 12.8375L28.9369 12.5875L28.82 12.5062L28.7787 12.475L28.5931 12.3062L28.4625 12.15L28.4487 12.1187L28.4212 12.0625L28.3456 11.9125L28.2081 11.8187L28.0981 11.7062L27.8644 11.4187L27.83 11.375L27.775 11.3437H27.6581L27.6512 11.3312H27.6444V11.325L27.6994 11.275L27.7681 11.2625L27.7887 11.2062L27.6719 10.9V10.8875L27.665 10.7937L27.7544 10.35L27.7681 10.2937L27.9331 9.99999L28.0294 9.92499L28.1394 9.73124L28.2356 9.60624L28.325 9.52499L28.3387 9.51874L28.4969 9.43124L28.6344 9.41249L28.765 9.39374L28.9919 9.45624H29.1981L29.2462 9.44999L29.3425 9.43749L29.5006 9.39374L29.5762 9.34999L29.6175 9.29999L29.7 9.04999L29.7275 8.96874L29.7756 8.88124L30.0712 8.57499L30.2912 8.38749L30.7862 8.06249L31.0269 7.93124L31.1506 7.86249L32.2575 7.41249L32.5462 7.14999L32.6975 7.01249L32.9587 6.84999L33.2681 6.73124L33.5431 6.54374L33.5981 6.47499L33.6669 6.25624L33.7356 6.24374L33.7837 6.13749L33.8044 6.10624L34.0175 5.96874L34.045 5.95624L34.8906 5.56874L35.0144 5.58749L35.0831 5.49374L35.3237 5.45624H35.3719L35.4337 5.42499L35.4819 5.34374V5.32499L35.4887 5.11249L35.5437 5.05624L35.5712 4.91874L35.5987 4.88124L35.6262 4.84999L35.695 4.80624L35.6812 4.78124V4.77499Z" fill="#D47600"/>
</g>
<defs>
<clipPath id="clip0_1_40">
<rect width="44" height="30" fill="white"/>
</clipPath>
</defs>
</svg>
