<svg width="44" height="30" viewBox="0 0 44 30" fill="none" xmlns="http://www.w3.org/2000/svg">
<g clip-path="url(#clip0_1_63)">
<path d="M0 0H44V30H0V0Z" fill="#012169"/>
<path d="M5.15625 0L21.9312 11.3125L38.6375 0H44V3.875L27.5 15.0625L44 26.1875V30H38.5L22 18.8125L5.56875 30H0V26.25L16.4312 15.125L0 4V0H5.15625Z" fill="white"/>
<path d="M29.15 17.5625L44 27.5V30L25.3687 17.5625H29.15ZM16.5 18.8125L16.9125 21L3.7125 30H0L16.5 18.8125ZM44 0V0.1875L26.8813 11.9375L27.0188 9.1875L40.5625 0H44ZM0 0L16.4312 11H12.3063L0 2.625V0Z" fill="#C8102E"/>
<path d="M16.5688 0V30H27.5688V0H16.5688ZM0 10V20H44V10H0Z" fill="white"/>
<path d="M0 12.0625V18.0625H44V12.0625H0ZM18.7688 0V30H25.3687V0H18.7688Z" fill="#C8102E"/>
</g>
<defs>
<clipPath id="clip0_1_63">
<rect width="44" height="30" fill="white"/>
</clipPath>
</defs>
</svg>
