<svg width="44" height="30" viewBox="0 0 44 30" fill="none" xmlns="http://www.w3.org/2000/svg">
<g clip-path="url(#clip0_1_3504)">
<path d="M0 0H44V30H0V0Z" fill="#EE1C25"/>
<path d="M0 0H44V20H0V0Z" fill="#0B4EA2"/>
<path d="M0 0H44V10H0V0Z" fill="white"/>
<path d="M16.0188 23.175C13.0625 21.8812 8.82751 19.3062 8.82751 14.225C8.82751 9.1375 9.10251 6.825 9.10251 6.825H22.9419C22.9419 6.825 23.21 9.1375 23.21 14.225C23.21 19.3125 18.975 21.875 16.0188 23.175Z" fill="white"/>
<path d="M16.0188 22.5C13.3031 21.3125 9.41876 18.95 9.41876 14.2875C9.41876 9.625 9.66626 7.5 9.66626 7.5H22.3713C22.3713 7.5 22.6119 9.625 22.6119 14.2875C22.6188 18.9563 18.7344 21.3125 16.0188 22.5Z" fill="#EE1C25"/>
<path d="M16.5963 13.0625C17.3319 13.075 18.7688 13.1 20.0406 12.7125C20.0406 12.7125 20.0131 13.1312 20.0131 13.6125C20.0131 14.0937 20.0475 14.5125 20.0475 14.5125C18.8788 14.1562 17.4281 14.15 16.5963 14.1562V16.7312H15.4413V14.1562C14.6163 14.15 13.1656 14.1562 11.9969 14.5125C11.9969 14.5125 12.0313 14.0937 12.0313 13.6125C12.0313 13.125 11.9969 12.7125 11.9969 12.7125C13.2688 13.1 14.7056 13.075 15.4344 13.0625V11.4437C14.7675 11.4437 13.805 11.4687 12.7119 11.8C12.7119 11.8 12.7463 11.3875 12.7463 10.9C12.7463 10.4187 12.7119 10 12.7119 10C13.805 10.3312 14.7675 10.3625 15.4344 10.3562C15.4 9.33125 15.07 8.04375 15.07 8.04375C15.07 8.04375 15.7506 8.0875 16.0188 8.0875C16.2938 8.0875 16.9675 8.04375 16.9675 8.04375C16.9675 8.04375 16.6375 9.33125 16.6031 10.3562C17.27 10.3625 18.2325 10.3312 19.3256 10C19.3256 10 19.2913 10.4187 19.2913 10.9C19.2913 11.3875 19.3256 11.8 19.3256 11.8C18.4446 11.5417 17.5217 11.4213 16.5963 11.4437V13.0687V13.0625Z" fill="white"/>
<path d="M16.0187 16.4563C14.6506 16.4563 13.9219 18.175 13.9219 18.175C13.9219 18.175 13.5094 17.3625 12.3956 17.3625C11.6394 17.3625 11.0894 17.9688 10.7319 18.5375C12.1069 20.5188 14.3 21.7438 16.0187 22.5C17.7375 21.75 19.9375 20.5188 21.3056 18.5375C20.9481 17.975 20.3981 17.3625 19.6419 17.3625C18.5281 17.3625 18.1156 18.175 18.1156 18.175C18.1156 18.175 17.3937 16.4563 16.0187 16.4563Z" fill="#0B4EA2"/>
</g>
<defs>
<clipPath id="clip0_1_3504">
<rect width="44" height="30" fill="white"/>
</clipPath>
</defs>
</svg>
