<svg width="44" height="30" viewBox="0 0 44 30" fill="none" xmlns="http://www.w3.org/2000/svg">
<g clip-path="url(#clip0_1_2211)">
<path d="M0 20H44V30H0V20Z" fill="#1EB53A"/>
<path d="M0 0H44V10H0V0Z" fill="#0099B5"/>
<path d="M0 9.60001H44V20.4H0V9.60001Z" fill="#CE1126"/>
<path d="M0 10.2H44V19.8H0V10.2Z" fill="white"/>
<path d="M9.24 8.40001C11.427 8.40001 13.2 6.78824 13.2 4.80001C13.2 2.81179 11.427 1.20001 9.24 1.20001C7.05295 1.20001 5.28 2.81179 5.28 4.80001C5.28 6.78824 7.05295 8.40001 9.24 8.40001Z" fill="white"/>
<path d="M10.56 8.40001C12.7471 8.40001 14.52 6.78824 14.52 4.80001C14.52 2.81179 12.7471 1.20001 10.56 1.20001C8.37296 1.20001 6.60001 2.81179 6.60001 4.80001C6.60001 6.78824 8.37296 8.40001 10.56 8.40001Z" fill="#0099B5"/>
<path d="M17.9506 6.96127L17.6998 7.64527L18.0826 7.76527" fill="white"/>
<path d="M17.9506 6.96127L18.2014 7.64527L17.8186 7.76527" fill="white"/>
<path d="M18.701 7.4659L17.9095 7.44407L17.9117 7.82136" fill="white"/>
<path d="M18.6984 7.46253L18.0727 7.88862L17.8219 7.58224" fill="white"/>
<path d="M17.2028 7.46253L17.8285 7.88862L18.0793 7.58224" fill="white"/>
<path d="M17.2002 7.4659L17.9917 7.44407L17.9895 7.82136" fill="white"/>
<path d="M18.42 8.2654L18.1717 7.57709L17.7895 7.67911" fill="white"/>
<path d="M18.4182 8.26686L17.7719 7.84037L17.9972 7.54277" fill="white"/>
<path d="M17.4868 8.26121L18.131 7.8477L17.8932 7.54277" fill="white"/>
<path d="M17.4883 8.26241L17.7202 7.57579L18.1117 7.68772" fill="white"/>
<path d="M17.9506 4.08127L17.6998 4.76527L18.0826 4.88527" fill="white"/>
<path d="M17.9506 4.08127L18.2014 4.76527L17.8186 4.88527" fill="white"/>
<path d="M18.701 4.5859L17.9095 4.56406L17.9117 4.94136" fill="white"/>
<path d="M18.6984 4.58253L18.0727 5.00861L17.8219 4.70224" fill="white"/>
<path d="M17.2028 4.58253L17.8285 5.00861L18.0793 4.70224" fill="white"/>
<path d="M17.2002 4.5859L17.9917 4.56406L17.9895 4.94136" fill="white"/>
<path d="M18.42 5.3854L18.1717 4.69709L17.7895 4.79911" fill="white"/>
<path d="M18.4182 5.38685L17.7719 4.96036L17.9972 4.66276" fill="white"/>
<path d="M17.4868 5.3812L18.131 4.9677L17.8932 4.66276" fill="white"/>
<path d="M17.4883 5.38241L17.7202 4.69579L18.1117 4.80772" fill="white"/>
<path d="M17.9506 1.20126L17.6998 1.88526L18.0826 2.00526" fill="white"/>
<path d="M17.9506 1.20126L18.2014 1.88526L17.8186 2.00526" fill="white"/>
<path d="M18.701 1.70589L17.9095 1.68406L17.9117 2.06135" fill="white"/>
<path d="M18.6984 1.70252L18.0727 2.12861L17.8219 1.82223" fill="white"/>
<path d="M17.2028 1.70252L17.8285 2.12861L18.0793 1.82223" fill="white"/>
<path d="M17.2002 1.70589L17.9917 1.68406L17.9895 2.06135" fill="white"/>
<path d="M18.42 2.50539L18.1717 1.81708L17.7895 1.9191" fill="white"/>
<path d="M18.4182 2.50685L17.7719 2.08036L17.9972 1.78276" fill="white"/>
<path d="M17.4868 2.5012L18.131 2.08769L17.8932 1.78276" fill="white"/>
<path d="M17.4883 2.50241L17.7202 1.81578L18.1117 1.92771" fill="white"/>
<path d="M21.1186 6.96127L20.8678 7.64527L21.2506 7.76527" fill="white"/>
<path d="M21.1186 6.96127L21.3694 7.64527L20.9866 7.76527" fill="white"/>
<path d="M21.869 7.4659L21.0775 7.44407L21.0797 7.82136" fill="white"/>
<path d="M21.8664 7.46253L21.2407 7.88862L20.9899 7.58224" fill="white"/>
<path d="M20.3708 7.46253L20.9965 7.88862L21.2473 7.58224" fill="white"/>
<path d="M20.3682 7.4659L21.1597 7.44407L21.1575 7.82136" fill="white"/>
<path d="M21.588 8.2654L21.3397 7.57709L20.9575 7.67911" fill="white"/>
<path d="M21.5862 8.26686L20.9399 7.84037L21.1652 7.54277" fill="white"/>
<path d="M20.6548 8.26121L21.299 7.8477L21.0612 7.54277" fill="white"/>
<path d="M20.6563 8.26241L20.8882 7.57579L21.2797 7.68772" fill="white"/>
<path d="M21.1186 4.08127L20.8678 4.76527L21.2506 4.88527" fill="white"/>
<path d="M21.1186 4.08127L21.3694 4.76527L20.9866 4.88527" fill="white"/>
<path d="M21.869 4.5859L21.0775 4.56406L21.0797 4.94136" fill="white"/>
<path d="M21.8664 4.58253L21.2407 5.00861L20.9899 4.70224" fill="white"/>
<path d="M20.3708 4.58253L20.9965 5.00861L21.2473 4.70224" fill="white"/>
<path d="M20.3682 4.5859L21.1597 4.56406L21.1575 4.94136" fill="white"/>
<path d="M21.588 5.3854L21.3397 4.69709L20.9575 4.79911" fill="white"/>
<path d="M21.5862 5.38685L20.9399 4.96036L21.1652 4.66276" fill="white"/>
<path d="M20.6548 5.3812L21.299 4.9677L21.0612 4.66276" fill="white"/>
<path d="M20.6563 5.38241L20.8882 4.69579L21.2797 4.80772" fill="white"/>
<path d="M21.1186 1.20126L20.8678 1.88526L21.2506 2.00526" fill="white"/>
<path d="M21.1186 1.20126L21.3694 1.88526L20.9866 2.00526" fill="white"/>
<path d="M21.869 1.70589L21.0775 1.68406L21.0797 2.06135" fill="white"/>
<path d="M21.8664 1.70252L21.2407 2.12861L20.9899 1.82223" fill="white"/>
<path d="M20.3708 1.70252L20.9965 2.12861L21.2473 1.82223" fill="white"/>
<path d="M20.3682 1.70589L21.1597 1.68406L21.1575 2.06135" fill="white"/>
<path d="M21.588 2.50539L21.3397 1.81708L20.9575 1.9191" fill="white"/>
<path d="M21.5862 2.50685L20.9399 2.08036L21.1652 1.78276" fill="white"/>
<path d="M20.6548 2.5012L21.299 2.08769L21.0612 1.78276" fill="white"/>
<path d="M20.6563 2.50241L20.8882 1.81578L21.2797 1.92771" fill="white"/>
<path d="M24.2866 6.96127L24.0358 7.64527L24.4186 7.76527" fill="white"/>
<path d="M24.2866 6.96127L24.5374 7.64527L24.1546 7.76527" fill="white"/>
<path d="M25.037 7.4659L24.2455 7.44407L24.2477 7.82136" fill="white"/>
<path d="M25.0344 7.46253L24.4087 7.88862L24.1579 7.58224" fill="white"/>
<path d="M23.5388 7.46253L24.1645 7.88862L24.4153 7.58224" fill="white"/>
<path d="M23.5362 7.4659L24.3277 7.44407L24.3255 7.82136" fill="white"/>
<path d="M24.756 8.2654L24.5077 7.57709L24.1255 7.67911" fill="white"/>
<path d="M24.7542 8.26686L24.1079 7.84037L24.3332 7.54277" fill="white"/>
<path d="M23.8228 8.26121L24.467 7.8477L24.2292 7.54277" fill="white"/>
<path d="M23.8243 8.26241L24.0562 7.57579L24.4477 7.68772" fill="white"/>
<path d="M24.2866 4.08127L24.0358 4.76527L24.4186 4.88527" fill="white"/>
<path d="M24.2866 4.08127L24.5374 4.76527L24.1546 4.88527" fill="white"/>
<path d="M25.037 4.5859L24.2455 4.56406L24.2477 4.94136" fill="white"/>
<path d="M25.0344 4.58253L24.4087 5.00861L24.1579 4.70224" fill="white"/>
<path d="M23.5388 4.58253L24.1645 5.00861L24.4153 4.70224" fill="white"/>
<path d="M23.5362 4.5859L24.3277 4.56406L24.3255 4.94136" fill="white"/>
<path d="M24.756 5.3854L24.5077 4.69709L24.1255 4.79911" fill="white"/>
<path d="M24.7542 5.38685L24.1079 4.96036L24.3332 4.66276" fill="white"/>
<path d="M23.8228 5.3812L24.467 4.9677L24.2292 4.66276" fill="white"/>
<path d="M23.8243 5.38241L24.0562 4.69579L24.4477 4.80772" fill="white"/>
<path d="M24.2866 1.20126L24.0358 1.88526L24.4186 2.00526" fill="white"/>
<path d="M24.2866 1.20126L24.5374 1.88526L24.1546 2.00526" fill="white"/>
<path d="M25.037 1.70589L24.2456 1.68406L24.2478 2.06135" fill="white"/>
<path d="M25.0345 1.70252L24.4088 2.12861L24.1579 1.82223" fill="white"/>
<path d="M23.5388 1.70252L24.1645 2.12861L24.4153 1.82223" fill="white"/>
<path d="M23.5362 1.70589L24.3277 1.68406L24.3255 2.06135" fill="white"/>
<path d="M24.756 2.50539L24.5077 1.81708L24.1255 1.9191" fill="white"/>
<path d="M24.7542 2.50685L24.1079 2.08036L24.3332 1.78276" fill="white"/>
<path d="M23.8228 2.5012L24.467 2.08769L24.2292 1.78276" fill="white"/>
<path d="M23.8243 2.50241L24.0562 1.81578L24.4477 1.92771" fill="white"/>
<path d="M11.6146 6.96127L11.3638 7.64527L11.7466 7.76527" fill="white"/>
<path d="M11.6146 6.96127L11.8654 7.64527L11.4826 7.76527" fill="white"/>
<path d="M12.365 7.4659L11.5735 7.44407L11.5757 7.82136" fill="white"/>
<path d="M12.3624 7.46253L11.7367 7.88862L11.4859 7.58224" fill="white"/>
<path d="M10.8668 7.46253L11.4925 7.88862L11.7433 7.58224" fill="white"/>
<path d="M10.8642 7.4659L11.6557 7.44407L11.6535 7.82136" fill="white"/>
<path d="M12.084 8.2654L11.8357 7.57709L11.4535 7.67911" fill="white"/>
<path d="M12.0822 8.26686L11.4359 7.84037L11.6612 7.54277" fill="white"/>
<path d="M11.1508 8.26121L11.795 7.8477L11.5572 7.54277" fill="white"/>
<path d="M11.1523 8.26241L11.3842 7.57579L11.7757 7.68772" fill="white"/>
<path d="M14.7826 6.96127L14.5318 7.64527L14.9146 7.76527" fill="white"/>
<path d="M14.7826 6.96127L15.0334 7.64527L14.6506 7.76527" fill="white"/>
<path d="M15.533 7.4659L14.7415 7.44407L14.7437 7.82136" fill="white"/>
<path d="M15.5304 7.46253L14.9047 7.88862L14.6539 7.58224" fill="white"/>
<path d="M14.0348 7.46253L14.6605 7.88862L14.9113 7.58224" fill="white"/>
<path d="M14.0322 7.4659L14.8237 7.44407L14.8215 7.82136" fill="white"/>
<path d="M15.252 8.2654L15.0037 7.57709L14.6215 7.67911" fill="white"/>
<path d="M15.2502 8.26686L14.6039 7.84037L14.8292 7.54277" fill="white"/>
<path d="M14.3188 8.26121L14.963 7.8477L14.7252 7.54277" fill="white"/>
<path d="M14.3203 8.26241L14.5522 7.57579L14.9437 7.68772" fill="white"/>
<path d="M14.7826 4.08127L14.5318 4.76527L14.9146 4.88527" fill="white"/>
<path d="M14.7826 4.08127L15.0334 4.76527L14.6506 4.88527" fill="white"/>
<path d="M15.533 4.5859L14.7415 4.56406L14.7437 4.94136" fill="white"/>
<path d="M15.5304 4.58253L14.9047 5.00861L14.6539 4.70224" fill="white"/>
<path d="M14.0348 4.58253L14.6605 5.00861L14.9113 4.70224" fill="white"/>
<path d="M14.0322 4.5859L14.8237 4.56406L14.8215 4.94136" fill="white"/>
<path d="M15.252 5.3854L15.0037 4.69709L14.6215 4.79911" fill="white"/>
<path d="M15.2502 5.38685L14.6039 4.96036L14.8292 4.66276" fill="white"/>
<path d="M14.3188 5.3812L14.963 4.9677L14.7252 4.66276" fill="white"/>
<path d="M14.3203 5.38241L14.5522 4.69579L14.9437 4.80772" fill="white"/>
</g>
<defs>
<clipPath id="clip0_1_2211">
<rect width="44" height="30" fill="white"/>
</clipPath>
</defs>
</svg>
